M48
; DRILL file {KiCad 9.0.1} date 2025-10-05T16:26:51+0200
; FORMAT={-:-/ absolute / metric / decimal}
; #@! TF.CreationDate,2025-10-05T16:26:51+02:00
; #@! TF.GenerationSoftware,Kicad,Pcbnew,9.0.1
; #@! TF.FileFunction,Plated,1,2,PTH
FMAT,2
METRIC
; #@! TA.AperFunction,Plated,PTH,ComponentDrill
T1C0.200
; #@! TA.AperFunction,Plated,PTH,ViaDrill
T2C0.400
; #@! TA.AperFunction,Plated,PTH,ComponentDrill
T3C0.760
; #@! TA.AperFunction,Plated,PTH,ComponentDrill
T4C0.800
; #@! TA.AperFunction,Plated,PTH,ComponentDrill
T5C0.889
; #@! TA.AperFunction,Plated,PTH,ComponentDrill
T6C0.900
; #@! TA.AperFunction,Plated,PTH,ComponentDrill
T7C0.990
; #@! TA.AperFunction,Plated,PTH,ComponentDrill
T8C1.020
; #@! TA.AperFunction,Plated,PTH,ComponentDrill
T9C1.300
; #@! TA.AperFunction,Plated,PTH,ComponentDrill
T10C1.397
; #@! TA.AperFunction,Plated,PTH,ComponentDrill
T11C3.000
%
G90
G05
T1
X71.85Y-89.612
X71.85Y-91.138
X72.612Y-88.85
X72.612Y-90.375
X72.612Y-91.9
X73.375Y-89.612
X73.375Y-91.138
X74.138Y-88.85
X74.138Y-90.375
X74.138Y-91.9
X74.9Y-89.612
X74.9Y-91.138
T2
X35.0Y-87.5
X42.2Y-131.6
X48.2Y-131.6
X50.0Y-125.0
X51.0Y-121.0
X54.6Y-124.5
X55.656Y-121.76
X56.5Y-124.7
X56.6Y-121.7
X56.7Y-123.075
X58.45Y-130.834
X59.5Y-98.1
X59.53Y-131.727
X60.7Y-82.8
X61.0Y-84.2
X61.5Y-127.0
X62.1Y-92.225
X63.425Y-102.2
X63.6Y-90.8
X63.8Y-89.4
X64.0Y-88.2
X64.5Y-120.5
X66.5Y-84.4
X66.906Y-90.9
X67.0Y-125.5
X67.2Y-89.4
X68.5Y-99.5
X69.4Y-104.4
X70.2Y-129.25
X70.6Y-103.4
X71.6Y-108.5
X72.067Y-107.731
X72.1Y-102.8
X74.063Y-102.463
X77.4Y-102.9
X80.1Y-85.6
X80.7Y-82.9
X80.8Y-100.7
X80.942Y-95.09
X81.2Y-93.6
X81.4Y-129.4
X82.3Y-101.3
X84.4Y-99.2
X84.8Y-89.1
X84.973Y-90.3
X85.1Y-86.7
X85.4Y-85.5
X85.6Y-87.97
X85.9Y-100.8
X87.0Y-90.1
X87.3Y-92.3
X89.1Y-89.1
X91.8Y-98.4
X91.9Y-94.7
X92.9Y-85.5
X106.9Y-89.5
X113.0Y-123.8
T3
X86.62Y-96.5
X89.16Y-96.5
X91.7Y-96.5
X101.02Y-134.7
X103.56Y-134.7
X106.1Y-134.7
T4
X73.2Y-110.0
X75.74Y-110.0
X78.28Y-110.0
X80.82Y-110.0
T5
X35.19Y-102.441
X35.19Y-104.981
X35.19Y-107.521
X42.81Y-115.141
X45.35Y-115.141
X47.89Y-115.141
X97.2Y-102.46
X97.2Y-105.0
X97.2Y-107.54
X104.82Y-115.16
X107.36Y-115.16
X109.9Y-115.16
T6
X42.175Y-92.281
X42.175Y-97.361
X48.525Y-92.281
X48.525Y-97.361
X104.185Y-92.3
X104.185Y-97.38
X110.535Y-92.3
X110.535Y-97.38
T7
X40.525Y-84.112
X45.025Y-84.112
X109.725Y-82.962
X114.225Y-82.962
T8
X78.0Y-139.96
X81.0Y-139.96
T9
X39.275Y-86.602
X46.285Y-86.602
X108.475Y-85.453
X115.485Y-85.453
T10
X37.73Y-98.314
X37.73Y-111.649
X52.97Y-98.314
X52.97Y-111.649
X99.74Y-98.332
X99.74Y-111.667
X114.98Y-98.332
X114.98Y-111.667
T11
X61.74Y-111.54
X61.74Y-139.5
X92.2Y-111.54
X92.2Y-139.5
M30
