%TF.GenerationSoftware,KiCad,Pcbnew,9.0.1*%
%TF.CreationDate,2025-10-05T16:26:19+02:00*%
%TF.ProjectId,RcSender,52635365-6e64-4657-922e-6b696361645f,rev?*%
%TF.SameCoordinates,Original*%
%TF.FileFunction,Copper,L2,Bot*%
%TF.FilePolarity,Positive*%
%FSLAX46Y46*%
G04 Gerber Fmt 4.6, Leading zero omitted, Abs format (unit mm)*
G04 Created by KiCad (PCBNEW 9.0.1) date 2025-10-05 16:26:19*
%MOMM*%
%LPD*%
G01*
G04 APERTURE LIST*
G04 Aperture macros list*
%AMRoundRect*
0 Rectangle with rounded corners*
0 $1 Rounding radius*
0 $2 $3 $4 $5 $6 $7 $8 $9 X,Y pos of 4 corners*
0 Add a 4 corners polygon primitive as box body*
4,1,4,$2,$3,$4,$5,$6,$7,$8,$9,$2,$3,0*
0 Add four circle primitives for the rounded corners*
1,1,$1+$1,$2,$3*
1,1,$1+$1,$4,$5*
1,1,$1+$1,$6,$7*
1,1,$1+$1,$8,$9*
0 Add four rect primitives between the rounded corners*
20,1,$1+$1,$2,$3,$4,$5,0*
20,1,$1+$1,$4,$5,$6,$7,0*
20,1,$1+$1,$6,$7,$8,$9,0*
20,1,$1+$1,$8,$9,$2,$3,0*%
G04 Aperture macros list end*
%TA.AperFunction,ComponentPad*%
%ADD10R,1.268000X1.268000*%
%TD*%
%TA.AperFunction,ComponentPad*%
%ADD11C,1.268000*%
%TD*%
%TA.AperFunction,ComponentPad*%
%ADD12C,1.700000*%
%TD*%
%TA.AperFunction,ComponentPad*%
%ADD13C,4.000000*%
%TD*%
%TA.AperFunction,HeatsinkPad*%
%ADD14C,0.600000*%
%TD*%
%TA.AperFunction,ComponentPad*%
%ADD15C,2.100000*%
%TD*%
%TA.AperFunction,ComponentPad*%
%ADD16C,1.750000*%
%TD*%
%TA.AperFunction,ComponentPad*%
%ADD17RoundRect,0.250001X-0.499999X-0.759999X0.499999X-0.759999X0.499999X0.759999X-0.499999X0.759999X0*%
%TD*%
%TA.AperFunction,ComponentPad*%
%ADD18O,1.500000X2.020000*%
%TD*%
%TA.AperFunction,ComponentPad*%
%ADD19C,1.778000*%
%TD*%
%TA.AperFunction,ComponentPad*%
%ADD20C,2.286000*%
%TD*%
%TA.AperFunction,ViaPad*%
%ADD21C,0.800000*%
%TD*%
%TA.AperFunction,Conductor*%
%ADD22C,0.250000*%
%TD*%
%TA.AperFunction,Conductor*%
%ADD23C,0.254000*%
%TD*%
G04 APERTURE END LIST*
D10*
%TO.P,POT1,1*%
%TO.N,+3.3V*%
X101020000Y-134700000D03*
D11*
%TO.P,POT1,2*%
%TO.N,IO36*%
X103560000Y-134700000D03*
%TO.P,POT1,3*%
%TO.N,GND*%
X106100000Y-134700000D03*
%TD*%
D12*
%TO.P,U8,1,VCC*%
%TO.N,+3V3*%
X73200000Y-110000000D03*
%TO.P,U8,2,GND*%
%TO.N,GNDD*%
X75740000Y-110000000D03*
%TO.P,U8,3,SCL*%
%TO.N,SCL*%
X78280000Y-110000000D03*
%TO.P,U8,4,SDA*%
%TO.N,SDA*%
X80820000Y-110000000D03*
D13*
%TO.P,U8,A*%
%TO.N,N/C*%
X61740000Y-111540000D03*
X61740000Y-139500000D03*
X92200000Y-111540000D03*
X92200000Y-139500000D03*
%TD*%
D14*
%TO.P,U4,39,GND*%
%TO.N,GND*%
X71850000Y-89612500D03*
X71850000Y-91137500D03*
X72612500Y-88850000D03*
X72612500Y-90375000D03*
X72612500Y-91900000D03*
X73375000Y-89612500D03*
X73375000Y-91137500D03*
X74137500Y-88850000D03*
X74137500Y-90375000D03*
X74137500Y-91900000D03*
X74900000Y-89612500D03*
X74900000Y-91137500D03*
%TD*%
D15*
%TO.P,SW1,*%
%TO.N,*%
X39275000Y-86602500D03*
X46285000Y-86602500D03*
D16*
%TO.P,SW1,1,1*%
%TO.N,IO15*%
X40525000Y-84112500D03*
%TO.P,SW1,2,2*%
%TO.N,GND*%
X45025000Y-84112500D03*
%TD*%
D17*
%TO.P,J2,1,Pin_1*%
%TO.N,GND*%
X78000000Y-139960000D03*
D18*
%TO.P,J2,2,Pin_2*%
%TO.N,VIN*%
X81000000Y-139960000D03*
%TD*%
D19*
%TO.P,U5,B1A,SEL+*%
%TO.N,IO14*%
X42175000Y-92281281D03*
%TO.P,U5,B1B*%
%TO.N,N/C*%
X48525000Y-92281281D03*
%TO.P,U5,B2A,SEL-*%
%TO.N,GND*%
X42175000Y-97361281D03*
%TO.P,U5,B2B*%
%TO.N,N/C*%
X48525000Y-97361281D03*
%TO.P,U5,H1,H+*%
%TO.N,+3.3V*%
X42810000Y-115141281D03*
%TO.P,U5,H2,H*%
%TO.N,IO33*%
X45350000Y-115141281D03*
%TO.P,U5,H3,H-*%
%TO.N,GND*%
X47890000Y-115141281D03*
D20*
%TO.P,U5,S1,SHIELD*%
%TO.N,unconnected-(U5-SHIELD-PadS1)_2*%
X37730000Y-98313781D03*
%TO.P,U5,S2,SHIELD*%
%TO.N,unconnected-(U5-SHIELD-PadS1)*%
X37730000Y-111648781D03*
%TO.P,U5,S3,SHIELD*%
%TO.N,unconnected-(U5-SHIELD-PadS1)_1*%
X52970000Y-111648781D03*
%TO.P,U5,S4,SHIELD*%
%TO.N,unconnected-(U5-SHIELD-PadS1)_3*%
X52970000Y-98313781D03*
D19*
%TO.P,U5,V1,V+*%
%TO.N,+3.3V*%
X35190000Y-102441281D03*
%TO.P,U5,V2,V*%
%TO.N,IO32*%
X35190000Y-104981281D03*
%TO.P,U5,V3,V-*%
%TO.N,GND*%
X35190000Y-107521281D03*
%TD*%
%TO.P,U6,B1A,SEL+*%
%TO.N,IO19*%
X104185000Y-92300000D03*
%TO.P,U6,B1B*%
%TO.N,N/C*%
X110535000Y-92300000D03*
%TO.P,U6,B2A,SEL-*%
%TO.N,GND*%
X104185000Y-97380000D03*
%TO.P,U6,B2B*%
%TO.N,N/C*%
X110535000Y-97380000D03*
%TO.P,U6,H1,H+*%
%TO.N,+3.3V*%
X104820000Y-115160000D03*
%TO.P,U6,H2,H*%
%TO.N,IO35*%
X107360000Y-115160000D03*
%TO.P,U6,H3,H-*%
%TO.N,GND*%
X109900000Y-115160000D03*
D20*
%TO.P,U6,S1,SHIELD*%
%TO.N,unconnected-(U6-SHIELD-PadS1)_1*%
X99740000Y-98332500D03*
%TO.P,U6,S2,SHIELD*%
%TO.N,unconnected-(U6-SHIELD-PadS1)_3*%
X99740000Y-111667500D03*
%TO.P,U6,S3,SHIELD*%
%TO.N,unconnected-(U6-SHIELD-PadS1)*%
X114980000Y-111667500D03*
%TO.P,U6,S4,SHIELD*%
%TO.N,unconnected-(U6-SHIELD-PadS1)_2*%
X114980000Y-98332500D03*
D19*
%TO.P,U6,V1,V+*%
%TO.N,+3.3V*%
X97200000Y-102460000D03*
%TO.P,U6,V2,V*%
%TO.N,IO34*%
X97200000Y-105000000D03*
%TO.P,U6,V3,V-*%
%TO.N,GND*%
X97200000Y-107540000D03*
%TD*%
D15*
%TO.P,SW2,*%
%TO.N,*%
X108475000Y-85452500D03*
X115485000Y-85452500D03*
D16*
%TO.P,SW2,1,1*%
%TO.N,IO13*%
X109725000Y-82962500D03*
%TO.P,SW2,2,2*%
%TO.N,GND*%
X114225000Y-82962500D03*
%TD*%
D10*
%TO.P,POT2,1*%
%TO.N,+3.3V*%
X86620000Y-96500000D03*
D11*
%TO.P,POT2,2*%
%TO.N,IO39*%
X89160000Y-96500000D03*
%TO.P,POT2,3*%
%TO.N,GND*%
X91700000Y-96500000D03*
%TD*%
D21*
%TO.N,IO34*%
X63800000Y-89400000D03*
X67200000Y-89400000D03*
X72067009Y-107730646D03*
%TO.N,IO35*%
X66906000Y-90900000D03*
X71600000Y-108500000D03*
X63600000Y-90800000D03*
%TO.N,IO14*%
X59500000Y-98100000D03*
%TO.N,IO39*%
X64000000Y-88200000D03*
X84800000Y-89100000D03*
%TO.N,GND*%
X91800000Y-98400000D03*
X69400000Y-104400000D03*
X70600000Y-103400000D03*
X68500000Y-99500000D03*
X91900000Y-94700000D03*
%TO.N,BT*%
X89100000Y-89100000D03*
X84400000Y-99200000D03*
X56500000Y-124700000D03*
%TO.N,+3.3V*%
X92900000Y-85500000D03*
X72100000Y-102800000D03*
X42200000Y-131600000D03*
X64500000Y-120500000D03*
X51000000Y-121000000D03*
X70200000Y-129250000D03*
X48200000Y-131600000D03*
X60700000Y-82800000D03*
X35000000Y-87500000D03*
X113000000Y-123800000D03*
X61000000Y-84200000D03*
X81400000Y-129400000D03*
X67000000Y-125500000D03*
X66500000Y-84400000D03*
X106900000Y-89500000D03*
X61500000Y-127000000D03*
%TO.N,EN*%
X63425000Y-102200000D03*
X80100000Y-85600000D03*
X62100000Y-92225000D03*
X85400000Y-85500000D03*
%TO.N,RX*%
X85600000Y-87970000D03*
X56700000Y-123075000D03*
%TO.N,TX*%
X55655715Y-121760400D03*
X85100000Y-86700000D03*
%TO.N,IO13*%
X74063288Y-102463288D03*
X84973000Y-90300000D03*
X87000000Y-90100000D03*
%TO.N,IO15*%
X80700000Y-82900000D03*
%TO.N,IO5*%
X85900000Y-100800000D03*
%TO.N,Net-(J1-D+)*%
X59529585Y-131727000D03*
X58449999Y-130834289D03*
%TO.N,Net-(Q1A-E1)*%
X56600000Y-121700000D03*
X54600000Y-124500000D03*
%TO.N,IO17*%
X80941601Y-95089999D03*
%TO.N,IO18*%
X81200000Y-93600000D03*
%TO.N,IO2*%
X50000000Y-125000000D03*
X77400000Y-102900000D03*
%TO.N,IO19*%
X87300000Y-92300000D03*
%TO.N,SCL*%
X80800000Y-100700000D03*
%TO.N,SDA*%
X82300000Y-101300000D03*
%TD*%
D22*
%TO.N,IO34*%
X72452340Y-107730646D02*
X72067009Y-107730646D01*
X74276000Y-109554306D02*
X72452340Y-107730646D01*
X75294306Y-111076000D02*
X74276000Y-110057694D01*
X89515960Y-111076000D02*
X75294306Y-111076000D01*
X95591960Y-105000000D02*
X89515960Y-111076000D01*
X74276000Y-110057694D02*
X74276000Y-109554306D01*
X67200000Y-89400000D02*
X63800000Y-89400000D01*
X97200000Y-105000000D02*
X95591960Y-105000000D01*
%TO.N,IO35*%
X63700000Y-90900000D02*
X63600000Y-90800000D01*
X66906000Y-90900000D02*
X63700000Y-90900000D01*
X71600000Y-109921694D02*
X71600000Y-108500000D01*
X79278306Y-117600000D02*
X71600000Y-109921694D01*
X104920000Y-117600000D02*
X79278306Y-117600000D01*
X107360000Y-115160000D02*
X104920000Y-117600000D01*
%TO.N,IO14*%
X42175000Y-93725000D02*
X42175000Y-92281281D01*
X42100000Y-93800000D02*
X42175000Y-93725000D01*
X42800000Y-94500000D02*
X42100000Y-93800000D01*
X55900000Y-94500000D02*
X42800000Y-94500000D01*
X59500000Y-98100000D02*
X55900000Y-94500000D01*
%TO.N,IO39*%
X83900000Y-88200000D02*
X64000000Y-88200000D01*
X84800000Y-89100000D02*
X83900000Y-88200000D01*
%TO.N,EN*%
X62100000Y-92225000D02*
X62100000Y-97400000D01*
X62100000Y-97400000D02*
X63425000Y-98725000D01*
X63425000Y-98725000D02*
X63425000Y-102200000D01*
%TO.N,GND*%
X74137500Y-91900000D02*
X72612500Y-91900000D01*
X72612500Y-90375000D02*
X71850000Y-89612500D01*
X73375000Y-89612500D02*
X72612500Y-90375000D01*
X69600000Y-104400000D02*
X70600000Y-103400000D01*
X91700000Y-96500000D02*
X91700000Y-94900000D01*
X74900000Y-91137500D02*
X74900000Y-89612500D01*
X74137500Y-88850000D02*
X72612500Y-88850000D01*
X68500000Y-99500000D02*
X68500000Y-94487500D01*
X74137500Y-90375000D02*
X73375000Y-91137500D01*
X74137500Y-91900000D02*
X74900000Y-91137500D01*
X74900000Y-89612500D02*
X74137500Y-88850000D01*
X73375000Y-89612500D02*
X74137500Y-90375000D01*
X69400000Y-104400000D02*
X69600000Y-104400000D01*
X72612500Y-88850000D02*
X71850000Y-89612500D01*
X68500000Y-94487500D02*
X71850000Y-91137500D01*
X72612500Y-91900000D02*
X71850000Y-91137500D01*
X91700000Y-94900000D02*
X91900000Y-94700000D01*
D23*
%TO.N,BT*%
X83207276Y-95207276D02*
X89100000Y-89314552D01*
X57327000Y-121087552D02*
X81807276Y-96607276D01*
X57327000Y-123873000D02*
X57327000Y-121087552D01*
X56500000Y-124700000D02*
X57327000Y-123873000D01*
D22*
X84400000Y-99200000D02*
X81807276Y-96607276D01*
D23*
X81807276Y-96607276D02*
X83207276Y-95207276D01*
X89100000Y-89314552D02*
X89100000Y-89100000D01*
D22*
%TO.N,+3.3V*%
X61200000Y-84400000D02*
X61000000Y-84200000D01*
X60700000Y-82800000D02*
X60700000Y-83900000D01*
X60700000Y-83900000D02*
X61000000Y-84200000D01*
X66500000Y-84400000D02*
X61200000Y-84400000D01*
%TO.N,EN*%
X85300000Y-85600000D02*
X85400000Y-85500000D01*
X80100000Y-85600000D02*
X85300000Y-85600000D01*
D23*
%TO.N,RX*%
X53973000Y-124759712D02*
X53973000Y-121927000D01*
X85600000Y-91813288D02*
X85600000Y-87970000D01*
X57213288Y-120200000D02*
X85600000Y-91813288D01*
X56700000Y-123286712D02*
X54859712Y-125127000D01*
X53973000Y-121927000D02*
X55700000Y-120200000D01*
X54859712Y-125127000D02*
X54340288Y-125127000D01*
X55700000Y-120200000D02*
X57213288Y-120200000D01*
X56700000Y-123075000D02*
X56700000Y-123286712D01*
X54340288Y-125127000D02*
X53973000Y-124759712D01*
%TO.N,TX*%
X55655715Y-121757573D02*
X56859288Y-120554000D01*
X56859288Y-120554000D02*
X57359920Y-120554000D01*
X55655715Y-121760400D02*
X55655715Y-121757573D01*
X85300000Y-86700000D02*
X85100000Y-86700000D01*
X57359920Y-120554000D02*
X86227000Y-91686920D01*
X86227000Y-87627000D02*
X85300000Y-86700000D01*
X86227000Y-91686920D02*
X86227000Y-87627000D01*
D22*
%TO.N,IO13*%
X94137500Y-82962500D02*
X109725000Y-82962500D01*
X85000000Y-90327000D02*
X84973000Y-90300000D01*
X85000000Y-91915484D02*
X85000000Y-90600000D01*
X74452196Y-102463288D02*
X74063288Y-102463288D01*
X85000000Y-90700000D02*
X85000000Y-90327000D01*
X85000000Y-90600000D02*
X85000000Y-90700000D01*
X87000000Y-90100000D02*
X94137500Y-82962500D01*
X74807742Y-102107742D02*
X74452196Y-102463288D01*
X74807742Y-102107742D02*
X85000000Y-91915484D01*
%TO.N,IO15*%
X42463500Y-82174000D02*
X40525000Y-84112500D01*
X68931377Y-82900000D02*
X68205377Y-82174000D01*
X68205377Y-82174000D02*
X42463500Y-82174000D01*
X80700000Y-82900000D02*
X68931377Y-82900000D01*
D23*
%TO.N,Net-(J1-D+)*%
X59342710Y-131727000D02*
X58449999Y-130834289D01*
X59529585Y-131727000D02*
X59342710Y-131727000D01*
D22*
%TO.N,Net-(Q1A-E1)*%
X54600000Y-124500000D02*
X54600000Y-123700000D01*
X54600000Y-123700000D02*
X56600000Y-121700000D01*
%TO.N,IO2*%
X68500000Y-110413770D02*
X76013770Y-102900000D01*
X67459298Y-126226000D02*
X68500000Y-125185298D01*
X76013770Y-102900000D02*
X77400000Y-102900000D01*
X68500000Y-125185298D02*
X68500000Y-110413770D01*
X50000000Y-125000000D02*
X51226000Y-126226000D01*
X51226000Y-126226000D02*
X67459298Y-126226000D01*
D23*
%TO.N,IO19*%
X87300000Y-92300000D02*
X104185000Y-92300000D01*
D22*
%TO.N,SCL*%
X78280000Y-110000000D02*
X78280000Y-103220000D01*
X78280000Y-103220000D02*
X80800000Y-100700000D01*
%TO.N,SDA*%
X80820000Y-110000000D02*
X82300000Y-108520000D01*
X82300000Y-108520000D02*
X82300000Y-101300000D01*
%TD*%
%TA.AperFunction,Conductor*%
%TO.N,+3.3V*%
G36*
X42320771Y-81785185D02*
G01*
X42366526Y-81837989D01*
X42376470Y-81907147D01*
X42347445Y-81970703D01*
X42341413Y-81977181D01*
X42272329Y-82046265D01*
X41104701Y-83213892D01*
X41043378Y-83247377D01*
X40973686Y-83242393D01*
X40969567Y-83240772D01*
X40888782Y-83207310D01*
X40809543Y-83174488D01*
X40809535Y-83174486D01*
X40621081Y-83137000D01*
X40621078Y-83137000D01*
X40428922Y-83137000D01*
X40428919Y-83137000D01*
X40240464Y-83174486D01*
X40240452Y-83174489D01*
X40062931Y-83248020D01*
X40062929Y-83248021D01*
X39903155Y-83354779D01*
X39903151Y-83354782D01*
X39767282Y-83490651D01*
X39767279Y-83490655D01*
X39660521Y-83650429D01*
X39660520Y-83650431D01*
X39586989Y-83827952D01*
X39586986Y-83827964D01*
X39549500Y-84016417D01*
X39549500Y-84208582D01*
X39586986Y-84397035D01*
X39586989Y-84397047D01*
X39660520Y-84574568D01*
X39660521Y-84574570D01*
X39767279Y-84734344D01*
X39767282Y-84734348D01*
X39903151Y-84870217D01*
X39903155Y-84870220D01*
X40062927Y-84976977D01*
X40062928Y-84976977D01*
X40062929Y-84976978D01*
X40062931Y-84976979D01*
X40144735Y-85010863D01*
X40240457Y-85050512D01*
X40428917Y-85087999D01*
X40428920Y-85088000D01*
X40428922Y-85088000D01*
X40621080Y-85088000D01*
X40621081Y-85087999D01*
X40809543Y-85050512D01*
X40987073Y-84976977D01*
X41146845Y-84870220D01*
X41282720Y-84734345D01*
X41389477Y-84574573D01*
X41463012Y-84397043D01*
X41500500Y-84208578D01*
X41500500Y-84016422D01*
X41500500Y-84016419D01*
X41500499Y-84016417D01*
X44049500Y-84016417D01*
X44049500Y-84208582D01*
X44086986Y-84397035D01*
X44086989Y-84397047D01*
X44160520Y-84574568D01*
X44160521Y-84574570D01*
X44267279Y-84734344D01*
X44267282Y-84734348D01*
X44403151Y-84870217D01*
X44403155Y-84870220D01*
X44562927Y-84976977D01*
X44562928Y-84976977D01*
X44562929Y-84976978D01*
X44562931Y-84976979D01*
X44644735Y-85010863D01*
X44740457Y-85050512D01*
X44928917Y-85087999D01*
X44928920Y-85088000D01*
X44928922Y-85088000D01*
X45121080Y-85088000D01*
X45121081Y-85087999D01*
X45309543Y-85050512D01*
X45487073Y-84976977D01*
X45646845Y-84870220D01*
X45782720Y-84734345D01*
X45889477Y-84574573D01*
X45963012Y-84397043D01*
X46000500Y-84208578D01*
X46000500Y-84016422D01*
X46000500Y-84016419D01*
X46000499Y-84016417D01*
X45995142Y-83989487D01*
X45963012Y-83827957D01*
X45962607Y-83826979D01*
X45889479Y-83650431D01*
X45889478Y-83650429D01*
X45854753Y-83598460D01*
X45782720Y-83490655D01*
X45782717Y-83490651D01*
X45646848Y-83354782D01*
X45646844Y-83354779D01*
X45487070Y-83248021D01*
X45487068Y-83248020D01*
X45309547Y-83174489D01*
X45309535Y-83174486D01*
X45121081Y-83137000D01*
X45121078Y-83137000D01*
X44928922Y-83137000D01*
X44928919Y-83137000D01*
X44740464Y-83174486D01*
X44740452Y-83174489D01*
X44562931Y-83248020D01*
X44562929Y-83248021D01*
X44403155Y-83354779D01*
X44403151Y-83354782D01*
X44267282Y-83490651D01*
X44267279Y-83490655D01*
X44160521Y-83650429D01*
X44160520Y-83650431D01*
X44086989Y-83827952D01*
X44086986Y-83827964D01*
X44049500Y-84016417D01*
X41500499Y-84016417D01*
X41495142Y-83989487D01*
X41463012Y-83827957D01*
X41462607Y-83826979D01*
X41396727Y-83667929D01*
X41389258Y-83598460D01*
X41420533Y-83535981D01*
X41423577Y-83532826D01*
X42520586Y-82435819D01*
X42581909Y-82402334D01*
X42608267Y-82399500D01*
X68060610Y-82399500D01*
X68127649Y-82419185D01*
X68148291Y-82435819D01*
X68740206Y-83027734D01*
X68740207Y-83027736D01*
X68803641Y-83091170D01*
X68827916Y-83101225D01*
X68886522Y-83125501D01*
X68886523Y-83125501D01*
X68990666Y-83125501D01*
X68990674Y-83125500D01*
X80180673Y-83125500D01*
X80247712Y-83145185D01*
X80288060Y-83187500D01*
X80299497Y-83207310D01*
X80299499Y-83207313D01*
X80299500Y-83207314D01*
X80392686Y-83300500D01*
X80506814Y-83366392D01*
X80634108Y-83400500D01*
X80634110Y-83400500D01*
X80765890Y-83400500D01*
X80765892Y-83400500D01*
X80893186Y-83366392D01*
X81007314Y-83300500D01*
X81100500Y-83207314D01*
X81166392Y-83093186D01*
X81200500Y-82965892D01*
X81200500Y-82834108D01*
X81166392Y-82706814D01*
X81100500Y-82592686D01*
X81007314Y-82499500D01*
X80897016Y-82435819D01*
X80893187Y-82433608D01*
X80829539Y-82416554D01*
X80765892Y-82399500D01*
X80634108Y-82399500D01*
X80506812Y-82433608D01*
X80392686Y-82499500D01*
X80392683Y-82499502D01*
X80299501Y-82592684D01*
X80299497Y-82592689D01*
X80288060Y-82612500D01*
X80237493Y-82660716D01*
X80180673Y-82674500D01*
X69076144Y-82674500D01*
X69009105Y-82654815D01*
X68988463Y-82638181D01*
X68413987Y-82063705D01*
X68396547Y-82046264D01*
X68333113Y-81982830D01*
X68333112Y-81982829D01*
X68327464Y-81977181D01*
X68308041Y-81941609D01*
X68293979Y-81915857D01*
X68296564Y-81879718D01*
X68298964Y-81846166D01*
X68340836Y-81790232D01*
X68406301Y-81765816D01*
X68415146Y-81765500D01*
X109483484Y-81765500D01*
X109550523Y-81785185D01*
X109596278Y-81837989D01*
X109606222Y-81907147D01*
X109577197Y-81970703D01*
X109518419Y-82008477D01*
X109507675Y-82011117D01*
X109440464Y-82024486D01*
X109440452Y-82024489D01*
X109262931Y-82098020D01*
X109262929Y-82098021D01*
X109103155Y-82204779D01*
X109103151Y-82204782D01*
X108967282Y-82340651D01*
X108967279Y-82340655D01*
X108860521Y-82500429D01*
X108860520Y-82500431D01*
X108794239Y-82660452D01*
X108750399Y-82714856D01*
X108684105Y-82736921D01*
X108679678Y-82737000D01*
X94182354Y-82737000D01*
X94092645Y-82737000D01*
X94092643Y-82737000D01*
X94092641Y-82737001D01*
X94009766Y-82771327D01*
X87207766Y-89573327D01*
X87146443Y-89606812D01*
X87087996Y-89605422D01*
X87065893Y-89599500D01*
X87065892Y-89599500D01*
X86934108Y-89599500D01*
X86806812Y-89633608D01*
X86692686Y-89699500D01*
X86692683Y-89699502D01*
X86666181Y-89726005D01*
X86604858Y-89759490D01*
X86535166Y-89754506D01*
X86479233Y-89712634D01*
X86454816Y-89647170D01*
X86454500Y-89638324D01*
X86454500Y-87581748D01*
X86454498Y-87581742D01*
X86441434Y-87550202D01*
X86441432Y-87550199D01*
X86419866Y-87498132D01*
X85636819Y-86715085D01*
X85603334Y-86653762D01*
X85602080Y-86642099D01*
X85601561Y-86642168D01*
X85600500Y-86634115D01*
X85600500Y-86634108D01*
X85566392Y-86506814D01*
X85500500Y-86392686D01*
X85407314Y-86299500D01*
X85407312Y-86299499D01*
X85407310Y-86299497D01*
X85305795Y-86240887D01*
X85305792Y-86240886D01*
X85293186Y-86233608D01*
X85165892Y-86199500D01*
X85034108Y-86199500D01*
X84906812Y-86233608D01*
X84792686Y-86299500D01*
X84792683Y-86299502D01*
X84699502Y-86392683D01*
X84699500Y-86392686D01*
X84633608Y-86506812D01*
X84599500Y-86634108D01*
X84599500Y-86765891D01*
X84633608Y-86893187D01*
X84666554Y-86950250D01*
X84699500Y-87007314D01*
X84792686Y-87100500D01*
X84906814Y-87166392D01*
X85034108Y-87200500D01*
X85034110Y-87200500D01*
X85165890Y-87200500D01*
X85165892Y-87200500D01*
X85293186Y-87166392D01*
X85306811Y-87158525D01*
X85333872Y-87151958D01*
X85359967Y-87142226D01*
X85367357Y-87143833D01*
X85374708Y-87142050D01*
X85401025Y-87151157D01*
X85428240Y-87157077D01*
X85436929Y-87163581D01*
X85440736Y-87164899D01*
X85456489Y-87178223D01*
X85550748Y-87272482D01*
X85584232Y-87333802D01*
X85579248Y-87403494D01*
X85537377Y-87459428D01*
X85495160Y-87479935D01*
X85406814Y-87503608D01*
X85406812Y-87503608D01*
X85406812Y-87503609D01*
X85292686Y-87569500D01*
X85292683Y-87569502D01*
X85199502Y-87662683D01*
X85199500Y-87662686D01*
X85133608Y-87776812D01*
X85099500Y-87904108D01*
X85099500Y-88035891D01*
X85133608Y-88163187D01*
X85166554Y-88220250D01*
X85199500Y-88277314D01*
X85199502Y-88277316D01*
X85292686Y-88370500D01*
X85310499Y-88380784D01*
X85318783Y-88389472D01*
X85329703Y-88394459D01*
X85342448Y-88414290D01*
X85358715Y-88431351D01*
X85361931Y-88444607D01*
X85367477Y-88453237D01*
X85372500Y-88488172D01*
X85372500Y-88665324D01*
X85352815Y-88732363D01*
X85300011Y-88778118D01*
X85230853Y-88788062D01*
X85167297Y-88759037D01*
X85160819Y-88753005D01*
X85107316Y-88699502D01*
X85107314Y-88699500D01*
X85048120Y-88665324D01*
X84993187Y-88633608D01*
X84929539Y-88616554D01*
X84865892Y-88599500D01*
X84734108Y-88599500D01*
X84734105Y-88599500D01*
X84712003Y-88605422D01*
X84642153Y-88603757D01*
X84592232Y-88573327D01*
X84108610Y-88089705D01*
X84091170Y-88072264D01*
X84027736Y-88008830D01*
X84027735Y-88008829D01*
X84003457Y-87998772D01*
X84003457Y-87998771D01*
X83944858Y-87974500D01*
X83944856Y-87974499D01*
X83944855Y-87974499D01*
X83855145Y-87974499D01*
X83840711Y-87974499D01*
X83840703Y-87974500D01*
X64519327Y-87974500D01*
X64452288Y-87954815D01*
X64411940Y-87912500D01*
X64400502Y-87892689D01*
X64400498Y-87892684D01*
X64307316Y-87799502D01*
X64307314Y-87799500D01*
X64226774Y-87753000D01*
X64193187Y-87733608D01*
X64129539Y-87716554D01*
X64065892Y-87699500D01*
X63934108Y-87699500D01*
X63806812Y-87733608D01*
X63692686Y-87799500D01*
X63692683Y-87799502D01*
X63599502Y-87892683D01*
X63599500Y-87892686D01*
X63533608Y-88006812D01*
X63499500Y-88134108D01*
X63499500Y-88265892D01*
X63516554Y-88329539D01*
X63533608Y-88393187D01*
X63557393Y-88434383D01*
X63599500Y-88507314D01*
X63692686Y-88600500D01*
X63692687Y-88600501D01*
X63692689Y-88600502D01*
X63809794Y-88668113D01*
X63858010Y-88718680D01*
X63871232Y-88787287D01*
X63845264Y-88852152D01*
X63788350Y-88892680D01*
X63747794Y-88899500D01*
X63734108Y-88899500D01*
X63606812Y-88933608D01*
X63492686Y-88999500D01*
X63492683Y-88999502D01*
X63399502Y-89092683D01*
X63399500Y-89092686D01*
X63333608Y-89206812D01*
X63310464Y-89293190D01*
X63299500Y-89334108D01*
X63299500Y-89465892D01*
X63308772Y-89500497D01*
X63333608Y-89593187D01*
X63360223Y-89639284D01*
X63399500Y-89707314D01*
X63492686Y-89800500D01*
X63606814Y-89866392D01*
X63734108Y-89900500D01*
X63734110Y-89900500D01*
X63865890Y-89900500D01*
X63865892Y-89900500D01*
X63993186Y-89866392D01*
X64107314Y-89800500D01*
X64200500Y-89707314D01*
X64205084Y-89699373D01*
X64211940Y-89687500D01*
X64262507Y-89639284D01*
X64319327Y-89625500D01*
X66680673Y-89625500D01*
X66747712Y-89645185D01*
X66788060Y-89687500D01*
X66799497Y-89707310D01*
X66799499Y-89707313D01*
X66799500Y-89707314D01*
X66892686Y-89800500D01*
X67006814Y-89866392D01*
X67134108Y-89900500D01*
X67134110Y-89900500D01*
X67265890Y-89900500D01*
X67265892Y-89900500D01*
X67393186Y-89866392D01*
X67507314Y-89800500D01*
X67600500Y-89707314D01*
X67666392Y-89593186D01*
X67700500Y-89465892D01*
X67700500Y-89334108D01*
X67666392Y-89206814D01*
X67600500Y-89092686D01*
X67507314Y-88999500D01*
X67450250Y-88966554D01*
X67393187Y-88933608D01*
X67293188Y-88906814D01*
X67265892Y-88899500D01*
X67134108Y-88899500D01*
X67006812Y-88933608D01*
X66892686Y-88999500D01*
X66892683Y-88999502D01*
X66799501Y-89092684D01*
X66799497Y-89092689D01*
X66788060Y-89112500D01*
X66737493Y-89160716D01*
X66680673Y-89174500D01*
X64319327Y-89174500D01*
X64252288Y-89154815D01*
X64211940Y-89112500D01*
X64200502Y-89092689D01*
X64200498Y-89092684D01*
X64107316Y-88999502D01*
X64107310Y-88999497D01*
X63990206Y-88931887D01*
X63941990Y-88881320D01*
X63928768Y-88812713D01*
X63954736Y-88747848D01*
X64011650Y-88707320D01*
X64052206Y-88700500D01*
X64065890Y-88700500D01*
X64065892Y-88700500D01*
X64193186Y-88666392D01*
X64307314Y-88600500D01*
X64400500Y-88507314D01*
X64411940Y-88487500D01*
X64462507Y-88439284D01*
X64519327Y-88425500D01*
X72180354Y-88425500D01*
X72247393Y-88445185D01*
X72293148Y-88497989D01*
X72303092Y-88567147D01*
X72287743Y-88611494D01*
X72255055Y-88668113D01*
X72239293Y-88695413D01*
X72212000Y-88797273D01*
X72212000Y-88880232D01*
X72192315Y-88947271D01*
X72175681Y-88967913D01*
X71967913Y-89175681D01*
X71906590Y-89209166D01*
X71880232Y-89212000D01*
X71797273Y-89212000D01*
X71695413Y-89239293D01*
X71695410Y-89239294D01*
X71604085Y-89292021D01*
X71529521Y-89366585D01*
X71476794Y-89457910D01*
X71476793Y-89457913D01*
X71449500Y-89559773D01*
X71449500Y-89665227D01*
X71476793Y-89767087D01*
X71529520Y-89858413D01*
X71604087Y-89932980D01*
X71695413Y-89985707D01*
X71797273Y-90013000D01*
X71797275Y-90013000D01*
X71880233Y-90013000D01*
X71947272Y-90032685D01*
X71967914Y-90049319D01*
X72175681Y-90257086D01*
X72209166Y-90318409D01*
X72212000Y-90344766D01*
X72212000Y-90427727D01*
X72239293Y-90529587D01*
X72292020Y-90620913D01*
X72366587Y-90695480D01*
X72457913Y-90748207D01*
X72559773Y-90775500D01*
X72559775Y-90775500D01*
X72665225Y-90775500D01*
X72665227Y-90775500D01*
X72767087Y-90748207D01*
X72858413Y-90695480D01*
X72932980Y-90620913D01*
X72985707Y-90529587D01*
X73013000Y-90427727D01*
X73013000Y-90344766D01*
X73032685Y-90277727D01*
X73049319Y-90257085D01*
X73257085Y-90049319D01*
X73284012Y-90034615D01*
X73309831Y-90018023D01*
X73316031Y-90017131D01*
X73318408Y-90015834D01*
X73344766Y-90013000D01*
X73405233Y-90013000D01*
X73472272Y-90032685D01*
X73492914Y-90049319D01*
X73700681Y-90257086D01*
X73734166Y-90318409D01*
X73737000Y-90344767D01*
X73737000Y-90405232D01*
X73717315Y-90472271D01*
X73700681Y-90492913D01*
X73492913Y-90700681D01*
X73431590Y-90734166D01*
X73405232Y-90737000D01*
X73322273Y-90737000D01*
X73220413Y-90764293D01*
X73220410Y-90764294D01*
X73129085Y-90817021D01*
X73054521Y-90891585D01*
X73001794Y-90982910D01*
X73001793Y-90982913D01*
X72974500Y-91084773D01*
X72974500Y-91190227D01*
X72996770Y-91273338D01*
X73001793Y-91292086D01*
X73001794Y-91292089D01*
X73006650Y-91300499D01*
X73044692Y-91366391D01*
X73054521Y-91383414D01*
X73133926Y-91462819D01*
X73144538Y-91482255D01*
X73159039Y-91498989D01*
X73160955Y-91512320D01*
X73167411Y-91524142D01*
X73165831Y-91546228D01*
X73168983Y-91568147D01*
X73163387Y-91580398D01*
X73162427Y-91593834D01*
X73149156Y-91611560D01*
X73139958Y-91631703D01*
X73128626Y-91638985D01*
X73120555Y-91649767D01*
X73099809Y-91657504D01*
X73081180Y-91669477D01*
X73059261Y-91672628D01*
X73055091Y-91674184D01*
X73046245Y-91674500D01*
X73004756Y-91674500D01*
X72937717Y-91654815D01*
X72917075Y-91638182D01*
X72890453Y-91611560D01*
X72858413Y-91579520D01*
X72767087Y-91526793D01*
X72665227Y-91499500D01*
X72582267Y-91499500D01*
X72515228Y-91479815D01*
X72494586Y-91463181D01*
X72286819Y-91255414D01*
X72253334Y-91194091D01*
X72250500Y-91167733D01*
X72250500Y-91084775D01*
X72250500Y-91084773D01*
X72223207Y-90982913D01*
X72170480Y-90891587D01*
X72095913Y-90817020D01*
X72004587Y-90764293D01*
X71902727Y-90737000D01*
X71797273Y-90737000D01*
X71695413Y-90764293D01*
X71695410Y-90764294D01*
X71604085Y-90817021D01*
X71529521Y-90891585D01*
X71476794Y-90982910D01*
X71476793Y-90982913D01*
X71449500Y-91084773D01*
X71449500Y-91167731D01*
X71429815Y-91234770D01*
X71413181Y-91255412D01*
X68376537Y-94292056D01*
X68376532Y-94292061D01*
X68372265Y-94296329D01*
X68372264Y-94296330D01*
X68308830Y-94359764D01*
X68303652Y-94372265D01*
X68296595Y-94389301D01*
X68296593Y-94389304D01*
X68274499Y-94442644D01*
X68274499Y-94546788D01*
X68274500Y-94546797D01*
X68274500Y-98980673D01*
X68254815Y-99047712D01*
X68212501Y-99088059D01*
X68192692Y-99099496D01*
X68192683Y-99099502D01*
X68099502Y-99192683D01*
X68099500Y-99192686D01*
X68033608Y-99306812D01*
X68009702Y-99396033D01*
X67999500Y-99434108D01*
X67999500Y-99565892D01*
X68008772Y-99600497D01*
X68033608Y-99693187D01*
X68066554Y-99750250D01*
X68099500Y-99807314D01*
X68192686Y-99900500D01*
X68306814Y-99966392D01*
X68434108Y-100000500D01*
X68434110Y-100000500D01*
X68565890Y-100000500D01*
X68565892Y-100000500D01*
X68693186Y-99966392D01*
X68807314Y-99900500D01*
X68900500Y-99807314D01*
X68966392Y-99693186D01*
X69000500Y-99565892D01*
X69000500Y-99434108D01*
X68966392Y-99306814D01*
X68900500Y-99192686D01*
X68807314Y-99099500D01*
X68806106Y-99098802D01*
X68787499Y-99088059D01*
X68739284Y-99037492D01*
X68725500Y-98980673D01*
X68725500Y-94632267D01*
X68745185Y-94565228D01*
X68761819Y-94544586D01*
X69772297Y-93534108D01*
X80699500Y-93534108D01*
X80699500Y-93665892D01*
X80701207Y-93672262D01*
X80733608Y-93793187D01*
X80763439Y-93844855D01*
X80799500Y-93907314D01*
X80892686Y-94000500D01*
X81006814Y-94066392D01*
X81134108Y-94100500D01*
X81134110Y-94100500D01*
X81265890Y-94100500D01*
X81265892Y-94100500D01*
X81393186Y-94066392D01*
X81507314Y-94000500D01*
X81600500Y-93907314D01*
X81666392Y-93793186D01*
X81700500Y-93665892D01*
X81700500Y-93534108D01*
X81666392Y-93406814D01*
X81600500Y-93292686D01*
X81507314Y-93199500D01*
X81435713Y-93158161D01*
X81393187Y-93133608D01*
X81329539Y-93116554D01*
X81265892Y-93099500D01*
X81134108Y-93099500D01*
X81006812Y-93133608D01*
X80892686Y-93199500D01*
X80892683Y-93199502D01*
X80799502Y-93292683D01*
X80799500Y-93292686D01*
X80733608Y-93406812D01*
X80699500Y-93534108D01*
X69772297Y-93534108D01*
X71732086Y-91574319D01*
X71759013Y-91559615D01*
X71784832Y-91543023D01*
X71791032Y-91542131D01*
X71793409Y-91540834D01*
X71819767Y-91538000D01*
X71880233Y-91538000D01*
X71947272Y-91557685D01*
X71967914Y-91574319D01*
X72175681Y-91782086D01*
X72209166Y-91843409D01*
X72212000Y-91869766D01*
X72212000Y-91952727D01*
X72239293Y-92054587D01*
X72292020Y-92145913D01*
X72366587Y-92220480D01*
X72457913Y-92273207D01*
X72559773Y-92300500D01*
X72559775Y-92300500D01*
X72665225Y-92300500D01*
X72665227Y-92300500D01*
X72767087Y-92273207D01*
X72858413Y-92220480D01*
X72917075Y-92161818D01*
X72978399Y-92128334D01*
X73004756Y-92125500D01*
X73745244Y-92125500D01*
X73812283Y-92145185D01*
X73832925Y-92161818D01*
X73891587Y-92220480D01*
X73982913Y-92273207D01*
X74084773Y-92300500D01*
X74084775Y-92300500D01*
X74190225Y-92300500D01*
X74190227Y-92300500D01*
X74292087Y-92273207D01*
X74383413Y-92220480D01*
X74457980Y-92145913D01*
X74510707Y-92054587D01*
X74538000Y-91952727D01*
X74538000Y-91869766D01*
X74557685Y-91802727D01*
X74574319Y-91782085D01*
X74782085Y-91574319D01*
X74843408Y-91540834D01*
X74869766Y-91538000D01*
X74952725Y-91538000D01*
X74952727Y-91538000D01*
X75054587Y-91510707D01*
X75145913Y-91457980D01*
X75220480Y-91383413D01*
X75273207Y-91292087D01*
X75300500Y-91190227D01*
X75300500Y-91084773D01*
X75273207Y-90982913D01*
X75220480Y-90891587D01*
X75161818Y-90832925D01*
X75128334Y-90771601D01*
X75125500Y-90745244D01*
X75125500Y-90004755D01*
X75145185Y-89937716D01*
X75161819Y-89917074D01*
X75186661Y-89892232D01*
X75220480Y-89858413D01*
X75273207Y-89767087D01*
X75300500Y-89665227D01*
X75300500Y-89559773D01*
X75273207Y-89457913D01*
X75220480Y-89366587D01*
X75145913Y-89292020D01*
X75054587Y-89239293D01*
X74952727Y-89212000D01*
X74869767Y-89212000D01*
X74802728Y-89192315D01*
X74782086Y-89175681D01*
X74574319Y-88967914D01*
X74540834Y-88906591D01*
X74538000Y-88880233D01*
X74538000Y-88797275D01*
X74538000Y-88797273D01*
X74510707Y-88695413D01*
X74462257Y-88611496D01*
X74445786Y-88543601D01*
X74468638Y-88477574D01*
X74523559Y-88434383D01*
X74569646Y-88425500D01*
X83755233Y-88425500D01*
X83822272Y-88445185D01*
X83842914Y-88461819D01*
X84273327Y-88892232D01*
X84306812Y-88953555D01*
X84305422Y-89012003D01*
X84299500Y-89034105D01*
X84299500Y-89034108D01*
X84299500Y-89165892D01*
X84313234Y-89217147D01*
X84333608Y-89293187D01*
X84366554Y-89350250D01*
X84399500Y-89407314D01*
X84492686Y-89500500D01*
X84606814Y-89566392D01*
X84734108Y-89600500D01*
X84734120Y-89600500D01*
X84737936Y-89601003D01*
X84740931Y-89602327D01*
X84741958Y-89602603D01*
X84741915Y-89602763D01*
X84801834Y-89629266D01*
X84840308Y-89687589D01*
X84841143Y-89757454D01*
X84804074Y-89816679D01*
X84783758Y-89831330D01*
X84665686Y-89899500D01*
X84665683Y-89899502D01*
X84572502Y-89992683D01*
X84572500Y-89992686D01*
X84506608Y-90106812D01*
X84472500Y-90234108D01*
X84472500Y-90365891D01*
X84506608Y-90493187D01*
X84527624Y-90529587D01*
X84572500Y-90607314D01*
X84665686Y-90700500D01*
X84665687Y-90700501D01*
X84665689Y-90700502D01*
X84671324Y-90703755D01*
X84712499Y-90727527D01*
X84760714Y-90778092D01*
X84774500Y-90834914D01*
X84774500Y-91770716D01*
X84754815Y-91837755D01*
X84738181Y-91858397D01*
X81621519Y-94975058D01*
X81560196Y-95008543D01*
X81490504Y-95003559D01*
X81434571Y-94961687D01*
X81414063Y-94919468D01*
X81407993Y-94896813D01*
X81405900Y-94893188D01*
X81342101Y-94782685D01*
X81248915Y-94689499D01*
X81152979Y-94634110D01*
X81134788Y-94623607D01*
X81071140Y-94606553D01*
X81007493Y-94589499D01*
X80875709Y-94589499D01*
X80748413Y-94623607D01*
X80634287Y-94689499D01*
X80634284Y-94689501D01*
X80541103Y-94782682D01*
X80541101Y-94782685D01*
X80475209Y-94896811D01*
X80448300Y-94997238D01*
X80441101Y-95024107D01*
X80441101Y-95155891D01*
X80443915Y-95166392D01*
X80475209Y-95283186D01*
X80505784Y-95336142D01*
X80541101Y-95397313D01*
X80634287Y-95490499D01*
X80748415Y-95556391D01*
X80748414Y-95556391D01*
X80758546Y-95559105D01*
X80771070Y-95562461D01*
X80830731Y-95598824D01*
X80861262Y-95661671D01*
X80852968Y-95731047D01*
X80826660Y-95769917D01*
X74680009Y-101916569D01*
X74680008Y-101916570D01*
X74680007Y-101916572D01*
X74633791Y-101962788D01*
X74539832Y-102056746D01*
X74478508Y-102090230D01*
X74408817Y-102085245D01*
X74376666Y-102067441D01*
X74370604Y-102062790D01*
X74370602Y-102062788D01*
X74288697Y-102015500D01*
X74256475Y-101996896D01*
X74192827Y-101979842D01*
X74129180Y-101962788D01*
X73997396Y-101962788D01*
X73870100Y-101996896D01*
X73755974Y-102062788D01*
X73755971Y-102062790D01*
X73662790Y-102155971D01*
X73662788Y-102155974D01*
X73596896Y-102270100D01*
X73562788Y-102397396D01*
X73562788Y-102529179D01*
X73596896Y-102656475D01*
X73602622Y-102666392D01*
X73662788Y-102770602D01*
X73755974Y-102863788D01*
X73870102Y-102929680D01*
X73892760Y-102935751D01*
X73952419Y-102972113D01*
X73982950Y-103034959D01*
X73974657Y-103104335D01*
X73948348Y-103143206D01*
X57155374Y-119936181D01*
X57094051Y-119969666D01*
X57067693Y-119972500D01*
X55745253Y-119972500D01*
X55654747Y-119972500D01*
X55654745Y-119972500D01*
X55654743Y-119972501D01*
X55571134Y-120007131D01*
X55571132Y-120007133D01*
X54275196Y-121303071D01*
X53844132Y-121734135D01*
X53780135Y-121798132D01*
X53745500Y-121881747D01*
X53745500Y-124714459D01*
X53745500Y-124804965D01*
X53780135Y-124888580D01*
X54211420Y-125319866D01*
X54270540Y-125344353D01*
X54270543Y-125344355D01*
X54270544Y-125344355D01*
X54280689Y-125348557D01*
X54295035Y-125354500D01*
X54904964Y-125354500D01*
X54904965Y-125354500D01*
X54988580Y-125319865D01*
X55791289Y-124517155D01*
X55852610Y-124483672D01*
X55922301Y-124488656D01*
X55978235Y-124530527D01*
X56002652Y-124595992D01*
X55999794Y-124625951D01*
X56000561Y-124626052D01*
X55999500Y-124634106D01*
X55999500Y-124634108D01*
X55999500Y-124765892D01*
X56010464Y-124806812D01*
X56033608Y-124893187D01*
X56066554Y-124950250D01*
X56099500Y-125007314D01*
X56192686Y-125100500D01*
X56306814Y-125166392D01*
X56434108Y-125200500D01*
X56434110Y-125200500D01*
X56565890Y-125200500D01*
X56565892Y-125200500D01*
X56693186Y-125166392D01*
X56807314Y-125100500D01*
X56900500Y-125007314D01*
X56966392Y-124893186D01*
X57000500Y-124765892D01*
X57000500Y-124634108D01*
X56995175Y-124614235D01*
X56996838Y-124544387D01*
X57027265Y-124494466D01*
X57519866Y-124001868D01*
X57523073Y-123994125D01*
X57544352Y-123942751D01*
X57544356Y-123942741D01*
X57554500Y-123918255D01*
X57554500Y-121233147D01*
X57574185Y-121166108D01*
X57590819Y-121145466D01*
X68062819Y-110673466D01*
X68124142Y-110639981D01*
X68193834Y-110644965D01*
X68249767Y-110686837D01*
X68274184Y-110752301D01*
X68274500Y-110761147D01*
X68274500Y-125040531D01*
X68254815Y-125107570D01*
X68238181Y-125128212D01*
X67402212Y-125964181D01*
X67340889Y-125997666D01*
X67314531Y-126000500D01*
X51370767Y-126000500D01*
X51303728Y-125980815D01*
X51283086Y-125964181D01*
X50526671Y-125207766D01*
X50493186Y-125146443D01*
X50494577Y-125087993D01*
X50500500Y-125065892D01*
X50500500Y-124934108D01*
X50466392Y-124806814D01*
X50465324Y-124804965D01*
X50457563Y-124791521D01*
X50400500Y-124692686D01*
X50307314Y-124599500D01*
X50246656Y-124564479D01*
X50193187Y-124533608D01*
X50093188Y-124506814D01*
X50065892Y-124499500D01*
X49934108Y-124499500D01*
X49806812Y-124533608D01*
X49692686Y-124599500D01*
X49692683Y-124599502D01*
X49599502Y-124692683D01*
X49599500Y-124692686D01*
X49533608Y-124806812D01*
X49499500Y-124934108D01*
X49499500Y-125065892D01*
X49516198Y-125128212D01*
X49533608Y-125193187D01*
X49554950Y-125230152D01*
X49599500Y-125307314D01*
X49692686Y-125400500D01*
X49806814Y-125466392D01*
X49934108Y-125500500D01*
X49934110Y-125500500D01*
X50065889Y-125500500D01*
X50065892Y-125500500D01*
X50087992Y-125494578D01*
X50157838Y-125496239D01*
X50207766Y-125526671D01*
X51034829Y-126353734D01*
X51034830Y-126353736D01*
X51098264Y-126417170D01*
X51132595Y-126431390D01*
X51181146Y-126451501D01*
X51181147Y-126451501D01*
X51285289Y-126451501D01*
X51285297Y-126451500D01*
X67414441Y-126451500D01*
X67414443Y-126451501D01*
X67504153Y-126451501D01*
X67562758Y-126427225D01*
X67587034Y-126417170D01*
X67650468Y-126353736D01*
X67650468Y-126353735D01*
X67667906Y-126336297D01*
X67667908Y-126336294D01*
X68627734Y-125376468D01*
X68627736Y-125376468D01*
X68691170Y-125313034D01*
X68714849Y-125255868D01*
X68725501Y-125230153D01*
X68725501Y-125140443D01*
X68725501Y-125130454D01*
X68725500Y-125130440D01*
X68725500Y-117999999D01*
X117997422Y-117999999D01*
X117998864Y-118014181D01*
X117999500Y-118026725D01*
X117999500Y-118098545D01*
X118014596Y-118174438D01*
X118015749Y-118180237D01*
X118017944Y-118201818D01*
X118023675Y-118220086D01*
X118024980Y-118226643D01*
X118024982Y-118226651D01*
X118037947Y-118291830D01*
X118037949Y-118291836D01*
X118069813Y-118368763D01*
X118069815Y-118368766D01*
X118071918Y-118373843D01*
X118078673Y-118395373D01*
X118087191Y-118410719D01*
X118089902Y-118417265D01*
X118089902Y-118417266D01*
X118113365Y-118473908D01*
X118113371Y-118473920D01*
X118163081Y-118548315D01*
X118163084Y-118548319D01*
X118165924Y-118552570D01*
X118177120Y-118572741D01*
X118187406Y-118584723D01*
X118191558Y-118590937D01*
X118222860Y-118637781D01*
X118222865Y-118637787D01*
X118290847Y-118705769D01*
X118294195Y-118709116D01*
X118309257Y-118726662D01*
X118320250Y-118735171D01*
X118325812Y-118740733D01*
X118325814Y-118740735D01*
X118362214Y-118777136D01*
X118362218Y-118777139D01*
X118451784Y-118836985D01*
X118469672Y-118850832D01*
X118480331Y-118856059D01*
X118526086Y-118886632D01*
X118632593Y-118930748D01*
X118651799Y-118940170D01*
X118661236Y-118942612D01*
X118708165Y-118962051D01*
X118829612Y-118986208D01*
X118848182Y-118991017D01*
X118855697Y-118991397D01*
X118895459Y-118999306D01*
X118901458Y-119000500D01*
X119035164Y-119000500D01*
X119050780Y-119001292D01*
X119055950Y-119000500D01*
X119098542Y-119000500D01*
X119144299Y-118991398D01*
X119241273Y-118972108D01*
X119251299Y-118970573D01*
X119253970Y-118969582D01*
X119291835Y-118962051D01*
X119439850Y-118900741D01*
X119441530Y-118900120D01*
X119441879Y-118899900D01*
X119473914Y-118886632D01*
X119637782Y-118777139D01*
X119777139Y-118637782D01*
X119886632Y-118473914D01*
X119962051Y-118291835D01*
X119979957Y-118201818D01*
X120000500Y-118098543D01*
X120000500Y-117901456D01*
X119962052Y-117708170D01*
X119962051Y-117708169D01*
X119962051Y-117708165D01*
X119930184Y-117631231D01*
X119886635Y-117526092D01*
X119886628Y-117526079D01*
X119777139Y-117362218D01*
X119777136Y-117362214D01*
X119637782Y-117222860D01*
X119473919Y-117113371D01*
X119473916Y-117113369D01*
X119473914Y-117113368D01*
X119473911Y-117113366D01*
X119473906Y-117113364D01*
X119446153Y-117101869D01*
X119441884Y-117100101D01*
X119441530Y-117099880D01*
X119439843Y-117099255D01*
X119371044Y-117070758D01*
X119291839Y-117037950D01*
X119291827Y-117037947D01*
X119262407Y-117032095D01*
X119262405Y-117032095D01*
X119253975Y-117030418D01*
X119251299Y-117029427D01*
X119241267Y-117027890D01*
X119238557Y-117027351D01*
X119238555Y-117027350D01*
X119098544Y-116999500D01*
X119098541Y-116999500D01*
X119055950Y-116999500D01*
X119050780Y-116998708D01*
X119035164Y-116999500D01*
X118901459Y-116999500D01*
X118864563Y-117006838D01*
X118864562Y-117006837D01*
X118855688Y-117008602D01*
X118848182Y-117008983D01*
X118829625Y-117013787D01*
X118826130Y-117014483D01*
X118708171Y-117037947D01*
X118708164Y-117037949D01*
X118669233Y-117054072D01*
X118669234Y-117054073D01*
X118661231Y-117057387D01*
X118651799Y-117059830D01*
X118632603Y-117069245D01*
X118628965Y-117070753D01*
X118628954Y-117070758D01*
X118526085Y-117113368D01*
X118487199Y-117139349D01*
X118487200Y-117139350D01*
X118480331Y-117143939D01*
X118469672Y-117149168D01*
X118451793Y-117163007D01*
X118448191Y-117165414D01*
X118448185Y-117165419D01*
X118362217Y-117222861D01*
X118325812Y-117259266D01*
X118325811Y-117259268D01*
X118320249Y-117264829D01*
X118309257Y-117273338D01*
X118294200Y-117290876D01*
X118290860Y-117294217D01*
X118290857Y-117294218D01*
X118222865Y-117362212D01*
X118222859Y-117362219D01*
X118191557Y-117409064D01*
X118187403Y-117415279D01*
X118177120Y-117427259D01*
X118165934Y-117447410D01*
X118163091Y-117451667D01*
X118113368Y-117526085D01*
X118113367Y-117526085D01*
X118089904Y-117582728D01*
X118089905Y-117582729D01*
X118087191Y-117589278D01*
X118078673Y-117604627D01*
X118071923Y-117626139D01*
X118069816Y-117631227D01*
X118069815Y-117631231D01*
X118037947Y-117708169D01*
X118024982Y-117773348D01*
X118023676Y-117779912D01*
X118017944Y-117798182D01*
X118015750Y-117819753D01*
X118014599Y-117825542D01*
X118014597Y-117825559D01*
X117999500Y-117901460D01*
X117999500Y-117973275D01*
X117998864Y-117985818D01*
X117997422Y-117999999D01*
X68725500Y-117999999D01*
X68725500Y-110558537D01*
X68745185Y-110491498D01*
X68761819Y-110470856D01*
X70887819Y-108344856D01*
X70949142Y-108311371D01*
X71018834Y-108316355D01*
X71074767Y-108358227D01*
X71099184Y-108423691D01*
X71099500Y-108432537D01*
X71099500Y-108565891D01*
X71133608Y-108693187D01*
X71166554Y-108750250D01*
X71199500Y-108807314D01*
X71292686Y-108900500D01*
X71312498Y-108911938D01*
X71360714Y-108962503D01*
X71374500Y-109019326D01*
X71374500Y-109866836D01*
X71374499Y-109866850D01*
X71374499Y-109966547D01*
X71374500Y-109966552D01*
X71398772Y-110025151D01*
X71408829Y-110049429D01*
X71408830Y-110049430D01*
X71472264Y-110112864D01*
X71472265Y-110112864D01*
X71489705Y-110130304D01*
X71489706Y-110130305D01*
X79087135Y-117727735D01*
X79150572Y-117791172D01*
X79214671Y-117817721D01*
X79233451Y-117825500D01*
X104875143Y-117825500D01*
X104875145Y-117825501D01*
X104964855Y-117825501D01*
X105023460Y-117801225D01*
X105047736Y-117791170D01*
X105111170Y-117727736D01*
X105111170Y-117727735D01*
X105128608Y-117710297D01*
X105128610Y-117710294D01*
X106769583Y-116069320D01*
X106830904Y-116035837D01*
X106900596Y-116040821D01*
X106904700Y-116042436D01*
X107071373Y-116111474D01*
X107262538Y-116149499D01*
X107262542Y-116149500D01*
X107262543Y-116149500D01*
X107457458Y-116149500D01*
X107457459Y-116149499D01*
X107648627Y-116111474D01*
X107828704Y-116036884D01*
X107990770Y-115928595D01*
X108128595Y-115790770D01*
X108236884Y-115628704D01*
X108311474Y-115448627D01*
X108349500Y-115257457D01*
X108349500Y-115062543D01*
X108349499Y-115062538D01*
X108910500Y-115062538D01*
X108910500Y-115257461D01*
X108948524Y-115448619D01*
X108948527Y-115448631D01*
X109023112Y-115628697D01*
X109023119Y-115628710D01*
X109131404Y-115790769D01*
X109131407Y-115790773D01*
X109269226Y-115928592D01*
X109269230Y-115928595D01*
X109431289Y-116036880D01*
X109431302Y-116036887D01*
X109611368Y-116111472D01*
X109611373Y-116111474D01*
X109802538Y-116149499D01*
X109802542Y-116149500D01*
X109802543Y-116149500D01*
X109997458Y-116149500D01*
X109997459Y-116149499D01*
X110188627Y-116111474D01*
X110368704Y-116036884D01*
X110530770Y-115928595D01*
X110668595Y-115790770D01*
X110776884Y-115628704D01*
X110851474Y-115448627D01*
X110889500Y-115257457D01*
X110889500Y-115062543D01*
X110851474Y-114871373D01*
X110843718Y-114852649D01*
X110776887Y-114691302D01*
X110776880Y-114691289D01*
X110668595Y-114529230D01*
X110668592Y-114529226D01*
X110530773Y-114391407D01*
X110530769Y-114391404D01*
X110368710Y-114283119D01*
X110368697Y-114283112D01*
X110188631Y-114208527D01*
X110188619Y-114208524D01*
X109997461Y-114170500D01*
X109997457Y-114170500D01*
X109802543Y-114170500D01*
X109802538Y-114170500D01*
X109611380Y-114208524D01*
X109611368Y-114208527D01*
X109431302Y-114283112D01*
X109431289Y-114283119D01*
X109269230Y-114391404D01*
X109269226Y-114391407D01*
X109131407Y-114529226D01*
X109131404Y-114529230D01*
X109023119Y-114691289D01*
X109023112Y-114691302D01*
X108948527Y-114871368D01*
X108948524Y-114871380D01*
X108910500Y-115062538D01*
X108349499Y-115062538D01*
X108311474Y-114871373D01*
X108303718Y-114852649D01*
X108236887Y-114691302D01*
X108236880Y-114691289D01*
X108128595Y-114529230D01*
X108128592Y-114529226D01*
X107990773Y-114391407D01*
X107990769Y-114391404D01*
X107828710Y-114283119D01*
X107828697Y-114283112D01*
X107648631Y-114208527D01*
X107648619Y-114208524D01*
X107457461Y-114170500D01*
X107457457Y-114170500D01*
X107262543Y-114170500D01*
X107262538Y-114170500D01*
X107071380Y-114208524D01*
X107071368Y-114208527D01*
X106891302Y-114283112D01*
X106891289Y-114283119D01*
X106729230Y-114391404D01*
X106729226Y-114391407D01*
X106591407Y-114529226D01*
X106591404Y-114529230D01*
X106483119Y-114691289D01*
X106483114Y-114691298D01*
X106411900Y-114863227D01*
X106368059Y-114917630D01*
X106301765Y-114939695D01*
X106234066Y-114922416D01*
X106186455Y-114871279D01*
X106176224Y-114839403D01*
X106175934Y-114839473D01*
X106175004Y-114835601D01*
X106174865Y-114835166D01*
X106174797Y-114834739D01*
X106107238Y-114626811D01*
X106107237Y-114626808D01*
X106007980Y-114432008D01*
X105963191Y-114370360D01*
X105963190Y-114370360D01*
X105257647Y-115075905D01*
X105234208Y-114988429D01*
X105175689Y-114887070D01*
X105092930Y-114804311D01*
X104991571Y-114745792D01*
X104904092Y-114722352D01*
X105609638Y-114016807D01*
X105609638Y-114016806D01*
X105547995Y-113972021D01*
X105547993Y-113972020D01*
X105353191Y-113872762D01*
X105353188Y-113872761D01*
X105145259Y-113805202D01*
X104929316Y-113771000D01*
X104710684Y-113771000D01*
X104494740Y-113805202D01*
X104286811Y-113872761D01*
X104286808Y-113872762D01*
X104092001Y-113972023D01*
X104030360Y-114016806D01*
X104030360Y-114016807D01*
X104735905Y-114722352D01*
X104648429Y-114745792D01*
X104547070Y-114804311D01*
X104464311Y-114887070D01*
X104405792Y-114988429D01*
X104382352Y-115075905D01*
X103676807Y-114370360D01*
X103676806Y-114370360D01*
X103632023Y-114432001D01*
X103532762Y-114626808D01*
X103532761Y-114626811D01*
X103465202Y-114834740D01*
X103431000Y-115050683D01*
X103431000Y-115269316D01*
X103465202Y-115485259D01*
X103532761Y-115693188D01*
X103532762Y-115693191D01*
X103632020Y-115887993D01*
X103632021Y-115887995D01*
X103676806Y-115949638D01*
X103676807Y-115949638D01*
X104382352Y-115244093D01*
X104405792Y-115331571D01*
X104464311Y-115432930D01*
X104547070Y-115515689D01*
X104648429Y-115574208D01*
X104735905Y-115597647D01*
X104030360Y-116303190D01*
X104030360Y-116303191D01*
X104092008Y-116347980D01*
X104286808Y-116447237D01*
X104286811Y-116447238D01*
X104494740Y-116514797D01*
X104710684Y-116549000D01*
X104929316Y-116549000D01*
X105145259Y-116514797D01*
X105353188Y-116447238D01*
X105353195Y-116447235D01*
X105472512Y-116386439D01*
X105541181Y-116373542D01*
X105605922Y-116399818D01*
X105646179Y-116456924D01*
X105649172Y-116526729D01*
X105616489Y-116584604D01*
X104862914Y-117338181D01*
X104801591Y-117371666D01*
X104775233Y-117374500D01*
X79423074Y-117374500D01*
X79356035Y-117354815D01*
X79335393Y-117338181D01*
X76148959Y-114151747D01*
X73159392Y-111162181D01*
X73125907Y-111100858D01*
X73130891Y-111031166D01*
X73172763Y-110975233D01*
X73238227Y-110950816D01*
X73247073Y-110950500D01*
X73293617Y-110950500D01*
X73293618Y-110950499D01*
X73477251Y-110913973D01*
X73650231Y-110842322D01*
X73805908Y-110738302D01*
X73938302Y-110605908D01*
X74042322Y-110450231D01*
X74042323Y-110450228D01*
X74042325Y-110450225D01*
X74061313Y-110404383D01*
X74105153Y-110349979D01*
X74171447Y-110327914D01*
X74239147Y-110345193D01*
X74263555Y-110364154D01*
X75096065Y-111196664D01*
X75096068Y-111196668D01*
X75166572Y-111267172D01*
X75230671Y-111293721D01*
X75249451Y-111301500D01*
X89471103Y-111301500D01*
X89471105Y-111301501D01*
X89560815Y-111301501D01*
X89619420Y-111277225D01*
X89643696Y-111267170D01*
X89707130Y-111203736D01*
X89707130Y-111203735D01*
X89724568Y-111186297D01*
X89724570Y-111186294D01*
X89937752Y-110973111D01*
X89999073Y-110939628D01*
X90068765Y-110944612D01*
X90124698Y-110986484D01*
X90149115Y-111051948D01*
X90145206Y-111092886D01*
X90135442Y-111129326D01*
X90135438Y-111129344D01*
X90099501Y-111402315D01*
X90099500Y-111402332D01*
X90099500Y-111677667D01*
X90099501Y-111677684D01*
X90135438Y-111950655D01*
X90135439Y-111950660D01*
X90135440Y-111950666D01*
X90171072Y-112083649D01*
X90206704Y-112216630D01*
X90312075Y-112471017D01*
X90312080Y-112471028D01*
X90384967Y-112597270D01*
X90449751Y-112709479D01*
X90449753Y-112709482D01*
X90449754Y-112709483D01*
X90617370Y-112927926D01*
X90617376Y-112927933D01*
X90812066Y-113122623D01*
X90812072Y-113122628D01*
X91030521Y-113290249D01*
X91183778Y-113378732D01*
X91268971Y-113427919D01*
X91268976Y-113427921D01*
X91268979Y-113427923D01*
X91523368Y-113533295D01*
X91789334Y-113604560D01*
X92062326Y-113640500D01*
X92062333Y-113640500D01*
X92337667Y-113640500D01*
X92337674Y-113640500D01*
X92610666Y-113604560D01*
X92876632Y-113533295D01*
X93131021Y-113427923D01*
X93369479Y-113290249D01*
X93587928Y-113122628D01*
X93782628Y-112927928D01*
X93950249Y-112709479D01*
X94087923Y-112471021D01*
X94193295Y-112216632D01*
X94264560Y-111950666D01*
X94300500Y-111677674D01*
X94300500Y-111569628D01*
X98496500Y-111569628D01*
X98496500Y-111765371D01*
X98527118Y-111958687D01*
X98587604Y-112144842D01*
X98676466Y-112319239D01*
X98791505Y-112477580D01*
X98929919Y-112615994D01*
X99062495Y-112712314D01*
X99088264Y-112731036D01*
X99199386Y-112787656D01*
X99262657Y-112819895D01*
X99262659Y-112819895D01*
X99262662Y-112819897D01*
X99362444Y-112852318D01*
X99448812Y-112880381D01*
X99642129Y-112911000D01*
X99642134Y-112911000D01*
X99837871Y-112911000D01*
X100031187Y-112880381D01*
X100088798Y-112861662D01*
X100217338Y-112819897D01*
X100391736Y-112731036D01*
X100480641Y-112666443D01*
X100550080Y-112615994D01*
X100550082Y-112615991D01*
X100550086Y-112615989D01*
X100688489Y-112477586D01*
X100688491Y-112477582D01*
X100688494Y-112477580D01*
X100738943Y-112408141D01*
X100803536Y-112319236D01*
X100892397Y-112144838D01*
X100952881Y-111958687D01*
X100955846Y-111939968D01*
X100983500Y-111765371D01*
X100983500Y-111569628D01*
X113736500Y-111569628D01*
X113736500Y-111765371D01*
X113767118Y-111958687D01*
X113827604Y-112144842D01*
X113916466Y-112319239D01*
X114031505Y-112477580D01*
X114169919Y-112615994D01*
X114302495Y-112712314D01*
X114328264Y-112731036D01*
X114439386Y-112787656D01*
X114502657Y-112819895D01*
X114502659Y-112819895D01*
X114502662Y-112819897D01*
X114602444Y-112852318D01*
X114688812Y-112880381D01*
X114882129Y-112911000D01*
X114882134Y-112911000D01*
X115077871Y-112911000D01*
X115271187Y-112880381D01*
X115328798Y-112861662D01*
X115457338Y-112819897D01*
X115631736Y-112731036D01*
X115720641Y-112666443D01*
X115790080Y-112615994D01*
X115790082Y-112615991D01*
X115790086Y-112615989D01*
X115928489Y-112477586D01*
X115928491Y-112477582D01*
X115928494Y-112477580D01*
X115978943Y-112408141D01*
X116043536Y-112319236D01*
X116132397Y-112144838D01*
X116192881Y-111958687D01*
X116195846Y-111939968D01*
X116223500Y-111765371D01*
X116223500Y-111569628D01*
X116192881Y-111376312D01*
X116136807Y-111203736D01*
X116132397Y-111190162D01*
X116132395Y-111190159D01*
X116132395Y-111190157D01*
X116082832Y-111092886D01*
X116043536Y-111015764D01*
X115996349Y-110950816D01*
X115928494Y-110857419D01*
X115790080Y-110719005D01*
X115631739Y-110603966D01*
X115631738Y-110603965D01*
X115631736Y-110603964D01*
X115577276Y-110576215D01*
X115457342Y-110515104D01*
X115271187Y-110454618D01*
X115077871Y-110424000D01*
X115077866Y-110424000D01*
X114882134Y-110424000D01*
X114882129Y-110424000D01*
X114688812Y-110454618D01*
X114502657Y-110515104D01*
X114328260Y-110603966D01*
X114169919Y-110719005D01*
X114031505Y-110857419D01*
X113916466Y-111015760D01*
X113827604Y-111190157D01*
X113767118Y-111376312D01*
X113736500Y-111569628D01*
X100983500Y-111569628D01*
X100952881Y-111376312D01*
X100896807Y-111203736D01*
X100892397Y-111190162D01*
X100892395Y-111190159D01*
X100892395Y-111190157D01*
X100842832Y-111092886D01*
X100803536Y-111015764D01*
X100756349Y-110950816D01*
X100688494Y-110857419D01*
X100550080Y-110719005D01*
X100391739Y-110603966D01*
X100391738Y-110603965D01*
X100391736Y-110603964D01*
X100337276Y-110576215D01*
X100217342Y-110515104D01*
X100031187Y-110454618D01*
X99837871Y-110424000D01*
X99837866Y-110424000D01*
X99642134Y-110424000D01*
X99642129Y-110424000D01*
X99448812Y-110454618D01*
X99262657Y-110515104D01*
X99088260Y-110603966D01*
X98929919Y-110719005D01*
X98791505Y-110857419D01*
X98676466Y-111015760D01*
X98587604Y-111190157D01*
X98527118Y-111376312D01*
X98496500Y-111569628D01*
X94300500Y-111569628D01*
X94300500Y-111402326D01*
X94264560Y-111129334D01*
X94193295Y-110863368D01*
X94087923Y-110608979D01*
X94087921Y-110608976D01*
X94087919Y-110608971D01*
X94020095Y-110491498D01*
X93950249Y-110370521D01*
X93782628Y-110152072D01*
X93782623Y-110152066D01*
X93587933Y-109957376D01*
X93587926Y-109957370D01*
X93369483Y-109789754D01*
X93369482Y-109789753D01*
X93369479Y-109789751D01*
X93274407Y-109734861D01*
X93131028Y-109652080D01*
X93131017Y-109652075D01*
X92876630Y-109546704D01*
X92737597Y-109509451D01*
X92610666Y-109475440D01*
X92610660Y-109475439D01*
X92610655Y-109475438D01*
X92337684Y-109439501D01*
X92337679Y-109439500D01*
X92337674Y-109439500D01*
X92062326Y-109439500D01*
X92062320Y-109439500D01*
X92062315Y-109439501D01*
X91789344Y-109475438D01*
X91789336Y-109475439D01*
X91789334Y-109475440D01*
X91789329Y-109475441D01*
X91789326Y-109475442D01*
X91752886Y-109485206D01*
X91683036Y-109483543D01*
X91625174Y-109444379D01*
X91597671Y-109380151D01*
X91609258Y-109311248D01*
X91633110Y-109277753D01*
X93468326Y-107442538D01*
X96210500Y-107442538D01*
X96210500Y-107637461D01*
X96248524Y-107828619D01*
X96248527Y-107828631D01*
X96323112Y-108008697D01*
X96323119Y-108008710D01*
X96431404Y-108170769D01*
X96431407Y-108170773D01*
X96569226Y-108308592D01*
X96569230Y-108308595D01*
X96731289Y-108416880D01*
X96731302Y-108416887D01*
X96871951Y-108475145D01*
X96911373Y-108491474D01*
X97102538Y-108529499D01*
X97102542Y-108529500D01*
X97102543Y-108529500D01*
X97297458Y-108529500D01*
X97297459Y-108529499D01*
X97488627Y-108491474D01*
X97630914Y-108432537D01*
X97668697Y-108416887D01*
X97668697Y-108416886D01*
X97668704Y-108416884D01*
X97830770Y-108308595D01*
X97968595Y-108170770D01*
X98076884Y-108008704D01*
X98151474Y-107828627D01*
X98189500Y-107637457D01*
X98189500Y-107442543D01*
X98151474Y-107251373D01*
X98139230Y-107221814D01*
X98076887Y-107071302D01*
X98076880Y-107071289D01*
X97968595Y-106909230D01*
X97968592Y-106909226D01*
X97830773Y-106771407D01*
X97830769Y-106771404D01*
X97668710Y-106663119D01*
X97668697Y-106663112D01*
X97488631Y-106588527D01*
X97488619Y-106588524D01*
X97297461Y-106550500D01*
X97297457Y-106550500D01*
X97102543Y-106550500D01*
X97102538Y-106550500D01*
X96911380Y-106588524D01*
X96911368Y-106588527D01*
X96731302Y-106663112D01*
X96731289Y-106663119D01*
X96569230Y-106771404D01*
X96569226Y-106771407D01*
X96431407Y-106909226D01*
X96431404Y-106909230D01*
X96323119Y-107071289D01*
X96323112Y-107071302D01*
X96248527Y-107251368D01*
X96248524Y-107251380D01*
X96210500Y-107442538D01*
X93468326Y-107442538D01*
X95649046Y-105261819D01*
X95710369Y-105228334D01*
X95736727Y-105225500D01*
X96139524Y-105225500D01*
X96206563Y-105245185D01*
X96252318Y-105297989D01*
X96254085Y-105302048D01*
X96323112Y-105468697D01*
X96323119Y-105468710D01*
X96431404Y-105630769D01*
X96431407Y-105630773D01*
X96569226Y-105768592D01*
X96569230Y-105768595D01*
X96731289Y-105876880D01*
X96731302Y-105876887D01*
X96911368Y-105951472D01*
X96911373Y-105951474D01*
X97102538Y-105989499D01*
X97102542Y-105989500D01*
X97102543Y-105989500D01*
X97297458Y-105989500D01*
X97297459Y-105989499D01*
X97488627Y-105951474D01*
X97668704Y-105876884D01*
X97830770Y-105768595D01*
X97968595Y-105630770D01*
X98076884Y-105468704D01*
X98151474Y-105288627D01*
X98189500Y-105097457D01*
X98189500Y-104902543D01*
X98151474Y-104711373D01*
X98102520Y-104593186D01*
X98076887Y-104531302D01*
X98076880Y-104531289D01*
X97968595Y-104369230D01*
X97968592Y-104369226D01*
X97830773Y-104231407D01*
X97830769Y-104231404D01*
X97668710Y-104123119D01*
X97668697Y-104123112D01*
X97496773Y-104051900D01*
X97442369Y-104008059D01*
X97420304Y-103941765D01*
X97437583Y-103874066D01*
X97488720Y-103826455D01*
X97520596Y-103816224D01*
X97520527Y-103815934D01*
X97524394Y-103815005D01*
X97524836Y-103814864D01*
X97525264Y-103814796D01*
X97733188Y-103747238D01*
X97733191Y-103747237D01*
X97927995Y-103647978D01*
X97989638Y-103603191D01*
X97989639Y-103603191D01*
X97284094Y-102897647D01*
X97371571Y-102874208D01*
X97472930Y-102815689D01*
X97555689Y-102732930D01*
X97614208Y-102631571D01*
X97637647Y-102544095D01*
X98343191Y-103249639D01*
X98343191Y-103249638D01*
X98387978Y-103187995D01*
X98487237Y-102993191D01*
X98487238Y-102993188D01*
X98554797Y-102785259D01*
X98589000Y-102569316D01*
X98589000Y-102350683D01*
X98554797Y-102134740D01*
X98487238Y-101926811D01*
X98487237Y-101926808D01*
X98387980Y-101732008D01*
X98343191Y-101670360D01*
X97637647Y-102375904D01*
X97614208Y-102288429D01*
X97555689Y-102187070D01*
X97472930Y-102104311D01*
X97371571Y-102045792D01*
X97284092Y-102022352D01*
X97989638Y-101316807D01*
X97989638Y-101316806D01*
X97927995Y-101272021D01*
X97927993Y-101272020D01*
X97733191Y-101172762D01*
X97733188Y-101172761D01*
X97525259Y-101105202D01*
X97309316Y-101071000D01*
X97090684Y-101071000D01*
X96874740Y-101105202D01*
X96666811Y-101172761D01*
X96666808Y-101172762D01*
X96472001Y-101272023D01*
X96410360Y-101316806D01*
X96410360Y-101316807D01*
X97115905Y-102022352D01*
X97028429Y-102045792D01*
X96927070Y-102104311D01*
X96844311Y-102187070D01*
X96785792Y-102288429D01*
X96762352Y-102375905D01*
X96056807Y-101670360D01*
X96056806Y-101670360D01*
X96012023Y-101732001D01*
X95912762Y-101926808D01*
X95912761Y-101926811D01*
X95845202Y-102134740D01*
X95811000Y-102350683D01*
X95811000Y-102569316D01*
X95845202Y-102785259D01*
X95912761Y-102993188D01*
X95912762Y-102993191D01*
X96012020Y-103187993D01*
X96012021Y-103187995D01*
X96056806Y-103249638D01*
X96056807Y-103249638D01*
X96762352Y-102544093D01*
X96785792Y-102631571D01*
X96844311Y-102732930D01*
X96927070Y-102815689D01*
X97028429Y-102874208D01*
X97115905Y-102897647D01*
X96410360Y-103603191D01*
X96472008Y-103647980D01*
X96666808Y-103747237D01*
X96666811Y-103747238D01*
X96874739Y-103814797D01*
X96875166Y-103814865D01*
X96875316Y-103814936D01*
X96879473Y-103815934D01*
X96879263Y-103816807D01*
X96938302Y-103844791D01*
X96975236Y-103904101D01*
X96974242Y-103973964D01*
X96935635Y-104032198D01*
X96903227Y-104051900D01*
X96731298Y-104123114D01*
X96731289Y-104123119D01*
X96569230Y-104231404D01*
X96569226Y-104231407D01*
X96431407Y-104369226D01*
X96431404Y-104369230D01*
X96323119Y-104531289D01*
X96323112Y-104531302D01*
X96254085Y-104697952D01*
X96210244Y-104752356D01*
X96143950Y-104774421D01*
X96139524Y-104774500D01*
X95651257Y-104774500D01*
X95651249Y-104774499D01*
X95636815Y-104774499D01*
X95547106Y-104774499D01*
X95547104Y-104774499D01*
X95547102Y-104774500D01*
X95498554Y-104794609D01*
X95464225Y-104808828D01*
X95432508Y-104840546D01*
X95400790Y-104872264D01*
X95400789Y-104872265D01*
X89458874Y-110814181D01*
X89397551Y-110847666D01*
X89371193Y-110850500D01*
X81613073Y-110850500D01*
X81546034Y-110830815D01*
X81500279Y-110778011D01*
X81490335Y-110708853D01*
X81519360Y-110645297D01*
X81525392Y-110638819D01*
X81558299Y-110605911D01*
X81558302Y-110605908D01*
X81662322Y-110450231D01*
X81733973Y-110277251D01*
X81770500Y-110093616D01*
X81770500Y-109906384D01*
X81733973Y-109722749D01*
X81704699Y-109652075D01*
X81672593Y-109574563D01*
X81665124Y-109505094D01*
X81696399Y-109442615D01*
X81699445Y-109439458D01*
X82427734Y-108711170D01*
X82427736Y-108711170D01*
X82491170Y-108647736D01*
X82501225Y-108623460D01*
X82525501Y-108564855D01*
X82525501Y-108475145D01*
X82525501Y-108465156D01*
X82525500Y-108465142D01*
X82525500Y-101819326D01*
X82545185Y-101752287D01*
X82587500Y-101711939D01*
X82607314Y-101700500D01*
X82700500Y-101607314D01*
X82766392Y-101493186D01*
X82800500Y-101365892D01*
X82800500Y-101234108D01*
X82766392Y-101106814D01*
X82700500Y-100992686D01*
X82607314Y-100899500D01*
X82493186Y-100833608D01*
X82365892Y-100799500D01*
X82234108Y-100799500D01*
X82106812Y-100833608D01*
X81992686Y-100899500D01*
X81992683Y-100899502D01*
X81899502Y-100992683D01*
X81899500Y-100992686D01*
X81833608Y-101106812D01*
X81799500Y-101234108D01*
X81799500Y-101365891D01*
X81833608Y-101493187D01*
X81866554Y-101550250D01*
X81899500Y-101607314D01*
X81992686Y-101700500D01*
X82012498Y-101711938D01*
X82060714Y-101762503D01*
X82074500Y-101819326D01*
X82074500Y-108375232D01*
X82054815Y-108442271D01*
X82038181Y-108462913D01*
X81380567Y-109120526D01*
X81319244Y-109154011D01*
X81249552Y-109149027D01*
X81245433Y-109147406D01*
X81097251Y-109086027D01*
X81097243Y-109086025D01*
X80913620Y-109049500D01*
X80913616Y-109049500D01*
X80726384Y-109049500D01*
X80726379Y-109049500D01*
X80542756Y-109086025D01*
X80542748Y-109086027D01*
X80369771Y-109157676D01*
X80369762Y-109157681D01*
X80214092Y-109261697D01*
X80214088Y-109261700D01*
X80081700Y-109394088D01*
X80081697Y-109394092D01*
X79977681Y-109549762D01*
X79977676Y-109549771D01*
X79906027Y-109722748D01*
X79906025Y-109722756D01*
X79869500Y-109906379D01*
X79869500Y-110093620D01*
X79906025Y-110277243D01*
X79906027Y-110277251D01*
X79977676Y-110450228D01*
X79977681Y-110450237D01*
X80081697Y-110605907D01*
X80081700Y-110605911D01*
X80114608Y-110638819D01*
X80148093Y-110700142D01*
X80143109Y-110769834D01*
X80101237Y-110825767D01*
X80035773Y-110850184D01*
X80026927Y-110850500D01*
X79073073Y-110850500D01*
X79006034Y-110830815D01*
X78960279Y-110778011D01*
X78950335Y-110708853D01*
X78979360Y-110645297D01*
X78985392Y-110638819D01*
X79018299Y-110605911D01*
X79018302Y-110605908D01*
X79122322Y-110450231D01*
X79193973Y-110277251D01*
X79230500Y-110093616D01*
X79230500Y-109906384D01*
X79193973Y-109722749D01*
X79122322Y-109549769D01*
X79122321Y-109549768D01*
X79122318Y-109549762D01*
X79018302Y-109394092D01*
X79018299Y-109394088D01*
X78885911Y-109261700D01*
X78885907Y-109261697D01*
X78730237Y-109157681D01*
X78730228Y-109157676D01*
X78582047Y-109096298D01*
X78527644Y-109052457D01*
X78505579Y-108986163D01*
X78505500Y-108981737D01*
X78505500Y-103364766D01*
X78525185Y-103297727D01*
X78541814Y-103277090D01*
X80592234Y-101226669D01*
X80653555Y-101193186D01*
X80712006Y-101194577D01*
X80734108Y-101200500D01*
X80734110Y-101200500D01*
X80865890Y-101200500D01*
X80865892Y-101200500D01*
X80993186Y-101166392D01*
X81107314Y-101100500D01*
X81200500Y-101007314D01*
X81266392Y-100893186D01*
X81300500Y-100765892D01*
X81300500Y-100734108D01*
X85399500Y-100734108D01*
X85399500Y-100865891D01*
X85433608Y-100993187D01*
X85441766Y-101007316D01*
X85499500Y-101107314D01*
X85592686Y-101200500D01*
X85706814Y-101266392D01*
X85834108Y-101300500D01*
X85834110Y-101300500D01*
X85965890Y-101300500D01*
X85965892Y-101300500D01*
X86093186Y-101266392D01*
X86207314Y-101200500D01*
X86300500Y-101107314D01*
X86366392Y-100993186D01*
X86400500Y-100865892D01*
X86400500Y-100734108D01*
X86366392Y-100606814D01*
X86300500Y-100492686D01*
X86207314Y-100399500D01*
X86150250Y-100366554D01*
X86093187Y-100333608D01*
X86029539Y-100316554D01*
X85965892Y-100299500D01*
X85834108Y-100299500D01*
X85706812Y-100333608D01*
X85592686Y-100399500D01*
X85592683Y-100399502D01*
X85499502Y-100492683D01*
X85499500Y-100492686D01*
X85433608Y-100606812D01*
X85399500Y-100734108D01*
X81300500Y-100734108D01*
X81300500Y-100634108D01*
X81266392Y-100506814D01*
X81200500Y-100392686D01*
X81107314Y-100299500D01*
X81050250Y-100266554D01*
X80993187Y-100233608D01*
X80929539Y-100216554D01*
X80865892Y-100199500D01*
X80734108Y-100199500D01*
X80606812Y-100233608D01*
X80492686Y-100299500D01*
X80492683Y-100299502D01*
X80399502Y-100392683D01*
X80399500Y-100392686D01*
X80333608Y-100506812D01*
X80299500Y-100634108D01*
X80299500Y-100765893D01*
X80305422Y-100787996D01*
X80303756Y-100857846D01*
X80273327Y-100907766D01*
X78152265Y-103028829D01*
X78152263Y-103028831D01*
X78111086Y-103070007D01*
X78049763Y-103103492D01*
X77980071Y-103098506D01*
X77924138Y-103056634D01*
X77899722Y-102991170D01*
X77900468Y-102966133D01*
X77900500Y-102965890D01*
X77900500Y-102834110D01*
X77900500Y-102834108D01*
X77866392Y-102706814D01*
X77800500Y-102592686D01*
X77707314Y-102499500D01*
X77638898Y-102460000D01*
X77593187Y-102433608D01*
X77529539Y-102416554D01*
X77465892Y-102399500D01*
X77334108Y-102399500D01*
X77206812Y-102433608D01*
X77092686Y-102499500D01*
X77092683Y-102499502D01*
X76999501Y-102592684D01*
X76999497Y-102592689D01*
X76988060Y-102612500D01*
X76937493Y-102660716D01*
X76880673Y-102674500D01*
X76361147Y-102674500D01*
X76294108Y-102654815D01*
X76248353Y-102602011D01*
X76238409Y-102532853D01*
X76267434Y-102469297D01*
X76273466Y-102462819D01*
X81721008Y-97015276D01*
X81782331Y-96981791D01*
X81852023Y-96986775D01*
X81896370Y-97015276D01*
X83873327Y-98992233D01*
X83906812Y-99053556D01*
X83905422Y-99112002D01*
X83899500Y-99134103D01*
X83899500Y-99265891D01*
X83933608Y-99393187D01*
X83966554Y-99450250D01*
X83999500Y-99507314D01*
X84092686Y-99600500D01*
X84206814Y-99666392D01*
X84334108Y-99700500D01*
X84334110Y-99700500D01*
X84465890Y-99700500D01*
X84465892Y-99700500D01*
X84593186Y-99666392D01*
X84707314Y-99600500D01*
X84800500Y-99507314D01*
X84866392Y-99393186D01*
X84900500Y-99265892D01*
X84900500Y-99134108D01*
X84866392Y-99006814D01*
X84800500Y-98892686D01*
X84707314Y-98799500D01*
X84650250Y-98766554D01*
X84593187Y-98733608D01*
X84529539Y-98716554D01*
X84465892Y-98699500D01*
X84334108Y-98699500D01*
X84334103Y-98699500D01*
X84312002Y-98705422D01*
X84242152Y-98703756D01*
X84192233Y-98673327D01*
X83932568Y-98413662D01*
X83853014Y-98334108D01*
X91299500Y-98334108D01*
X91299500Y-98465891D01*
X91333608Y-98593187D01*
X91340410Y-98604968D01*
X91399500Y-98707314D01*
X91492686Y-98800500D01*
X91606814Y-98866392D01*
X91734108Y-98900500D01*
X91734110Y-98900500D01*
X91865890Y-98900500D01*
X91865892Y-98900500D01*
X91993186Y-98866392D01*
X92107314Y-98800500D01*
X92200500Y-98707314D01*
X92266392Y-98593186D01*
X92300500Y-98465892D01*
X92300500Y-98334108D01*
X92273845Y-98234628D01*
X98496500Y-98234628D01*
X98496500Y-98430371D01*
X98527118Y-98623687D01*
X98587604Y-98809842D01*
X98676466Y-98984239D01*
X98791505Y-99142580D01*
X98929919Y-99280994D01*
X99062495Y-99377314D01*
X99088264Y-99396036D01*
X99162984Y-99434108D01*
X99262657Y-99484895D01*
X99262659Y-99484895D01*
X99262662Y-99484897D01*
X99331655Y-99507314D01*
X99448812Y-99545381D01*
X99642129Y-99576000D01*
X99642134Y-99576000D01*
X99837871Y-99576000D01*
X100031187Y-99545381D01*
X100088798Y-99526662D01*
X100217338Y-99484897D01*
X100391736Y-99396036D01*
X100514541Y-99306814D01*
X100550080Y-99280994D01*
X100550082Y-99280991D01*
X100550086Y-99280989D01*
X100688489Y-99142586D01*
X100688491Y-99142582D01*
X100688494Y-99142580D01*
X100738943Y-99073141D01*
X100803536Y-98984236D01*
X100892397Y-98809838D01*
X100952881Y-98623687D01*
X100955846Y-98604968D01*
X100983500Y-98430371D01*
X100983500Y-98234628D01*
X100952881Y-98041312D01*
X100892395Y-97855157D01*
X100860156Y-97791886D01*
X100803536Y-97680764D01*
X100781112Y-97649900D01*
X100688494Y-97522419D01*
X100550084Y-97384009D01*
X100550082Y-97384008D01*
X100540132Y-97376778D01*
X100540120Y-97376770D01*
X100410420Y-97282538D01*
X103195500Y-97282538D01*
X103195500Y-97477461D01*
X103233524Y-97668619D01*
X103233527Y-97668631D01*
X103308112Y-97848697D01*
X103308119Y-97848710D01*
X103416404Y-98010769D01*
X103416407Y-98010773D01*
X103554226Y-98148592D01*
X103554230Y-98148595D01*
X103716289Y-98256880D01*
X103716302Y-98256887D01*
X103896368Y-98331472D01*
X103896373Y-98331474D01*
X104087538Y-98369499D01*
X104087542Y-98369500D01*
X104087543Y-98369500D01*
X104282458Y-98369500D01*
X104282459Y-98369499D01*
X104473627Y-98331474D01*
X104653704Y-98256884D01*
X104815770Y-98148595D01*
X104953595Y-98010770D01*
X105061884Y-97848704D01*
X105136474Y-97668627D01*
X105174500Y-97477457D01*
X105174500Y-97282543D01*
X105174499Y-97282538D01*
X109545500Y-97282538D01*
X109545500Y-97477461D01*
X109583524Y-97668619D01*
X109583527Y-97668631D01*
X109658112Y-97848697D01*
X109658119Y-97848710D01*
X109766404Y-98010769D01*
X109766407Y-98010773D01*
X109904226Y-98148592D01*
X109904230Y-98148595D01*
X110066289Y-98256880D01*
X110066302Y-98256887D01*
X110246368Y-98331472D01*
X110246373Y-98331474D01*
X110437538Y-98369499D01*
X110437542Y-98369500D01*
X110437543Y-98369500D01*
X110632458Y-98369500D01*
X110632459Y-98369499D01*
X110823627Y-98331474D01*
X111003704Y-98256884D01*
X111037012Y-98234628D01*
X113736500Y-98234628D01*
X113736500Y-98430371D01*
X113767118Y-98623687D01*
X113827604Y-98809842D01*
X113916466Y-98984239D01*
X114031505Y-99142580D01*
X114169919Y-99280994D01*
X114302495Y-99377314D01*
X114328264Y-99396036D01*
X114402984Y-99434108D01*
X114502657Y-99484895D01*
X114502659Y-99484895D01*
X114502662Y-99484897D01*
X114571655Y-99507314D01*
X114688812Y-99545381D01*
X114882129Y-99576000D01*
X114882134Y-99576000D01*
X115077871Y-99576000D01*
X115271187Y-99545381D01*
X115328798Y-99526662D01*
X115457338Y-99484897D01*
X115631736Y-99396036D01*
X115754541Y-99306814D01*
X115790080Y-99280994D01*
X115790082Y-99280991D01*
X115790086Y-99280989D01*
X115928489Y-99142586D01*
X115928491Y-99142582D01*
X115928494Y-99142580D01*
X115978943Y-99073141D01*
X116043536Y-98984236D01*
X116132397Y-98809838D01*
X116192881Y-98623687D01*
X116195846Y-98604968D01*
X116223500Y-98430371D01*
X116223500Y-98234628D01*
X116192881Y-98041312D01*
X116132395Y-97855157D01*
X116100156Y-97791886D01*
X116043536Y-97680764D01*
X116021112Y-97649900D01*
X115928494Y-97522419D01*
X115790080Y-97384005D01*
X115631739Y-97268966D01*
X115631738Y-97268965D01*
X115631736Y-97268964D01*
X115564095Y-97234499D01*
X115457342Y-97180104D01*
X115271187Y-97119618D01*
X115077871Y-97089000D01*
X115077866Y-97089000D01*
X114882134Y-97089000D01*
X114882129Y-97089000D01*
X114688812Y-97119618D01*
X114502657Y-97180104D01*
X114328260Y-97268966D01*
X114169919Y-97384005D01*
X114031505Y-97522419D01*
X113916466Y-97680760D01*
X113827604Y-97855157D01*
X113767118Y-98041312D01*
X113736500Y-98234628D01*
X111037012Y-98234628D01*
X111165770Y-98148595D01*
X111165773Y-98148592D01*
X111172285Y-98142081D01*
X111303592Y-98010773D01*
X111303595Y-98010770D01*
X111411884Y-97848704D01*
X111486474Y-97668627D01*
X111524500Y-97477457D01*
X111524500Y-97282543D01*
X111486474Y-97091373D01*
X111477838Y-97070523D01*
X111411887Y-96911302D01*
X111411880Y-96911289D01*
X111303595Y-96749230D01*
X111303592Y-96749226D01*
X111165773Y-96611407D01*
X111165769Y-96611404D01*
X111003710Y-96503119D01*
X111003697Y-96503112D01*
X110823631Y-96428527D01*
X110823619Y-96428524D01*
X110632461Y-96390500D01*
X110632457Y-96390500D01*
X110437543Y-96390500D01*
X110437538Y-96390500D01*
X110246380Y-96428524D01*
X110246368Y-96428527D01*
X110066302Y-96503112D01*
X110066289Y-96503119D01*
X109904230Y-96611404D01*
X109904226Y-96611407D01*
X109766407Y-96749226D01*
X109766404Y-96749230D01*
X109658119Y-96911289D01*
X109658112Y-96911302D01*
X109583527Y-97091368D01*
X109583524Y-97091380D01*
X109545500Y-97282538D01*
X105174499Y-97282538D01*
X105136474Y-97091373D01*
X105127838Y-97070523D01*
X105061887Y-96911302D01*
X105061880Y-96911289D01*
X104953595Y-96749230D01*
X104953592Y-96749226D01*
X104815773Y-96611407D01*
X104815769Y-96611404D01*
X104653710Y-96503119D01*
X104653697Y-96503112D01*
X104473631Y-96428527D01*
X104473619Y-96428524D01*
X104282461Y-96390500D01*
X104282457Y-96390500D01*
X104087543Y-96390500D01*
X104087538Y-96390500D01*
X103896380Y-96428524D01*
X103896368Y-96428527D01*
X103716302Y-96503112D01*
X103716289Y-96503119D01*
X103554230Y-96611404D01*
X103554226Y-96611407D01*
X103416407Y-96749226D01*
X103416404Y-96749230D01*
X103308119Y-96911289D01*
X103308112Y-96911302D01*
X103233527Y-97091368D01*
X103233524Y-97091380D01*
X103195500Y-97282538D01*
X100410420Y-97282538D01*
X100391735Y-97268963D01*
X100217342Y-97180104D01*
X100031187Y-97119618D01*
X99837871Y-97089000D01*
X99837866Y-97089000D01*
X99642134Y-97089000D01*
X99642129Y-97089000D01*
X99448812Y-97119618D01*
X99262657Y-97180104D01*
X99088260Y-97268966D01*
X98929919Y-97384005D01*
X98791505Y-97522419D01*
X98676466Y-97680760D01*
X98587604Y-97855157D01*
X98527118Y-98041312D01*
X98496500Y-98234628D01*
X92273845Y-98234628D01*
X92266392Y-98206814D01*
X92200500Y-98092686D01*
X92107314Y-97999500D01*
X92050250Y-97966554D01*
X91993187Y-97933608D01*
X91893188Y-97906814D01*
X91865892Y-97899500D01*
X91734108Y-97899500D01*
X91606812Y-97933608D01*
X91492686Y-97999500D01*
X91492683Y-97999502D01*
X91399502Y-98092683D01*
X91399500Y-98092686D01*
X91333608Y-98206812D01*
X91299500Y-98334108D01*
X83853014Y-98334108D01*
X82305224Y-96786319D01*
X82215276Y-96696371D01*
X82181791Y-96635048D01*
X82186775Y-96565356D01*
X82215276Y-96521009D01*
X82402400Y-96333885D01*
X82918131Y-95818155D01*
X85486000Y-95818155D01*
X85486000Y-96250000D01*
X86332599Y-96250000D01*
X86315924Y-96266675D01*
X86265896Y-96353325D01*
X86240000Y-96449972D01*
X86240000Y-96550028D01*
X86265896Y-96646675D01*
X86315924Y-96733325D01*
X86332599Y-96750000D01*
X85486000Y-96750000D01*
X85486000Y-97181844D01*
X85492401Y-97241372D01*
X85492403Y-97241379D01*
X85542645Y-97376086D01*
X85542649Y-97376093D01*
X85628809Y-97491187D01*
X85628812Y-97491190D01*
X85743906Y-97577350D01*
X85743913Y-97577354D01*
X85878620Y-97627596D01*
X85878627Y-97627598D01*
X85938155Y-97633999D01*
X85938172Y-97634000D01*
X86370000Y-97634000D01*
X86370000Y-96787401D01*
X86386675Y-96804076D01*
X86473325Y-96854104D01*
X86569972Y-96880000D01*
X86670028Y-96880000D01*
X86766675Y-96854104D01*
X86853325Y-96804076D01*
X86870000Y-96787401D01*
X86870000Y-97634000D01*
X87301828Y-97634000D01*
X87301844Y-97633999D01*
X87361372Y-97627598D01*
X87361379Y-97627596D01*
X87496086Y-97577354D01*
X87496093Y-97577350D01*
X87611187Y-97491190D01*
X87611190Y-97491187D01*
X87697350Y-97376093D01*
X87697354Y-97376086D01*
X87747596Y-97241379D01*
X87747598Y-97241372D01*
X87753999Y-97181844D01*
X87754000Y-97181827D01*
X87754000Y-96750000D01*
X86907401Y-96750000D01*
X86924076Y-96733325D01*
X86974104Y-96646675D01*
X87000000Y-96550028D01*
X87000000Y-96449972D01*
X86994020Y-96427653D01*
X88425500Y-96427653D01*
X88425500Y-96572346D01*
X88453724Y-96714238D01*
X88453726Y-96714246D01*
X88509093Y-96847914D01*
X88589476Y-96968217D01*
X88691782Y-97070523D01*
X88737245Y-97100900D01*
X88812084Y-97150906D01*
X88945754Y-97206274D01*
X89087653Y-97234499D01*
X89087657Y-97234500D01*
X89087658Y-97234500D01*
X89232343Y-97234500D01*
X89232344Y-97234499D01*
X89374246Y-97206274D01*
X89507916Y-97150906D01*
X89628217Y-97070523D01*
X89730523Y-96968217D01*
X89810906Y-96847916D01*
X89866274Y-96714246D01*
X89894500Y-96572342D01*
X89894500Y-96427658D01*
X89894499Y-96427653D01*
X90965500Y-96427653D01*
X90965500Y-96572346D01*
X90993724Y-96714238D01*
X90993726Y-96714246D01*
X91049093Y-96847914D01*
X91129476Y-96968217D01*
X91231782Y-97070523D01*
X91277245Y-97100900D01*
X91352084Y-97150906D01*
X91485754Y-97206274D01*
X91627653Y-97234499D01*
X91627657Y-97234500D01*
X91627658Y-97234500D01*
X91772343Y-97234500D01*
X91772344Y-97234499D01*
X91914246Y-97206274D01*
X92047916Y-97150906D01*
X92168217Y-97070523D01*
X92270523Y-96968217D01*
X92350906Y-96847916D01*
X92406274Y-96714246D01*
X92434500Y-96572342D01*
X92434500Y-96427658D01*
X92406274Y-96285754D01*
X92350906Y-96152084D01*
X92310714Y-96091933D01*
X92270523Y-96031782D01*
X92168217Y-95929476D01*
X92047913Y-95849092D01*
X92002047Y-95830094D01*
X91947644Y-95786253D01*
X91925579Y-95719958D01*
X91925500Y-95715533D01*
X91925500Y-95306471D01*
X91945185Y-95239432D01*
X91997989Y-95193677D01*
X92017399Y-95186698D01*
X92093186Y-95166392D01*
X92207314Y-95100500D01*
X92300500Y-95007314D01*
X92366392Y-94893186D01*
X92400500Y-94765892D01*
X92400500Y-94634108D01*
X92366392Y-94506814D01*
X92300500Y-94392686D01*
X92207314Y-94299500D01*
X92129918Y-94254815D01*
X92093187Y-94233608D01*
X92029539Y-94216554D01*
X91965892Y-94199500D01*
X91834108Y-94199500D01*
X91706812Y-94233608D01*
X91592686Y-94299500D01*
X91592683Y-94299502D01*
X91499502Y-94392683D01*
X91499500Y-94392686D01*
X91433608Y-94506812D01*
X91399500Y-94634108D01*
X91399500Y-94765891D01*
X91433609Y-94893188D01*
X91433610Y-94893191D01*
X91457886Y-94935237D01*
X91474500Y-94997238D01*
X91474500Y-95715533D01*
X91454815Y-95782572D01*
X91402011Y-95828327D01*
X91397953Y-95830094D01*
X91352086Y-95849092D01*
X91231782Y-95929476D01*
X91129476Y-96031782D01*
X91049093Y-96152085D01*
X90993726Y-96285753D01*
X90993724Y-96285761D01*
X90965500Y-96427653D01*
X89894499Y-96427653D01*
X89866274Y-96285754D01*
X89810906Y-96152084D01*
X89770714Y-96091933D01*
X89730523Y-96031782D01*
X89628217Y-95929476D01*
X89538194Y-95869325D01*
X89507916Y-95849094D01*
X89507911Y-95849092D01*
X89374246Y-95793726D01*
X89374238Y-95793724D01*
X89232346Y-95765500D01*
X89232342Y-95765500D01*
X89087658Y-95765500D01*
X89087653Y-95765500D01*
X88945761Y-95793724D01*
X88945753Y-95793726D01*
X88812085Y-95849093D01*
X88691782Y-95929476D01*
X88589476Y-96031782D01*
X88509093Y-96152085D01*
X88453726Y-96285753D01*
X88453724Y-96285761D01*
X88425500Y-96427653D01*
X86994020Y-96427653D01*
X86974104Y-96353325D01*
X86924076Y-96266675D01*
X86907401Y-96250000D01*
X87754000Y-96250000D01*
X87754000Y-95818172D01*
X87753999Y-95818155D01*
X87747598Y-95758627D01*
X87747596Y-95758620D01*
X87697354Y-95623913D01*
X87697350Y-95623906D01*
X87611190Y-95508812D01*
X87611187Y-95508809D01*
X87496093Y-95422649D01*
X87496086Y-95422645D01*
X87361379Y-95372403D01*
X87361372Y-95372401D01*
X87301844Y-95366000D01*
X86870000Y-95366000D01*
X86870000Y-96212599D01*
X86853325Y-96195924D01*
X86766675Y-96145896D01*
X86670028Y-96120000D01*
X86569972Y-96120000D01*
X86473325Y-96145896D01*
X86386675Y-96195924D01*
X86370000Y-96212599D01*
X86370000Y-95366000D01*
X85938155Y-95366000D01*
X85878627Y-95372401D01*
X85878620Y-95372403D01*
X85743913Y-95422645D01*
X85743906Y-95422649D01*
X85628812Y-95508809D01*
X85628809Y-95508812D01*
X85542649Y-95623906D01*
X85542645Y-95623913D01*
X85492403Y-95758620D01*
X85492401Y-95758627D01*
X85486000Y-95818155D01*
X82918131Y-95818155D01*
X83009116Y-95727170D01*
X83179895Y-95556391D01*
X83400142Y-95336144D01*
X83400142Y-95336143D01*
X83417580Y-95318705D01*
X83417581Y-95318702D01*
X86587820Y-92148464D01*
X86649142Y-92114980D01*
X86718834Y-92119964D01*
X86774767Y-92161836D01*
X86799184Y-92227300D01*
X86799500Y-92236146D01*
X86799500Y-92365892D01*
X86813512Y-92418186D01*
X86833608Y-92493187D01*
X86856200Y-92532316D01*
X86899500Y-92607314D01*
X86992686Y-92700500D01*
X87106814Y-92766392D01*
X87234108Y-92800500D01*
X87234110Y-92800500D01*
X87365890Y-92800500D01*
X87365892Y-92800500D01*
X87493186Y-92766392D01*
X87607314Y-92700500D01*
X87700500Y-92607314D01*
X87710785Y-92589500D01*
X87761352Y-92541284D01*
X87818172Y-92527500D01*
X103125352Y-92527500D01*
X103192391Y-92547185D01*
X103238146Y-92599989D01*
X103239913Y-92604047D01*
X103308114Y-92768701D01*
X103308119Y-92768710D01*
X103416404Y-92930769D01*
X103416407Y-92930773D01*
X103554226Y-93068592D01*
X103554230Y-93068595D01*
X103716289Y-93176880D01*
X103716302Y-93176887D01*
X103868037Y-93239737D01*
X103896373Y-93251474D01*
X104013224Y-93274717D01*
X104087538Y-93289499D01*
X104087542Y-93289500D01*
X104087543Y-93289500D01*
X104282458Y-93289500D01*
X104282459Y-93289499D01*
X104473627Y-93251474D01*
X104653704Y-93176884D01*
X104815770Y-93068595D01*
X104953595Y-92930770D01*
X105061884Y-92768704D01*
X105136474Y-92588627D01*
X105174500Y-92397457D01*
X105174500Y-92202543D01*
X105174499Y-92202538D01*
X109545500Y-92202538D01*
X109545500Y-92397461D01*
X109583524Y-92588619D01*
X109583527Y-92588631D01*
X109658112Y-92768697D01*
X109658119Y-92768710D01*
X109766404Y-92930769D01*
X109766407Y-92930773D01*
X109904226Y-93068592D01*
X109904230Y-93068595D01*
X110066289Y-93176880D01*
X110066302Y-93176887D01*
X110218037Y-93239737D01*
X110246373Y-93251474D01*
X110363224Y-93274717D01*
X110437538Y-93289499D01*
X110437542Y-93289500D01*
X110437543Y-93289500D01*
X110632458Y-93289500D01*
X110632459Y-93289499D01*
X110823627Y-93251474D01*
X111003704Y-93176884D01*
X111165770Y-93068595D01*
X111303595Y-92930770D01*
X111411884Y-92768704D01*
X111486474Y-92588627D01*
X111524500Y-92397457D01*
X111524500Y-92202543D01*
X111486474Y-92011373D01*
X111481763Y-91999999D01*
X117997422Y-91999999D01*
X117998864Y-92014181D01*
X117999500Y-92026725D01*
X117999500Y-92098545D01*
X118014596Y-92174438D01*
X118015749Y-92180237D01*
X118017944Y-92201818D01*
X118023675Y-92220086D01*
X118024980Y-92226643D01*
X118024982Y-92226651D01*
X118037947Y-92291830D01*
X118037949Y-92291836D01*
X118069813Y-92368763D01*
X118069815Y-92368766D01*
X118071918Y-92373843D01*
X118078673Y-92395373D01*
X118087191Y-92410719D01*
X118089902Y-92417265D01*
X118089902Y-92417266D01*
X118113365Y-92473908D01*
X118113371Y-92473920D01*
X118163081Y-92548315D01*
X118163084Y-92548319D01*
X118165924Y-92552570D01*
X118177120Y-92572741D01*
X118187406Y-92584723D01*
X118191558Y-92590937D01*
X118222860Y-92637781D01*
X118222865Y-92637787D01*
X118290847Y-92705769D01*
X118294195Y-92709116D01*
X118309257Y-92726662D01*
X118320250Y-92735171D01*
X118325812Y-92740733D01*
X118325814Y-92740735D01*
X118362214Y-92777136D01*
X118362218Y-92777139D01*
X118451784Y-92836985D01*
X118469672Y-92850832D01*
X118480331Y-92856059D01*
X118526086Y-92886632D01*
X118632593Y-92930748D01*
X118651799Y-92940170D01*
X118661236Y-92942612D01*
X118708165Y-92962051D01*
X118829612Y-92986208D01*
X118848182Y-92991017D01*
X118855697Y-92991397D01*
X118895459Y-92999306D01*
X118901458Y-93000500D01*
X119035164Y-93000500D01*
X119050780Y-93001292D01*
X119055950Y-93000500D01*
X119098542Y-93000500D01*
X119144299Y-92991398D01*
X119241273Y-92972108D01*
X119251299Y-92970573D01*
X119253970Y-92969582D01*
X119291835Y-92962051D01*
X119439850Y-92900741D01*
X119441530Y-92900120D01*
X119441879Y-92899900D01*
X119473914Y-92886632D01*
X119637782Y-92777139D01*
X119777139Y-92637782D01*
X119886632Y-92473914D01*
X119962051Y-92291835D01*
X119976323Y-92220086D01*
X120000500Y-92098543D01*
X120000500Y-91901456D01*
X119962052Y-91708170D01*
X119962051Y-91708169D01*
X119962051Y-91708165D01*
X119939953Y-91654815D01*
X119886635Y-91526092D01*
X119886628Y-91526079D01*
X119777139Y-91362218D01*
X119777136Y-91362214D01*
X119637782Y-91222860D01*
X119473919Y-91113371D01*
X119473916Y-91113369D01*
X119473914Y-91113368D01*
X119473911Y-91113366D01*
X119473906Y-91113364D01*
X119446153Y-91101869D01*
X119441884Y-91100101D01*
X119441530Y-91099880D01*
X119439843Y-91099255D01*
X119371044Y-91070758D01*
X119291839Y-91037950D01*
X119291827Y-91037947D01*
X119262407Y-91032095D01*
X119262405Y-91032095D01*
X119253975Y-91030418D01*
X119251299Y-91029427D01*
X119241267Y-91027890D01*
X119238557Y-91027351D01*
X119238555Y-91027350D01*
X119098544Y-90999500D01*
X119098541Y-90999500D01*
X119055950Y-90999500D01*
X119050780Y-90998708D01*
X119035164Y-90999500D01*
X118901459Y-90999500D01*
X118864563Y-91006838D01*
X118864562Y-91006837D01*
X118855688Y-91008602D01*
X118848182Y-91008983D01*
X118829625Y-91013787D01*
X118826130Y-91014483D01*
X118708171Y-91037947D01*
X118708164Y-91037949D01*
X118669233Y-91054072D01*
X118669234Y-91054073D01*
X118661231Y-91057387D01*
X118651799Y-91059830D01*
X118632603Y-91069245D01*
X118628965Y-91070753D01*
X118628954Y-91070758D01*
X118526085Y-91113368D01*
X118487199Y-91139349D01*
X118487200Y-91139350D01*
X118480331Y-91143939D01*
X118469672Y-91149168D01*
X118451793Y-91163007D01*
X118448191Y-91165414D01*
X118448185Y-91165419D01*
X118362217Y-91222861D01*
X118325812Y-91259266D01*
X118325811Y-91259268D01*
X118320249Y-91264829D01*
X118309257Y-91273338D01*
X118294200Y-91290876D01*
X118290860Y-91294217D01*
X118290857Y-91294218D01*
X118222865Y-91362212D01*
X118222859Y-91362219D01*
X118191557Y-91409064D01*
X118187403Y-91415279D01*
X118177120Y-91427259D01*
X118165934Y-91447410D01*
X118163091Y-91451667D01*
X118113368Y-91526085D01*
X118113367Y-91526085D01*
X118089904Y-91582728D01*
X118089905Y-91582729D01*
X118087191Y-91589278D01*
X118078673Y-91604627D01*
X118071923Y-91626139D01*
X118069816Y-91631227D01*
X118069815Y-91631231D01*
X118037947Y-91708169D01*
X118024982Y-91773348D01*
X118023676Y-91779912D01*
X118017944Y-91798182D01*
X118015750Y-91819753D01*
X118014599Y-91825542D01*
X118014597Y-91825559D01*
X117999500Y-91901460D01*
X117999500Y-91973275D01*
X117998864Y-91985818D01*
X117997422Y-91999999D01*
X111481763Y-91999999D01*
X111478734Y-91992686D01*
X111411887Y-91831302D01*
X111411880Y-91831289D01*
X111303595Y-91669230D01*
X111303592Y-91669226D01*
X111165773Y-91531407D01*
X111165769Y-91531404D01*
X111003710Y-91423119D01*
X111003697Y-91423112D01*
X110823631Y-91348527D01*
X110823619Y-91348524D01*
X110632461Y-91310500D01*
X110632457Y-91310500D01*
X110437543Y-91310500D01*
X110437538Y-91310500D01*
X110246380Y-91348524D01*
X110246368Y-91348527D01*
X110066302Y-91423112D01*
X110066289Y-91423119D01*
X109904230Y-91531404D01*
X109904226Y-91531407D01*
X109766407Y-91669226D01*
X109766404Y-91669230D01*
X109658119Y-91831289D01*
X109658112Y-91831302D01*
X109583527Y-92011368D01*
X109583524Y-92011380D01*
X109545500Y-92202538D01*
X105174499Y-92202538D01*
X105136474Y-92011373D01*
X105128734Y-91992686D01*
X105061887Y-91831302D01*
X105061880Y-91831289D01*
X104953595Y-91669230D01*
X104953592Y-91669226D01*
X104815773Y-91531407D01*
X104815769Y-91531404D01*
X104653710Y-91423119D01*
X104653697Y-91423112D01*
X104473631Y-91348527D01*
X104473619Y-91348524D01*
X104282461Y-91310500D01*
X104282457Y-91310500D01*
X104087543Y-91310500D01*
X104087538Y-91310500D01*
X103896380Y-91348524D01*
X103896368Y-91348527D01*
X103716302Y-91423112D01*
X103716289Y-91423119D01*
X103554230Y-91531404D01*
X103554226Y-91531407D01*
X103416407Y-91669226D01*
X103416404Y-91669230D01*
X103308119Y-91831289D01*
X103308114Y-91831298D01*
X103239913Y-91995953D01*
X103196072Y-92050356D01*
X103129778Y-92072421D01*
X103125352Y-92072500D01*
X87818172Y-92072500D01*
X87751133Y-92052815D01*
X87710785Y-92010500D01*
X87702386Y-91995953D01*
X87700500Y-91992686D01*
X87607314Y-91899500D01*
X87536122Y-91858397D01*
X87493187Y-91833608D01*
X87377935Y-91802727D01*
X87365892Y-91799500D01*
X87236147Y-91799500D01*
X87169108Y-91779815D01*
X87123353Y-91727011D01*
X87113409Y-91657853D01*
X87142434Y-91594297D01*
X87148466Y-91587819D01*
X88123785Y-90612500D01*
X89101458Y-89634826D01*
X89158352Y-89603760D01*
X89158042Y-89602603D01*
X89165891Y-89600500D01*
X89165892Y-89600500D01*
X89293186Y-89566392D01*
X89407314Y-89500500D01*
X89500500Y-89407314D01*
X89566392Y-89293186D01*
X89600500Y-89165892D01*
X89600500Y-89034108D01*
X89566392Y-88906814D01*
X89500500Y-88792686D01*
X89407314Y-88699500D01*
X89348120Y-88665324D01*
X89293187Y-88633608D01*
X89229539Y-88616554D01*
X89165892Y-88599500D01*
X89118766Y-88599500D01*
X89051727Y-88579815D01*
X89005972Y-88527011D01*
X88996028Y-88457853D01*
X89025053Y-88394297D01*
X89031085Y-88387819D01*
X89255718Y-88163187D01*
X92056958Y-85361948D01*
X107324500Y-85361948D01*
X107324500Y-85543051D01*
X107352829Y-85721910D01*
X107408787Y-85894136D01*
X107408788Y-85894139D01*
X107491006Y-86055497D01*
X107597441Y-86201994D01*
X107597445Y-86201999D01*
X107725500Y-86330054D01*
X107725505Y-86330058D01*
X107729680Y-86333091D01*
X107872006Y-86436496D01*
X107977484Y-86490240D01*
X108033360Y-86518711D01*
X108033363Y-86518712D01*
X108119476Y-86546691D01*
X108205591Y-86574671D01*
X108288429Y-86587791D01*
X108384449Y-86603000D01*
X108384454Y-86603000D01*
X108565551Y-86603000D01*
X108652259Y-86589265D01*
X108744409Y-86574671D01*
X108916639Y-86518711D01*
X109077994Y-86436496D01*
X109224501Y-86330053D01*
X109352553Y-86202001D01*
X109458996Y-86055494D01*
X109541211Y-85894139D01*
X109597171Y-85721909D01*
X109621882Y-85565890D01*
X109625500Y-85543051D01*
X109625500Y-85361948D01*
X114334500Y-85361948D01*
X114334500Y-85543051D01*
X114362829Y-85721910D01*
X114418787Y-85894136D01*
X114418788Y-85894139D01*
X114501006Y-86055497D01*
X114607441Y-86201994D01*
X114607445Y-86201999D01*
X114735500Y-86330054D01*
X114735505Y-86330058D01*
X114739680Y-86333091D01*
X114882006Y-86436496D01*
X114987484Y-86490240D01*
X115043360Y-86518711D01*
X115043363Y-86518712D01*
X115129476Y-86546691D01*
X115215591Y-86574671D01*
X115298429Y-86587791D01*
X115394449Y-86603000D01*
X115394454Y-86603000D01*
X115575551Y-86603000D01*
X115662259Y-86589265D01*
X115754409Y-86574671D01*
X115926639Y-86518711D01*
X116087994Y-86436496D01*
X116234501Y-86330053D01*
X116362553Y-86202001D01*
X116468996Y-86055494D01*
X116551211Y-85894139D01*
X116607171Y-85721909D01*
X116631882Y-85565890D01*
X116635500Y-85543051D01*
X116635500Y-85361948D01*
X116619019Y-85257897D01*
X116607171Y-85183091D01*
X116551211Y-85010861D01*
X116551211Y-85010860D01*
X116479550Y-84870220D01*
X116468996Y-84849506D01*
X116455396Y-84830787D01*
X116362558Y-84703005D01*
X116362554Y-84703000D01*
X116234499Y-84574945D01*
X116234494Y-84574941D01*
X116087997Y-84468506D01*
X116087996Y-84468505D01*
X116087994Y-84468504D01*
X116036300Y-84442164D01*
X115926639Y-84386288D01*
X115926636Y-84386287D01*
X115754410Y-84330329D01*
X115575551Y-84302000D01*
X115575546Y-84302000D01*
X115394454Y-84302000D01*
X115394449Y-84302000D01*
X115215589Y-84330329D01*
X115043363Y-84386287D01*
X115043360Y-84386288D01*
X114882002Y-84468506D01*
X114735505Y-84574941D01*
X114735500Y-84574945D01*
X114607445Y-84703000D01*
X114607441Y-84703005D01*
X114501006Y-84849502D01*
X114418788Y-85010860D01*
X114418787Y-85010863D01*
X114362829Y-85183089D01*
X114334500Y-85361948D01*
X109625500Y-85361948D01*
X109609019Y-85257897D01*
X109597171Y-85183091D01*
X109541211Y-85010861D01*
X109541211Y-85010860D01*
X109469550Y-84870220D01*
X109458996Y-84849506D01*
X109445396Y-84830787D01*
X109352558Y-84703005D01*
X109352554Y-84703000D01*
X109224499Y-84574945D01*
X109224494Y-84574941D01*
X109077997Y-84468506D01*
X109077996Y-84468505D01*
X109077994Y-84468504D01*
X109026300Y-84442164D01*
X108916639Y-84386288D01*
X108916636Y-84386287D01*
X108744410Y-84330329D01*
X108565551Y-84302000D01*
X108565546Y-84302000D01*
X108384454Y-84302000D01*
X108384449Y-84302000D01*
X108205589Y-84330329D01*
X108033363Y-84386287D01*
X108033360Y-84386288D01*
X107872002Y-84468506D01*
X107725505Y-84574941D01*
X107725500Y-84574945D01*
X107597445Y-84703000D01*
X107597441Y-84703005D01*
X107491006Y-84849502D01*
X107408788Y-85010860D01*
X107408787Y-85010863D01*
X107352829Y-85183089D01*
X107324500Y-85361948D01*
X92056958Y-85361948D01*
X94194587Y-83224319D01*
X94255910Y-83190834D01*
X94282268Y-83188000D01*
X108679678Y-83188000D01*
X108746717Y-83207685D01*
X108792472Y-83260489D01*
X108794239Y-83264548D01*
X108860520Y-83424568D01*
X108860521Y-83424570D01*
X108967279Y-83584344D01*
X108967282Y-83584348D01*
X109103151Y-83720217D01*
X109103155Y-83720220D01*
X109262927Y-83826977D01*
X109262928Y-83826977D01*
X109262929Y-83826978D01*
X109262931Y-83826979D01*
X109440452Y-83900510D01*
X109440457Y-83900512D01*
X109628917Y-83937999D01*
X109628920Y-83938000D01*
X109628922Y-83938000D01*
X109821080Y-83938000D01*
X109821081Y-83937999D01*
X110009543Y-83900512D01*
X110187073Y-83826977D01*
X110346845Y-83720220D01*
X110482720Y-83584345D01*
X110589477Y-83424573D01*
X110663012Y-83247043D01*
X110700500Y-83058578D01*
X110700500Y-82866422D01*
X110700500Y-82866419D01*
X110700499Y-82866417D01*
X110681584Y-82771327D01*
X110663012Y-82677957D01*
X110621193Y-82576996D01*
X110589479Y-82500431D01*
X110589478Y-82500429D01*
X110588857Y-82499500D01*
X110482720Y-82340655D01*
X110482717Y-82340651D01*
X110346848Y-82204782D01*
X110346844Y-82204779D01*
X110187070Y-82098021D01*
X110187068Y-82098020D01*
X110009547Y-82024489D01*
X110009535Y-82024486D01*
X109942325Y-82011117D01*
X109880414Y-81978732D01*
X109845840Y-81918017D01*
X109849579Y-81848247D01*
X109890446Y-81791575D01*
X109955464Y-81765994D01*
X109966516Y-81765500D01*
X113983484Y-81765500D01*
X114050523Y-81785185D01*
X114096278Y-81837989D01*
X114106222Y-81907147D01*
X114077197Y-81970703D01*
X114018419Y-82008477D01*
X114007675Y-82011117D01*
X113940464Y-82024486D01*
X113940452Y-82024489D01*
X113762931Y-82098020D01*
X113762929Y-82098021D01*
X113603155Y-82204779D01*
X113603151Y-82204782D01*
X113467282Y-82340651D01*
X113467279Y-82340655D01*
X113360521Y-82500429D01*
X113360520Y-82500431D01*
X113286989Y-82677952D01*
X113286986Y-82677964D01*
X113249500Y-82866417D01*
X113249500Y-83058582D01*
X113286986Y-83247035D01*
X113286989Y-83247047D01*
X113360520Y-83424568D01*
X113360521Y-83424570D01*
X113467279Y-83584344D01*
X113467282Y-83584348D01*
X113603151Y-83720217D01*
X113603155Y-83720220D01*
X113762927Y-83826977D01*
X113762928Y-83826977D01*
X113762929Y-83826978D01*
X113762931Y-83826979D01*
X113940452Y-83900510D01*
X113940457Y-83900512D01*
X114128917Y-83937999D01*
X114128920Y-83938000D01*
X114128922Y-83938000D01*
X114321080Y-83938000D01*
X114321081Y-83937999D01*
X114509543Y-83900512D01*
X114687073Y-83826977D01*
X114846845Y-83720220D01*
X114982720Y-83584345D01*
X115089477Y-83424573D01*
X115163012Y-83247043D01*
X115200500Y-83058578D01*
X115200500Y-82866422D01*
X115200500Y-82866419D01*
X115200499Y-82866417D01*
X115181584Y-82771327D01*
X115163012Y-82677957D01*
X115121193Y-82576996D01*
X115089479Y-82500431D01*
X115089478Y-82500429D01*
X115088857Y-82499500D01*
X114982720Y-82340655D01*
X114982717Y-82340651D01*
X114846848Y-82204782D01*
X114846844Y-82204779D01*
X114687070Y-82098021D01*
X114687068Y-82098020D01*
X114509547Y-82024489D01*
X114509535Y-82024486D01*
X114442325Y-82011117D01*
X114380414Y-81978732D01*
X114345840Y-81918017D01*
X114349579Y-81848247D01*
X114390446Y-81791575D01*
X114455464Y-81765994D01*
X114466516Y-81765500D01*
X117147128Y-81765500D01*
X117152855Y-81765632D01*
X117480403Y-81780775D01*
X117486794Y-81781237D01*
X117561695Y-81788614D01*
X117566651Y-81789204D01*
X117853199Y-81829176D01*
X117860207Y-81830360D01*
X117929026Y-81844049D01*
X117933093Y-81844932D01*
X118220629Y-81912560D01*
X118228174Y-81914589D01*
X118285880Y-81932094D01*
X118289134Y-81933132D01*
X118579215Y-82030358D01*
X118587189Y-82033342D01*
X118626884Y-82049784D01*
X118629425Y-82050871D01*
X118743993Y-82101458D01*
X118925511Y-82181606D01*
X118933870Y-82185678D01*
X118941179Y-82189584D01*
X118943972Y-82191077D01*
X118943995Y-82191089D01*
X118945757Y-82192049D01*
X119250456Y-82361767D01*
X119260190Y-82367794D01*
X119310613Y-82402334D01*
X119453811Y-82500427D01*
X119555512Y-82570093D01*
X119564649Y-82576994D01*
X119840035Y-82805671D01*
X119848499Y-82813387D01*
X120101612Y-83066500D01*
X120109328Y-83074964D01*
X120338003Y-83350347D01*
X120344906Y-83359487D01*
X120547205Y-83654809D01*
X120553232Y-83664543D01*
X120722890Y-83969134D01*
X120723909Y-83971003D01*
X120729320Y-83981128D01*
X120733392Y-83989487D01*
X120864111Y-84285537D01*
X120865237Y-84288168D01*
X120881641Y-84327769D01*
X120884652Y-84335816D01*
X120905175Y-84397047D01*
X120981840Y-84625785D01*
X120982929Y-84629196D01*
X121000401Y-84686794D01*
X121002446Y-84694399D01*
X121070051Y-84981838D01*
X121070963Y-84986038D01*
X121084633Y-85054764D01*
X121085826Y-85061823D01*
X121125793Y-85348341D01*
X121126385Y-85353318D01*
X121133759Y-85428186D01*
X121134224Y-85434613D01*
X121149368Y-85762145D01*
X121149500Y-85767872D01*
X121149500Y-121763669D01*
X121149470Y-121766374D01*
X121132389Y-122549137D01*
X121132294Y-122551995D01*
X121124157Y-122733183D01*
X121124017Y-122735730D01*
X121078754Y-123426304D01*
X121078520Y-123429309D01*
X121062484Y-123607487D01*
X121062246Y-123609871D01*
X120986576Y-124300814D01*
X120986191Y-124303960D01*
X120962744Y-124477051D01*
X120962423Y-124479269D01*
X120855956Y-125170991D01*
X120855406Y-125174269D01*
X120825335Y-125339975D01*
X120824945Y-125342025D01*
X120687105Y-126034997D01*
X120686379Y-126038399D01*
X120650794Y-126194305D01*
X120650349Y-126196185D01*
X120480298Y-126891129D01*
X120479383Y-126894645D01*
X120439809Y-127038036D01*
X120439324Y-127039746D01*
X120235901Y-127737656D01*
X120234786Y-127741275D01*
X120193256Y-127869091D01*
X120192744Y-127870631D01*
X119954364Y-128572877D01*
X119953038Y-128576590D01*
X119912333Y-128685048D01*
X119911809Y-128686419D01*
X119636193Y-129395165D01*
X119634645Y-129398959D01*
X119598581Y-129483334D01*
X119598059Y-129484538D01*
X119282001Y-130202836D01*
X119280222Y-130206698D01*
X119254009Y-130261129D01*
X119253501Y-130262171D01*
X118892456Y-130994297D01*
X118890440Y-130998208D01*
X118881867Y-131014141D01*
X118881385Y-131015029D01*
X118471375Y-131762379D01*
X118468670Y-131767064D01*
X118018810Y-132508411D01*
X118015903Y-132512974D01*
X117534130Y-133233998D01*
X117531027Y-133238429D01*
X117018273Y-133937736D01*
X117014980Y-133942028D01*
X116472200Y-134618319D01*
X116468722Y-134622464D01*
X115896964Y-135274428D01*
X115893309Y-135278417D01*
X115293652Y-135904827D01*
X115289827Y-135908652D01*
X114663417Y-136508309D01*
X114659428Y-136511964D01*
X114007464Y-137083722D01*
X114003319Y-137087200D01*
X113327028Y-137629980D01*
X113322736Y-137633273D01*
X112623429Y-138146027D01*
X112618998Y-138149130D01*
X111897974Y-138630903D01*
X111893411Y-138633810D01*
X111152064Y-139083670D01*
X111147379Y-139086375D01*
X110400029Y-139496385D01*
X110399141Y-139496867D01*
X110383208Y-139505440D01*
X110379297Y-139507456D01*
X109647171Y-139868501D01*
X109646129Y-139869009D01*
X109591698Y-139895222D01*
X109587836Y-139897001D01*
X108869538Y-140213059D01*
X108868334Y-140213581D01*
X108783959Y-140249645D01*
X108780165Y-140251193D01*
X108071419Y-140526809D01*
X108070048Y-140527333D01*
X107961590Y-140568038D01*
X107957877Y-140569364D01*
X107255631Y-140807744D01*
X107254091Y-140808256D01*
X107126275Y-140849786D01*
X107122656Y-140850901D01*
X106424746Y-141054324D01*
X106423036Y-141054809D01*
X106279645Y-141094383D01*
X106276129Y-141095298D01*
X105581185Y-141265349D01*
X105579305Y-141265794D01*
X105423399Y-141301379D01*
X105419997Y-141302105D01*
X104727025Y-141439945D01*
X104724975Y-141440335D01*
X104559269Y-141470406D01*
X104555991Y-141470956D01*
X103864269Y-141577423D01*
X103862051Y-141577744D01*
X103688960Y-141601191D01*
X103685814Y-141601576D01*
X102994871Y-141677246D01*
X102992487Y-141677484D01*
X102814309Y-141693520D01*
X102811304Y-141693754D01*
X102120730Y-141739017D01*
X102118183Y-141739157D01*
X101936995Y-141747294D01*
X101934137Y-141747389D01*
X101151375Y-141764470D01*
X101148670Y-141764500D01*
X92806353Y-141764500D01*
X92739314Y-141744815D01*
X92693559Y-141692011D01*
X92683615Y-141622853D01*
X92712640Y-141559297D01*
X92771418Y-141521523D01*
X92774232Y-141520732D01*
X92876632Y-141493295D01*
X93131021Y-141387923D01*
X93369479Y-141250249D01*
X93587928Y-141082628D01*
X93782628Y-140887928D01*
X93950249Y-140669479D01*
X94087923Y-140431021D01*
X94193295Y-140176632D01*
X94264560Y-139910666D01*
X94300500Y-139637674D01*
X94300500Y-139362326D01*
X94264560Y-139089334D01*
X94193295Y-138823368D01*
X94087923Y-138568979D01*
X94087921Y-138568976D01*
X94087919Y-138568971D01*
X94001591Y-138419448D01*
X93950249Y-138330521D01*
X93881099Y-138240403D01*
X93782629Y-138112073D01*
X93782623Y-138112066D01*
X93587933Y-137917376D01*
X93587926Y-137917370D01*
X93369483Y-137749754D01*
X93369482Y-137749753D01*
X93369479Y-137749751D01*
X93274407Y-137694861D01*
X93131028Y-137612080D01*
X93131017Y-137612075D01*
X92876630Y-137506704D01*
X92743649Y-137471072D01*
X92610666Y-137435440D01*
X92610660Y-137435439D01*
X92610655Y-137435438D01*
X92337684Y-137399501D01*
X92337679Y-137399500D01*
X92337674Y-137399500D01*
X92062326Y-137399500D01*
X92062320Y-137399500D01*
X92062315Y-137399501D01*
X91789344Y-137435438D01*
X91789337Y-137435439D01*
X91789334Y-137435440D01*
X91733125Y-137450500D01*
X91523369Y-137506704D01*
X91268982Y-137612075D01*
X91268971Y-137612080D01*
X91030516Y-137749754D01*
X90812073Y-137917370D01*
X90812066Y-137917376D01*
X90617376Y-138112066D01*
X90617370Y-138112073D01*
X90449754Y-138330516D01*
X90312080Y-138568971D01*
X90312075Y-138568982D01*
X90206704Y-138823369D01*
X90135441Y-139089331D01*
X90135438Y-139089344D01*
X90099501Y-139362315D01*
X90099500Y-139362332D01*
X90099500Y-139637667D01*
X90099501Y-139637684D01*
X90135438Y-139910655D01*
X90135439Y-139910660D01*
X90135440Y-139910666D01*
X90135441Y-139910668D01*
X90206704Y-140176630D01*
X90312075Y-140431017D01*
X90312080Y-140431028D01*
X90391184Y-140568038D01*
X90449751Y-140669479D01*
X90449753Y-140669482D01*
X90449754Y-140669483D01*
X90617370Y-140887926D01*
X90617376Y-140887933D01*
X90812066Y-141082623D01*
X90812072Y-141082628D01*
X91030521Y-141250249D01*
X91183778Y-141338732D01*
X91268971Y-141387919D01*
X91268976Y-141387921D01*
X91268979Y-141387923D01*
X91523368Y-141493295D01*
X91625741Y-141520725D01*
X91685401Y-141557090D01*
X91715930Y-141619937D01*
X91707635Y-141689312D01*
X91663150Y-141743190D01*
X91596598Y-141764465D01*
X91593647Y-141764500D01*
X62346353Y-141764500D01*
X62279314Y-141744815D01*
X62233559Y-141692011D01*
X62223615Y-141622853D01*
X62252640Y-141559297D01*
X62311418Y-141521523D01*
X62314232Y-141520732D01*
X62416632Y-141493295D01*
X62671021Y-141387923D01*
X62909479Y-141250249D01*
X63127928Y-141082628D01*
X63322628Y-140887928D01*
X63490249Y-140669479D01*
X63627923Y-140431021D01*
X63733295Y-140176632D01*
X63804560Y-139910666D01*
X63840500Y-139637674D01*
X63840500Y-139362326D01*
X63814751Y-139166740D01*
X77149500Y-139166740D01*
X77149500Y-140753257D01*
X77159427Y-140821393D01*
X77210802Y-140926484D01*
X77293515Y-141009197D01*
X77293516Y-141009197D01*
X77293517Y-141009198D01*
X77398608Y-141060573D01*
X77398610Y-141060573D01*
X77398612Y-141060574D01*
X77420965Y-141063830D01*
X77466741Y-141070500D01*
X78533258Y-141070499D01*
X78601392Y-141060573D01*
X78706483Y-141009198D01*
X78789198Y-140926483D01*
X78840573Y-140821392D01*
X78850500Y-140753259D01*
X78850499Y-139616228D01*
X80149500Y-139616228D01*
X80149500Y-140303771D01*
X80182182Y-140468074D01*
X80182184Y-140468082D01*
X80246295Y-140622860D01*
X80339373Y-140762162D01*
X80457837Y-140880626D01*
X80526469Y-140926484D01*
X80597137Y-140973703D01*
X80751918Y-141037816D01*
X80916228Y-141070499D01*
X80916232Y-141070500D01*
X80916233Y-141070500D01*
X81083768Y-141070500D01*
X81083769Y-141070499D01*
X81248082Y-141037816D01*
X81402863Y-140973703D01*
X81542162Y-140880626D01*
X81660626Y-140762162D01*
X81753703Y-140622863D01*
X81817816Y-140468082D01*
X81850500Y-140303767D01*
X81850500Y-139616233D01*
X81817816Y-139451918D01*
X81753703Y-139297137D01*
X81722537Y-139250494D01*
X81660626Y-139157837D01*
X81542162Y-139039373D01*
X81402860Y-138946295D01*
X81248082Y-138882184D01*
X81248074Y-138882182D01*
X81083771Y-138849500D01*
X81083767Y-138849500D01*
X80916233Y-138849500D01*
X80916228Y-138849500D01*
X80751925Y-138882182D01*
X80751917Y-138882184D01*
X80597139Y-138946295D01*
X80457837Y-139039373D01*
X80339373Y-139157837D01*
X80246295Y-139297139D01*
X80182184Y-139451917D01*
X80182182Y-139451925D01*
X80149500Y-139616228D01*
X78850499Y-139616228D01*
X78850499Y-139166742D01*
X78840573Y-139098608D01*
X78789198Y-138993517D01*
X78789197Y-138993516D01*
X78789197Y-138993515D01*
X78706484Y-138910802D01*
X78647939Y-138882182D01*
X78601392Y-138859427D01*
X78601390Y-138859426D01*
X78601387Y-138859425D01*
X78533259Y-138849500D01*
X77466742Y-138849500D01*
X77398606Y-138859427D01*
X77293515Y-138910802D01*
X77210802Y-138993515D01*
X77159428Y-139098606D01*
X77159425Y-139098612D01*
X77149500Y-139166740D01*
X63814751Y-139166740D01*
X63804560Y-139089334D01*
X63733295Y-138823368D01*
X63627923Y-138568979D01*
X63627921Y-138568976D01*
X63627919Y-138568971D01*
X63541591Y-138419448D01*
X63490249Y-138330521D01*
X63421099Y-138240403D01*
X63322629Y-138112073D01*
X63322623Y-138112066D01*
X63127933Y-137917376D01*
X63127926Y-137917370D01*
X63121945Y-137912781D01*
X74114500Y-137912781D01*
X74114500Y-138087218D01*
X74148527Y-138258283D01*
X74148529Y-138258291D01*
X74215278Y-138419439D01*
X74215283Y-138419448D01*
X74312186Y-138564473D01*
X74312189Y-138564477D01*
X74435522Y-138687810D01*
X74435526Y-138687813D01*
X74580551Y-138784716D01*
X74580557Y-138784719D01*
X74580558Y-138784720D01*
X74741709Y-138851471D01*
X74896105Y-138882182D01*
X74912781Y-138885499D01*
X74912785Y-138885500D01*
X74912786Y-138885500D01*
X75087215Y-138885500D01*
X75087216Y-138885499D01*
X75258291Y-138851471D01*
X75419442Y-138784720D01*
X75564474Y-138687813D01*
X75687813Y-138564474D01*
X75784720Y-138419442D01*
X75851471Y-138258291D01*
X75885500Y-138087214D01*
X75885500Y-137912786D01*
X75885499Y-137912781D01*
X83114500Y-137912781D01*
X83114500Y-138087218D01*
X83148527Y-138258283D01*
X83148529Y-138258291D01*
X83215278Y-138419439D01*
X83215283Y-138419448D01*
X83312186Y-138564473D01*
X83312189Y-138564477D01*
X83435522Y-138687810D01*
X83435526Y-138687813D01*
X83580551Y-138784716D01*
X83580557Y-138784719D01*
X83580558Y-138784720D01*
X83741709Y-138851471D01*
X83896105Y-138882182D01*
X83912781Y-138885499D01*
X83912785Y-138885500D01*
X83912786Y-138885500D01*
X84087215Y-138885500D01*
X84087216Y-138885499D01*
X84258291Y-138851471D01*
X84419442Y-138784720D01*
X84564474Y-138687813D01*
X84687813Y-138564474D01*
X84784720Y-138419442D01*
X84851471Y-138258291D01*
X84885500Y-138087214D01*
X84885500Y-137912786D01*
X84851471Y-137741709D01*
X84784720Y-137580558D01*
X84784719Y-137580557D01*
X84784716Y-137580551D01*
X84687813Y-137435526D01*
X84687810Y-137435522D01*
X84564477Y-137312189D01*
X84564473Y-137312186D01*
X84419448Y-137215283D01*
X84419439Y-137215278D01*
X84258291Y-137148529D01*
X84258283Y-137148527D01*
X84087218Y-137114500D01*
X84087214Y-137114500D01*
X83912786Y-137114500D01*
X83912781Y-137114500D01*
X83741716Y-137148527D01*
X83741708Y-137148529D01*
X83580560Y-137215278D01*
X83580551Y-137215283D01*
X83435526Y-137312186D01*
X83435522Y-137312189D01*
X83312189Y-137435522D01*
X83312186Y-137435526D01*
X83215283Y-137580551D01*
X83215278Y-137580560D01*
X83148529Y-137741708D01*
X83148527Y-137741716D01*
X83114500Y-137912781D01*
X75885499Y-137912781D01*
X75851471Y-137741709D01*
X75784720Y-137580558D01*
X75784719Y-137580557D01*
X75784716Y-137580551D01*
X75687813Y-137435526D01*
X75687810Y-137435522D01*
X75564477Y-137312189D01*
X75564473Y-137312186D01*
X75419448Y-137215283D01*
X75419439Y-137215278D01*
X75258291Y-137148529D01*
X75258283Y-137148527D01*
X75087218Y-137114500D01*
X75087214Y-137114500D01*
X74912786Y-137114500D01*
X74912781Y-137114500D01*
X74741716Y-137148527D01*
X74741708Y-137148529D01*
X74580560Y-137215278D01*
X74580551Y-137215283D01*
X74435526Y-137312186D01*
X74435522Y-137312189D01*
X74312189Y-137435522D01*
X74312186Y-137435526D01*
X74215283Y-137580551D01*
X74215278Y-137580560D01*
X74148529Y-137741708D01*
X74148527Y-137741716D01*
X74114500Y-137912781D01*
X63121945Y-137912781D01*
X62909483Y-137749754D01*
X62909482Y-137749753D01*
X62909479Y-137749751D01*
X62814407Y-137694861D01*
X62671028Y-137612080D01*
X62671017Y-137612075D01*
X62416630Y-137506704D01*
X62283649Y-137471072D01*
X62150666Y-137435440D01*
X62150660Y-137435439D01*
X62150655Y-137435438D01*
X61877684Y-137399501D01*
X61877679Y-137399500D01*
X61877674Y-137399500D01*
X61602326Y-137399500D01*
X61602320Y-137399500D01*
X61602315Y-137399501D01*
X61329344Y-137435438D01*
X61329337Y-137435439D01*
X61329334Y-137435440D01*
X61273125Y-137450500D01*
X61063369Y-137506704D01*
X60808982Y-137612075D01*
X60808971Y-137612080D01*
X60570516Y-137749754D01*
X60352073Y-137917370D01*
X60352066Y-137917376D01*
X60157376Y-138112066D01*
X60157370Y-138112073D01*
X59989754Y-138330516D01*
X59852080Y-138568971D01*
X59852075Y-138568982D01*
X59746704Y-138823369D01*
X59675441Y-139089331D01*
X59675438Y-139089344D01*
X59639501Y-139362315D01*
X59639500Y-139362332D01*
X59639500Y-139637667D01*
X59639501Y-139637684D01*
X59675438Y-139910655D01*
X59675439Y-139910660D01*
X59675440Y-139910666D01*
X59675441Y-139910668D01*
X59746704Y-140176630D01*
X59852075Y-140431017D01*
X59852080Y-140431028D01*
X59931184Y-140568038D01*
X59989751Y-140669479D01*
X59989753Y-140669482D01*
X59989754Y-140669483D01*
X60157370Y-140887926D01*
X60157376Y-140887933D01*
X60352066Y-141082623D01*
X60352072Y-141082628D01*
X60570521Y-141250249D01*
X60723778Y-141338732D01*
X60808971Y-141387919D01*
X60808976Y-141387921D01*
X60808979Y-141387923D01*
X61063368Y-141493295D01*
X61165741Y-141520725D01*
X61225401Y-141557090D01*
X61255930Y-141619937D01*
X61247635Y-141689312D01*
X61203150Y-141743190D01*
X61136598Y-141764465D01*
X61133647Y-141764500D01*
X51151330Y-141764500D01*
X51148625Y-141764470D01*
X50365861Y-141747389D01*
X50363003Y-141747294D01*
X50181815Y-141739157D01*
X50179268Y-141739017D01*
X49488694Y-141693754D01*
X49485689Y-141693520D01*
X49307511Y-141677484D01*
X49305127Y-141677246D01*
X48614184Y-141601576D01*
X48611038Y-141601191D01*
X48437947Y-141577744D01*
X48435729Y-141577423D01*
X47744007Y-141470956D01*
X47740729Y-141470406D01*
X47575023Y-141440335D01*
X47572973Y-141439945D01*
X46880001Y-141302105D01*
X46876599Y-141301379D01*
X46720693Y-141265794D01*
X46718813Y-141265349D01*
X46023869Y-141095298D01*
X46020353Y-141094383D01*
X45876962Y-141054809D01*
X45875252Y-141054324D01*
X45177342Y-140850901D01*
X45173723Y-140849786D01*
X45045907Y-140808256D01*
X45044367Y-140807744D01*
X44342121Y-140569364D01*
X44338408Y-140568038D01*
X44229950Y-140527333D01*
X44228579Y-140526809D01*
X43519833Y-140251193D01*
X43516039Y-140249645D01*
X43431664Y-140213581D01*
X43430460Y-140213059D01*
X42712162Y-139897001D01*
X42708300Y-139895222D01*
X42653869Y-139869009D01*
X42652827Y-139868501D01*
X41920701Y-139507456D01*
X41916790Y-139505440D01*
X41900857Y-139496867D01*
X41900033Y-139496419D01*
X41320430Y-139178439D01*
X41152620Y-139086375D01*
X41147935Y-139083670D01*
X40406588Y-138633810D01*
X40402025Y-138630903D01*
X40309337Y-138568971D01*
X39680992Y-138149124D01*
X39676570Y-138146027D01*
X39630261Y-138112072D01*
X39358470Y-137912786D01*
X38977263Y-137633273D01*
X38972971Y-137629980D01*
X38296680Y-137087200D01*
X38292535Y-137083722D01*
X37640571Y-136511964D01*
X37636582Y-136508309D01*
X37010172Y-135908652D01*
X37006347Y-135904827D01*
X36756655Y-135643995D01*
X56599499Y-135643995D01*
X56626418Y-135779322D01*
X56626421Y-135779332D01*
X56679221Y-135906804D01*
X56679228Y-135906817D01*
X56755885Y-136021541D01*
X56755888Y-136021545D01*
X56853454Y-136119111D01*
X56853458Y-136119114D01*
X56968182Y-136195771D01*
X56968195Y-136195778D01*
X57095667Y-136248578D01*
X57095672Y-136248580D01*
X57095676Y-136248580D01*
X57095677Y-136248581D01*
X57231004Y-136275500D01*
X57231007Y-136275500D01*
X57368995Y-136275500D01*
X57460041Y-136257389D01*
X57504328Y-136248580D01*
X57631811Y-136195775D01*
X57746542Y-136119114D01*
X57844114Y-136021542D01*
X57920775Y-135906811D01*
X57973580Y-135779328D01*
X57991112Y-135691190D01*
X58000500Y-135643995D01*
X60999499Y-135643995D01*
X61026418Y-135779322D01*
X61026421Y-135779332D01*
X61079221Y-135906804D01*
X61079228Y-135906817D01*
X61155885Y-136021541D01*
X61155888Y-136021545D01*
X61253454Y-136119111D01*
X61253458Y-136119114D01*
X61368182Y-136195771D01*
X61368195Y-136195778D01*
X61495667Y-136248578D01*
X61495672Y-136248580D01*
X61495676Y-136248580D01*
X61495677Y-136248581D01*
X61631004Y-136275500D01*
X61631007Y-136275500D01*
X61768995Y-136275500D01*
X61860041Y-136257389D01*
X61904328Y-136248580D01*
X62031811Y-136195775D01*
X62146542Y-136119114D01*
X62244114Y-136021542D01*
X62320775Y-135906811D01*
X62373580Y-135779328D01*
X62391112Y-135691190D01*
X62400500Y-135643995D01*
X62400500Y-135506004D01*
X62373581Y-135370677D01*
X62373580Y-135370676D01*
X62373580Y-135370672D01*
X62332097Y-135270523D01*
X62320778Y-135243195D01*
X62320771Y-135243182D01*
X62244114Y-135128458D01*
X62244111Y-135128454D01*
X62146545Y-135030888D01*
X62146541Y-135030885D01*
X62102923Y-135001740D01*
X62031817Y-134954228D01*
X62031804Y-134954221D01*
X61904332Y-134901421D01*
X61904322Y-134901418D01*
X61768995Y-134874500D01*
X61768993Y-134874500D01*
X61631007Y-134874500D01*
X61631005Y-134874500D01*
X61495677Y-134901418D01*
X61495667Y-134901421D01*
X61368195Y-134954221D01*
X61368182Y-134954228D01*
X61253458Y-135030885D01*
X61253454Y-135030888D01*
X61155888Y-135128454D01*
X61155885Y-135128458D01*
X61079228Y-135243182D01*
X61079221Y-135243195D01*
X61026421Y-135370667D01*
X61026418Y-135370677D01*
X60999500Y-135506004D01*
X60999500Y-135506007D01*
X60999500Y-135643993D01*
X60999500Y-135643995D01*
X60999499Y-135643995D01*
X58000500Y-135643995D01*
X58000500Y-135506004D01*
X57973581Y-135370677D01*
X57973580Y-135370676D01*
X57973580Y-135370672D01*
X57932097Y-135270523D01*
X57920778Y-135243195D01*
X57920771Y-135243182D01*
X57844114Y-135128458D01*
X57844111Y-135128454D01*
X57746545Y-135030888D01*
X57746541Y-135030885D01*
X57631817Y-134954228D01*
X57631804Y-134954221D01*
X57504332Y-134901421D01*
X57504322Y-134901418D01*
X57368995Y-134874500D01*
X57368993Y-134874500D01*
X57231007Y-134874500D01*
X57231005Y-134874500D01*
X57095677Y-134901418D01*
X57095667Y-134901421D01*
X56968195Y-134954221D01*
X56968182Y-134954228D01*
X56853458Y-135030885D01*
X56853454Y-135030888D01*
X56755888Y-135128454D01*
X56755885Y-135128458D01*
X56679228Y-135243182D01*
X56679221Y-135243195D01*
X56626421Y-135370667D01*
X56626418Y-135370677D01*
X56599500Y-135506004D01*
X56599500Y-135506007D01*
X56599500Y-135643993D01*
X56599500Y-135643995D01*
X56599499Y-135643995D01*
X36756655Y-135643995D01*
X36700814Y-135585663D01*
X36406690Y-135278417D01*
X36403035Y-135274428D01*
X35962717Y-134772343D01*
X35831277Y-134622464D01*
X35827799Y-134618319D01*
X35405757Y-134092465D01*
X35346117Y-134018155D01*
X99886000Y-134018155D01*
X99886000Y-134450000D01*
X100732599Y-134450000D01*
X100715924Y-134466675D01*
X100665896Y-134553325D01*
X100640000Y-134649972D01*
X100640000Y-134750028D01*
X100665896Y-134846675D01*
X100715924Y-134933325D01*
X100732599Y-134950000D01*
X99886000Y-134950000D01*
X99886000Y-135381844D01*
X99892401Y-135441372D01*
X99892403Y-135441379D01*
X99942645Y-135576086D01*
X99942649Y-135576093D01*
X100028809Y-135691187D01*
X100028812Y-135691190D01*
X100143906Y-135777350D01*
X100143913Y-135777354D01*
X100278620Y-135827596D01*
X100278627Y-135827598D01*
X100338155Y-135833999D01*
X100338172Y-135834000D01*
X100770000Y-135834000D01*
X100770000Y-134987401D01*
X100786675Y-135004076D01*
X100873325Y-135054104D01*
X100969972Y-135080000D01*
X101070028Y-135080000D01*
X101166675Y-135054104D01*
X101253325Y-135004076D01*
X101270000Y-134987401D01*
X101270000Y-135834000D01*
X101701828Y-135834000D01*
X101701844Y-135833999D01*
X101761372Y-135827598D01*
X101761379Y-135827596D01*
X101896086Y-135777354D01*
X101896093Y-135777350D01*
X102011187Y-135691190D01*
X102011190Y-135691187D01*
X102097350Y-135576093D01*
X102097354Y-135576086D01*
X102147596Y-135441379D01*
X102147598Y-135441372D01*
X102153999Y-135381844D01*
X102154000Y-135381827D01*
X102154000Y-134950000D01*
X101307401Y-134950000D01*
X101324076Y-134933325D01*
X101374104Y-134846675D01*
X101400000Y-134750028D01*
X101400000Y-134649972D01*
X101394020Y-134627653D01*
X102825500Y-134627653D01*
X102825500Y-134772346D01*
X102853724Y-134914238D01*
X102853726Y-134914246D01*
X102909093Y-135047914D01*
X102989476Y-135168217D01*
X103091782Y-135270523D01*
X103151933Y-135310714D01*
X103212084Y-135350906D01*
X103345754Y-135406274D01*
X103487653Y-135434499D01*
X103487657Y-135434500D01*
X103487658Y-135434500D01*
X103632343Y-135434500D01*
X103632344Y-135434499D01*
X103774246Y-135406274D01*
X103907916Y-135350906D01*
X104028217Y-135270523D01*
X104130523Y-135168217D01*
X104210906Y-135047916D01*
X104266274Y-134914246D01*
X104294500Y-134772342D01*
X104294500Y-134627658D01*
X104294499Y-134627653D01*
X105365500Y-134627653D01*
X105365500Y-134772346D01*
X105393724Y-134914238D01*
X105393726Y-134914246D01*
X105449093Y-135047914D01*
X105529476Y-135168217D01*
X105631782Y-135270523D01*
X105691933Y-135310714D01*
X105752084Y-135350906D01*
X105885754Y-135406274D01*
X106027653Y-135434499D01*
X106027657Y-135434500D01*
X106027658Y-135434500D01*
X106172343Y-135434500D01*
X106172344Y-135434499D01*
X106314246Y-135406274D01*
X106447916Y-135350906D01*
X106568217Y-135270523D01*
X106670523Y-135168217D01*
X106750906Y-135047916D01*
X106806274Y-134914246D01*
X106834500Y-134772342D01*
X106834500Y-134627658D01*
X106806274Y-134485754D01*
X106750906Y-134352084D01*
X106707259Y-134286762D01*
X106670523Y-134231782D01*
X106568217Y-134129476D01*
X106478194Y-134069325D01*
X106447916Y-134049094D01*
X106314246Y-133993726D01*
X106314238Y-133993724D01*
X106172346Y-133965500D01*
X106172342Y-133965500D01*
X106027658Y-133965500D01*
X106027653Y-133965500D01*
X105885761Y-133993724D01*
X105885753Y-133993726D01*
X105752085Y-134049093D01*
X105631782Y-134129476D01*
X105529476Y-134231782D01*
X105449093Y-134352085D01*
X105393726Y-134485753D01*
X105393724Y-134485761D01*
X105365500Y-134627653D01*
X104294499Y-134627653D01*
X104266274Y-134485754D01*
X104210906Y-134352084D01*
X104167259Y-134286762D01*
X104130523Y-134231782D01*
X104028217Y-134129476D01*
X103938194Y-134069325D01*
X103907916Y-134049094D01*
X103774246Y-133993726D01*
X103774238Y-133993724D01*
X103632346Y-133965500D01*
X103632342Y-133965500D01*
X103487658Y-133965500D01*
X103487653Y-133965500D01*
X103345761Y-133993724D01*
X103345753Y-133993726D01*
X103212085Y-134049093D01*
X103091782Y-134129476D01*
X102989476Y-134231782D01*
X102909093Y-134352085D01*
X102853726Y-134485753D01*
X102853724Y-134485761D01*
X102825500Y-134627653D01*
X101394020Y-134627653D01*
X101374104Y-134553325D01*
X101324076Y-134466675D01*
X101307401Y-134450000D01*
X102154000Y-134450000D01*
X102154000Y-134018172D01*
X102153999Y-134018155D01*
X102147598Y-133958627D01*
X102147596Y-133958620D01*
X102097354Y-133823913D01*
X102097350Y-133823906D01*
X102011190Y-133708812D01*
X102011187Y-133708809D01*
X101896093Y-133622649D01*
X101896086Y-133622645D01*
X101761379Y-133572403D01*
X101761372Y-133572401D01*
X101701844Y-133566000D01*
X101270000Y-133566000D01*
X101270000Y-134412599D01*
X101253325Y-134395924D01*
X101166675Y-134345896D01*
X101070028Y-134320000D01*
X100969972Y-134320000D01*
X100873325Y-134345896D01*
X100786675Y-134395924D01*
X100770000Y-134412599D01*
X100770000Y-133566000D01*
X100338155Y-133566000D01*
X100278627Y-133572401D01*
X100278620Y-133572403D01*
X100143913Y-133622645D01*
X100143906Y-133622649D01*
X100028812Y-133708809D01*
X100028809Y-133708812D01*
X99942649Y-133823906D01*
X99942645Y-133823913D01*
X99892403Y-133958620D01*
X99892401Y-133958627D01*
X99886000Y-134018155D01*
X35346117Y-134018155D01*
X35285019Y-133942028D01*
X35281726Y-133937736D01*
X35013851Y-133572401D01*
X34768959Y-133238411D01*
X34765882Y-133234016D01*
X34284087Y-132512961D01*
X34281189Y-132508411D01*
X34110728Y-132227500D01*
X33831325Y-131767058D01*
X33828624Y-131762379D01*
X33418471Y-131014768D01*
X33418215Y-131014297D01*
X33409558Y-130998208D01*
X33407542Y-130994297D01*
X33405029Y-130989202D01*
X33296140Y-130768397D01*
X57949499Y-130768397D01*
X57949499Y-130900180D01*
X57983607Y-131027476D01*
X57990737Y-131039825D01*
X58049499Y-131141603D01*
X58142685Y-131234789D01*
X58256813Y-131300681D01*
X58384107Y-131334789D01*
X58384109Y-131334789D01*
X58515890Y-131334789D01*
X58515891Y-131334789D01*
X58535759Y-131329465D01*
X58605607Y-131331126D01*
X58655535Y-131361558D01*
X58992766Y-131698789D01*
X59026251Y-131760112D01*
X59029085Y-131786470D01*
X59029085Y-131792891D01*
X59063193Y-131920187D01*
X59096139Y-131977250D01*
X59129085Y-132034314D01*
X59222271Y-132127500D01*
X59336399Y-132193392D01*
X59463693Y-132227500D01*
X59463695Y-132227500D01*
X59595475Y-132227500D01*
X59595477Y-132227500D01*
X59722771Y-132193392D01*
X59836899Y-132127500D01*
X59930085Y-132034314D01*
X59995977Y-131920186D01*
X60030085Y-131792892D01*
X60030085Y-131661108D01*
X59995977Y-131533814D01*
X59930085Y-131419686D01*
X59836899Y-131326500D01*
X59779835Y-131293554D01*
X59722772Y-131260608D01*
X59626412Y-131234789D01*
X59595477Y-131226500D01*
X59463693Y-131226500D01*
X59336399Y-131260608D01*
X59336396Y-131260609D01*
X59336395Y-131260610D01*
X59331079Y-131263679D01*
X59263177Y-131280144D01*
X59197153Y-131257285D01*
X59181409Y-131243966D01*
X58977268Y-131039825D01*
X58943783Y-130978502D01*
X58945175Y-130920048D01*
X58950499Y-130900181D01*
X58950499Y-130768397D01*
X58916391Y-130641103D01*
X58850499Y-130526975D01*
X58757313Y-130433789D01*
X58700249Y-130400843D01*
X58643186Y-130367897D01*
X58579538Y-130350843D01*
X58515891Y-130333789D01*
X58384107Y-130333789D01*
X58256811Y-130367897D01*
X58142685Y-130433789D01*
X58142682Y-130433791D01*
X58049501Y-130526972D01*
X58049499Y-130526975D01*
X57983607Y-130641101D01*
X57949499Y-130768397D01*
X33296140Y-130768397D01*
X33046497Y-130262171D01*
X33045989Y-130261129D01*
X33019776Y-130206698D01*
X33017997Y-130202836D01*
X32701939Y-129484538D01*
X32701417Y-129483334D01*
X32665335Y-129398916D01*
X32663805Y-129395165D01*
X32388189Y-128686419D01*
X32387665Y-128685048D01*
X32346960Y-128576590D01*
X32345634Y-128572877D01*
X32107254Y-127870631D01*
X32106742Y-127869091D01*
X32065212Y-127741275D01*
X32064097Y-127737656D01*
X31860648Y-127039655D01*
X31860216Y-127038131D01*
X31820594Y-126894567D01*
X31819721Y-126891210D01*
X31649624Y-126196081D01*
X31649226Y-126194400D01*
X31613599Y-126038306D01*
X31612913Y-126035094D01*
X31475044Y-125341981D01*
X31474663Y-125339975D01*
X31471013Y-125319863D01*
X31444589Y-125174253D01*
X31444042Y-125170991D01*
X31434281Y-125107570D01*
X31337560Y-124479168D01*
X31337268Y-124477150D01*
X31313797Y-124303880D01*
X31313432Y-124300898D01*
X31237743Y-123609781D01*
X31237523Y-123607578D01*
X31221473Y-123429253D01*
X31221248Y-123426362D01*
X31175975Y-122735624D01*
X31175847Y-122733294D01*
X31167701Y-122551924D01*
X31167611Y-122549212D01*
X31150530Y-121766374D01*
X31150500Y-121763669D01*
X31150500Y-117999999D01*
X31997422Y-117999999D01*
X31998864Y-118014181D01*
X31999500Y-118026725D01*
X31999500Y-118098545D01*
X32014596Y-118174438D01*
X32015749Y-118180237D01*
X32017944Y-118201818D01*
X32023675Y-118220086D01*
X32024980Y-118226643D01*
X32024982Y-118226651D01*
X32037947Y-118291830D01*
X32037949Y-118291836D01*
X32069813Y-118368763D01*
X32069815Y-118368766D01*
X32071918Y-118373843D01*
X32078673Y-118395373D01*
X32087191Y-118410719D01*
X32089902Y-118417265D01*
X32089902Y-118417266D01*
X32113365Y-118473908D01*
X32113371Y-118473920D01*
X32163081Y-118548315D01*
X32163084Y-118548319D01*
X32165924Y-118552570D01*
X32177120Y-118572741D01*
X32187406Y-118584723D01*
X32191558Y-118590937D01*
X32222860Y-118637781D01*
X32222865Y-118637787D01*
X32290847Y-118705769D01*
X32294195Y-118709116D01*
X32309257Y-118726662D01*
X32320250Y-118735171D01*
X32325812Y-118740733D01*
X32325814Y-118740735D01*
X32362214Y-118777136D01*
X32362218Y-118777139D01*
X32451784Y-118836985D01*
X32469672Y-118850832D01*
X32480331Y-118856059D01*
X32526086Y-118886632D01*
X32632593Y-118930748D01*
X32651799Y-118940170D01*
X32661236Y-118942612D01*
X32708165Y-118962051D01*
X32829612Y-118986208D01*
X32848182Y-118991017D01*
X32855697Y-118991397D01*
X32895459Y-118999306D01*
X32901458Y-119000500D01*
X33035164Y-119000500D01*
X33050780Y-119001292D01*
X33055950Y-119000500D01*
X33098542Y-119000500D01*
X33144299Y-118991398D01*
X33241273Y-118972108D01*
X33251299Y-118970573D01*
X33253970Y-118969582D01*
X33291835Y-118962051D01*
X33439850Y-118900741D01*
X33441530Y-118900120D01*
X33441879Y-118899900D01*
X33473914Y-118886632D01*
X33637782Y-118777139D01*
X33777139Y-118637782D01*
X33886632Y-118473914D01*
X33962051Y-118291835D01*
X33979957Y-118201818D01*
X34000500Y-118098543D01*
X34000500Y-117901456D01*
X33962052Y-117708170D01*
X33962051Y-117708169D01*
X33962051Y-117708165D01*
X33930184Y-117631231D01*
X33886635Y-117526092D01*
X33886628Y-117526079D01*
X33777139Y-117362218D01*
X33777136Y-117362214D01*
X33637782Y-117222860D01*
X33473919Y-117113371D01*
X33473916Y-117113369D01*
X33473914Y-117113368D01*
X33473911Y-117113366D01*
X33473906Y-117113364D01*
X33446153Y-117101869D01*
X33441884Y-117100101D01*
X33441530Y-117099880D01*
X33439843Y-117099255D01*
X33371044Y-117070758D01*
X33291839Y-117037950D01*
X33291827Y-117037947D01*
X33262407Y-117032095D01*
X33262405Y-117032095D01*
X33253975Y-117030418D01*
X33251299Y-117029427D01*
X33241267Y-117027890D01*
X33238557Y-117027351D01*
X33238555Y-117027350D01*
X33098544Y-116999500D01*
X33098541Y-116999500D01*
X33055950Y-116999500D01*
X33050780Y-116998708D01*
X33035164Y-116999500D01*
X32901459Y-116999500D01*
X32864563Y-117006838D01*
X32864562Y-117006837D01*
X32855688Y-117008602D01*
X32848182Y-117008983D01*
X32829625Y-117013787D01*
X32826130Y-117014483D01*
X32708171Y-117037947D01*
X32708164Y-117037949D01*
X32669233Y-117054072D01*
X32669234Y-117054073D01*
X32661231Y-117057387D01*
X32651799Y-117059830D01*
X32632603Y-117069245D01*
X32628965Y-117070753D01*
X32628954Y-117070758D01*
X32526085Y-117113368D01*
X32487199Y-117139349D01*
X32487200Y-117139350D01*
X32480331Y-117143939D01*
X32469672Y-117149168D01*
X32451793Y-117163007D01*
X32448191Y-117165414D01*
X32448185Y-117165419D01*
X32362217Y-117222861D01*
X32325812Y-117259266D01*
X32325811Y-117259268D01*
X32320249Y-117264829D01*
X32309257Y-117273338D01*
X32294200Y-117290876D01*
X32290860Y-117294217D01*
X32290857Y-117294218D01*
X32222865Y-117362212D01*
X32222859Y-117362219D01*
X32191557Y-117409064D01*
X32187403Y-117415279D01*
X32177120Y-117427259D01*
X32165934Y-117447410D01*
X32163091Y-117451667D01*
X32113368Y-117526085D01*
X32113367Y-117526085D01*
X32089904Y-117582728D01*
X32089905Y-117582729D01*
X32087191Y-117589278D01*
X32078673Y-117604627D01*
X32071923Y-117626139D01*
X32069816Y-117631227D01*
X32069815Y-117631231D01*
X32037947Y-117708169D01*
X32024982Y-117773348D01*
X32023676Y-117779912D01*
X32017944Y-117798182D01*
X32015750Y-117819753D01*
X32014599Y-117825542D01*
X32014597Y-117825559D01*
X31999500Y-117901460D01*
X31999500Y-117973275D01*
X31998864Y-117985818D01*
X31997422Y-117999999D01*
X31150500Y-117999999D01*
X31150500Y-115031964D01*
X41421000Y-115031964D01*
X41421000Y-115250597D01*
X41455202Y-115466540D01*
X41522761Y-115674469D01*
X41522762Y-115674472D01*
X41622020Y-115869274D01*
X41622021Y-115869276D01*
X41666806Y-115930919D01*
X41666807Y-115930919D01*
X42372352Y-115225374D01*
X42395792Y-115312852D01*
X42454311Y-115414211D01*
X42537070Y-115496970D01*
X42638429Y-115555489D01*
X42725905Y-115578928D01*
X42020360Y-116284472D01*
X42082008Y-116329261D01*
X42276808Y-116428518D01*
X42276811Y-116428519D01*
X42484740Y-116496078D01*
X42700684Y-116530281D01*
X42919316Y-116530281D01*
X43135259Y-116496078D01*
X43343188Y-116428519D01*
X43343191Y-116428518D01*
X43537995Y-116329259D01*
X43599638Y-116284472D01*
X43599639Y-116284472D01*
X42894094Y-115578928D01*
X42981571Y-115555489D01*
X43082930Y-115496970D01*
X43165689Y-115414211D01*
X43224208Y-115312852D01*
X43247647Y-115225376D01*
X43953191Y-115930920D01*
X43953191Y-115930919D01*
X43997978Y-115869276D01*
X44097237Y-115674472D01*
X44097238Y-115674469D01*
X44164796Y-115466545D01*
X44164864Y-115466117D01*
X44164936Y-115465964D01*
X44165934Y-115461808D01*
X44166807Y-115462017D01*
X44194789Y-115402980D01*
X44254098Y-115366045D01*
X44323960Y-115367037D01*
X44382196Y-115405642D01*
X44401900Y-115438054D01*
X44473112Y-115609978D01*
X44473119Y-115609991D01*
X44581404Y-115772050D01*
X44581407Y-115772054D01*
X44719226Y-115909873D01*
X44719230Y-115909876D01*
X44881289Y-116018161D01*
X44881302Y-116018168D01*
X45004800Y-116069322D01*
X45061373Y-116092755D01*
X45252538Y-116130780D01*
X45252542Y-116130781D01*
X45252543Y-116130781D01*
X45447458Y-116130781D01*
X45447459Y-116130780D01*
X45638627Y-116092755D01*
X45818704Y-116018165D01*
X45980770Y-115909876D01*
X46118595Y-115772051D01*
X46226884Y-115609985D01*
X46301474Y-115429908D01*
X46339500Y-115238738D01*
X46339500Y-115043824D01*
X46339499Y-115043819D01*
X46900500Y-115043819D01*
X46900500Y-115238742D01*
X46938524Y-115429900D01*
X46938527Y-115429912D01*
X47013112Y-115609978D01*
X47013119Y-115609991D01*
X47121404Y-115772050D01*
X47121407Y-115772054D01*
X47259226Y-115909873D01*
X47259230Y-115909876D01*
X47421289Y-116018161D01*
X47421302Y-116018168D01*
X47544800Y-116069322D01*
X47601373Y-116092755D01*
X47792538Y-116130780D01*
X47792542Y-116130781D01*
X47792543Y-116130781D01*
X47987458Y-116130781D01*
X47987459Y-116130780D01*
X48178627Y-116092755D01*
X48358704Y-116018165D01*
X48520770Y-115909876D01*
X48658595Y-115772051D01*
X48766884Y-115609985D01*
X48841474Y-115429908D01*
X48879500Y-115238738D01*
X48879500Y-115043824D01*
X48841474Y-114852654D01*
X48835985Y-114839403D01*
X48766887Y-114672583D01*
X48766880Y-114672570D01*
X48658595Y-114510511D01*
X48658592Y-114510507D01*
X48520773Y-114372688D01*
X48520769Y-114372685D01*
X48358710Y-114264400D01*
X48358697Y-114264393D01*
X48178631Y-114189808D01*
X48178619Y-114189805D01*
X47987461Y-114151781D01*
X47987457Y-114151781D01*
X47792543Y-114151781D01*
X47792538Y-114151781D01*
X47601380Y-114189805D01*
X47601368Y-114189808D01*
X47421302Y-114264393D01*
X47421289Y-114264400D01*
X47259230Y-114372685D01*
X47259226Y-114372688D01*
X47121407Y-114510507D01*
X47121404Y-114510511D01*
X47013119Y-114672570D01*
X47013112Y-114672583D01*
X46938527Y-114852649D01*
X46938524Y-114852661D01*
X46900500Y-115043819D01*
X46339499Y-115043819D01*
X46301474Y-114852654D01*
X46295985Y-114839403D01*
X46226887Y-114672583D01*
X46226880Y-114672570D01*
X46118595Y-114510511D01*
X46118592Y-114510507D01*
X45980773Y-114372688D01*
X45980769Y-114372685D01*
X45818710Y-114264400D01*
X45818697Y-114264393D01*
X45638631Y-114189808D01*
X45638619Y-114189805D01*
X45447461Y-114151781D01*
X45447457Y-114151781D01*
X45252543Y-114151781D01*
X45252538Y-114151781D01*
X45061380Y-114189805D01*
X45061368Y-114189808D01*
X44881302Y-114264393D01*
X44881289Y-114264400D01*
X44719230Y-114372685D01*
X44719226Y-114372688D01*
X44581407Y-114510507D01*
X44581404Y-114510511D01*
X44473119Y-114672570D01*
X44473114Y-114672579D01*
X44401900Y-114844508D01*
X44358059Y-114898911D01*
X44291765Y-114920976D01*
X44224066Y-114903697D01*
X44176455Y-114852560D01*
X44166224Y-114820684D01*
X44165934Y-114820754D01*
X44165004Y-114816882D01*
X44164865Y-114816447D01*
X44164797Y-114816020D01*
X44097238Y-114608092D01*
X44097237Y-114608089D01*
X43997980Y-114413289D01*
X43953191Y-114351641D01*
X43247647Y-115057185D01*
X43224208Y-114969710D01*
X43165689Y-114868351D01*
X43082930Y-114785592D01*
X42981571Y-114727073D01*
X42894092Y-114703633D01*
X43599638Y-113998088D01*
X43599638Y-113998087D01*
X43537995Y-113953302D01*
X43537993Y-113953301D01*
X43343191Y-113854043D01*
X43343188Y-113854042D01*
X43135259Y-113786483D01*
X42919316Y-113752281D01*
X42700684Y-113752281D01*
X42484740Y-113786483D01*
X42276811Y-113854042D01*
X42276808Y-113854043D01*
X42082001Y-113953304D01*
X42020360Y-113998087D01*
X42020360Y-113998088D01*
X42725905Y-114703633D01*
X42638429Y-114727073D01*
X42537070Y-114785592D01*
X42454311Y-114868351D01*
X42395792Y-114969710D01*
X42372352Y-115057186D01*
X41666807Y-114351641D01*
X41666806Y-114351641D01*
X41622023Y-114413282D01*
X41522762Y-114608089D01*
X41522761Y-114608092D01*
X41455202Y-114816021D01*
X41421000Y-115031964D01*
X31150500Y-115031964D01*
X31150500Y-111550909D01*
X36486500Y-111550909D01*
X36486500Y-111746652D01*
X36517118Y-111939968D01*
X36577604Y-112126123D01*
X36666466Y-112300520D01*
X36781505Y-112458861D01*
X36919919Y-112597275D01*
X37068089Y-112704924D01*
X37078264Y-112712317D01*
X37189386Y-112768937D01*
X37252657Y-112801176D01*
X37252659Y-112801176D01*
X37252662Y-112801178D01*
X37352444Y-112833599D01*
X37438812Y-112861662D01*
X37632129Y-112892281D01*
X37632134Y-112892281D01*
X37827871Y-112892281D01*
X38021187Y-112861662D01*
X38207338Y-112801178D01*
X38381736Y-112712317D01*
X38470641Y-112647724D01*
X38540080Y-112597275D01*
X38540082Y-112597272D01*
X38540086Y-112597270D01*
X38678489Y-112458867D01*
X38678491Y-112458863D01*
X38678494Y-112458861D01*
X38728943Y-112389422D01*
X38793536Y-112300517D01*
X38882397Y-112126119D01*
X38942881Y-111939968D01*
X38973500Y-111746652D01*
X38973500Y-111550909D01*
X51726500Y-111550909D01*
X51726500Y-111746652D01*
X51757118Y-111939968D01*
X51817604Y-112126123D01*
X51906466Y-112300520D01*
X52021505Y-112458861D01*
X52159919Y-112597275D01*
X52308089Y-112704924D01*
X52318264Y-112712317D01*
X52429386Y-112768937D01*
X52492657Y-112801176D01*
X52492659Y-112801176D01*
X52492662Y-112801178D01*
X52592444Y-112833599D01*
X52678812Y-112861662D01*
X52872129Y-112892281D01*
X52872134Y-112892281D01*
X53067871Y-112892281D01*
X53261187Y-112861662D01*
X53447338Y-112801178D01*
X53621736Y-112712317D01*
X53710641Y-112647724D01*
X53780080Y-112597275D01*
X53780082Y-112597272D01*
X53780086Y-112597270D01*
X53918489Y-112458867D01*
X53918491Y-112458863D01*
X53918494Y-112458861D01*
X53968943Y-112389422D01*
X54033536Y-112300517D01*
X54122397Y-112126119D01*
X54182881Y-111939968D01*
X54213500Y-111746652D01*
X54213500Y-111550909D01*
X54192396Y-111417665D01*
X54189967Y-111402332D01*
X59639500Y-111402332D01*
X59639500Y-111677667D01*
X59639501Y-111677684D01*
X59675438Y-111950655D01*
X59675439Y-111950660D01*
X59675440Y-111950666D01*
X59711072Y-112083649D01*
X59746704Y-112216630D01*
X59852075Y-112471017D01*
X59852080Y-112471028D01*
X59924967Y-112597270D01*
X59989751Y-112709479D01*
X59989753Y-112709482D01*
X59989754Y-112709483D01*
X60157370Y-112927926D01*
X60157376Y-112927933D01*
X60352066Y-113122623D01*
X60352072Y-113122628D01*
X60570521Y-113290249D01*
X60723778Y-113378732D01*
X60808971Y-113427919D01*
X60808976Y-113427921D01*
X60808979Y-113427923D01*
X61063368Y-113533295D01*
X61329334Y-113604560D01*
X61602326Y-113640500D01*
X61602333Y-113640500D01*
X61877667Y-113640500D01*
X61877674Y-113640500D01*
X62150666Y-113604560D01*
X62416632Y-113533295D01*
X62671021Y-113427923D01*
X62909479Y-113290249D01*
X63127928Y-113122628D01*
X63322628Y-112927928D01*
X63490249Y-112709479D01*
X63627923Y-112471021D01*
X63733295Y-112216632D01*
X63804560Y-111950666D01*
X63840500Y-111677674D01*
X63840500Y-111402326D01*
X63804560Y-111129334D01*
X63733295Y-110863368D01*
X63627923Y-110608979D01*
X63627921Y-110608976D01*
X63627919Y-110608971D01*
X63560095Y-110491498D01*
X63490249Y-110370521D01*
X63322628Y-110152072D01*
X63322623Y-110152066D01*
X63127933Y-109957376D01*
X63127926Y-109957370D01*
X62909483Y-109789754D01*
X62909482Y-109789753D01*
X62909479Y-109789751D01*
X62814407Y-109734861D01*
X62671028Y-109652080D01*
X62671017Y-109652075D01*
X62416630Y-109546704D01*
X62277597Y-109509451D01*
X62150666Y-109475440D01*
X62150660Y-109475439D01*
X62150655Y-109475438D01*
X61877684Y-109439501D01*
X61877679Y-109439500D01*
X61877674Y-109439500D01*
X61602326Y-109439500D01*
X61602320Y-109439500D01*
X61602315Y-109439501D01*
X61329344Y-109475438D01*
X61329337Y-109475439D01*
X61329334Y-109475440D01*
X61299093Y-109483543D01*
X61063369Y-109546704D01*
X60808982Y-109652075D01*
X60808971Y-109652080D01*
X60570516Y-109789754D01*
X60352073Y-109957370D01*
X60352066Y-109957376D01*
X60157376Y-110152066D01*
X60157370Y-110152073D01*
X59989754Y-110370516D01*
X59852080Y-110608971D01*
X59852075Y-110608982D01*
X59746704Y-110863369D01*
X59675441Y-111129331D01*
X59675438Y-111129344D01*
X59639501Y-111402315D01*
X59639500Y-111402332D01*
X54189967Y-111402332D01*
X54185846Y-111376313D01*
X54182881Y-111357594D01*
X54122397Y-111171443D01*
X54122395Y-111171440D01*
X54122395Y-111171438D01*
X54082370Y-111092886D01*
X54033536Y-110997045D01*
X53999949Y-110950816D01*
X53918494Y-110838700D01*
X53780080Y-110700286D01*
X53621739Y-110585247D01*
X53621738Y-110585246D01*
X53621736Y-110585245D01*
X53567276Y-110557496D01*
X53447342Y-110496385D01*
X53261187Y-110435899D01*
X53067871Y-110405281D01*
X53067866Y-110405281D01*
X52872134Y-110405281D01*
X52872129Y-110405281D01*
X52678812Y-110435899D01*
X52492657Y-110496385D01*
X52318260Y-110585247D01*
X52159919Y-110700286D01*
X52021505Y-110838700D01*
X51906466Y-110997041D01*
X51817604Y-111171438D01*
X51757118Y-111357593D01*
X51726500Y-111550909D01*
X38973500Y-111550909D01*
X38942881Y-111357593D01*
X38913500Y-111267167D01*
X38882397Y-111171443D01*
X38882395Y-111171440D01*
X38882395Y-111171438D01*
X38842370Y-111092886D01*
X38793536Y-110997045D01*
X38759949Y-110950816D01*
X38678494Y-110838700D01*
X38540080Y-110700286D01*
X38381739Y-110585247D01*
X38381738Y-110585246D01*
X38381736Y-110585245D01*
X38327276Y-110557496D01*
X38207342Y-110496385D01*
X38021187Y-110435899D01*
X37827871Y-110405281D01*
X37827866Y-110405281D01*
X37632134Y-110405281D01*
X37632129Y-110405281D01*
X37438812Y-110435899D01*
X37252657Y-110496385D01*
X37078260Y-110585247D01*
X36919919Y-110700286D01*
X36781505Y-110838700D01*
X36666466Y-110997041D01*
X36577604Y-111171438D01*
X36517118Y-111357593D01*
X36486500Y-111550909D01*
X31150500Y-111550909D01*
X31150500Y-107423819D01*
X34200500Y-107423819D01*
X34200500Y-107618742D01*
X34238524Y-107809900D01*
X34238527Y-107809912D01*
X34313112Y-107989978D01*
X34313119Y-107989991D01*
X34421404Y-108152050D01*
X34421407Y-108152054D01*
X34559226Y-108289873D01*
X34559230Y-108289876D01*
X34721289Y-108398161D01*
X34721302Y-108398168D01*
X34883027Y-108465156D01*
X34901373Y-108472755D01*
X35092538Y-108510780D01*
X35092542Y-108510781D01*
X35092543Y-108510781D01*
X35287458Y-108510781D01*
X35287459Y-108510780D01*
X35478627Y-108472755D01*
X35658704Y-108398165D01*
X35820770Y-108289876D01*
X35958595Y-108152051D01*
X36066884Y-107989985D01*
X36141474Y-107809908D01*
X36179500Y-107618738D01*
X36179500Y-107423824D01*
X36141474Y-107232654D01*
X36082216Y-107089591D01*
X36066887Y-107052583D01*
X36066880Y-107052570D01*
X35958595Y-106890511D01*
X35958592Y-106890507D01*
X35820773Y-106752688D01*
X35820769Y-106752685D01*
X35658710Y-106644400D01*
X35658697Y-106644393D01*
X35478631Y-106569808D01*
X35478619Y-106569805D01*
X35287461Y-106531781D01*
X35287457Y-106531781D01*
X35092543Y-106531781D01*
X35092538Y-106531781D01*
X34901380Y-106569805D01*
X34901368Y-106569808D01*
X34721302Y-106644393D01*
X34721289Y-106644400D01*
X34559230Y-106752685D01*
X34559226Y-106752688D01*
X34421407Y-106890507D01*
X34421404Y-106890511D01*
X34313119Y-107052570D01*
X34313112Y-107052583D01*
X34238527Y-107232649D01*
X34238524Y-107232661D01*
X34200500Y-107423819D01*
X31150500Y-107423819D01*
X31150500Y-102331964D01*
X33801000Y-102331964D01*
X33801000Y-102550597D01*
X33835202Y-102766540D01*
X33902761Y-102974469D01*
X33902762Y-102974472D01*
X34002020Y-103169274D01*
X34002021Y-103169276D01*
X34046806Y-103230919D01*
X34046807Y-103230919D01*
X34752352Y-102525374D01*
X34775792Y-102612852D01*
X34834311Y-102714211D01*
X34917070Y-102796970D01*
X35018429Y-102855489D01*
X35105905Y-102878928D01*
X34400360Y-103584472D01*
X34462008Y-103629261D01*
X34656808Y-103728518D01*
X34656811Y-103728519D01*
X34864739Y-103796078D01*
X34865166Y-103796146D01*
X34865316Y-103796217D01*
X34869473Y-103797215D01*
X34869263Y-103798088D01*
X34928302Y-103826072D01*
X34965236Y-103885382D01*
X34964242Y-103955245D01*
X34925635Y-104013479D01*
X34893227Y-104033181D01*
X34721298Y-104104395D01*
X34721289Y-104104400D01*
X34559230Y-104212685D01*
X34559226Y-104212688D01*
X34421407Y-104350507D01*
X34421404Y-104350511D01*
X34313119Y-104512570D01*
X34313112Y-104512583D01*
X34238527Y-104692649D01*
X34238524Y-104692661D01*
X34200500Y-104883819D01*
X34200500Y-105078742D01*
X34238524Y-105269900D01*
X34238527Y-105269912D01*
X34313112Y-105449978D01*
X34313119Y-105449991D01*
X34421404Y-105612050D01*
X34421407Y-105612054D01*
X34559226Y-105749873D01*
X34559230Y-105749876D01*
X34721289Y-105858161D01*
X34721302Y-105858168D01*
X34901368Y-105932753D01*
X34901373Y-105932755D01*
X35092538Y-105970780D01*
X35092542Y-105970781D01*
X35092543Y-105970781D01*
X35287458Y-105970781D01*
X35287459Y-105970780D01*
X35478627Y-105932755D01*
X35658704Y-105858165D01*
X35820770Y-105749876D01*
X35958595Y-105612051D01*
X36066884Y-105449985D01*
X36141474Y-105269908D01*
X36179500Y-105078738D01*
X36179500Y-104883824D01*
X36141474Y-104692654D01*
X36100274Y-104593187D01*
X36066887Y-104512583D01*
X36066880Y-104512570D01*
X35988236Y-104394872D01*
X35988235Y-104394871D01*
X35971102Y-104369230D01*
X35958595Y-104350511D01*
X35958593Y-104350508D01*
X35942193Y-104334108D01*
X68899500Y-104334108D01*
X68899500Y-104465891D01*
X68933608Y-104593187D01*
X68966554Y-104650250D01*
X68999500Y-104707314D01*
X69092686Y-104800500D01*
X69206814Y-104866392D01*
X69334108Y-104900500D01*
X69334110Y-104900500D01*
X69465890Y-104900500D01*
X69465892Y-104900500D01*
X69593186Y-104866392D01*
X69707314Y-104800500D01*
X69800500Y-104707314D01*
X69866392Y-104593186D01*
X69900500Y-104465892D01*
X69900500Y-104465883D01*
X69901561Y-104457832D01*
X69903913Y-104458141D01*
X69920185Y-104402727D01*
X69936815Y-104382089D01*
X70392234Y-103926669D01*
X70453555Y-103893186D01*
X70512006Y-103894577D01*
X70534108Y-103900500D01*
X70534110Y-103900500D01*
X70665890Y-103900500D01*
X70665892Y-103900500D01*
X70793186Y-103866392D01*
X70907314Y-103800500D01*
X71000500Y-103707314D01*
X71066392Y-103593186D01*
X71100500Y-103465892D01*
X71100500Y-103334108D01*
X71066392Y-103206814D01*
X71000500Y-103092686D01*
X70907314Y-102999500D01*
X70845459Y-102963788D01*
X70793187Y-102933608D01*
X70684552Y-102904500D01*
X70665892Y-102899500D01*
X70534108Y-102899500D01*
X70406812Y-102933608D01*
X70292686Y-102999500D01*
X70292683Y-102999502D01*
X70199502Y-103092683D01*
X70199500Y-103092686D01*
X70133608Y-103206812D01*
X70099500Y-103334108D01*
X70099500Y-103465893D01*
X70105422Y-103487996D01*
X70103756Y-103557846D01*
X70073327Y-103607766D01*
X69758288Y-103922805D01*
X69696965Y-103956290D01*
X69627273Y-103951306D01*
X69608606Y-103942511D01*
X69593186Y-103933608D01*
X69465892Y-103899500D01*
X69334108Y-103899500D01*
X69206812Y-103933608D01*
X69092686Y-103999500D01*
X69092683Y-103999502D01*
X68999502Y-104092683D01*
X68999500Y-104092686D01*
X68933608Y-104206812D01*
X68899500Y-104334108D01*
X35942193Y-104334108D01*
X35820773Y-104212688D01*
X35820769Y-104212685D01*
X35658710Y-104104400D01*
X35658697Y-104104393D01*
X35486773Y-104033181D01*
X35432369Y-103989340D01*
X35410304Y-103923046D01*
X35427583Y-103855347D01*
X35478720Y-103807736D01*
X35510596Y-103797505D01*
X35510527Y-103797215D01*
X35514394Y-103796286D01*
X35514836Y-103796145D01*
X35515264Y-103796077D01*
X35723188Y-103728519D01*
X35723191Y-103728518D01*
X35917995Y-103629259D01*
X35979638Y-103584472D01*
X35979639Y-103584472D01*
X35274094Y-102878928D01*
X35361571Y-102855489D01*
X35462930Y-102796970D01*
X35545689Y-102714211D01*
X35604208Y-102612852D01*
X35627647Y-102525376D01*
X36333191Y-103230920D01*
X36333191Y-103230919D01*
X36377978Y-103169276D01*
X36477237Y-102974472D01*
X36477238Y-102974469D01*
X36544797Y-102766540D01*
X36579000Y-102550597D01*
X36579000Y-102331964D01*
X36544797Y-102116021D01*
X36477238Y-101908092D01*
X36477237Y-101908089D01*
X36377980Y-101713289D01*
X36333191Y-101651641D01*
X35627647Y-102357185D01*
X35604208Y-102269710D01*
X35545689Y-102168351D01*
X35462930Y-102085592D01*
X35361571Y-102027073D01*
X35274092Y-102003633D01*
X35979638Y-101298088D01*
X35979638Y-101298087D01*
X35917995Y-101253302D01*
X35917993Y-101253301D01*
X35723191Y-101154043D01*
X35723188Y-101154042D01*
X35515259Y-101086483D01*
X35299316Y-101052281D01*
X35080684Y-101052281D01*
X34864740Y-101086483D01*
X34656811Y-101154042D01*
X34656808Y-101154043D01*
X34462001Y-101253304D01*
X34400360Y-101298087D01*
X34400360Y-101298088D01*
X35105905Y-102003633D01*
X35018429Y-102027073D01*
X34917070Y-102085592D01*
X34834311Y-102168351D01*
X34775792Y-102269710D01*
X34752352Y-102357186D01*
X34046807Y-101651641D01*
X34046806Y-101651641D01*
X34002023Y-101713282D01*
X33902762Y-101908089D01*
X33902761Y-101908092D01*
X33835202Y-102116021D01*
X33801000Y-102331964D01*
X31150500Y-102331964D01*
X31150500Y-98215909D01*
X36486500Y-98215909D01*
X36486500Y-98411652D01*
X36517118Y-98604968D01*
X36577604Y-98791123D01*
X36666466Y-98965520D01*
X36781505Y-99123861D01*
X36919919Y-99262275D01*
X37068089Y-99369924D01*
X37078264Y-99377317D01*
X37189386Y-99433937D01*
X37252657Y-99466176D01*
X37252659Y-99466176D01*
X37252662Y-99466178D01*
X37352444Y-99498599D01*
X37438812Y-99526662D01*
X37632129Y-99557281D01*
X37632134Y-99557281D01*
X37827871Y-99557281D01*
X38021187Y-99526662D01*
X38207338Y-99466178D01*
X38381736Y-99377317D01*
X38478779Y-99306812D01*
X38540080Y-99262275D01*
X38540082Y-99262272D01*
X38540086Y-99262270D01*
X38678489Y-99123867D01*
X38678491Y-99123863D01*
X38678494Y-99123861D01*
X38737346Y-99042856D01*
X38793536Y-98965517D01*
X38882397Y-98791119D01*
X38942881Y-98604968D01*
X38954148Y-98533830D01*
X38973500Y-98411652D01*
X38973500Y-98215909D01*
X38942881Y-98022593D01*
X38888479Y-97855162D01*
X38882397Y-97836443D01*
X38882395Y-97836440D01*
X38882395Y-97836438D01*
X38812620Y-97699500D01*
X38793536Y-97662045D01*
X38773160Y-97633999D01*
X38678494Y-97503700D01*
X38540084Y-97365290D01*
X38540082Y-97365289D01*
X38530132Y-97358059D01*
X38530120Y-97358051D01*
X38400420Y-97263819D01*
X41185500Y-97263819D01*
X41185500Y-97458742D01*
X41223524Y-97649900D01*
X41223527Y-97649912D01*
X41298112Y-97829978D01*
X41298119Y-97829991D01*
X41406404Y-97992050D01*
X41406407Y-97992054D01*
X41544226Y-98129873D01*
X41544230Y-98129876D01*
X41706289Y-98238161D01*
X41706302Y-98238168D01*
X41839129Y-98293186D01*
X41886373Y-98312755D01*
X42077538Y-98350780D01*
X42077542Y-98350781D01*
X42077543Y-98350781D01*
X42272458Y-98350781D01*
X42272459Y-98350780D01*
X42463627Y-98312755D01*
X42643704Y-98238165D01*
X42805770Y-98129876D01*
X42943595Y-97992051D01*
X43051884Y-97829985D01*
X43126474Y-97649908D01*
X43164500Y-97458738D01*
X43164500Y-97263824D01*
X43164499Y-97263819D01*
X47535500Y-97263819D01*
X47535500Y-97458742D01*
X47573524Y-97649900D01*
X47573527Y-97649912D01*
X47648112Y-97829978D01*
X47648119Y-97829991D01*
X47756404Y-97992050D01*
X47756407Y-97992054D01*
X47894226Y-98129873D01*
X47894230Y-98129876D01*
X48056289Y-98238161D01*
X48056302Y-98238168D01*
X48189129Y-98293186D01*
X48236373Y-98312755D01*
X48427538Y-98350780D01*
X48427542Y-98350781D01*
X48427543Y-98350781D01*
X48622458Y-98350781D01*
X48622459Y-98350780D01*
X48813627Y-98312755D01*
X48993704Y-98238165D01*
X49027012Y-98215909D01*
X51726500Y-98215909D01*
X51726500Y-98411652D01*
X51757118Y-98604968D01*
X51817604Y-98791123D01*
X51906466Y-98965520D01*
X52021505Y-99123861D01*
X52159919Y-99262275D01*
X52308089Y-99369924D01*
X52318264Y-99377317D01*
X52429386Y-99433937D01*
X52492657Y-99466176D01*
X52492659Y-99466176D01*
X52492662Y-99466178D01*
X52592444Y-99498599D01*
X52678812Y-99526662D01*
X52872129Y-99557281D01*
X52872134Y-99557281D01*
X53067871Y-99557281D01*
X53261187Y-99526662D01*
X53447338Y-99466178D01*
X53621736Y-99377317D01*
X53718779Y-99306812D01*
X53780080Y-99262275D01*
X53780082Y-99262272D01*
X53780086Y-99262270D01*
X53918489Y-99123867D01*
X53918491Y-99123863D01*
X53918494Y-99123861D01*
X53977346Y-99042856D01*
X54033536Y-98965517D01*
X54122397Y-98791119D01*
X54182881Y-98604968D01*
X54194148Y-98533830D01*
X54213500Y-98411652D01*
X54213500Y-98215909D01*
X54182881Y-98022593D01*
X54128479Y-97855162D01*
X54122397Y-97836443D01*
X54122395Y-97836440D01*
X54122395Y-97836438D01*
X54052620Y-97699500D01*
X54033536Y-97662045D01*
X54013160Y-97633999D01*
X53918494Y-97503700D01*
X53780080Y-97365286D01*
X53621739Y-97250247D01*
X53621738Y-97250246D01*
X53621736Y-97250245D01*
X53535437Y-97206273D01*
X53447342Y-97161385D01*
X53261187Y-97100899D01*
X53067871Y-97070281D01*
X53067866Y-97070281D01*
X52872134Y-97070281D01*
X52872129Y-97070281D01*
X52678812Y-97100899D01*
X52492657Y-97161385D01*
X52318260Y-97250247D01*
X52159919Y-97365286D01*
X52021505Y-97503700D01*
X51906466Y-97662041D01*
X51817604Y-97836438D01*
X51757118Y-98022593D01*
X51726500Y-98215909D01*
X49027012Y-98215909D01*
X49155770Y-98129876D01*
X49155773Y-98129873D01*
X49162285Y-98123362D01*
X49293592Y-97992054D01*
X49293595Y-97992051D01*
X49401884Y-97829985D01*
X49476474Y-97649908D01*
X49514500Y-97458738D01*
X49514500Y-97263824D01*
X49476474Y-97072654D01*
X49475491Y-97070281D01*
X49401887Y-96892583D01*
X49401880Y-96892570D01*
X49293595Y-96730511D01*
X49293592Y-96730507D01*
X49155773Y-96592688D01*
X49155769Y-96592685D01*
X48993710Y-96484400D01*
X48993697Y-96484393D01*
X48813631Y-96409808D01*
X48813619Y-96409805D01*
X48622461Y-96371781D01*
X48622457Y-96371781D01*
X48427543Y-96371781D01*
X48427538Y-96371781D01*
X48236380Y-96409805D01*
X48236368Y-96409808D01*
X48056302Y-96484393D01*
X48056289Y-96484400D01*
X47894230Y-96592685D01*
X47894226Y-96592688D01*
X47756407Y-96730507D01*
X47756404Y-96730511D01*
X47648119Y-96892570D01*
X47648112Y-96892583D01*
X47573527Y-97072649D01*
X47573524Y-97072661D01*
X47535500Y-97263819D01*
X43164499Y-97263819D01*
X43126474Y-97072654D01*
X43125491Y-97070281D01*
X43051887Y-96892583D01*
X43051880Y-96892570D01*
X42943595Y-96730511D01*
X42943592Y-96730507D01*
X42805773Y-96592688D01*
X42805769Y-96592685D01*
X42643710Y-96484400D01*
X42643697Y-96484393D01*
X42463631Y-96409808D01*
X42463619Y-96409805D01*
X42272461Y-96371781D01*
X42272457Y-96371781D01*
X42077543Y-96371781D01*
X42077538Y-96371781D01*
X41886380Y-96409805D01*
X41886368Y-96409808D01*
X41706302Y-96484393D01*
X41706289Y-96484400D01*
X41544230Y-96592685D01*
X41544226Y-96592688D01*
X41406407Y-96730507D01*
X41406404Y-96730511D01*
X41298119Y-96892570D01*
X41298112Y-96892583D01*
X41223527Y-97072649D01*
X41223524Y-97072661D01*
X41185500Y-97263819D01*
X38400420Y-97263819D01*
X38381735Y-97250244D01*
X38207342Y-97161385D01*
X38021187Y-97100899D01*
X37827871Y-97070281D01*
X37827866Y-97070281D01*
X37632134Y-97070281D01*
X37632129Y-97070281D01*
X37438812Y-97100899D01*
X37252657Y-97161385D01*
X37078260Y-97250247D01*
X36919919Y-97365286D01*
X36781505Y-97503700D01*
X36666466Y-97662041D01*
X36577604Y-97836438D01*
X36517118Y-98022593D01*
X36486500Y-98215909D01*
X31150500Y-98215909D01*
X31150500Y-91999999D01*
X31997422Y-91999999D01*
X31998864Y-92014181D01*
X31999500Y-92026725D01*
X31999500Y-92098545D01*
X32014596Y-92174438D01*
X32015749Y-92180237D01*
X32017944Y-92201818D01*
X32023675Y-92220086D01*
X32024980Y-92226643D01*
X32024982Y-92226651D01*
X32037947Y-92291830D01*
X32037949Y-92291836D01*
X32069813Y-92368763D01*
X32069815Y-92368766D01*
X32071918Y-92373843D01*
X32078673Y-92395373D01*
X32087191Y-92410719D01*
X32089902Y-92417265D01*
X32089902Y-92417266D01*
X32113365Y-92473908D01*
X32113371Y-92473920D01*
X32163081Y-92548315D01*
X32163084Y-92548319D01*
X32165924Y-92552570D01*
X32177120Y-92572741D01*
X32187406Y-92584723D01*
X32191558Y-92590937D01*
X32222860Y-92637781D01*
X32222865Y-92637787D01*
X32290847Y-92705769D01*
X32294195Y-92709116D01*
X32309257Y-92726662D01*
X32320250Y-92735171D01*
X32325812Y-92740733D01*
X32325814Y-92740735D01*
X32362214Y-92777136D01*
X32362218Y-92777139D01*
X32451784Y-92836985D01*
X32469672Y-92850832D01*
X32480331Y-92856059D01*
X32526086Y-92886632D01*
X32632593Y-92930748D01*
X32651799Y-92940170D01*
X32661236Y-92942612D01*
X32708165Y-92962051D01*
X32829612Y-92986208D01*
X32848182Y-92991017D01*
X32855697Y-92991397D01*
X32895459Y-92999306D01*
X32901458Y-93000500D01*
X33035164Y-93000500D01*
X33050780Y-93001292D01*
X33055950Y-93000500D01*
X33098542Y-93000500D01*
X33144299Y-92991398D01*
X33241273Y-92972108D01*
X33251299Y-92970573D01*
X33253970Y-92969582D01*
X33291835Y-92962051D01*
X33439850Y-92900741D01*
X33441530Y-92900120D01*
X33441879Y-92899900D01*
X33473914Y-92886632D01*
X33637782Y-92777139D01*
X33777139Y-92637782D01*
X33886632Y-92473914D01*
X33962051Y-92291835D01*
X33983537Y-92183819D01*
X41185500Y-92183819D01*
X41185500Y-92378742D01*
X41223524Y-92569900D01*
X41223527Y-92569912D01*
X41298112Y-92749978D01*
X41298119Y-92749991D01*
X41406404Y-92912050D01*
X41406407Y-92912054D01*
X41544226Y-93049873D01*
X41544230Y-93049876D01*
X41706289Y-93158161D01*
X41706301Y-93158168D01*
X41792606Y-93193915D01*
X41872954Y-93227196D01*
X41888517Y-93239737D01*
X41906703Y-93248043D01*
X41915166Y-93261212D01*
X41927356Y-93271035D01*
X41933669Y-93290004D01*
X41944477Y-93306821D01*
X41948439Y-93334380D01*
X41949421Y-93337329D01*
X41949500Y-93341756D01*
X41949500Y-93580232D01*
X41929815Y-93647271D01*
X41913181Y-93667913D01*
X41908831Y-93672262D01*
X41874499Y-93755144D01*
X41874499Y-93844855D01*
X41908831Y-93927737D01*
X42672266Y-94691172D01*
X42736365Y-94717721D01*
X42755145Y-94725500D01*
X55755233Y-94725500D01*
X55822272Y-94745185D01*
X55842914Y-94761819D01*
X58973327Y-97892232D01*
X59006812Y-97953555D01*
X59005422Y-98012003D01*
X58999500Y-98034105D01*
X58999500Y-98034108D01*
X58999500Y-98165892D01*
X59016554Y-98229539D01*
X59033608Y-98293187D01*
X59066554Y-98350250D01*
X59099500Y-98407314D01*
X59192686Y-98500500D01*
X59306814Y-98566392D01*
X59434108Y-98600500D01*
X59434110Y-98600500D01*
X59565890Y-98600500D01*
X59565892Y-98600500D01*
X59693186Y-98566392D01*
X59807314Y-98500500D01*
X59900500Y-98407314D01*
X59966392Y-98293186D01*
X60000500Y-98165892D01*
X60000500Y-98034108D01*
X59966392Y-97906814D01*
X59900500Y-97792686D01*
X59807314Y-97699500D01*
X59742433Y-97662041D01*
X59693187Y-97633608D01*
X59581779Y-97603757D01*
X59565892Y-97599500D01*
X59434108Y-97599500D01*
X59434105Y-97599500D01*
X59412003Y-97605422D01*
X59342153Y-97603757D01*
X59292232Y-97573327D01*
X56113606Y-94394701D01*
X56091170Y-94372265D01*
X56091170Y-94372264D01*
X56027736Y-94308830D01*
X55997558Y-94296330D01*
X55981475Y-94289668D01*
X55981474Y-94289667D01*
X55944856Y-94274499D01*
X55944855Y-94274499D01*
X55855145Y-94274499D01*
X55840711Y-94274499D01*
X55840703Y-94274500D01*
X42944768Y-94274500D01*
X42877729Y-94254815D01*
X42857087Y-94238181D01*
X42436820Y-93817914D01*
X42422117Y-93790988D01*
X42405524Y-93765170D01*
X42404632Y-93758966D01*
X42403335Y-93756591D01*
X42400501Y-93730235D01*
X42400501Y-93680145D01*
X42400500Y-93680142D01*
X42400500Y-93341756D01*
X42420185Y-93274717D01*
X42472989Y-93228962D01*
X42477007Y-93227212D01*
X42598522Y-93176880D01*
X42643698Y-93158168D01*
X42643701Y-93158166D01*
X42643704Y-93158165D01*
X42805770Y-93049876D01*
X42943595Y-92912051D01*
X43051884Y-92749985D01*
X43055716Y-92740735D01*
X43072382Y-92700499D01*
X43126474Y-92569908D01*
X43164500Y-92378738D01*
X43164500Y-92183824D01*
X43164499Y-92183819D01*
X47535500Y-92183819D01*
X47535500Y-92378742D01*
X47573524Y-92569900D01*
X47573527Y-92569912D01*
X47648112Y-92749978D01*
X47648119Y-92749991D01*
X47756404Y-92912050D01*
X47756407Y-92912054D01*
X47894226Y-93049873D01*
X47894230Y-93049876D01*
X48056289Y-93158161D01*
X48056302Y-93158168D01*
X48222950Y-93227195D01*
X48236373Y-93232755D01*
X48427538Y-93270780D01*
X48427542Y-93270781D01*
X48427543Y-93270781D01*
X48622458Y-93270781D01*
X48622459Y-93270780D01*
X48813627Y-93232755D01*
X48993704Y-93158165D01*
X49155770Y-93049876D01*
X49293595Y-92912051D01*
X49401884Y-92749985D01*
X49405716Y-92740735D01*
X49422382Y-92700499D01*
X49476474Y-92569908D01*
X49514500Y-92378738D01*
X49514500Y-92183824D01*
X49513787Y-92180237D01*
X49512779Y-92175168D01*
X49512779Y-92175167D01*
X49509585Y-92159108D01*
X61599500Y-92159108D01*
X61599500Y-92290892D01*
X61616554Y-92354539D01*
X61633608Y-92418187D01*
X61664193Y-92471161D01*
X61699500Y-92532314D01*
X61792686Y-92625500D01*
X61812498Y-92636938D01*
X61860714Y-92687503D01*
X61874500Y-92744326D01*
X61874500Y-97345142D01*
X61874499Y-97345156D01*
X61874499Y-97444853D01*
X61874500Y-97444858D01*
X61898772Y-97503457D01*
X61908829Y-97527735D01*
X61908830Y-97527736D01*
X61972264Y-97591170D01*
X61972265Y-97591170D01*
X61989705Y-97608610D01*
X63163181Y-98782086D01*
X63196666Y-98843409D01*
X63199500Y-98869767D01*
X63199500Y-101680673D01*
X63179815Y-101747712D01*
X63137501Y-101788059D01*
X63117692Y-101799496D01*
X63117683Y-101799502D01*
X63024502Y-101892683D01*
X63024500Y-101892686D01*
X62958608Y-102006812D01*
X62924500Y-102134108D01*
X62924500Y-102265891D01*
X62958608Y-102393187D01*
X62981946Y-102433608D01*
X63024500Y-102507314D01*
X63117686Y-102600500D01*
X63231814Y-102666392D01*
X63359108Y-102700500D01*
X63359110Y-102700500D01*
X63490890Y-102700500D01*
X63490892Y-102700500D01*
X63618186Y-102666392D01*
X63732314Y-102600500D01*
X63825500Y-102507314D01*
X63891392Y-102393186D01*
X63925500Y-102265892D01*
X63925500Y-102134108D01*
X63891392Y-102006814D01*
X63825500Y-101892686D01*
X63732314Y-101799500D01*
X63731106Y-101798802D01*
X63712499Y-101788059D01*
X63664284Y-101737492D01*
X63650500Y-101680673D01*
X63650500Y-98784297D01*
X63650501Y-98784288D01*
X63650501Y-98680146D01*
X63650501Y-98680145D01*
X63616170Y-98597265D01*
X63616170Y-98597264D01*
X63552736Y-98533830D01*
X63545671Y-98526765D01*
X63545664Y-98526759D01*
X62361819Y-97342914D01*
X62328334Y-97281591D01*
X62325500Y-97255233D01*
X62325500Y-92744326D01*
X62345185Y-92677287D01*
X62387500Y-92636939D01*
X62407314Y-92625500D01*
X62500500Y-92532314D01*
X62566392Y-92418186D01*
X62600500Y-92290892D01*
X62600500Y-92159108D01*
X62566392Y-92031814D01*
X62500500Y-91917686D01*
X62407314Y-91824500D01*
X62333851Y-91782086D01*
X62293187Y-91758608D01*
X62229539Y-91741554D01*
X62165892Y-91724500D01*
X62034108Y-91724500D01*
X61906812Y-91758608D01*
X61792686Y-91824500D01*
X61792683Y-91824502D01*
X61699502Y-91917683D01*
X61699500Y-91917686D01*
X61633608Y-92031812D01*
X61608505Y-92125500D01*
X61599500Y-92159108D01*
X49509585Y-92159108D01*
X49481496Y-92017902D01*
X49476474Y-91992654D01*
X49476472Y-91992649D01*
X49401887Y-91812583D01*
X49401880Y-91812570D01*
X49293595Y-91650511D01*
X49293592Y-91650507D01*
X49155773Y-91512688D01*
X49155769Y-91512685D01*
X48993710Y-91404400D01*
X48993697Y-91404393D01*
X48813631Y-91329808D01*
X48813619Y-91329805D01*
X48622461Y-91291781D01*
X48622457Y-91291781D01*
X48427543Y-91291781D01*
X48427538Y-91291781D01*
X48236380Y-91329805D01*
X48236368Y-91329808D01*
X48056302Y-91404393D01*
X48056289Y-91404400D01*
X47894230Y-91512685D01*
X47894226Y-91512688D01*
X47756407Y-91650507D01*
X47756404Y-91650511D01*
X47648119Y-91812570D01*
X47648112Y-91812583D01*
X47573527Y-91992649D01*
X47573524Y-91992661D01*
X47535500Y-92183819D01*
X43164499Y-92183819D01*
X43126474Y-91992654D01*
X43126472Y-91992649D01*
X43051887Y-91812583D01*
X43051880Y-91812570D01*
X42943595Y-91650511D01*
X42943592Y-91650507D01*
X42805773Y-91512688D01*
X42805769Y-91512685D01*
X42643710Y-91404400D01*
X42643697Y-91404393D01*
X42463631Y-91329808D01*
X42463619Y-91329805D01*
X42272461Y-91291781D01*
X42272457Y-91291781D01*
X42077543Y-91291781D01*
X42077538Y-91291781D01*
X41886380Y-91329805D01*
X41886368Y-91329808D01*
X41706302Y-91404393D01*
X41706289Y-91404400D01*
X41544230Y-91512685D01*
X41544226Y-91512688D01*
X41406407Y-91650507D01*
X41406404Y-91650511D01*
X41298119Y-91812570D01*
X41298112Y-91812583D01*
X41223527Y-91992649D01*
X41223524Y-91992661D01*
X41185500Y-92183819D01*
X33983537Y-92183819D01*
X33989560Y-92153541D01*
X33989560Y-92153540D01*
X34000500Y-92098543D01*
X34000500Y-91901456D01*
X33962052Y-91708170D01*
X33962051Y-91708169D01*
X33962051Y-91708165D01*
X33939953Y-91654815D01*
X33886635Y-91526092D01*
X33886628Y-91526079D01*
X33777139Y-91362218D01*
X33777136Y-91362214D01*
X33637782Y-91222860D01*
X33473919Y-91113371D01*
X33473916Y-91113369D01*
X33473914Y-91113368D01*
X33473911Y-91113366D01*
X33473906Y-91113364D01*
X33446153Y-91101869D01*
X33441884Y-91100101D01*
X33441530Y-91099880D01*
X33439843Y-91099255D01*
X33371044Y-91070758D01*
X33291839Y-91037950D01*
X33291827Y-91037947D01*
X33262407Y-91032095D01*
X33262405Y-91032095D01*
X33253975Y-91030418D01*
X33251299Y-91029427D01*
X33241267Y-91027890D01*
X33238557Y-91027351D01*
X33238555Y-91027350D01*
X33098544Y-90999500D01*
X33098541Y-90999500D01*
X33055950Y-90999500D01*
X33050780Y-90998708D01*
X33035164Y-90999500D01*
X32901459Y-90999500D01*
X32864563Y-91006838D01*
X32864562Y-91006837D01*
X32855688Y-91008602D01*
X32848182Y-91008983D01*
X32829625Y-91013787D01*
X32826130Y-91014483D01*
X32708171Y-91037947D01*
X32708164Y-91037949D01*
X32669233Y-91054072D01*
X32669234Y-91054073D01*
X32661231Y-91057387D01*
X32651799Y-91059830D01*
X32632603Y-91069245D01*
X32628965Y-91070753D01*
X32628954Y-91070758D01*
X32526085Y-91113368D01*
X32487199Y-91139349D01*
X32487200Y-91139350D01*
X32480331Y-91143939D01*
X32469672Y-91149168D01*
X32451793Y-91163007D01*
X32448191Y-91165414D01*
X32448185Y-91165419D01*
X32362217Y-91222861D01*
X32325812Y-91259266D01*
X32325811Y-91259268D01*
X32320249Y-91264829D01*
X32309257Y-91273338D01*
X32294200Y-91290876D01*
X32290860Y-91294217D01*
X32290857Y-91294218D01*
X32222865Y-91362212D01*
X32222859Y-91362219D01*
X32191557Y-91409064D01*
X32187403Y-91415279D01*
X32177120Y-91427259D01*
X32165934Y-91447410D01*
X32163091Y-91451667D01*
X32113368Y-91526085D01*
X32113367Y-91526085D01*
X32089904Y-91582728D01*
X32089905Y-91582729D01*
X32087191Y-91589278D01*
X32078673Y-91604627D01*
X32071923Y-91626139D01*
X32069816Y-91631227D01*
X32069815Y-91631231D01*
X32037947Y-91708169D01*
X32024982Y-91773348D01*
X32023676Y-91779912D01*
X32017944Y-91798182D01*
X32015750Y-91819753D01*
X32014599Y-91825542D01*
X32014597Y-91825559D01*
X31999500Y-91901460D01*
X31999500Y-91973275D01*
X31998864Y-91985818D01*
X31997422Y-91999999D01*
X31150500Y-91999999D01*
X31150500Y-90734108D01*
X63099500Y-90734108D01*
X63099500Y-90865892D01*
X63106385Y-90891587D01*
X63133608Y-90993187D01*
X63160767Y-91040227D01*
X63199500Y-91107314D01*
X63292686Y-91200500D01*
X63406814Y-91266392D01*
X63534108Y-91300500D01*
X63534110Y-91300500D01*
X63665890Y-91300500D01*
X63665892Y-91300500D01*
X63793186Y-91266392D01*
X63907314Y-91200500D01*
X63945995Y-91161819D01*
X64007318Y-91128334D01*
X64033676Y-91125500D01*
X66386673Y-91125500D01*
X66453712Y-91145185D01*
X66494060Y-91187500D01*
X66505497Y-91207310D01*
X66505499Y-91207313D01*
X66505500Y-91207314D01*
X66598686Y-91300500D01*
X66681871Y-91348527D01*
X66705577Y-91362214D01*
X66712814Y-91366392D01*
X66840108Y-91400500D01*
X66840110Y-91400500D01*
X66971890Y-91400500D01*
X66971892Y-91400500D01*
X67099186Y-91366392D01*
X67213314Y-91300500D01*
X67306500Y-91207314D01*
X67372392Y-91093186D01*
X67406500Y-90965892D01*
X67406500Y-90834108D01*
X67372392Y-90706814D01*
X67368745Y-90700498D01*
X67342370Y-90654815D01*
X67306500Y-90592686D01*
X67213314Y-90499500D01*
X67140916Y-90457701D01*
X67099187Y-90433608D01*
X67003200Y-90407889D01*
X66971892Y-90399500D01*
X66840108Y-90399500D01*
X66712812Y-90433608D01*
X66598686Y-90499500D01*
X66598683Y-90499502D01*
X66505501Y-90592684D01*
X66505497Y-90592689D01*
X66494060Y-90612500D01*
X66443493Y-90660716D01*
X66386673Y-90674500D01*
X64177062Y-90674500D01*
X64110023Y-90654815D01*
X64069675Y-90612500D01*
X64043054Y-90566391D01*
X64000500Y-90492686D01*
X63907314Y-90399500D01*
X63849102Y-90365891D01*
X63793187Y-90333608D01*
X63729539Y-90316554D01*
X63665892Y-90299500D01*
X63534108Y-90299500D01*
X63406812Y-90333608D01*
X63292686Y-90399500D01*
X63292683Y-90399502D01*
X63199502Y-90492683D01*
X63199500Y-90492686D01*
X63133608Y-90606812D01*
X63108457Y-90700681D01*
X63099500Y-90734108D01*
X31150500Y-90734108D01*
X31150500Y-86511948D01*
X38124500Y-86511948D01*
X38124500Y-86693051D01*
X38152829Y-86871910D01*
X38208787Y-87044136D01*
X38208788Y-87044139D01*
X38258677Y-87142050D01*
X38288459Y-87200500D01*
X38291006Y-87205497D01*
X38397441Y-87351994D01*
X38397445Y-87351999D01*
X38525500Y-87480054D01*
X38525505Y-87480058D01*
X38557921Y-87503609D01*
X38672006Y-87586496D01*
X38777484Y-87640240D01*
X38833360Y-87668711D01*
X38833363Y-87668712D01*
X38919476Y-87696691D01*
X39005591Y-87724671D01*
X39088429Y-87737791D01*
X39184449Y-87753000D01*
X39184454Y-87753000D01*
X39365551Y-87753000D01*
X39452259Y-87739265D01*
X39544409Y-87724671D01*
X39716639Y-87668711D01*
X39877994Y-87586496D01*
X40024501Y-87480053D01*
X40152553Y-87352001D01*
X40258996Y-87205494D01*
X40341211Y-87044139D01*
X40397171Y-86871909D01*
X40411765Y-86779759D01*
X40425500Y-86693051D01*
X40425500Y-86511948D01*
X45134500Y-86511948D01*
X45134500Y-86693051D01*
X45162829Y-86871910D01*
X45218787Y-87044136D01*
X45218788Y-87044139D01*
X45268677Y-87142050D01*
X45298459Y-87200500D01*
X45301006Y-87205497D01*
X45407441Y-87351994D01*
X45407445Y-87351999D01*
X45535500Y-87480054D01*
X45535505Y-87480058D01*
X45567921Y-87503609D01*
X45682006Y-87586496D01*
X45787484Y-87640240D01*
X45843360Y-87668711D01*
X45843363Y-87668712D01*
X45929476Y-87696691D01*
X46015591Y-87724671D01*
X46098429Y-87737791D01*
X46194449Y-87753000D01*
X46194454Y-87753000D01*
X46375551Y-87753000D01*
X46462259Y-87739265D01*
X46554409Y-87724671D01*
X46726639Y-87668711D01*
X46887994Y-87586496D01*
X47034501Y-87480053D01*
X47162553Y-87352001D01*
X47268996Y-87205494D01*
X47351211Y-87044139D01*
X47407171Y-86871909D01*
X47421765Y-86779759D01*
X47435500Y-86693051D01*
X47435500Y-86511948D01*
X47416609Y-86392683D01*
X47407171Y-86333091D01*
X47364578Y-86202001D01*
X47351212Y-86160863D01*
X47351211Y-86160860D01*
X47303076Y-86066392D01*
X47268996Y-85999506D01*
X47239648Y-85959112D01*
X47162558Y-85853005D01*
X47162554Y-85853000D01*
X47034499Y-85724945D01*
X47034494Y-85724941D01*
X46887997Y-85618506D01*
X46887996Y-85618505D01*
X46887994Y-85618504D01*
X46836300Y-85592164D01*
X46726639Y-85536288D01*
X46726636Y-85536287D01*
X46719930Y-85534108D01*
X79599500Y-85534108D01*
X79599500Y-85665891D01*
X79633608Y-85793187D01*
X79660223Y-85839284D01*
X79699500Y-85907314D01*
X79792686Y-86000500D01*
X79906814Y-86066392D01*
X80034108Y-86100500D01*
X80034110Y-86100500D01*
X80165890Y-86100500D01*
X80165892Y-86100500D01*
X80293186Y-86066392D01*
X80407314Y-86000500D01*
X80500500Y-85907314D01*
X80511940Y-85887500D01*
X80562507Y-85839284D01*
X80619327Y-85825500D01*
X84966324Y-85825500D01*
X85033363Y-85845185D01*
X85054005Y-85861819D01*
X85092686Y-85900500D01*
X85092687Y-85900501D01*
X85092689Y-85900502D01*
X85194204Y-85959112D01*
X85194205Y-85959112D01*
X85206814Y-85966392D01*
X85334108Y-86000500D01*
X85366861Y-86000500D01*
X85465890Y-86000500D01*
X85465892Y-86000500D01*
X85593186Y-85966392D01*
X85707314Y-85900500D01*
X85800500Y-85807314D01*
X85866392Y-85693186D01*
X85900500Y-85565892D01*
X85900500Y-85434108D01*
X85866392Y-85306814D01*
X85800500Y-85192686D01*
X85707314Y-85099500D01*
X85642056Y-85061823D01*
X85593187Y-85033608D01*
X85529539Y-85016554D01*
X85465892Y-84999500D01*
X85334108Y-84999500D01*
X85206812Y-85033608D01*
X85092686Y-85099500D01*
X85092683Y-85099502D01*
X84999502Y-85192683D01*
X84999498Y-85192689D01*
X84930325Y-85312500D01*
X84879758Y-85360716D01*
X84822938Y-85374500D01*
X80619327Y-85374500D01*
X80552288Y-85354815D01*
X80511940Y-85312500D01*
X80500502Y-85292689D01*
X80500498Y-85292684D01*
X80407316Y-85199502D01*
X80407314Y-85199500D01*
X80350250Y-85166554D01*
X80293187Y-85133608D01*
X80229539Y-85116554D01*
X80165892Y-85099500D01*
X80034108Y-85099500D01*
X79906812Y-85133608D01*
X79792686Y-85199500D01*
X79792683Y-85199502D01*
X79699502Y-85292683D01*
X79699500Y-85292686D01*
X79633608Y-85406812D01*
X79599500Y-85534108D01*
X46719930Y-85534108D01*
X46554410Y-85480329D01*
X46375551Y-85452000D01*
X46375546Y-85452000D01*
X46194454Y-85452000D01*
X46194449Y-85452000D01*
X46015589Y-85480329D01*
X45843363Y-85536287D01*
X45843360Y-85536288D01*
X45682002Y-85618506D01*
X45535505Y-85724941D01*
X45535500Y-85724945D01*
X45407445Y-85853000D01*
X45407441Y-85853005D01*
X45301006Y-85999502D01*
X45218788Y-86160860D01*
X45218787Y-86160863D01*
X45162829Y-86333089D01*
X45134500Y-86511948D01*
X40425500Y-86511948D01*
X40406609Y-86392683D01*
X40397171Y-86333091D01*
X40354578Y-86202001D01*
X40341212Y-86160863D01*
X40341211Y-86160860D01*
X40293076Y-86066392D01*
X40258996Y-85999506D01*
X40229648Y-85959112D01*
X40152558Y-85853005D01*
X40152554Y-85853000D01*
X40024499Y-85724945D01*
X40024494Y-85724941D01*
X39877997Y-85618506D01*
X39877996Y-85618505D01*
X39877994Y-85618504D01*
X39826300Y-85592164D01*
X39716639Y-85536288D01*
X39716636Y-85536287D01*
X39544410Y-85480329D01*
X39365551Y-85452000D01*
X39365546Y-85452000D01*
X39184454Y-85452000D01*
X39184449Y-85452000D01*
X39005589Y-85480329D01*
X38833363Y-85536287D01*
X38833360Y-85536288D01*
X38672002Y-85618506D01*
X38525505Y-85724941D01*
X38525500Y-85724945D01*
X38397445Y-85853000D01*
X38397441Y-85853005D01*
X38291006Y-85999502D01*
X38208788Y-86160860D01*
X38208787Y-86160863D01*
X38152829Y-86333089D01*
X38124500Y-86511948D01*
X31150500Y-86511948D01*
X31150500Y-85767871D01*
X31150632Y-85762145D01*
X31160761Y-85543046D01*
X31165775Y-85434593D01*
X31166237Y-85428210D01*
X31173615Y-85353293D01*
X31174205Y-85348341D01*
X31179998Y-85306812D01*
X31214177Y-85061789D01*
X31215358Y-85054804D01*
X31229054Y-84985949D01*
X31229926Y-84981931D01*
X31297563Y-84694354D01*
X31299584Y-84686840D01*
X31317106Y-84629078D01*
X31318118Y-84625907D01*
X31415364Y-84335764D01*
X31418334Y-84327829D01*
X31434810Y-84288052D01*
X31435843Y-84285639D01*
X31566616Y-83989466D01*
X31570678Y-83981128D01*
X31576153Y-83970884D01*
X31577047Y-83969246D01*
X31746772Y-83664534D01*
X31752794Y-83654809D01*
X31955103Y-83359472D01*
X31961985Y-83350360D01*
X32190682Y-83074951D01*
X32198376Y-83066511D01*
X32451511Y-82813376D01*
X32459951Y-82805682D01*
X32735360Y-82576985D01*
X32744472Y-82570103D01*
X33039821Y-82367785D01*
X33049534Y-82361772D01*
X33354246Y-82192047D01*
X33355884Y-82191153D01*
X33366145Y-82185668D01*
X33374466Y-82181616D01*
X33670639Y-82050843D01*
X33673052Y-82049810D01*
X33712829Y-82033334D01*
X33720764Y-82030364D01*
X34010907Y-81933118D01*
X34014078Y-81932106D01*
X34071840Y-81914584D01*
X34079354Y-81912563D01*
X34366931Y-81844926D01*
X34370949Y-81844054D01*
X34439804Y-81830358D01*
X34446789Y-81829177D01*
X34733360Y-81789202D01*
X34738293Y-81788615D01*
X34813210Y-81781237D01*
X34819593Y-81780775D01*
X35117706Y-81766992D01*
X35147146Y-81765632D01*
X35152872Y-81765500D01*
X42253732Y-81765500D01*
X42320771Y-81785185D01*
G37*
%TD.AperFunction*%
%TD*%
M02*
