solid ASCII
  facet normal 0.000000e+00 -9.814906e-01 1.915104e-01
    outer loop
      vertex   -1.394801e+02 3.977422e+02 2.474481e+02
      vertex   -1.394801e+02 3.978983e+02 2.482481e+02
      vertex   -1.436282e+02 3.977422e+02 2.474481e+02
    endloop
  endfacet
  facet normal -1.344645e-14 -9.814906e-01 1.915104e-01
    outer loop
      vertex   -1.436282e+02 3.977422e+02 2.474481e+02
      vertex   -1.394801e+02 3.978983e+02 2.482481e+02
      vertex   -1.436282e+02 3.978983e+02 2.482481e+02
    endloop
  endfacet
  facet normal 0.000000e+00 8.710634e-15 -1.000000e+00
    outer loop
      vertex   -1.436282e+02 3.977422e+02 2.474481e+02
      vertex   -1.436282e+02 4.042680e+02 2.474481e+02
      vertex   -1.394801e+02 3.977422e+02 2.474481e+02
    endloop
  endfacet
  facet normal 5.635873e-15 1.229311e-14 -1.000000e+00
    outer loop
      vertex   -1.394801e+02 3.977422e+02 2.474481e+02
      vertex   -1.436282e+02 4.042680e+02 2.474481e+02
      vertex   -1.394801e+02 4.046783e+02 2.474481e+02
    endloop
  endfacet
  facet normal 6.688644e-15 1.648551e-15 -1.000000e+00
    outer loop
      vertex   -1.394801e+02 4.046783e+02 2.474481e+02
      vertex   -1.436282e+02 4.042680e+02 2.474481e+02
      vertex   -1.403648e+02 4.082680e+02 2.474481e+02
    endloop
  endfacet
  facet normal 0.000000e+00 0.000000e+00 -1.000000e+00
    outer loop
      vertex   -1.394801e+02 4.046783e+02 2.474481e+02
      vertex   -1.403648e+02 4.082680e+02 2.474481e+02
      vertex   -1.371648e+02 4.061410e+02 2.474481e+02
    endloop
  endfacet
  facet normal 2.889811e-15 4.347661e-15 -1.000000e+00
    outer loop
      vertex   -1.371648e+02 4.061410e+02 2.474481e+02
      vertex   -1.403648e+02 4.082680e+02 2.474481e+02
      vertex   -1.371648e+02 4.126783e+02 2.474481e+02
    endloop
  endfacet
  facet normal 0.000000e+00 6.444452e-15 -1.000000e+00
    outer loop
      vertex   -1.371648e+02 4.126783e+02 2.474481e+02
      vertex   -1.403648e+02 4.082680e+02 2.474481e+02
      vertex   -1.403648e+02 4.126783e+02 2.474481e+02
    endloop
  endfacet
  facet normal -1.319557e-15 2.830613e-15 -1.000000e+00
    outer loop
      vertex   -1.513185e+02 4.107238e+02 2.474481e+02
      vertex   -1.481185e+02 4.122156e+02 2.474481e+02
      vertex   -1.436282e+02 4.042680e+02 2.474481e+02
    endloop
  endfacet
  facet normal 5.710598e-15 6.802585e-15 -1.000000e+00
    outer loop
      vertex   -1.436282e+02 4.042680e+02 2.474481e+02
      vertex   -1.481185e+02 4.122156e+02 2.474481e+02
      vertex   -1.434161e+02 4.082680e+02 2.474481e+02
    endloop
  endfacet
  facet normal 0.000000e+00 7.105427e-15 -1.000000e+00
    outer loop
      vertex   -1.436282e+02 4.042680e+02 2.474481e+02
      vertex   -1.434161e+02 4.082680e+02 2.474481e+02
      vertex   -1.403648e+02 4.082680e+02 2.474481e+02
    endloop
  endfacet
  facet normal -1.371247e-15 2.941495e-15 -1.000000e+00
    outer loop
      vertex   -1.513185e+02 4.107238e+02 2.474481e+02
      vertex   -1.513185e+02 4.203861e+02 2.474481e+02
      vertex   -1.481185e+02 4.122156e+02 2.474481e+02
    endloop
  endfacet
  facet normal 8.881784e-15 6.957085e-15 -1.000000e+00
    outer loop
      vertex   -1.481185e+02 4.122156e+02 2.474481e+02
      vertex   -1.513185e+02 4.203861e+02 2.474481e+02
      vertex   -1.481185e+02 4.203861e+02 2.474481e+02
    endloop
  endfacet
  facet normal -1.000000e+00 0.000000e+00 0.000000e+00
    outer loop
      vertex   -1.436282e+02 3.977422e+02 2.474481e+02
      vertex   -1.436282e+02 3.978983e+02 2.482481e+02
      vertex   -1.436282e+02 4.042680e+02 2.474481e+02
    endloop
  endfacet
  facet normal -1.000000e+00 0.000000e+00 0.000000e+00
    outer loop
      vertex   -1.436282e+02 4.042680e+02 2.474481e+02
      vertex   -1.436282e+02 3.978983e+02 2.482481e+02
      vertex   -1.436282e+02 4.042680e+02 2.482481e+02
    endloop
  endfacet
  facet normal 3.730349e-13 1.000000e+00 0.000000e+00
    outer loop
      vertex   -1.513185e+02 4.203861e+02 2.482481e+02
      vertex   -1.481185e+02 4.203861e+02 2.482481e+02
      vertex   -1.513185e+02 4.203861e+02 2.474481e+02
    endloop
  endfacet
  facet normal 3.730349e-13 1.000000e+00 0.000000e+00
    outer loop
      vertex   -1.513185e+02 4.203861e+02 2.474481e+02
      vertex   -1.481185e+02 4.203861e+02 2.482481e+02
      vertex   -1.481185e+02 4.203861e+02 2.474481e+02
    endloop
  endfacet
  facet normal -1.000000e+00 3.676868e-13 0.000000e+00
    outer loop
      vertex   -1.513185e+02 4.107238e+02 2.482481e+02
      vertex   -1.513185e+02 4.203861e+02 2.482481e+02
      vertex   -1.513185e+02 4.107238e+02 2.474481e+02
    endloop
  endfacet
  facet normal -1.000000e+00 3.676868e-13 0.000000e+00
    outer loop
      vertex   -1.513185e+02 4.107238e+02 2.474481e+02
      vertex   -1.513185e+02 4.203861e+02 2.482481e+02
      vertex   -1.513185e+02 4.203861e+02 2.474481e+02
    endloop
  endfacet
  facet normal -6.429562e-01 -7.659029e-01 -0.000000e+00
    outer loop
      vertex   -1.436282e+02 4.042680e+02 2.482481e+02
      vertex   -1.513185e+02 4.107238e+02 2.482481e+02
      vertex   -1.436282e+02 4.042680e+02 2.474481e+02
    endloop
  endfacet
  facet normal -6.429562e-01 -7.659029e-01 0.000000e+00
    outer loop
      vertex   -1.436282e+02 4.042680e+02 2.474481e+02
      vertex   -1.513185e+02 4.107238e+02 2.482481e+02
      vertex   -1.513185e+02 4.107238e+02 2.474481e+02
    endloop
  endfacet
  facet normal 1.000000e+00 -4.097703e-15 7.995518e-16
    outer loop
      vertex   -1.394801e+02 3.977422e+02 2.474481e+02
      vertex   -1.394801e+02 4.046783e+02 2.474481e+02
      vertex   -1.394801e+02 3.978983e+02 2.482481e+02
    endloop
  endfacet
  facet normal 1.000000e+00 -4.192047e-15 0.000000e+00
    outer loop
      vertex   -1.394801e+02 3.978983e+02 2.482481e+02
      vertex   -1.394801e+02 4.046783e+02 2.474481e+02
      vertex   -1.394801e+02 4.046783e+02 2.482481e+02
    endloop
  endfacet
  facet normal 5.341245e-01 -8.454058e-01 0.000000e+00
    outer loop
      vertex   -1.371648e+02 4.061410e+02 2.482481e+02
      vertex   -1.394801e+02 4.046783e+02 2.482481e+02
      vertex   -1.371648e+02 4.061410e+02 2.474481e+02
    endloop
  endfacet
  facet normal 5.341245e-01 -8.454058e-01 0.000000e+00
    outer loop
      vertex   -1.371648e+02 4.061410e+02 2.474481e+02
      vertex   -1.394801e+02 4.046783e+02 2.482481e+02
      vertex   -1.394801e+02 4.046783e+02 2.474481e+02
    endloop
  endfacet
  facet normal 1.000000e+00 -4.347661e-15 0.000000e+00
    outer loop
      vertex   -1.371648e+02 4.126783e+02 2.482481e+02
      vertex   -1.371648e+02 4.061410e+02 2.482481e+02
      vertex   -1.371648e+02 4.126783e+02 2.474481e+02
    endloop
  endfacet
  facet normal 1.000000e+00 -4.347661e-15 0.000000e+00
    outer loop
      vertex   -1.371648e+02 4.126783e+02 2.474481e+02
      vertex   -1.371648e+02 4.061410e+02 2.482481e+02
      vertex   -1.371648e+02 4.061410e+02 2.474481e+02
    endloop
  endfacet
  facet normal -0.000000e+00 1.000000e+00 0.000000e+00
    outer loop
      vertex   -1.403648e+02 4.126783e+02 2.482481e+02
      vertex   -1.371648e+02 4.126783e+02 2.482481e+02
      vertex   -1.403648e+02 4.126783e+02 2.474481e+02
    endloop
  endfacet
  facet normal 0.000000e+00 1.000000e+00 0.000000e+00
    outer loop
      vertex   -1.403648e+02 4.126783e+02 2.474481e+02
      vertex   -1.371648e+02 4.126783e+02 2.482481e+02
      vertex   -1.371648e+02 4.126783e+02 2.474481e+02
    endloop
  endfacet
  facet normal -1.000000e+00 0.000000e+00 0.000000e+00
    outer loop
      vertex   -1.403648e+02 4.082680e+02 2.482481e+02
      vertex   -1.403648e+02 4.126783e+02 2.482481e+02
      vertex   -1.403648e+02 4.082680e+02 2.474481e+02
    endloop
  endfacet
  facet normal -1.000000e+00 0.000000e+00 0.000000e+00
    outer loop
      vertex   -1.403648e+02 4.082680e+02 2.474481e+02
      vertex   -1.403648e+02 4.126783e+02 2.482481e+02
      vertex   -1.403648e+02 4.126783e+02 2.474481e+02
    endloop
  endfacet
  facet normal -0.000000e+00 1.000000e+00 0.000000e+00
    outer loop
      vertex   -1.434161e+02 4.082680e+02 2.482481e+02
      vertex   -1.403648e+02 4.082680e+02 2.482481e+02
      vertex   -1.434161e+02 4.082680e+02 2.474481e+02
    endloop
  endfacet
  facet normal 0.000000e+00 1.000000e+00 0.000000e+00
    outer loop
      vertex   -1.434161e+02 4.082680e+02 2.474481e+02
      vertex   -1.403648e+02 4.082680e+02 2.482481e+02
      vertex   -1.403648e+02 4.082680e+02 2.474481e+02
    endloop
  endfacet
  facet normal 6.429562e-01 7.659029e-01 0.000000e+00
    outer loop
      vertex   -1.481185e+02 4.122156e+02 2.482481e+02
      vertex   -1.434161e+02 4.082680e+02 2.482481e+02
      vertex   -1.481185e+02 4.122156e+02 2.474481e+02
    endloop
  endfacet
  facet normal 6.429562e-01 7.659029e-01 0.000000e+00
    outer loop
      vertex   -1.481185e+02 4.122156e+02 2.474481e+02
      vertex   -1.434161e+02 4.082680e+02 2.482481e+02
      vertex   -1.434161e+02 4.082680e+02 2.474481e+02
    endloop
  endfacet
  facet normal 1.000000e+00 -3.756826e-13 0.000000e+00
    outer loop
      vertex   -1.481185e+02 4.203861e+02 2.482481e+02
      vertex   -1.481185e+02 4.122156e+02 2.482481e+02
      vertex   -1.481185e+02 4.203861e+02 2.474481e+02
    endloop
  endfacet
  facet normal 1.000000e+00 -3.756826e-13 0.000000e+00
    outer loop
      vertex   -1.481185e+02 4.203861e+02 2.474481e+02
      vertex   -1.481185e+02 4.122156e+02 2.482481e+02
      vertex   -1.481185e+02 4.122156e+02 2.474481e+02
    endloop
  endfacet
  facet normal 1.057811e-26 7.719347e-13 1.000000e+00
    outer loop
      vertex   -1.436282e+02 3.978983e+02 2.482481e+02
      vertex   -1.394801e+02 3.978983e+02 2.482481e+02
      vertex   -1.436282e+02 4.042680e+02 2.482481e+02
    endloop
  endfacet
  facet normal -8.460052e-14 7.168400e-13 1.000000e+00
    outer loop
      vertex   -1.436282e+02 4.042680e+02 2.482481e+02
      vertex   -1.394801e+02 3.978983e+02 2.482481e+02
      vertex   -1.394801e+02 4.046783e+02 2.482481e+02
    endloop
  endfacet
  facet normal -1.337729e-14 -3.297103e-15 1.000000e+00
    outer loop
      vertex   -1.436282e+02 4.042680e+02 2.482481e+02
      vertex   -1.394801e+02 4.046783e+02 2.482481e+02
      vertex   -1.403648e+02 4.082680e+02 2.482481e+02
    endloop
  endfacet
  facet normal 0.000000e+00 0.000000e+00 1.000000e+00
    outer loop
      vertex   -1.403648e+02 4.082680e+02 2.482481e+02
      vertex   -1.394801e+02 4.046783e+02 2.482481e+02
      vertex   -1.371648e+02 4.061410e+02 2.482481e+02
    endloop
  endfacet
  facet normal -2.889811e-15 -4.347661e-15 1.000000e+00
    outer loop
      vertex   -1.403648e+02 4.082680e+02 2.482481e+02
      vertex   -1.371648e+02 4.061410e+02 2.482481e+02
      vertex   -1.371648e+02 4.126783e+02 2.482481e+02
    endloop
  endfacet
  facet normal 0.000000e+00 -6.444452e-15 1.000000e+00
    outer loop
      vertex   -1.371648e+02 4.126783e+02 2.482481e+02
      vertex   -1.403648e+02 4.126783e+02 2.482481e+02
      vertex   -1.403648e+02 4.082680e+02 2.482481e+02
    endloop
  endfacet
  facet normal 0.000000e+00 -1.421085e-14 1.000000e+00
    outer loop
      vertex   -1.403648e+02 4.082680e+02 2.482481e+02
      vertex   -1.434161e+02 4.082680e+02 2.482481e+02
      vertex   -1.436282e+02 4.042680e+02 2.482481e+02
    endloop
  endfacet
  facet normal -1.142120e-14 -1.360517e-14 1.000000e+00
    outer loop
      vertex   -1.436282e+02 4.042680e+02 2.482481e+02
      vertex   -1.434161e+02 4.082680e+02 2.482481e+02
      vertex   -1.481185e+02 4.122156e+02 2.482481e+02
    endloop
  endfacet
  facet normal 2.639114e-15 -5.661226e-15 1.000000e+00
    outer loop
      vertex   -1.436282e+02 4.042680e+02 2.482481e+02
      vertex   -1.481185e+02 4.122156e+02 2.482481e+02
      vertex   -1.513185e+02 4.107238e+02 2.482481e+02
    endloop
  endfacet
  facet normal 1.371247e-15 -2.941495e-15 1.000000e+00
    outer loop
      vertex   -1.513185e+02 4.107238e+02 2.482481e+02
      vertex   -1.481185e+02 4.122156e+02 2.482481e+02
      vertex   -1.513185e+02 4.203861e+02 2.482481e+02
    endloop
  endfacet
  facet normal -8.881784e-15 -6.957085e-15 1.000000e+00
    outer loop
      vertex   -1.513185e+02 4.203861e+02 2.482481e+02
      vertex   -1.481185e+02 4.122156e+02 2.482481e+02
      vertex   -1.481185e+02 4.203861e+02 2.482481e+02
    endloop
  endfacet
endsolid
