solid ASCII
  facet normal -0.000000e+00 0.000000e+00 -1.000000e+00
    outer loop
      vertex   5.018996e+01 -9.537614e+01 2.045732e+02
      vertex   5.018996e+01 -9.657614e+01 2.045732e+02
      vertex   4.818996e+01 -9.537614e+01 2.045732e+02
    endloop
  endfacet
  facet normal 0.000000e+00 -0.000000e+00 -1.000000e+00
    outer loop
      vertex   4.818996e+01 -9.537614e+01 2.045732e+02
      vertex   5.018996e+01 -9.657614e+01 2.045732e+02
      vertex   4.818996e+01 -9.657614e+01 2.045732e+02
    endloop
  endfacet
  facet normal -1.000000e+00 1.633167e-14 1.648542e-15
    outer loop
      vertex   4.818996e+01 -9.537614e+01 2.175035e+02
      vertex   4.818996e+01 -9.537614e+01 2.045732e+02
      vertex   4.818996e+01 -9.657614e+01 2.164612e+02
    endloop
  endfacet
  facet normal -1.000000e+00 2.368476e-14 2.390773e-15
    outer loop
      vertex   4.818996e+01 -9.657614e+01 2.164612e+02
      vertex   4.818996e+01 -9.537614e+01 2.045732e+02
      vertex   4.818996e+01 -9.657614e+01 2.045732e+02
    endloop
  endfacet
  facet normal -9.073589e-15 -6.557567e-01 7.549723e-01
    outer loop
      vertex   2.518996e+01 -9.537614e+01 2.192255e+02
      vertex   2.518996e+01 -9.657614e+01 2.181832e+02
      vertex   3.268996e+01 -9.537614e+01 2.192255e+02
    endloop
  endfacet
  facet normal -1.598144e-15 -6.557567e-01 7.549723e-01
    outer loop
      vertex   3.268996e+01 -9.537614e+01 2.192255e+02
      vertex   2.518996e+01 -9.657614e+01 2.181832e+02
      vertex   5.018996e+01 -9.657614e+01 2.181832e+02
    endloop
  endfacet
  facet normal 0.000000e+00 -6.557567e-01 7.549723e-01
    outer loop
      vertex   3.268996e+01 -9.537614e+01 2.192255e+02
      vertex   5.018996e+01 -9.657614e+01 2.181832e+02
      vertex   4.268996e+01 -9.537614e+01 2.192255e+02
    endloop
  endfacet
  facet normal 2.861014e-15 -6.557567e-01 7.549723e-01
    outer loop
      vertex   4.268996e+01 -9.537614e+01 2.192255e+02
      vertex   5.018996e+01 -9.657614e+01 2.181832e+02
      vertex   5.018996e+01 -9.537614e+01 2.192255e+02
    endloop
  endfacet
  facet normal 1.000000e+00 -1.905362e-14 -1.923299e-15
    outer loop
      vertex   2.718996e+01 -9.537614e+01 2.175035e+02
      vertex   2.718996e+01 -9.657614e+01 2.164612e+02
      vertex   2.718996e+01 -9.537614e+01 2.045732e+02
    endloop
  endfacet
  facet normal 1.000000e+00 -2.072416e-14 -2.091926e-15
    outer loop
      vertex   2.718996e+01 -9.537614e+01 2.045732e+02
      vertex   2.718996e+01 -9.657614e+01 2.164612e+02
      vertex   2.718996e+01 -9.657614e+01 2.045732e+02
    endloop
  endfacet
  facet normal 0.000000e+00 0.000000e+00 -1.000000e+00
    outer loop
      vertex   2.518996e+01 -9.657614e+01 2.045732e+02
      vertex   2.518996e+01 -9.537614e+01 2.045732e+02
      vertex   2.718996e+01 -9.657614e+01 2.045732e+02
    endloop
  endfacet
  facet normal 0.000000e+00 0.000000e+00 -1.000000e+00
    outer loop
      vertex   2.718996e+01 -9.657614e+01 2.045732e+02
      vertex   2.518996e+01 -9.537614e+01 2.045732e+02
      vertex   2.718996e+01 -9.537614e+01 2.045732e+02
    endloop
  endfacet
  facet normal -1.694339e-15 6.557567e-01 -7.549723e-01
    outer loop
      vertex   4.818996e+01 -9.537614e+01 2.175035e+02
      vertex   4.818996e+01 -9.657614e+01 2.164612e+02
      vertex   4.268996e+01 -9.537614e+01 2.175035e+02
    endloop
  endfacet
  facet normal 0.000000e+00 6.557567e-01 -7.549723e-01
    outer loop
      vertex   4.268996e+01 -9.537614e+01 2.175035e+02
      vertex   4.818996e+01 -9.657614e+01 2.164612e+02
      vertex   3.268996e+01 -9.537614e+01 2.175035e+02
    endloop
  endfacet
  facet normal 2.221862e-15 6.557567e-01 -7.549723e-01
    outer loop
      vertex   3.268996e+01 -9.537614e+01 2.175035e+02
      vertex   4.818996e+01 -9.657614e+01 2.164612e+02
      vertex   2.718996e+01 -9.657614e+01 2.164612e+02
    endloop
  endfacet
  facet normal 3.917005e-14 6.557567e-01 -7.549723e-01
    outer loop
      vertex   3.268996e+01 -9.537614e+01 2.175035e+02
      vertex   2.718996e+01 -9.657614e+01 2.164612e+02
      vertex   2.718996e+01 -9.537614e+01 2.175035e+02
    endloop
  endfacet
  facet normal -1.421085e-14 -1.000000e+00 1.402997e-13
    outer loop
      vertex   2.518996e+01 -9.657614e+01 2.181832e+02
      vertex   2.718996e+01 -9.657614e+01 2.164612e+02
      vertex   5.018996e+01 -9.657614e+01 2.181832e+02
    endloop
  endfacet
  facet normal -3.383537e-15 -1.000000e+00 -4.322960e-15
    outer loop
      vertex   5.018996e+01 -9.657614e+01 2.181832e+02
      vertex   2.718996e+01 -9.657614e+01 2.164612e+02
      vertex   4.818996e+01 -9.657614e+01 2.164612e+02
    endloop
  endfacet
  facet normal 1.896465e-14 -1.000000e+00 -3.028029e-14
    outer loop
      vertex   5.018996e+01 -9.657614e+01 2.181832e+02
      vertex   4.818996e+01 -9.657614e+01 2.164612e+02
      vertex   5.018996e+01 -9.657614e+01 2.045732e+02
    endloop
  endfacet
  facet normal -0.000000e+00 -1.000000e+00 -3.347082e-14
    outer loop
      vertex   5.018996e+01 -9.657614e+01 2.045732e+02
      vertex   4.818996e+01 -9.657614e+01 2.164612e+02
      vertex   4.818996e+01 -9.657614e+01 2.045732e+02
    endloop
  endfacet
  facet normal -1.430938e-13 -1.000000e+00 -9.397331e-15
    outer loop
      vertex   2.518996e+01 -9.657614e+01 2.181832e+02
      vertex   2.518996e+01 -9.657614e+01 2.045732e+02
      vertex   2.718996e+01 -9.657614e+01 2.164612e+02
    endloop
  endfacet
  facet normal 0.000000e+00 -1.000000e+00 -3.347082e-14
    outer loop
      vertex   2.718996e+01 -9.657614e+01 2.164612e+02
      vertex   2.518996e+01 -9.657614e+01 2.045732e+02
      vertex   2.718996e+01 -9.657614e+01 2.045732e+02
    endloop
  endfacet
  facet normal -2.583792e-15 1.000000e+00 8.252924e-15
    outer loop
      vertex   4.268996e+01 -9.537614e+01 2.175035e+02
      vertex   4.268996e+01 -9.537614e+01 2.192255e+02
      vertex   4.818996e+01 -9.537614e+01 2.175035e+02
    endloop
  endfacet
  facet normal 6.254993e-29 1.000000e+00 1.650585e-14
    outer loop
      vertex   4.818996e+01 -9.537614e+01 2.175035e+02
      vertex   4.268996e+01 -9.537614e+01 2.192255e+02
      vertex   5.018996e+01 -9.537614e+01 2.192255e+02
    endloop
  endfacet
  facet normal -7.499655e-15 1.000000e+00 2.521667e-14
    outer loop
      vertex   4.818996e+01 -9.537614e+01 2.175035e+02
      vertex   5.018996e+01 -9.537614e+01 2.192255e+02
      vertex   5.018996e+01 -9.537614e+01 2.045732e+02
    endloop
  endfacet
  facet normal 0.000000e+00 1.000000e+00 2.637667e-14
    outer loop
      vertex   5.018996e+01 -9.537614e+01 2.045732e+02
      vertex   4.818996e+01 -9.537614e+01 2.045732e+02
      vertex   4.818996e+01 -9.537614e+01 2.175035e+02
    endloop
  endfacet
  facet normal 1.808654e-14 1.000000e+00 8.252924e-15
    outer loop
      vertex   3.268996e+01 -9.537614e+01 2.175035e+02
      vertex   2.718996e+01 -9.537614e+01 2.175035e+02
      vertex   3.268996e+01 -9.537614e+01 2.192255e+02
    endloop
  endfacet
  facet normal 9.473903e-15 1.000000e+00 3.576267e-14
    outer loop
      vertex   3.268996e+01 -9.537614e+01 2.192255e+02
      vertex   2.718996e+01 -9.537614e+01 2.175035e+02
      vertex   2.518996e+01 -9.537614e+01 2.192255e+02
    endloop
  endfacet
  facet normal 3.942276e-16 1.000000e+00 2.521667e-14
    outer loop
      vertex   2.518996e+01 -9.537614e+01 2.192255e+02
      vertex   2.718996e+01 -9.537614e+01 2.175035e+02
      vertex   2.518996e+01 -9.537614e+01 2.045732e+02
    endloop
  endfacet
  facet normal -0.000000e+00 1.000000e+00 2.527764e-14
    outer loop
      vertex   2.518996e+01 -9.537614e+01 2.045732e+02
      vertex   2.718996e+01 -9.537614e+01 2.175035e+02
      vertex   2.718996e+01 -9.537614e+01 2.045732e+02
    endloop
  endfacet
  facet normal 1.000000e+00 0.000000e+00 -0.000000e+00
    outer loop
      vertex   4.268996e+01 -8.628786e+01 2.175035e+02
      vertex   4.268996e+01 -8.628786e+01 2.192255e+02
      vertex   4.268996e+01 -9.537614e+01 2.175035e+02
    endloop
  endfacet
  facet normal 1.000000e+00 0.000000e+00 -0.000000e+00
    outer loop
      vertex   4.268996e+01 -9.537614e+01 2.175035e+02
      vertex   4.268996e+01 -8.628786e+01 2.192255e+02
      vertex   4.268996e+01 -9.537614e+01 2.192255e+02
    endloop
  endfacet
  facet normal 0.000000e+00 2.189105e-14 -1.000000e+00
    outer loop
      vertex   4.268996e+01 -8.628786e+01 2.175035e+02
      vertex   4.268996e+01 -9.537614e+01 2.175035e+02
      vertex   3.268996e+01 -8.628786e+01 2.175035e+02
    endloop
  endfacet
  facet normal 0.000000e+00 2.189105e-14 -1.000000e+00
    outer loop
      vertex   3.268996e+01 -8.628786e+01 2.175035e+02
      vertex   4.268996e+01 -9.537614e+01 2.175035e+02
      vertex   3.268996e+01 -9.537614e+01 2.175035e+02
    endloop
  endfacet
  facet normal 0.000000e+00 1.000000e+00 -2.228290e-13
    outer loop
      vertex   4.268996e+01 -8.628786e+01 2.192255e+02
      vertex   4.268996e+01 -8.628786e+01 2.175035e+02
      vertex   3.268996e+01 -8.628786e+01 2.192255e+02
    endloop
  endfacet
  facet normal 0.000000e+00 1.000000e+00 -2.228290e-13
    outer loop
      vertex   3.268996e+01 -8.628786e+01 2.192255e+02
      vertex   4.268996e+01 -8.628786e+01 2.175035e+02
      vertex   3.268996e+01 -8.628786e+01 2.175035e+02
    endloop
  endfacet
  facet normal 0.000000e+00 -9.381880e-15 1.000000e+00
    outer loop
      vertex   4.268996e+01 -9.537614e+01 2.192255e+02
      vertex   4.268996e+01 -8.628786e+01 2.192255e+02
      vertex   3.268996e+01 -9.537614e+01 2.192255e+02
    endloop
  endfacet
  facet normal 0.000000e+00 -9.381880e-15 1.000000e+00
    outer loop
      vertex   3.268996e+01 -9.537614e+01 2.192255e+02
      vertex   4.268996e+01 -8.628786e+01 2.192255e+02
      vertex   3.268996e+01 -8.628786e+01 2.192255e+02
    endloop
  endfacet
  facet normal -1.000000e+00 0.000000e+00 0.000000e+00
    outer loop
      vertex   3.268996e+01 -9.537614e+01 2.175035e+02
      vertex   3.268996e+01 -9.537614e+01 2.192255e+02
      vertex   3.268996e+01 -8.628786e+01 2.175035e+02
    endloop
  endfacet
  facet normal -1.000000e+00 0.000000e+00 0.000000e+00
    outer loop
      vertex   3.268996e+01 -8.628786e+01 2.175035e+02
      vertex   3.268996e+01 -9.537614e+01 2.192255e+02
      vertex   3.268996e+01 -8.628786e+01 2.192255e+02
    endloop
  endfacet
  facet normal 1.000000e+00 -2.368476e-14 -2.610370e-15
    outer loop
      vertex   5.018996e+01 -9.657614e+01 2.045732e+02
      vertex   5.018996e+01 -9.537614e+01 2.045732e+02
      vertex   5.018996e+01 -9.657614e+01 2.181832e+02
    endloop
  endfacet
  facet normal 1.000000e+00 -1.607874e-14 -1.939744e-15
    outer loop
      vertex   5.018996e+01 -9.657614e+01 2.181832e+02
      vertex   5.018996e+01 -9.537614e+01 2.045732e+02
      vertex   5.018996e+01 -9.537614e+01 2.192255e+02
    endloop
  endfacet
  facet normal -1.000000e+00 2.368476e-14 2.610370e-15
    outer loop
      vertex   2.518996e+01 -9.657614e+01 2.045732e+02
      vertex   2.518996e+01 -9.657614e+01 2.181832e+02
      vertex   2.518996e+01 -9.537614e+01 2.045732e+02
    endloop
  endfacet
  facet normal -1.000000e+00 1.607874e-14 1.939744e-15
    outer loop
      vertex   2.518996e+01 -9.537614e+01 2.045732e+02
      vertex   2.518996e+01 -9.657614e+01 2.181832e+02
      vertex   2.518996e+01 -9.537614e+01 2.192255e+02
    endloop
  endfacet
endsolid
