solid ASCII
  facet normal 0.000000e+00 1.000000e+00 -1.434693e-14
    outer loop
      vertex   -3.072939e+01 3.197819e+02 3.170676e+02
      vertex   -3.072939e+01 3.197819e+02 3.210297e+02
      vertex   -2.992939e+01 3.197819e+02 3.170676e+02
    endloop
  endfacet
  facet normal 0.000000e+00 1.000000e+00 -1.434693e-14
    outer loop
      vertex   -2.992939e+01 3.197819e+02 3.170676e+02
      vertex   -3.072939e+01 3.197819e+02 3.210297e+02
      vertex   -2.992939e+01 3.197819e+02 3.210297e+02
    endloop
  endfacet
  facet normal -1.000000e+00 3.929855e-15 -3.586734e-15
    outer loop
      vertex   -3.072939e+01 3.197819e+02 3.210297e+02
      vertex   -3.072939e+01 3.197819e+02 3.170676e+02
      vertex   -3.072939e+01 3.137146e+02 2.916002e+02
    endloop
  endfacet
  facet normal -1.000000e+00 0.000000e+00 -2.650506e-15
    outer loop
      vertex   -3.072939e+01 3.137146e+02 2.916002e+02
      vertex   -3.072939e+01 3.197819e+02 3.170676e+02
      vertex   -3.072939e+01 3.145314e+02 2.916002e+02
    endloop
  endfacet
  facet normal 0.000000e+00 0.000000e+00 -1.000000e+00
    outer loop
      vertex   -3.072939e+01 3.137146e+02 2.916002e+02
      vertex   -3.072939e+01 3.145314e+02 2.916002e+02
      vertex   -2.992939e+01 3.137146e+02 2.916002e+02
    endloop
  endfacet
  facet normal 0.000000e+00 0.000000e+00 -1.000000e+00
    outer loop
      vertex   -2.992939e+01 3.137146e+02 2.916002e+02
      vertex   -3.072939e+01 3.145314e+02 2.916002e+02
      vertex   -2.992939e+01 3.145314e+02 2.916002e+02
    endloop
  endfacet
  facet normal 0.000000e+00 -9.794030e-01 2.019152e-01
    outer loop
      vertex   -3.072939e+01 3.197819e+02 3.210297e+02
      vertex   -3.072939e+01 3.137146e+02 2.916002e+02
      vertex   -2.992939e+01 3.197819e+02 3.210297e+02
    endloop
  endfacet
  facet normal 0.000000e+00 -9.794030e-01 2.019152e-01
    outer loop
      vertex   -2.992939e+01 3.197819e+02 3.210297e+02
      vertex   -3.072939e+01 3.137146e+02 2.916002e+02
      vertex   -2.992939e+01 3.137146e+02 2.916002e+02
    endloop
  endfacet
  facet normal 0.000000e+00 9.794030e-01 -2.019152e-01
    outer loop
      vertex   -3.072939e+01 3.145314e+02 2.916002e+02
      vertex   -3.072939e+01 3.197819e+02 3.170676e+02
      vertex   -2.992939e+01 3.145314e+02 2.916002e+02
    endloop
  endfacet
  facet normal 0.000000e+00 9.794030e-01 -2.019152e-01
    outer loop
      vertex   -2.992939e+01 3.145314e+02 2.916002e+02
      vertex   -3.072939e+01 3.197819e+02 3.170676e+02
      vertex   -2.992939e+01 3.197819e+02 3.170676e+02
    endloop
  endfacet
  facet normal 1.000000e+00 -5.217892e-15 3.586734e-15
    outer loop
      vertex   -2.992939e+01 3.197819e+02 3.170676e+02
      vertex   -2.992939e+01 3.197819e+02 3.210297e+02
      vertex   -2.992939e+01 3.145314e+02 2.916002e+02
    endloop
  endfacet
  facet normal 1.000000e+00 0.000000e+00 2.655829e-15
    outer loop
      vertex   -2.992939e+01 3.145314e+02 2.916002e+02
      vertex   -2.992939e+01 3.197819e+02 3.210297e+02
      vertex   -2.992939e+01 3.137146e+02 2.916002e+02
    endloop
  endfacet
endsolid
