solid ASCII
  facet normal 0.000000e+00 1.000000e+00 -1.069750e-14
    outer loop
      vertex   -1.027294e+02 3.197819e+02 3.314402e+02
      vertex   -1.027294e+02 3.197819e+02 3.261265e+02
      vertex   -1.035294e+02 3.197819e+02 3.314402e+02
    endloop
  endfacet
  facet normal 0.000000e+00 1.000000e+00 -1.069750e-14
    outer loop
      vertex   -1.035294e+02 3.197819e+02 3.314402e+02
      vertex   -1.027294e+02 3.197819e+02 3.261265e+02
      vertex   -1.035294e+02 3.197819e+02 3.261265e+02
    endloop
  endfacet
  facet normal -0.000000e+00 -0.000000e+00 -1.000000e+00
    outer loop
      vertex   -1.027294e+02 3.145238e+02 2.916002e+02
      vertex   -1.027294e+02 3.137146e+02 2.916002e+02
      vertex   -1.035294e+02 3.145238e+02 2.916002e+02
    endloop
  endfacet
  facet normal 0.000000e+00 0.000000e+00 -1.000000e+00
    outer loop
      vertex   -1.035294e+02 3.145238e+02 2.916002e+02
      vertex   -1.027294e+02 3.137146e+02 2.916002e+02
      vertex   -1.035294e+02 3.137146e+02 2.916002e+02
    endloop
  endfacet
  facet normal 0.000000e+00 9.886018e-01 -1.505539e-01
    outer loop
      vertex   -1.027294e+02 3.197819e+02 3.261265e+02
      vertex   -1.027294e+02 3.145238e+02 2.916002e+02
      vertex   -1.035294e+02 3.197819e+02 3.261265e+02
    endloop
  endfacet
  facet normal 0.000000e+00 9.886018e-01 -1.505539e-01
    outer loop
      vertex   -1.035294e+02 3.197819e+02 3.261265e+02
      vertex   -1.027294e+02 3.145238e+02 2.916002e+02
      vertex   -1.035294e+02 3.145238e+02 2.916002e+02
    endloop
  endfacet
  facet normal 0.000000e+00 -9.886018e-01 1.505539e-01
    outer loop
      vertex   -1.027294e+02 3.137146e+02 2.916002e+02
      vertex   -1.027294e+02 3.197819e+02 3.314402e+02
      vertex   -1.035294e+02 3.137146e+02 2.916002e+02
    endloop
  endfacet
  facet normal 0.000000e+00 -9.886018e-01 1.505539e-01
    outer loop
      vertex   -1.035294e+02 3.137146e+02 2.916002e+02
      vertex   -1.027294e+02 3.197819e+02 3.314402e+02
      vertex   -1.035294e+02 3.197819e+02 3.314402e+02
    endloop
  endfacet
  facet normal -1.000000e+00 1.165467e-15 -2.674375e-15
    outer loop
      vertex   -1.035294e+02 3.197819e+02 3.314402e+02
      vertex   -1.035294e+02 3.197819e+02 3.261265e+02
      vertex   -1.035294e+02 3.137146e+02 2.916002e+02
    endloop
  endfacet
  facet normal -1.000000e+00 0.000000e+00 -2.469570e-15
    outer loop
      vertex   -1.035294e+02 3.137146e+02 2.916002e+02
      vertex   -1.035294e+02 3.197819e+02 3.261265e+02
      vertex   -1.035294e+02 3.145238e+02 2.916002e+02
    endloop
  endfacet
  facet normal 1.000000e+00 -1.638433e-14 5.348749e-15
    outer loop
      vertex   -1.027294e+02 3.197819e+02 3.314402e+02
      vertex   -1.027294e+02 3.137146e+02 2.916002e+02
      vertex   -1.027294e+02 3.197819e+02 3.261265e+02
    endloop
  endfacet
  facet normal 1.000000e+00 0.000000e+00 2.469570e-15
    outer loop
      vertex   -1.027294e+02 3.197819e+02 3.261265e+02
      vertex   -1.027294e+02 3.137146e+02 2.916002e+02
      vertex   -1.027294e+02 3.145238e+02 2.916002e+02
    endloop
  endfacet
endsolid
