M48
; DRILL file {KiCad 9.0.1} date 2025-09-21T13:40:22+0200
; FORMAT={-:-/ absolute / metric / decimal}
; #@! TF.CreationDate,2025-09-21T13:40:22+02:00
; #@! TF.GenerationSoftware,Kicad,Pcbnew,9.0.1
; #@! TF.FileFunction,Plated,1,2,PTH
FMAT,2
METRIC
; #@! TA.AperFunction,Plated,PTH,ComponentDrill
T1C0.200
; #@! TA.AperFunction,Plated,PTH,ViaDrill
T2C0.300
; #@! TA.AperFunction,Plated,PTH,ComponentDrill
T3C1.190
%
G90
G05
T1
X138.355Y-87.587
X138.355Y-89.112
X139.118Y-86.825
X139.118Y-88.35
X139.118Y-89.875
X139.88Y-87.587
X139.88Y-89.112
X140.642Y-86.825
X140.642Y-88.35
X140.642Y-89.875
X141.405Y-87.587
X141.405Y-89.112
T2
X133.8Y-132.0
X134.0Y-80.5
X134.1Y-77.1
X134.9Y-52.0
X135.1Y-95.2
X135.2Y-100.1
X135.9Y-77.0
X137.1Y-102.8
X137.2Y-99.1
X137.5Y-80.3
X138.0Y-81.0
X138.0Y-99.1
X138.7Y-98.5
X140.7Y-109.8
X140.701Y-103.102
X141.438Y-122.2
X141.6Y-106.65
X142.033Y-120.948
X144.573Y-121.694
X144.952Y-113.248
X144.991Y-111.709
X145.0Y-73.0
X146.5Y-74.5
X146.8Y-93.9
X147.0Y-59.0
X148.0Y-77.5
X148.0Y-95.0
X148.4Y-92.5
X148.7Y-125.7
X148.9Y-80.1
X149.567Y-124.266
X153.0Y-66.5
X162.001Y-89.801
X162.036Y-93.3
X162.2Y-97.0
X164.5Y-103.5
X166.9Y-99.8
X167.3Y-102.55
X167.5Y-107.5
X168.6Y-123.0
X174.1Y-118.6
X176.0Y-125.2
X176.2Y-113.0
X177.8Y-99.9
X181.8Y-52.0
T3
X173.0Y-70.0
X173.0Y-72.54
X182.0Y-59.0
X182.0Y-61.54
X182.0Y-68.46
X182.0Y-71.0
X182.0Y-73.54
X182.0Y-80.54
X182.0Y-83.08
X182.0Y-85.62
X182.0Y-92.0
X182.0Y-94.54
X182.0Y-113.0
X182.0Y-115.54
M30
