%TF.GenerationSoftware,KiCad,Pcbnew,9.0.1*%
%TF.CreationDate,2025-09-21T13:47:25+02:00*%
%TF.ProjectId,RcSender,52635365-6e64-4657-922e-6b696361645f,rev?*%
%TF.SameCoordinates,Original*%
%TF.FileFunction,Paste,Top*%
%TF.FilePolarity,Positive*%
%FSLAX46Y46*%
G04 Gerber Fmt 4.6, Leading zero omitted, Abs format (unit mm)*
G04 Created by KiCad (PCBNEW 9.0.1) date 2025-09-21 13:47:25*
%MOMM*%
%LPD*%
G01*
G04 APERTURE LIST*
G04 Aperture macros list*
%AMRoundRect*
0 Rectangle with rounded corners*
0 $1 Rounding radius*
0 $2 $3 $4 $5 $6 $7 $8 $9 X,Y pos of 4 corners*
0 Add a 4 corners polygon primitive as box body*
4,1,4,$2,$3,$4,$5,$6,$7,$8,$9,$2,$3,0*
0 Add four circle primitives for the rounded corners*
1,1,$1+$1,$2,$3*
1,1,$1+$1,$4,$5*
1,1,$1+$1,$6,$7*
1,1,$1+$1,$8,$9*
0 Add four rect primitives between the rounded corners*
20,1,$1+$1,$2,$3,$4,$5,0*
20,1,$1+$1,$4,$5,$6,$7,0*
20,1,$1+$1,$6,$7,$8,$9,0*
20,1,$1+$1,$8,$9,$2,$3,0*%
G04 Aperture macros list end*
%ADD10RoundRect,0.200000X-0.275000X0.200000X-0.275000X-0.200000X0.275000X-0.200000X0.275000X0.200000X0*%
%ADD11RoundRect,0.100000X0.100000X-0.225000X0.100000X0.225000X-0.100000X0.225000X-0.100000X-0.225000X0*%
%ADD12R,1.500000X0.900000*%
%ADD13R,0.900000X1.500000*%
%ADD14R,1.050000X1.050000*%
%ADD15RoundRect,0.150000X0.512500X0.150000X-0.512500X0.150000X-0.512500X-0.150000X0.512500X-0.150000X0*%
%ADD16RoundRect,0.200000X0.275000X-0.200000X0.275000X0.200000X-0.275000X0.200000X-0.275000X-0.200000X0*%
%ADD17RoundRect,0.225000X0.225000X0.250000X-0.225000X0.250000X-0.225000X-0.250000X0.225000X-0.250000X0*%
%ADD18RoundRect,0.243750X-0.243750X-0.456250X0.243750X-0.456250X0.243750X0.456250X-0.243750X0.456250X0*%
%ADD19RoundRect,0.200000X0.200000X0.275000X-0.200000X0.275000X-0.200000X-0.275000X0.200000X-0.275000X0*%
%ADD20RoundRect,0.243750X0.456250X-0.243750X0.456250X0.243750X-0.456250X0.243750X-0.456250X-0.243750X0*%
%ADD21RoundRect,0.225000X-0.225000X-0.250000X0.225000X-0.250000X0.225000X0.250000X-0.225000X0.250000X0*%
%ADD22RoundRect,0.218750X0.218750X0.256250X-0.218750X0.256250X-0.218750X-0.256250X0.218750X-0.256250X0*%
%ADD23R,1.550000X1.300000*%
%ADD24RoundRect,0.200000X-0.200000X-0.275000X0.200000X-0.275000X0.200000X0.275000X-0.200000X0.275000X0*%
%ADD25R,2.400000X0.740000*%
%ADD26RoundRect,0.225000X0.225000X-0.225000X0.225000X0.225000X-0.225000X0.225000X-0.225000X-0.225000X0*%
%ADD27RoundRect,0.062500X0.062500X-0.337500X0.062500X0.337500X-0.062500X0.337500X-0.062500X-0.337500X0*%
%ADD28RoundRect,0.062500X0.337500X-0.062500X0.337500X0.062500X-0.337500X0.062500X-0.337500X-0.062500X0*%
%ADD29RoundRect,0.150000X0.150000X-0.512500X0.150000X0.512500X-0.150000X0.512500X-0.150000X-0.512500X0*%
%ADD30RoundRect,0.250000X-0.262500X-0.450000X0.262500X-0.450000X0.262500X0.450000X-0.262500X0.450000X0*%
%ADD31R,0.500000X2.500000*%
%ADD32R,2.000000X2.500000*%
G04 APERTURE END LIST*
D10*
%TO.C,R13*%
X64200000Y-121500000D03*
X64200000Y-123150000D03*
%TD*%
D11*
%TO.C,Q1*%
X54580000Y-125220000D03*
X55230000Y-125220000D03*
X55880000Y-125220000D03*
X55880000Y-123320000D03*
X55230000Y-123320000D03*
X54580000Y-123320000D03*
%TD*%
D12*
%TO.C,U4*%
X65305000Y-83035000D03*
X65305000Y-84305000D03*
X65305000Y-85575000D03*
X65305000Y-86845000D03*
X65305000Y-88115000D03*
X65305000Y-89385000D03*
X65305000Y-90655000D03*
X65305000Y-91925000D03*
X65305000Y-93195000D03*
X65305000Y-94465000D03*
X65305000Y-95735000D03*
X65305000Y-97005000D03*
X65305000Y-98275000D03*
X65305000Y-99545000D03*
D13*
X68345000Y-100795000D03*
X69615000Y-100795000D03*
X70885000Y-100795000D03*
X72155000Y-100795000D03*
X73425000Y-100795000D03*
X74695000Y-100795000D03*
X75965000Y-100795000D03*
X77235000Y-100795000D03*
X78505000Y-100795000D03*
X79775000Y-100795000D03*
D12*
X82805000Y-99545000D03*
X82805000Y-98275000D03*
X82805000Y-97005000D03*
X82805000Y-95735000D03*
X82805000Y-94465000D03*
X82805000Y-93195000D03*
X82805000Y-91925000D03*
X82805000Y-90655000D03*
X82805000Y-89385000D03*
X82805000Y-88115000D03*
X82805000Y-86845000D03*
X82805000Y-85575000D03*
X82805000Y-84305000D03*
X82805000Y-83035000D03*
D14*
X71850000Y-88850000D03*
X71850000Y-90375000D03*
X71850000Y-91900000D03*
X73375000Y-88850000D03*
X73375000Y-90375000D03*
X73375000Y-91900000D03*
X74900000Y-88850000D03*
X74900000Y-90375000D03*
X74900000Y-91900000D03*
%TD*%
D15*
%TO.C,U2*%
X73425000Y-129250000D03*
X73425000Y-128300000D03*
X73425000Y-127350000D03*
X71150000Y-127350000D03*
X71150000Y-129250000D03*
%TD*%
D16*
%TO.C,R2*%
X73600000Y-134550000D03*
X73600000Y-132900000D03*
%TD*%
D17*
%TO.C,C3*%
X73575000Y-125800000D03*
X72025000Y-125800000D03*
%TD*%
D18*
%TO.C,D2*%
X75225000Y-129200000D03*
X77100000Y-129200000D03*
%TD*%
D19*
%TO.C,R3*%
X80450000Y-129200000D03*
X78800000Y-129200000D03*
%TD*%
D20*
%TO.C,D1*%
X71800000Y-134475000D03*
X71800000Y-132600000D03*
%TD*%
D21*
%TO.C,C9*%
X61750000Y-126200000D03*
X63300000Y-126200000D03*
%TD*%
D22*
%TO.C,FB1*%
X73275000Y-130800000D03*
X71700000Y-130800000D03*
%TD*%
D23*
%TO.C,SW3*%
X41220000Y-131150000D03*
X49180000Y-131150000D03*
X41220000Y-135650000D03*
X49180000Y-135650000D03*
%TD*%
D16*
%TO.C,R7*%
X51200000Y-135950000D03*
X51200000Y-134300000D03*
%TD*%
D17*
%TO.C,C1*%
X73575000Y-135950000D03*
X72025000Y-135950000D03*
%TD*%
D24*
%TO.C,R5*%
X35600000Y-87200000D03*
X37250000Y-87200000D03*
%TD*%
%TO.C,R12*%
X104350000Y-89400000D03*
X106000000Y-89400000D03*
%TD*%
D25*
%TO.C,J3*%
X87450000Y-85430000D03*
X91350000Y-85430000D03*
X87450000Y-86700000D03*
X91350000Y-86700000D03*
X87450000Y-87970000D03*
X91350000Y-87970000D03*
%TD*%
D26*
%TO.C,U7*%
X59080000Y-123320000D03*
X60200000Y-123320000D03*
X61320000Y-123320000D03*
X59080000Y-122200000D03*
X60200000Y-122200000D03*
X61320000Y-122200000D03*
X59080000Y-121080000D03*
X60200000Y-121080000D03*
X61320000Y-121080000D03*
D27*
X58700000Y-124650000D03*
X59200000Y-124650000D03*
X59700000Y-124650000D03*
X60200000Y-124650000D03*
X60700000Y-124650000D03*
X61200000Y-124650000D03*
X61700000Y-124650000D03*
D28*
X62650000Y-123700000D03*
X62650000Y-123200000D03*
X62650000Y-122700000D03*
X62650000Y-122200000D03*
X62650000Y-121700000D03*
X62650000Y-121200000D03*
X62650000Y-120700000D03*
D27*
X61700000Y-119750000D03*
X61200000Y-119750000D03*
X60700000Y-119750000D03*
X60200000Y-119750000D03*
X59700000Y-119750000D03*
X59200000Y-119750000D03*
X58700000Y-119750000D03*
D28*
X57750000Y-120700000D03*
X57750000Y-121200000D03*
X57750000Y-121700000D03*
X57750000Y-122200000D03*
X57750000Y-122700000D03*
X57750000Y-123200000D03*
X57750000Y-123700000D03*
%TD*%
D23*
%TO.C,BT1*%
X100500000Y-121550000D03*
X108460000Y-121550000D03*
X100500000Y-126050000D03*
X108460000Y-126050000D03*
%TD*%
D10*
%TO.C,R15*%
X52900000Y-123375000D03*
X52900000Y-125025000D03*
%TD*%
D24*
%TO.C,R14*%
X54400000Y-126800000D03*
X56050000Y-126800000D03*
%TD*%
D29*
%TO.C,U3*%
X58350000Y-130037500D03*
X59300000Y-130037500D03*
X60250000Y-130037500D03*
X60250000Y-127762500D03*
X59300000Y-127762500D03*
X58350000Y-127762500D03*
%TD*%
D17*
%TO.C,C4*%
X69450000Y-129200000D03*
X67900000Y-129200000D03*
%TD*%
D24*
%TO.C,R8*%
X78150000Y-102800000D03*
X79800000Y-102800000D03*
%TD*%
%TO.C,R9*%
X61650000Y-84200000D03*
X63300000Y-84200000D03*
%TD*%
D21*
%TO.C,C5*%
X110625000Y-125400000D03*
X112175000Y-125400000D03*
%TD*%
D17*
%TO.C,C2*%
X70200000Y-130800000D03*
X68650000Y-130800000D03*
%TD*%
D23*
%TO.C,SW4*%
X41840000Y-121400000D03*
X49800000Y-121400000D03*
X41840000Y-125900000D03*
X49800000Y-125900000D03*
%TD*%
D17*
%TO.C,C8*%
X69350000Y-125550000D03*
X67800000Y-125550000D03*
%TD*%
D24*
%TO.C,R1*%
X68000000Y-136050000D03*
X69650000Y-136050000D03*
%TD*%
D19*
%TO.C,R11*%
X63300000Y-90700000D03*
X61650000Y-90700000D03*
%TD*%
D21*
%TO.C,C6*%
X61750000Y-85800000D03*
X63300000Y-85800000D03*
%TD*%
D17*
%TO.C,C7*%
X63250000Y-82600000D03*
X61700000Y-82600000D03*
%TD*%
D30*
%TO.C,R16*%
X73400000Y-107800000D03*
X75225000Y-107800000D03*
%TD*%
D19*
%TO.C,R10*%
X112350000Y-122200000D03*
X110700000Y-122200000D03*
%TD*%
D15*
%TO.C,U1*%
X69800000Y-134450000D03*
X69800000Y-133500000D03*
X69800000Y-132550000D03*
X67525000Y-132550000D03*
X67525000Y-134450000D03*
%TD*%
D19*
%TO.C,R6*%
X71400000Y-102700000D03*
X69750000Y-102700000D03*
%TD*%
D30*
%TO.C,R17*%
X73400000Y-105800000D03*
X75225000Y-105800000D03*
%TD*%
D19*
%TO.C,R4*%
X112250000Y-123800000D03*
X110600000Y-123800000D03*
%TD*%
D31*
%TO.C,J1*%
X57900000Y-132975000D03*
X58700000Y-132975000D03*
X59500000Y-132975000D03*
X60300000Y-132975000D03*
X61100000Y-132975000D03*
D32*
X55100000Y-132975000D03*
X55100000Y-138475000D03*
X63900000Y-132975000D03*
X63900000Y-138475000D03*
%TD*%
M02*
