%TF.GenerationSoftware,KiCad,Pcbnew,9.0.1*%
%TF.CreationDate,2025-09-21T13:47:25+02:00*%
%TF.ProjectId,RcSender,52635365-6e64-4657-922e-6b696361645f,rev?*%
%TF.SameCoordinates,Original*%
%TF.FileFunction,Soldermask,Bot*%
%TF.FilePolarity,Negative*%
%FSLAX46Y46*%
G04 Gerber Fmt 4.6, Leading zero omitted, Abs format (unit mm)*
G04 Created by KiCad (PCBNEW 9.0.1) date 2025-09-21 13:47:25*
%MOMM*%
%LPD*%
G01*
G04 APERTURE LIST*
G04 Aperture macros list*
%AMRoundRect*
0 Rectangle with rounded corners*
0 $1 Rounding radius*
0 $2 $3 $4 $5 $6 $7 $8 $9 X,Y pos of 4 corners*
0 Add a 4 corners polygon primitive as box body*
4,1,4,$2,$3,$4,$5,$6,$7,$8,$9,$2,$3,0*
0 Add four circle primitives for the rounded corners*
1,1,$1+$1,$2,$3*
1,1,$1+$1,$4,$5*
1,1,$1+$1,$6,$7*
1,1,$1+$1,$8,$9*
0 Add four rect primitives between the rounded corners*
20,1,$1+$1,$2,$3,$4,$5,0*
20,1,$1+$1,$4,$5,$6,$7,0*
20,1,$1+$1,$6,$7,$8,$9,0*
20,1,$1+$1,$8,$9,$2,$3,0*%
G04 Aperture macros list end*
%ADD10RoundRect,0.102000X-0.634000X-0.634000X0.634000X-0.634000X0.634000X0.634000X-0.634000X0.634000X0*%
%ADD11C,1.472000*%
%ADD12C,1.700000*%
%ADD13C,4.000000*%
%ADD14C,2.100000*%
%ADD15C,1.750000*%
%ADD16C,1.270000*%
%ADD17RoundRect,0.250001X-0.499999X-0.759999X0.499999X-0.759999X0.499999X0.759999X-0.499999X0.759999X0*%
%ADD18O,1.500000X2.020000*%
%ADD19C,1.982000*%
%ADD20C,2.490000*%
%ADD21C,0.900000*%
G04 APERTURE END LIST*
D10*
%TO.C,POT1*%
X101020000Y-134700000D03*
D11*
X103560000Y-134700000D03*
X106100000Y-134700000D03*
%TD*%
D12*
%TO.C,U8*%
X73200000Y-110000000D03*
X75740000Y-110000000D03*
X78280000Y-110000000D03*
X80820000Y-110000000D03*
D13*
X61740000Y-111540000D03*
X61740000Y-139500000D03*
X92200000Y-111540000D03*
X92200000Y-139500000D03*
%TD*%
D14*
%TO.C,SW1*%
X39275000Y-86602500D03*
X46285000Y-86602500D03*
D15*
X40525000Y-84112500D03*
X45025000Y-84112500D03*
%TD*%
D16*
%TO.C,J2*%
X75000000Y-138000000D03*
X84000000Y-138000000D03*
D17*
X78000000Y-139960000D03*
D18*
X81000000Y-139960000D03*
%TD*%
D19*
%TO.C,U5*%
X42175000Y-92281281D03*
X48525000Y-92281281D03*
X42175000Y-97361281D03*
X48525000Y-97361281D03*
X42810000Y-115141281D03*
X45350000Y-115141281D03*
X47890000Y-115141281D03*
D20*
X37730000Y-98313781D03*
X37730000Y-111648781D03*
X52970000Y-111648781D03*
X52970000Y-98313781D03*
D19*
X35190000Y-102441281D03*
X35190000Y-104981281D03*
X35190000Y-107521281D03*
%TD*%
%TO.C,U6*%
X104185000Y-92300000D03*
X110535000Y-92300000D03*
X104185000Y-97380000D03*
X110535000Y-97380000D03*
X104820000Y-115160000D03*
X107360000Y-115160000D03*
X109900000Y-115160000D03*
D20*
X99740000Y-98332500D03*
X99740000Y-111667500D03*
X114980000Y-111667500D03*
X114980000Y-98332500D03*
D19*
X97200000Y-102460000D03*
X97200000Y-105000000D03*
X97200000Y-107540000D03*
%TD*%
D14*
%TO.C,SW2*%
X108475000Y-85452500D03*
X115485000Y-85452500D03*
D15*
X109725000Y-82962500D03*
X114225000Y-82962500D03*
%TD*%
D10*
%TO.C,POT2*%
X86620000Y-96500000D03*
D11*
X89160000Y-96500000D03*
X91700000Y-96500000D03*
%TD*%
D21*
%TO.C,J1*%
X57300000Y-135575000D03*
X61700000Y-135575000D03*
%TD*%
M02*
