solid ASCII
  facet normal 0.000000e+00 9.996430e-01 2.671752e-02
    outer loop
      vertex   3.650000e+01 3.850000e+02 2.075673e+02
      vertex   3.610000e+01 3.850000e+02 2.075673e+02
      vertex   3.650000e+01 3.849967e+02 2.076901e+02
    endloop
  endfacet
  facet normal 0.000000e+00 9.996430e-01 2.671752e-02
    outer loop
      vertex   3.650000e+01 3.849967e+02 2.076901e+02
      vertex   3.610000e+01 3.850000e+02 2.075673e+02
      vertex   3.610000e+01 3.849967e+02 2.076901e+02
    endloop
  endfacet
  facet normal 0.000000e+00 9.967887e-01 8.007628e-02
    outer loop
      vertex   3.650000e+01 3.849967e+02 2.076901e+02
      vertex   3.610000e+01 3.849967e+02 2.076901e+02
      vertex   3.650000e+01 3.849869e+02 2.078127e+02
    endloop
  endfacet
  facet normal 0.000000e+00 9.967887e-01 8.007628e-02
    outer loop
      vertex   3.650000e+01 3.849869e+02 2.078127e+02
      vertex   3.610000e+01 3.849967e+02 2.076901e+02
      vertex   3.610000e+01 3.849869e+02 2.078127e+02
    endloop
  endfacet
  facet normal 0.000000e+00 9.910883e-01 1.332064e-01
    outer loop
      vertex   3.650000e+01 3.849869e+02 2.078127e+02
      vertex   3.610000e+01 3.849869e+02 2.078127e+02
      vertex   3.650000e+01 3.849705e+02 2.079345e+02
    endloop
  endfacet
  facet normal 0.000000e+00 9.910883e-01 1.332064e-01
    outer loop
      vertex   3.650000e+01 3.849705e+02 2.079345e+02
      vertex   3.610000e+01 3.849869e+02 2.078127e+02
      vertex   3.610000e+01 3.849705e+02 2.079345e+02
    endloop
  endfacet
  facet normal 0.000000e+00 9.825580e-01 1.859562e-01
    outer loop
      vertex   3.650000e+01 3.849705e+02 2.079345e+02
      vertex   3.610000e+01 3.849705e+02 2.079345e+02
      vertex   3.650000e+01 3.849477e+02 2.080552e+02
    endloop
  endfacet
  facet normal 0.000000e+00 9.825580e-01 1.859562e-01
    outer loop
      vertex   3.650000e+01 3.849477e+02 2.080552e+02
      vertex   3.610000e+01 3.849705e+02 2.079345e+02
      vertex   3.610000e+01 3.849477e+02 2.080552e+02
    endloop
  endfacet
  facet normal 0.000000e+00 9.712223e-01 2.381750e-01
    outer loop
      vertex   3.650000e+01 3.849477e+02 2.080552e+02
      vertex   3.610000e+01 3.849477e+02 2.080552e+02
      vertex   3.650000e+01 3.849184e+02 2.081746e+02
    endloop
  endfacet
  facet normal 0.000000e+00 9.712223e-01 2.381750e-01
    outer loop
      vertex   3.650000e+01 3.849184e+02 2.081746e+02
      vertex   3.610000e+01 3.849477e+02 2.080552e+02
      vertex   3.610000e+01 3.849184e+02 2.081746e+02
    endloop
  endfacet
  facet normal 0.000000e+00 9.571133e-01 2.897137e-01
    outer loop
      vertex   3.650000e+01 3.849184e+02 2.081746e+02
      vertex   3.610000e+01 3.849184e+02 2.081746e+02
      vertex   3.650000e+01 3.848828e+02 2.082922e+02
    endloop
  endfacet
  facet normal 0.000000e+00 9.571133e-01 2.897137e-01
    outer loop
      vertex   3.650000e+01 3.848828e+02 2.082922e+02
      vertex   3.610000e+01 3.849184e+02 2.081746e+02
      vertex   3.610000e+01 3.848828e+02 2.082922e+02
    endloop
  endfacet
  facet normal 0.000000e+00 9.402716e-01 3.404253e-01
    outer loop
      vertex   3.650000e+01 3.848828e+02 2.082922e+02
      vertex   3.610000e+01 3.848828e+02 2.082922e+02
      vertex   3.650000e+01 3.848409e+02 2.084078e+02
    endloop
  endfacet
  facet normal 0.000000e+00 9.402716e-01 3.404253e-01
    outer loop
      vertex   3.650000e+01 3.848409e+02 2.084078e+02
      vertex   3.610000e+01 3.848828e+02 2.082922e+02
      vertex   3.610000e+01 3.848409e+02 2.084078e+02
    endloop
  endfacet
  facet normal 0.000000e+00 9.207450e-01 3.901648e-01
    outer loop
      vertex   3.650000e+01 3.848409e+02 2.084078e+02
      vertex   3.610000e+01 3.848409e+02 2.084078e+02
      vertex   3.650000e+01 3.847930e+02 2.085209e+02
    endloop
  endfacet
  facet normal 0.000000e+00 9.207450e-01 3.901648e-01
    outer loop
      vertex   3.650000e+01 3.847930e+02 2.085209e+02
      vertex   3.610000e+01 3.848409e+02 2.084078e+02
      vertex   3.610000e+01 3.847930e+02 2.085209e+02
    endloop
  endfacet
  facet normal 0.000000e+00 8.985895e-01 4.387903e-01
    outer loop
      vertex   3.650000e+01 3.847930e+02 2.085209e+02
      vertex   3.610000e+01 3.847930e+02 2.085209e+02
      vertex   3.650000e+01 3.847391e+02 2.086314e+02
    endloop
  endfacet
  facet normal 0.000000e+00 8.985895e-01 4.387903e-01
    outer loop
      vertex   3.650000e+01 3.847391e+02 2.086314e+02
      vertex   3.610000e+01 3.847930e+02 2.085209e+02
      vertex   3.610000e+01 3.847391e+02 2.086314e+02
    endloop
  endfacet
  facet normal 0.000000e+00 8.738682e-01 4.861628e-01
    outer loop
      vertex   3.650000e+01 3.847391e+02 2.086314e+02
      vertex   3.610000e+01 3.847391e+02 2.086314e+02
      vertex   3.650000e+01 3.846793e+02 2.087388e+02
    endloop
  endfacet
  facet normal 0.000000e+00 8.738682e-01 4.861628e-01
    outer loop
      vertex   3.650000e+01 3.846793e+02 2.087388e+02
      vertex   3.610000e+01 3.847391e+02 2.086314e+02
      vertex   3.610000e+01 3.846793e+02 2.087388e+02
    endloop
  endfacet
  facet normal 0.000000e+00 8.466518e-01 5.321473e-01
    outer loop
      vertex   3.650000e+01 3.846793e+02 2.087388e+02
      vertex   3.610000e+01 3.846793e+02 2.087388e+02
      vertex   3.650000e+01 3.846139e+02 2.088428e+02
    endloop
  endfacet
  facet normal 0.000000e+00 8.466518e-01 5.321473e-01
    outer loop
      vertex   3.650000e+01 3.846139e+02 2.088428e+02
      vertex   3.610000e+01 3.846793e+02 2.087388e+02
      vertex   3.610000e+01 3.846139e+02 2.088428e+02
    endloop
  endfacet
  facet normal 0.000000e+00 8.170179e-01 5.766123e-01
    outer loop
      vertex   3.650000e+01 3.846139e+02 2.088428e+02
      vertex   3.610000e+01 3.846139e+02 2.088428e+02
      vertex   3.650000e+01 3.845430e+02 2.089432e+02
    endloop
  endfacet
  facet normal 0.000000e+00 8.170179e-01 5.766123e-01
    outer loop
      vertex   3.650000e+01 3.845430e+02 2.089432e+02
      vertex   3.610000e+01 3.846139e+02 2.088428e+02
      vertex   3.610000e+01 3.845430e+02 2.089432e+02
    endloop
  endfacet
  facet normal 0.000000e+00 7.850512e-01 6.194309e-01
    outer loop
      vertex   3.650000e+01 3.845430e+02 2.089432e+02
      vertex   3.610000e+01 3.845430e+02 2.089432e+02
      vertex   3.650000e+01 3.844669e+02 2.090397e+02
    endloop
  endfacet
  facet normal 0.000000e+00 7.850512e-01 6.194309e-01
    outer loop
      vertex   3.650000e+01 3.844669e+02 2.090397e+02
      vertex   3.610000e+01 3.845430e+02 2.089432e+02
      vertex   3.610000e+01 3.844669e+02 2.090397e+02
    endloop
  endfacet
  facet normal 0.000000e+00 1.000000e+00 -1.327334e-13
    outer loop
      vertex   3.650000e+01 3.850000e+02 2.075673e+02
      vertex   3.650000e+01 3.850000e+02 2.020000e+02
      vertex   3.610000e+01 3.850000e+02 2.075673e+02
    endloop
  endfacet
  facet normal 0.000000e+00 1.000000e+00 -1.327334e-13
    outer loop
      vertex   3.610000e+01 3.850000e+02 2.075673e+02
      vertex   3.650000e+01 3.850000e+02 2.020000e+02
      vertex   3.610000e+01 3.850000e+02 2.020000e+02
    endloop
  endfacet
  facet normal 1.000000e+00 3.502014e-15 0.000000e+00
    outer loop
      vertex   3.650000e+01 3.806478e+02 2.112474e+02
      vertex   3.650000e+01 3.806478e+02 2.106226e+02
      vertex   3.650000e+01 3.826768e+02 2.088127e+02
    endloop
  endfacet
  facet normal 1.000000e+00 -6.642324e-15 -1.137196e-14
    outer loop
      vertex   3.650000e+01 3.826768e+02 2.088127e+02
      vertex   3.650000e+01 3.806478e+02 2.106226e+02
      vertex   3.650000e+01 3.826768e+02 2.081879e+02
    endloop
  endfacet
  facet normal 1.000000e+00 -1.364635e-14 -1.137196e-14
    outer loop
      vertex   3.650000e+01 3.826768e+02 2.088127e+02
      vertex   3.650000e+01 3.826768e+02 2.081879e+02
      vertex   3.650000e+01 3.830768e+02 2.083327e+02
    endloop
  endfacet
  facet normal 1.000000e+00 -1.364635e-14 -1.137196e-14
    outer loop
      vertex   3.650000e+01 3.830768e+02 2.083327e+02
      vertex   3.650000e+01 3.826768e+02 2.081879e+02
      vertex   3.650000e+01 3.830768e+02 2.077079e+02
    endloop
  endfacet
  facet normal 1.000000e+00 -8.981636e-15 -1.137196e-14
    outer loop
      vertex   3.650000e+01 3.830768e+02 2.083327e+02
      vertex   3.650000e+01 3.830768e+02 2.077079e+02
      vertex   3.650000e+01 3.846000e+02 2.065048e+02
    endloop
  endfacet
  facet normal 1.000000e+00 0.000000e+00 0.000000e+00
    outer loop
      vertex   3.650000e+01 3.846000e+02 2.065048e+02
      vertex   3.650000e+01 3.830768e+02 2.077079e+02
      vertex   3.650000e+01 3.846000e+02 2.058800e+02
    endloop
  endfacet
  facet normal 1.000000e+00 -0.000000e+00 0.000000e+00
    outer loop
      vertex   3.650000e+01 3.846000e+02 2.065048e+02
      vertex   3.650000e+01 3.846000e+02 2.058800e+02
      vertex   3.650000e+01 3.850000e+02 2.075673e+02
    endloop
  endfacet
  facet normal 1.000000e+00 1.076726e-14 -2.552565e-15
    outer loop
      vertex   3.650000e+01 3.850000e+02 2.075673e+02
      vertex   3.650000e+01 3.846000e+02 2.058800e+02
      vertex   3.650000e+01 3.850000e+02 2.020000e+02
    endloop
  endfacet
  facet normal 1.000000e+00 -5.015596e-15 -4.179663e-15
    outer loop
      vertex   3.650000e+01 3.850000e+02 2.020000e+02
      vertex   3.650000e+01 3.846000e+02 2.058800e+02
      vertex   3.650000e+01 3.846000e+02 2.024800e+02
    endloop
  endfacet
  facet normal 1.000000e+00 0.000000e+00 0.000000e+00
    outer loop
      vertex   3.650000e+01 3.806478e+02 2.129978e+02
      vertex   3.650000e+01 3.802478e+02 2.117274e+02
      vertex   3.650000e+01 3.806478e+02 2.112474e+02
    endloop
  endfacet
  facet normal 1.000000e+00 0.000000e+00 0.000000e+00
    outer loop
      vertex   3.650000e+01 3.806478e+02 2.112474e+02
      vertex   3.650000e+01 3.802478e+02 2.117274e+02
      vertex   3.650000e+01 3.802478e+02 2.111026e+02
    endloop
  endfacet
  facet normal 1.000000e+00 0.000000e+00 0.000000e+00
    outer loop
      vertex   3.650000e+01 3.806478e+02 2.112474e+02
      vertex   3.650000e+01 3.802478e+02 2.111026e+02
      vertex   3.650000e+01 3.806478e+02 2.106226e+02
    endloop
  endfacet
  facet normal 1.000000e+00 -5.015596e-15 -4.179663e-15
    outer loop
      vertex   3.650000e+01 3.806478e+02 2.106226e+02
      vertex   3.650000e+01 3.802478e+02 2.111026e+02
      vertex   3.650000e+01 3.802478e+02 2.077026e+02
    endloop
  endfacet
  facet normal 1.000000e+00 -5.015596e-15 -4.179663e-15
    outer loop
      vertex   3.650000e+01 3.806478e+02 2.106226e+02
      vertex   3.650000e+01 3.802478e+02 2.077026e+02
      vertex   3.650000e+01 3.806478e+02 2.072226e+02
    endloop
  endfacet
  facet normal 1.000000e+00 1.364635e-14 1.137196e-14
    outer loop
      vertex   3.650000e+01 3.826768e+02 2.105631e+02
      vertex   3.650000e+01 3.844669e+02 2.090397e+02
      vertex   3.650000e+01 3.806478e+02 2.129978e+02
    endloop
  endfacet
  facet normal 1.000000e+00 -6.601218e-15 -8.164565e-15
    outer loop
      vertex   3.650000e+01 3.806478e+02 2.129978e+02
      vertex   3.650000e+01 3.844669e+02 2.090397e+02
      vertex   3.650000e+01 3.777978e+02 2.170427e+02
    endloop
  endfacet
  facet normal 1.000000e+00 8.770251e-14 5.828246e-14
    outer loop
      vertex   3.650000e+01 3.806478e+02 2.129978e+02
      vertex   3.650000e+01 3.777978e+02 2.170427e+02
      vertex   3.650000e+01 3.802478e+02 2.134778e+02
    endloop
  endfacet
  facet normal 1.000000e+00 1.107014e-15 -1.232359e-15
    outer loop
      vertex   3.650000e+01 3.802478e+02 2.134778e+02
      vertex   3.650000e+01 3.777978e+02 2.170427e+02
      vertex   3.650000e+01 3.775000e+02 2.167752e+02
    endloop
  endfacet
  facet normal 1.000000e+00 -1.768814e-13 1.969094e-13
    outer loop
      vertex   3.650000e+01 3.775000e+02 2.167752e+02
      vertex   3.650000e+01 3.777978e+02 2.170427e+02
      vertex   3.650000e+01 3.777438e+02 2.171024e+02
    endloop
  endfacet
  facet normal 1.000000e+00 3.604569e-14 3.828930e-14
    outer loop
      vertex   3.650000e+01 3.775000e+02 2.167752e+02
      vertex   3.650000e+01 3.777438e+02 2.171024e+02
      vertex   3.650000e+01 3.776851e+02 2.171576e+02
    endloop
  endfacet
  facet normal 1.000000e+00 1.364635e-14 1.137196e-14
    outer loop
      vertex   3.650000e+01 3.844669e+02 2.090397e+02
      vertex   3.650000e+01 3.826768e+02 2.105631e+02
      vertex   3.650000e+01 3.830768e+02 2.100831e+02
    endloop
  endfacet
  facet normal 1.000000e+00 -4.871291e-15 -4.059409e-15
    outer loop
      vertex   3.650000e+01 3.830768e+02 2.100831e+02
      vertex   3.650000e+01 3.826768e+02 2.105631e+02
      vertex   3.650000e+01 3.826768e+02 2.088127e+02
    endloop
  endfacet
  facet normal 1.000000e+00 -4.871291e-15 -4.059409e-15
    outer loop
      vertex   3.650000e+01 3.830768e+02 2.100831e+02
      vertex   3.650000e+01 3.826768e+02 2.088127e+02
      vertex   3.650000e+01 3.830768e+02 2.083327e+02
    endloop
  endfacet
  facet normal 1.000000e+00 5.857056e-15 9.936174e-16
    outer loop
      vertex   3.650000e+01 3.830768e+02 2.100831e+02
      vertex   3.650000e+01 3.846000e+02 2.082552e+02
      vertex   3.650000e+01 3.844669e+02 2.090397e+02
    endloop
  endfacet
  facet normal 1.000000e+00 0.000000e+00 0.000000e+00
    outer loop
      vertex   3.650000e+01 3.844669e+02 2.090397e+02
      vertex   3.650000e+01 3.846000e+02 2.082552e+02
      vertex   3.650000e+01 3.845430e+02 2.089432e+02
    endloop
  endfacet
  facet normal 1.000000e+00 0.000000e+00 0.000000e+00
    outer loop
      vertex   3.650000e+01 3.845430e+02 2.089432e+02
      vertex   3.650000e+01 3.846000e+02 2.082552e+02
      vertex   3.650000e+01 3.846139e+02 2.088428e+02
    endloop
  endfacet
  facet normal 1.000000e+00 0.000000e+00 0.000000e+00
    outer loop
      vertex   3.650000e+01 3.846139e+02 2.088428e+02
      vertex   3.650000e+01 3.846000e+02 2.082552e+02
      vertex   3.650000e+01 3.846793e+02 2.087388e+02
    endloop
  endfacet
  facet normal 1.000000e+00 0.000000e+00 0.000000e+00
    outer loop
      vertex   3.650000e+01 3.846793e+02 2.087388e+02
      vertex   3.650000e+01 3.846000e+02 2.082552e+02
      vertex   3.650000e+01 3.847391e+02 2.086314e+02
    endloop
  endfacet
  facet normal 1.000000e+00 0.000000e+00 0.000000e+00
    outer loop
      vertex   3.650000e+01 3.847391e+02 2.086314e+02
      vertex   3.650000e+01 3.846000e+02 2.082552e+02
      vertex   3.650000e+01 3.847930e+02 2.085209e+02
    endloop
  endfacet
  facet normal 1.000000e+00 0.000000e+00 0.000000e+00
    outer loop
      vertex   3.650000e+01 3.847930e+02 2.085209e+02
      vertex   3.650000e+01 3.846000e+02 2.082552e+02
      vertex   3.650000e+01 3.848409e+02 2.084078e+02
    endloop
  endfacet
  facet normal 1.000000e+00 0.000000e+00 0.000000e+00
    outer loop
      vertex   3.650000e+01 3.848409e+02 2.084078e+02
      vertex   3.650000e+01 3.846000e+02 2.082552e+02
      vertex   3.650000e+01 3.848828e+02 2.082922e+02
    endloop
  endfacet
  facet normal 1.000000e+00 0.000000e+00 0.000000e+00
    outer loop
      vertex   3.650000e+01 3.848828e+02 2.082922e+02
      vertex   3.650000e+01 3.846000e+02 2.082552e+02
      vertex   3.650000e+01 3.849184e+02 2.081746e+02
    endloop
  endfacet
  facet normal 1.000000e+00 0.000000e+00 0.000000e+00
    outer loop
      vertex   3.650000e+01 3.849184e+02 2.081746e+02
      vertex   3.650000e+01 3.846000e+02 2.082552e+02
      vertex   3.650000e+01 3.849477e+02 2.080552e+02
    endloop
  endfacet
  facet normal 1.000000e+00 0.000000e+00 0.000000e+00
    outer loop
      vertex   3.650000e+01 3.849477e+02 2.080552e+02
      vertex   3.650000e+01 3.846000e+02 2.082552e+02
      vertex   3.650000e+01 3.849705e+02 2.079345e+02
    endloop
  endfacet
  facet normal 1.000000e+00 0.000000e+00 0.000000e+00
    outer loop
      vertex   3.650000e+01 3.849705e+02 2.079345e+02
      vertex   3.650000e+01 3.846000e+02 2.082552e+02
      vertex   3.650000e+01 3.849869e+02 2.078127e+02
    endloop
  endfacet
  facet normal 1.000000e+00 0.000000e+00 0.000000e+00
    outer loop
      vertex   3.650000e+01 3.849869e+02 2.078127e+02
      vertex   3.650000e+01 3.846000e+02 2.082552e+02
      vertex   3.650000e+01 3.849967e+02 2.076901e+02
    endloop
  endfacet
  facet normal 1.000000e+00 -8.563357e-14 -6.012380e-14
    outer loop
      vertex   3.650000e+01 3.849967e+02 2.076901e+02
      vertex   3.650000e+01 3.846000e+02 2.082552e+02
      vertex   3.650000e+01 3.850000e+02 2.075673e+02
    endloop
  endfacet
  facet normal 1.000000e+00 1.078245e-14 -4.059409e-15
    outer loop
      vertex   3.650000e+01 3.850000e+02 2.075673e+02
      vertex   3.650000e+01 3.846000e+02 2.082552e+02
      vertex   3.650000e+01 3.846000e+02 2.065048e+02
    endloop
  endfacet
  facet normal 1.000000e+00 2.585844e-15 -0.000000e+00
    outer loop
      vertex   3.650000e+01 3.802478e+02 2.111026e+02
      vertex   3.650000e+01 3.802478e+02 2.117274e+02
      vertex   3.650000e+01 3.775000e+02 2.144000e+02
    endloop
  endfacet
  facet normal 1.000000e+00 2.585844e-15 -0.000000e+00
    outer loop
      vertex   3.650000e+01 3.775000e+02 2.144000e+02
      vertex   3.650000e+01 3.802478e+02 2.117274e+02
      vertex   3.650000e+01 3.775000e+02 2.150248e+02
    endloop
  endfacet
  facet normal 1.000000e+00 1.776357e-14 -0.000000e+00
    outer loop
      vertex   3.650000e+01 3.775000e+02 2.144000e+02
      vertex   3.650000e+01 3.775000e+02 2.150248e+02
      vertex   3.650000e+01 3.771000e+02 2.174000e+02
    endloop
  endfacet
  facet normal 1.000000e+00 -6.340999e-15 -4.059409e-15
    outer loop
      vertex   3.650000e+01 3.771000e+02 2.174000e+02
      vertex   3.650000e+01 3.775000e+02 2.150248e+02
      vertex   3.650000e+01 3.775000e+02 2.167752e+02
    endloop
  endfacet
  facet normal 1.000000e+00 2.867397e-13 1.835663e-13
    outer loop
      vertex   3.650000e+01 3.771000e+02 2.174000e+02
      vertex   3.650000e+01 3.775000e+02 2.167752e+02
      vertex   3.650000e+01 3.771800e+02 2.173911e+02
    endloop
  endfacet
  facet normal 1.000000e+00 7.454081e-15 3.848133e-14
    outer loop
      vertex   3.650000e+01 3.771800e+02 2.173911e+02
      vertex   3.650000e+01 3.775000e+02 2.167752e+02
      vertex   3.650000e+01 3.772591e+02 2.173758e+02
    endloop
  endfacet
  facet normal 1.000000e+00 1.114070e-14 3.996000e-14
    outer loop
      vertex   3.650000e+01 3.772591e+02 2.173758e+02
      vertex   3.650000e+01 3.775000e+02 2.167752e+02
      vertex   3.650000e+01 3.773367e+02 2.173542e+02
    endloop
  endfacet
  facet normal 1.000000e+00 1.510923e-14 4.107947e-14
    outer loop
      vertex   3.650000e+01 3.773367e+02 2.173542e+02
      vertex   3.650000e+01 3.775000e+02 2.167752e+02
      vertex   3.650000e+01 3.774123e+02 2.173264e+02
    endloop
  endfacet
  facet normal 1.000000e+00 1.929763e-14 4.174619e-14
    outer loop
      vertex   3.650000e+01 3.774123e+02 2.173264e+02
      vertex   3.650000e+01 3.775000e+02 2.167752e+02
      vertex   3.650000e+01 3.774854e+02 2.172926e+02
    endloop
  endfacet
  facet normal 1.000000e+00 2.361542e-14 4.186834e-14
    outer loop
      vertex   3.650000e+01 3.774854e+02 2.172926e+02
      vertex   3.650000e+01 3.775000e+02 2.167752e+02
      vertex   3.650000e+01 3.775555e+02 2.172530e+02
    endloop
  endfacet
  facet normal 1.000000e+00 2.794367e-14 4.136552e-14
    outer loop
      vertex   3.650000e+01 3.775555e+02 2.172530e+02
      vertex   3.650000e+01 3.775000e+02 2.167752e+02
      vertex   3.650000e+01 3.776222e+02 2.172079e+02
    endloop
  endfacet
  facet normal 1.000000e+00 3.213949e-14 4.018026e-14
    outer loop
      vertex   3.650000e+01 3.776222e+02 2.172079e+02
      vertex   3.650000e+01 3.775000e+02 2.167752e+02
      vertex   3.650000e+01 3.776851e+02 2.171576e+02
    endloop
  endfacet
  facet normal 1.000000e+00 1.289228e-14 -4.059409e-15
    outer loop
      vertex   3.650000e+01 3.802478e+02 2.134778e+02
      vertex   3.650000e+01 3.802478e+02 2.117274e+02
      vertex   3.650000e+01 3.806478e+02 2.129978e+02
    endloop
  endfacet
  facet normal 1.000000e+00 1.110223e-15 -2.220446e-15
    outer loop
      vertex   3.650000e+01 3.771000e+02 2.174000e+02
      vertex   3.650000e+01 3.771000e+02 2.110000e+02
      vertex   3.650000e+01 3.775000e+02 2.144000e+02
    endloop
  endfacet
  facet normal 1.000000e+00 -7.006571e-22 -2.089832e-15
    outer loop
      vertex   3.650000e+01 3.775000e+02 2.144000e+02
      vertex   3.650000e+01 3.771000e+02 2.110000e+02
      vertex   3.650000e+01 3.775000e+02 2.110000e+02
    endloop
  endfacet
  facet normal 1.000000e+00 -2.507798e-15 -2.089832e-15
    outer loop
      vertex   3.650000e+01 3.826768e+02 2.081879e+02
      vertex   3.650000e+01 3.826768e+02 2.047879e+02
      vertex   3.650000e+01 3.830768e+02 2.077079e+02
    endloop
  endfacet
  facet normal 1.000000e+00 -2.507798e-15 -2.089832e-15
    outer loop
      vertex   3.650000e+01 3.830768e+02 2.077079e+02
      vertex   3.650000e+01 3.826768e+02 2.047879e+02
      vertex   3.650000e+01 3.830768e+02 2.043079e+02
    endloop
  endfacet
  facet normal -0.000000e+00 1.105549e-01 9.938700e-01
    outer loop
      vertex   3.610000e+01 3.771000e+02 2.174000e+02
      vertex   3.650000e+01 3.771000e+02 2.174000e+02
      vertex   3.610000e+01 3.771800e+02 2.173911e+02
    endloop
  endfacet
  facet normal -0.000000e+00 1.105549e-01 9.938700e-01
    outer loop
      vertex   3.610000e+01 3.771800e+02 2.173911e+02
      vertex   3.650000e+01 3.771000e+02 2.174000e+02
      vertex   3.650000e+01 3.771800e+02 2.173911e+02
    endloop
  endfacet
  facet normal -0.000000e+00 1.901715e-01 9.817509e-01
    outer loop
      vertex   3.610000e+01 3.771800e+02 2.173911e+02
      vertex   3.650000e+01 3.771800e+02 2.173911e+02
      vertex   3.610000e+01 3.772591e+02 2.173758e+02
    endloop
  endfacet
  facet normal -0.000000e+00 1.901715e-01 9.817509e-01
    outer loop
      vertex   3.610000e+01 3.772591e+02 2.173758e+02
      vertex   3.650000e+01 3.771800e+02 2.173911e+02
      vertex   3.650000e+01 3.772591e+02 2.173758e+02
    endloop
  endfacet
  facet normal -0.000000e+00 2.685546e-01 9.632645e-01
    outer loop
      vertex   3.610000e+01 3.772591e+02 2.173758e+02
      vertex   3.650000e+01 3.772591e+02 2.173758e+02
      vertex   3.610000e+01 3.773367e+02 2.173542e+02
    endloop
  endfacet
  facet normal -0.000000e+00 2.685546e-01 9.632645e-01
    outer loop
      vertex   3.610000e+01 3.773367e+02 2.173542e+02
      vertex   3.650000e+01 3.772591e+02 2.173758e+02
      vertex   3.650000e+01 3.773367e+02 2.173542e+02
    endloop
  endfacet
  facet normal -0.000000e+00 3.451961e-01 9.385306e-01
    outer loop
      vertex   3.610000e+01 3.773367e+02 2.173542e+02
      vertex   3.650000e+01 3.773367e+02 2.173542e+02
      vertex   3.610000e+01 3.774123e+02 2.173264e+02
    endloop
  endfacet
  facet normal -0.000000e+00 3.451961e-01 9.385306e-01
    outer loop
      vertex   3.610000e+01 3.774123e+02 2.173264e+02
      vertex   3.650000e+01 3.773367e+02 2.173542e+02
      vertex   3.650000e+01 3.774123e+02 2.173264e+02
    endloop
  endfacet
  facet normal -0.000000e+00 4.195986e-01 9.077097e-01
    outer loop
      vertex   3.610000e+01 3.774123e+02 2.173264e+02
      vertex   3.650000e+01 3.774123e+02 2.173264e+02
      vertex   3.610000e+01 3.774854e+02 2.172926e+02
    endloop
  endfacet
  facet normal -0.000000e+00 4.195986e-01 9.077097e-01
    outer loop
      vertex   3.610000e+01 3.774854e+02 2.172926e+02
      vertex   3.650000e+01 3.774123e+02 2.173264e+02
      vertex   3.650000e+01 3.774854e+02 2.172926e+02
    endloop
  endfacet
  facet normal -0.000000e+00 4.912799e-01 8.710018e-01
    outer loop
      vertex   3.610000e+01 3.774854e+02 2.172926e+02
      vertex   3.650000e+01 3.774854e+02 2.172926e+02
      vertex   3.610000e+01 3.775555e+02 2.172530e+02
    endloop
  endfacet
  facet normal -0.000000e+00 4.912799e-01 8.710018e-01
    outer loop
      vertex   3.610000e+01 3.775555e+02 2.172530e+02
      vertex   3.650000e+01 3.774854e+02 2.172926e+02
      vertex   3.650000e+01 3.775555e+02 2.172530e+02
    endloop
  endfacet
  facet normal -0.000000e+00 5.597748e-01 8.286448e-01
    outer loop
      vertex   3.610000e+01 3.775555e+02 2.172530e+02
      vertex   3.650000e+01 3.775555e+02 2.172530e+02
      vertex   3.610000e+01 3.776222e+02 2.172079e+02
    endloop
  endfacet
  facet normal 7.954878e-14 5.597748e-01 8.286448e-01
    outer loop
      vertex   3.610000e+01 3.776222e+02 2.172079e+02
      vertex   3.650000e+01 3.775555e+02 2.172530e+02
      vertex   3.650000e+01 3.776222e+02 2.172079e+02
    endloop
  endfacet
  facet normal 8.876657e-14 6.246392e-01 7.809135e-01
    outer loop
      vertex   3.610000e+01 3.776222e+02 2.172079e+02
      vertex   3.650000e+01 3.776222e+02 2.172079e+02
      vertex   3.610000e+01 3.776851e+02 2.171576e+02
    endloop
  endfacet
  facet normal -0.000000e+00 6.246392e-01 7.809135e-01
    outer loop
      vertex   3.610000e+01 3.776851e+02 2.171576e+02
      vertex   3.650000e+01 3.776222e+02 2.172079e+02
      vertex   3.650000e+01 3.776851e+02 2.171576e+02
    endloop
  endfacet
  facet normal -0.000000e+00 6.854524e-01 7.281174e-01
    outer loop
      vertex   3.610000e+01 3.776851e+02 2.171576e+02
      vertex   3.650000e+01 3.776851e+02 2.171576e+02
      vertex   3.610000e+01 3.777438e+02 2.171024e+02
    endloop
  endfacet
  facet normal -0.000000e+00 6.854524e-01 7.281174e-01
    outer loop
      vertex   3.610000e+01 3.777438e+02 2.171024e+02
      vertex   3.650000e+01 3.776851e+02 2.171576e+02
      vertex   3.650000e+01 3.777438e+02 2.171024e+02
    endloop
  endfacet
  facet normal -0.000000e+00 7.418200e-01 6.705990e-01
    outer loop
      vertex   3.610000e+01 3.777438e+02 2.171024e+02
      vertex   3.650000e+01 3.777438e+02 2.171024e+02
      vertex   3.610000e+01 3.777978e+02 2.170427e+02
    endloop
  endfacet
  facet normal -0.000000e+00 7.418200e-01 6.705990e-01
    outer loop
      vertex   3.610000e+01 3.777978e+02 2.170427e+02
      vertex   3.650000e+01 3.777438e+02 2.171024e+02
      vertex   3.650000e+01 3.777978e+02 2.170427e+02
    endloop
  endfacet
  facet normal 0.000000e+00 1.000000e+00 0.000000e+00
    outer loop
      vertex   3.650000e+01 3.775000e+02 2.167752e+02
      vertex   3.650000e+01 3.775000e+02 2.150248e+02
      vertex   3.610000e+01 3.775000e+02 2.167752e+02
    endloop
  endfacet
  facet normal 0.000000e+00 1.000000e+00 0.000000e+00
    outer loop
      vertex   3.610000e+01 3.775000e+02 2.167752e+02
      vertex   3.650000e+01 3.775000e+02 2.150248e+02
      vertex   3.610000e+01 3.775000e+02 2.150248e+02
    endloop
  endfacet
  facet normal -0.000000e+00 -7.682213e-01 -6.401844e-01
    outer loop
      vertex   3.650000e+01 3.802478e+02 2.134778e+02
      vertex   3.650000e+01 3.775000e+02 2.167752e+02
      vertex   3.610000e+01 3.802478e+02 2.134778e+02
    endloop
  endfacet
  facet normal 0.000000e+00 -7.682213e-01 -6.401844e-01
    outer loop
      vertex   3.610000e+01 3.802478e+02 2.134778e+02
      vertex   3.650000e+01 3.775000e+02 2.167752e+02
      vertex   3.610000e+01 3.775000e+02 2.167752e+02
    endloop
  endfacet
  facet normal 0.000000e+00 -1.000000e+00 0.000000e+00
    outer loop
      vertex   3.650000e+01 3.802478e+02 2.117274e+02
      vertex   3.650000e+01 3.802478e+02 2.134778e+02
      vertex   3.610000e+01 3.802478e+02 2.117274e+02
    endloop
  endfacet
  facet normal 0.000000e+00 -1.000000e+00 0.000000e+00
    outer loop
      vertex   3.610000e+01 3.802478e+02 2.117274e+02
      vertex   3.650000e+01 3.802478e+02 2.134778e+02
      vertex   3.610000e+01 3.802478e+02 2.134778e+02
    endloop
  endfacet
  facet normal 0.000000e+00 7.682213e-01 6.401844e-01
    outer loop
      vertex   3.650000e+01 3.775000e+02 2.150248e+02
      vertex   3.650000e+01 3.802478e+02 2.117274e+02
      vertex   3.610000e+01 3.775000e+02 2.150248e+02
    endloop
  endfacet
  facet normal 0.000000e+00 7.682213e-01 6.401844e-01
    outer loop
      vertex   3.610000e+01 3.775000e+02 2.150248e+02
      vertex   3.650000e+01 3.802478e+02 2.117274e+02
      vertex   3.610000e+01 3.802478e+02 2.117274e+02
    endloop
  endfacet
  facet normal -0.000000e+00 -7.682213e-01 -6.401844e-01
    outer loop
      vertex   3.650000e+01 3.846000e+02 2.082552e+02
      vertex   3.650000e+01 3.830768e+02 2.100831e+02
      vertex   3.610000e+01 3.846000e+02 2.082552e+02
    endloop
  endfacet
  facet normal 0.000000e+00 -7.682213e-01 -6.401844e-01
    outer loop
      vertex   3.610000e+01 3.846000e+02 2.082552e+02
      vertex   3.650000e+01 3.830768e+02 2.100831e+02
      vertex   3.610000e+01 3.830768e+02 2.100831e+02
    endloop
  endfacet
  facet normal 0.000000e+00 -1.000000e+00 1.623764e-13
    outer loop
      vertex   3.650000e+01 3.846000e+02 2.065048e+02
      vertex   3.650000e+01 3.846000e+02 2.082552e+02
      vertex   3.610000e+01 3.846000e+02 2.065048e+02
    endloop
  endfacet
  facet normal 0.000000e+00 -1.000000e+00 1.623764e-13
    outer loop
      vertex   3.610000e+01 3.846000e+02 2.065048e+02
      vertex   3.650000e+01 3.846000e+02 2.082552e+02
      vertex   3.610000e+01 3.846000e+02 2.082552e+02
    endloop
  endfacet
  facet normal 0.000000e+00 7.682213e-01 6.401844e-01
    outer loop
      vertex   3.650000e+01 3.830768e+02 2.083327e+02
      vertex   3.650000e+01 3.846000e+02 2.065048e+02
      vertex   3.610000e+01 3.830768e+02 2.083327e+02
    endloop
  endfacet
  facet normal 0.000000e+00 7.682213e-01 6.401844e-01
    outer loop
      vertex   3.610000e+01 3.830768e+02 2.083327e+02
      vertex   3.650000e+01 3.846000e+02 2.065048e+02
      vertex   3.610000e+01 3.846000e+02 2.065048e+02
    endloop
  endfacet
  facet normal 0.000000e+00 1.000000e+00 3.247527e-14
    outer loop
      vertex   3.650000e+01 3.830768e+02 2.100831e+02
      vertex   3.650000e+01 3.830768e+02 2.083327e+02
      vertex   3.610000e+01 3.830768e+02 2.100831e+02
    endloop
  endfacet
  facet normal 0.000000e+00 1.000000e+00 3.247527e-14
    outer loop
      vertex   3.610000e+01 3.830768e+02 2.100831e+02
      vertex   3.650000e+01 3.830768e+02 2.083327e+02
      vertex   3.610000e+01 3.830768e+02 2.083327e+02
    endloop
  endfacet
  facet normal 0.000000e+00 1.000000e+00 0.000000e+00
    outer loop
      vertex   3.650000e+01 3.806478e+02 2.129978e+02
      vertex   3.650000e+01 3.806478e+02 2.112474e+02
      vertex   3.610000e+01 3.806478e+02 2.129978e+02
    endloop
  endfacet
  facet normal 0.000000e+00 1.000000e+00 0.000000e+00
    outer loop
      vertex   3.610000e+01 3.806478e+02 2.129978e+02
      vertex   3.650000e+01 3.806478e+02 2.112474e+02
      vertex   3.610000e+01 3.806478e+02 2.112474e+02
    endloop
  endfacet
  facet normal -0.000000e+00 -7.682213e-01 -6.401844e-01
    outer loop
      vertex   3.650000e+01 3.826768e+02 2.105631e+02
      vertex   3.650000e+01 3.806478e+02 2.129978e+02
      vertex   3.610000e+01 3.826768e+02 2.105631e+02
    endloop
  endfacet
  facet normal 0.000000e+00 -7.682213e-01 -6.401844e-01
    outer loop
      vertex   3.610000e+01 3.826768e+02 2.105631e+02
      vertex   3.650000e+01 3.806478e+02 2.129978e+02
      vertex   3.610000e+01 3.806478e+02 2.129978e+02
    endloop
  endfacet
  facet normal -0.000000e+00 -1.000000e+00 -3.247527e-14
    outer loop
      vertex   3.650000e+01 3.826768e+02 2.088127e+02
      vertex   3.650000e+01 3.826768e+02 2.105631e+02
      vertex   3.610000e+01 3.826768e+02 2.088127e+02
    endloop
  endfacet
  facet normal 0.000000e+00 -1.000000e+00 -3.247527e-14
    outer loop
      vertex   3.610000e+01 3.826768e+02 2.088127e+02
      vertex   3.650000e+01 3.826768e+02 2.105631e+02
      vertex   3.610000e+01 3.826768e+02 2.105631e+02
    endloop
  endfacet
  facet normal 0.000000e+00 7.682213e-01 6.401844e-01
    outer loop
      vertex   3.650000e+01 3.806478e+02 2.112474e+02
      vertex   3.650000e+01 3.826768e+02 2.088127e+02
      vertex   3.610000e+01 3.806478e+02 2.112474e+02
    endloop
  endfacet
  facet normal 0.000000e+00 7.682213e-01 6.401844e-01
    outer loop
      vertex   3.610000e+01 3.806478e+02 2.112474e+02
      vertex   3.650000e+01 3.826768e+02 2.088127e+02
      vertex   3.610000e+01 3.826768e+02 2.088127e+02
    endloop
  endfacet
  facet normal 0.000000e+00 -1.000000e+00 0.000000e+00
    outer loop
      vertex   3.650000e+01 3.771000e+02 2.110000e+02
      vertex   3.650000e+01 3.771000e+02 2.174000e+02
      vertex   3.610000e+01 3.771000e+02 2.110000e+02
    endloop
  endfacet
  facet normal 0.000000e+00 -1.000000e+00 0.000000e+00
    outer loop
      vertex   3.610000e+01 3.771000e+02 2.110000e+02
      vertex   3.650000e+01 3.771000e+02 2.174000e+02
      vertex   3.610000e+01 3.771000e+02 2.174000e+02
    endloop
  endfacet
  facet normal -0.000000e+00 -3.352697e-07 -1.000000e+00
    outer loop
      vertex   3.650000e+01 3.775000e+02 2.110000e+02
      vertex   3.650000e+01 3.771000e+02 2.110000e+02
      vertex   3.610000e+01 3.775000e+02 2.110000e+02
    endloop
  endfacet
  facet normal 0.000000e+00 -3.352697e-07 -1.000000e+00
    outer loop
      vertex   3.610000e+01 3.775000e+02 2.110000e+02
      vertex   3.650000e+01 3.771000e+02 2.110000e+02
      vertex   3.610000e+01 3.771000e+02 2.110000e+02
    endloop
  endfacet
  facet normal 0.000000e+00 1.000000e+00 0.000000e+00
    outer loop
      vertex   3.650000e+01 3.775000e+02 2.144000e+02
      vertex   3.650000e+01 3.775000e+02 2.110000e+02
      vertex   3.610000e+01 3.775000e+02 2.144000e+02
    endloop
  endfacet
  facet normal 0.000000e+00 1.000000e+00 0.000000e+00
    outer loop
      vertex   3.610000e+01 3.775000e+02 2.144000e+02
      vertex   3.650000e+01 3.775000e+02 2.110000e+02
      vertex   3.610000e+01 3.775000e+02 2.110000e+02
    endloop
  endfacet
  facet normal -0.000000e+00 -7.682213e-01 -6.401844e-01
    outer loop
      vertex   3.650000e+01 3.802478e+02 2.111026e+02
      vertex   3.650000e+01 3.775000e+02 2.144000e+02
      vertex   3.610000e+01 3.802478e+02 2.111026e+02
    endloop
  endfacet
  facet normal 0.000000e+00 -7.682213e-01 -6.401844e-01
    outer loop
      vertex   3.610000e+01 3.802478e+02 2.111026e+02
      vertex   3.650000e+01 3.775000e+02 2.144000e+02
      vertex   3.610000e+01 3.775000e+02 2.144000e+02
    endloop
  endfacet
  facet normal -0.000000e+00 -1.000000e+00 -1.671865e-14
    outer loop
      vertex   3.650000e+01 3.802478e+02 2.077026e+02
      vertex   3.650000e+01 3.802478e+02 2.111026e+02
      vertex   3.610000e+01 3.802478e+02 2.077026e+02
    endloop
  endfacet
  facet normal 0.000000e+00 -1.000000e+00 -1.671865e-14
    outer loop
      vertex   3.610000e+01 3.802478e+02 2.077026e+02
      vertex   3.650000e+01 3.802478e+02 2.111026e+02
      vertex   3.610000e+01 3.802478e+02 2.111026e+02
    endloop
  endfacet
  facet normal -0.000000e+00 -7.682213e-01 -6.401844e-01
    outer loop
      vertex   3.650000e+01 3.806478e+02 2.072226e+02
      vertex   3.650000e+01 3.802478e+02 2.077026e+02
      vertex   3.610000e+01 3.806478e+02 2.072226e+02
    endloop
  endfacet
  facet normal 0.000000e+00 -7.682213e-01 -6.401844e-01
    outer loop
      vertex   3.610000e+01 3.806478e+02 2.072226e+02
      vertex   3.650000e+01 3.802478e+02 2.077026e+02
      vertex   3.610000e+01 3.802478e+02 2.077026e+02
    endloop
  endfacet
  facet normal 0.000000e+00 1.000000e+00 1.671865e-14
    outer loop
      vertex   3.650000e+01 3.806478e+02 2.106226e+02
      vertex   3.650000e+01 3.806478e+02 2.072226e+02
      vertex   3.610000e+01 3.806478e+02 2.106226e+02
    endloop
  endfacet
  facet normal 0.000000e+00 1.000000e+00 1.671865e-14
    outer loop
      vertex   3.610000e+01 3.806478e+02 2.106226e+02
      vertex   3.650000e+01 3.806478e+02 2.072226e+02
      vertex   3.610000e+01 3.806478e+02 2.072226e+02
    endloop
  endfacet
  facet normal -0.000000e+00 -7.682213e-01 -6.401844e-01
    outer loop
      vertex   3.650000e+01 3.826768e+02 2.081879e+02
      vertex   3.650000e+01 3.806478e+02 2.106226e+02
      vertex   3.610000e+01 3.826768e+02 2.081879e+02
    endloop
  endfacet
  facet normal 0.000000e+00 -7.682213e-01 -6.401844e-01
    outer loop
      vertex   3.610000e+01 3.826768e+02 2.081879e+02
      vertex   3.650000e+01 3.806478e+02 2.106226e+02
      vertex   3.610000e+01 3.806478e+02 2.106226e+02
    endloop
  endfacet
  facet normal 0.000000e+00 -1.000000e+00 0.000000e+00
    outer loop
      vertex   3.650000e+01 3.826768e+02 2.047879e+02
      vertex   3.650000e+01 3.826768e+02 2.081879e+02
      vertex   3.610000e+01 3.826768e+02 2.047879e+02
    endloop
  endfacet
  facet normal 0.000000e+00 -1.000000e+00 0.000000e+00
    outer loop
      vertex   3.610000e+01 3.826768e+02 2.047879e+02
      vertex   3.650000e+01 3.826768e+02 2.081879e+02
      vertex   3.610000e+01 3.826768e+02 2.081879e+02
    endloop
  endfacet
  facet normal -0.000000e+00 -7.682213e-01 -6.401844e-01
    outer loop
      vertex   3.650000e+01 3.830768e+02 2.043079e+02
      vertex   3.650000e+01 3.826768e+02 2.047879e+02
      vertex   3.610000e+01 3.830768e+02 2.043079e+02
    endloop
  endfacet
  facet normal 0.000000e+00 -7.682213e-01 -6.401844e-01
    outer loop
      vertex   3.610000e+01 3.830768e+02 2.043079e+02
      vertex   3.650000e+01 3.826768e+02 2.047879e+02
      vertex   3.610000e+01 3.826768e+02 2.047879e+02
    endloop
  endfacet
  facet normal 0.000000e+00 1.000000e+00 0.000000e+00
    outer loop
      vertex   3.650000e+01 3.830768e+02 2.077079e+02
      vertex   3.650000e+01 3.830768e+02 2.043079e+02
      vertex   3.610000e+01 3.830768e+02 2.077079e+02
    endloop
  endfacet
  facet normal 0.000000e+00 1.000000e+00 0.000000e+00
    outer loop
      vertex   3.610000e+01 3.830768e+02 2.077079e+02
      vertex   3.650000e+01 3.830768e+02 2.043079e+02
      vertex   3.610000e+01 3.830768e+02 2.043079e+02
    endloop
  endfacet
  facet normal -0.000000e+00 -7.682213e-01 -6.401844e-01
    outer loop
      vertex   3.650000e+01 3.846000e+02 2.058800e+02
      vertex   3.650000e+01 3.830768e+02 2.077079e+02
      vertex   3.610000e+01 3.846000e+02 2.058800e+02
    endloop
  endfacet
  facet normal 0.000000e+00 -7.682213e-01 -6.401844e-01
    outer loop
      vertex   3.610000e+01 3.846000e+02 2.058800e+02
      vertex   3.650000e+01 3.830768e+02 2.077079e+02
      vertex   3.610000e+01 3.830768e+02 2.077079e+02
    endloop
  endfacet
  facet normal 0.000000e+00 -1.000000e+00 1.504679e-13
    outer loop
      vertex   3.650000e+01 3.846000e+02 2.024800e+02
      vertex   3.650000e+01 3.846000e+02 2.058800e+02
      vertex   3.610000e+01 3.846000e+02 2.024800e+02
    endloop
  endfacet
  facet normal 0.000000e+00 -1.000000e+00 1.504679e-13
    outer loop
      vertex   3.610000e+01 3.846000e+02 2.024800e+02
      vertex   3.650000e+01 3.846000e+02 2.058800e+02
      vertex   3.610000e+01 3.846000e+02 2.058800e+02
    endloop
  endfacet
  facet normal -0.000000e+00 -7.682213e-01 -6.401844e-01
    outer loop
      vertex   3.650000e+01 3.850000e+02 2.020000e+02
      vertex   3.650000e+01 3.846000e+02 2.024800e+02
      vertex   3.610000e+01 3.850000e+02 2.020000e+02
    endloop
  endfacet
  facet normal 0.000000e+00 -7.682213e-01 -6.401844e-01
    outer loop
      vertex   3.610000e+01 3.850000e+02 2.020000e+02
      vertex   3.650000e+01 3.846000e+02 2.024800e+02
      vertex   3.610000e+01 3.846000e+02 2.024800e+02
    endloop
  endfacet
  facet normal -0.000000e+00 7.682213e-01 6.401844e-01
    outer loop
      vertex   3.610000e+01 3.844669e+02 2.090397e+02
      vertex   3.610000e+01 3.777978e+02 2.170427e+02
      vertex   3.650000e+01 3.844669e+02 2.090397e+02
    endloop
  endfacet
  facet normal 0.000000e+00 7.682213e-01 6.401844e-01
    outer loop
      vertex   3.650000e+01 3.844669e+02 2.090397e+02
      vertex   3.610000e+01 3.777978e+02 2.170427e+02
      vertex   3.650000e+01 3.777978e+02 2.170427e+02
    endloop
  endfacet
  facet normal -1.000000e+00 -0.000000e+00 -0.000000e+00
    outer loop
      vertex   3.610000e+01 3.845430e+02 2.089432e+02
      vertex   3.610000e+01 3.846000e+02 2.082552e+02
      vertex   3.610000e+01 3.844669e+02 2.090397e+02
    endloop
  endfacet
  facet normal -1.000000e+00 -0.000000e+00 -0.000000e+00
    outer loop
      vertex   3.610000e+01 3.844669e+02 2.090397e+02
      vertex   3.610000e+01 3.846000e+02 2.082552e+02
      vertex   3.610000e+01 3.830768e+02 2.100831e+02
    endloop
  endfacet
  facet normal -1.000000e+00 0.000000e+00 0.000000e+00
    outer loop
      vertex   3.610000e+01 3.844669e+02 2.090397e+02
      vertex   3.610000e+01 3.830768e+02 2.100831e+02
      vertex   3.610000e+01 3.826768e+02 2.105631e+02
    endloop
  endfacet
  facet normal -1.000000e+00 0.000000e+00 0.000000e+00
    outer loop
      vertex   3.610000e+01 3.826768e+02 2.105631e+02
      vertex   3.610000e+01 3.830768e+02 2.100831e+02
      vertex   3.610000e+01 3.826768e+02 2.088127e+02
    endloop
  endfacet
  facet normal -1.000000e+00 0.000000e+00 0.000000e+00
    outer loop
      vertex   3.610000e+01 3.826768e+02 2.088127e+02
      vertex   3.610000e+01 3.830768e+02 2.100831e+02
      vertex   3.610000e+01 3.830768e+02 2.083327e+02
    endloop
  endfacet
  facet normal -1.000000e+00 1.364635e-14 1.137196e-14
    outer loop
      vertex   3.610000e+01 3.826768e+02 2.088127e+02
      vertex   3.610000e+01 3.830768e+02 2.083327e+02
      vertex   3.610000e+01 3.826768e+02 2.081879e+02
    endloop
  endfacet
  facet normal -1.000000e+00 1.364635e-14 1.137196e-14
    outer loop
      vertex   3.610000e+01 3.826768e+02 2.081879e+02
      vertex   3.610000e+01 3.830768e+02 2.083327e+02
      vertex   3.610000e+01 3.830768e+02 2.077079e+02
    endloop
  endfacet
  facet normal -1.000000e+00 2.507798e-15 2.089832e-15
    outer loop
      vertex   3.610000e+01 3.826768e+02 2.081879e+02
      vertex   3.610000e+01 3.830768e+02 2.077079e+02
      vertex   3.610000e+01 3.826768e+02 2.047879e+02
    endloop
  endfacet
  facet normal -1.000000e+00 2.507798e-15 2.089832e-15
    outer loop
      vertex   3.610000e+01 3.826768e+02 2.047879e+02
      vertex   3.610000e+01 3.830768e+02 2.077079e+02
      vertex   3.610000e+01 3.830768e+02 2.043079e+02
    endloop
  endfacet
  facet normal -1.000000e+00 0.000000e+00 0.000000e+00
    outer loop
      vertex   3.610000e+01 3.845430e+02 2.089432e+02
      vertex   3.610000e+01 3.846139e+02 2.088428e+02
      vertex   3.610000e+01 3.846000e+02 2.082552e+02
    endloop
  endfacet
  facet normal -1.000000e+00 0.000000e+00 0.000000e+00
    outer loop
      vertex   3.610000e+01 3.846000e+02 2.082552e+02
      vertex   3.610000e+01 3.846139e+02 2.088428e+02
      vertex   3.610000e+01 3.846793e+02 2.087388e+02
    endloop
  endfacet
  facet normal -1.000000e+00 0.000000e+00 0.000000e+00
    outer loop
      vertex   3.610000e+01 3.846000e+02 2.082552e+02
      vertex   3.610000e+01 3.846793e+02 2.087388e+02
      vertex   3.610000e+01 3.847391e+02 2.086314e+02
    endloop
  endfacet
  facet normal -1.000000e+00 0.000000e+00 -0.000000e+00
    outer loop
      vertex   3.610000e+01 3.847391e+02 2.086314e+02
      vertex   3.610000e+01 3.847930e+02 2.085209e+02
      vertex   3.610000e+01 3.846000e+02 2.082552e+02
    endloop
  endfacet
  facet normal -1.000000e+00 0.000000e+00 0.000000e+00
    outer loop
      vertex   3.610000e+01 3.846000e+02 2.082552e+02
      vertex   3.610000e+01 3.847930e+02 2.085209e+02
      vertex   3.610000e+01 3.848409e+02 2.084078e+02
    endloop
  endfacet
  facet normal -1.000000e+00 0.000000e+00 0.000000e+00
    outer loop
      vertex   3.610000e+01 3.846000e+02 2.082552e+02
      vertex   3.610000e+01 3.848409e+02 2.084078e+02
      vertex   3.610000e+01 3.848828e+02 2.082922e+02
    endloop
  endfacet
  facet normal -1.000000e+00 0.000000e+00 -0.000000e+00
    outer loop
      vertex   3.610000e+01 3.848828e+02 2.082922e+02
      vertex   3.610000e+01 3.849184e+02 2.081746e+02
      vertex   3.610000e+01 3.846000e+02 2.082552e+02
    endloop
  endfacet
  facet normal -1.000000e+00 0.000000e+00 0.000000e+00
    outer loop
      vertex   3.610000e+01 3.846000e+02 2.082552e+02
      vertex   3.610000e+01 3.849184e+02 2.081746e+02
      vertex   3.610000e+01 3.849477e+02 2.080552e+02
    endloop
  endfacet
  facet normal -1.000000e+00 0.000000e+00 0.000000e+00
    outer loop
      vertex   3.610000e+01 3.846000e+02 2.082552e+02
      vertex   3.610000e+01 3.849477e+02 2.080552e+02
      vertex   3.610000e+01 3.849705e+02 2.079345e+02
    endloop
  endfacet
  facet normal -1.000000e+00 -0.000000e+00 -0.000000e+00
    outer loop
      vertex   3.610000e+01 3.849705e+02 2.079345e+02
      vertex   3.610000e+01 3.849869e+02 2.078127e+02
      vertex   3.610000e+01 3.846000e+02 2.082552e+02
    endloop
  endfacet
  facet normal -1.000000e+00 0.000000e+00 0.000000e+00
    outer loop
      vertex   3.610000e+01 3.846000e+02 2.082552e+02
      vertex   3.610000e+01 3.849869e+02 2.078127e+02
      vertex   3.610000e+01 3.849967e+02 2.076901e+02
    endloop
  endfacet
  facet normal -1.000000e+00 8.563357e-14 6.012380e-14
    outer loop
      vertex   3.610000e+01 3.846000e+02 2.082552e+02
      vertex   3.610000e+01 3.849967e+02 2.076901e+02
      vertex   3.610000e+01 3.850000e+02 2.075673e+02
    endloop
  endfacet
  facet normal -1.000000e+00 1.612677e-15 3.828847e-15
    outer loop
      vertex   3.610000e+01 3.850000e+02 2.020000e+02
      vertex   3.610000e+01 3.846000e+02 2.058800e+02
      vertex   3.610000e+01 3.850000e+02 2.075673e+02
    endloop
  endfacet
  facet normal -1.000000e+00 1.776357e-14 -1.616053e-27
    outer loop
      vertex   3.610000e+01 3.850000e+02 2.075673e+02
      vertex   3.610000e+01 3.846000e+02 2.058800e+02
      vertex   3.610000e+01 3.846000e+02 2.065048e+02
    endloop
  endfacet
  facet normal -1.000000e+00 -3.801335e-15 8.118818e-15
    outer loop
      vertex   3.610000e+01 3.850000e+02 2.075673e+02
      vertex   3.610000e+01 3.846000e+02 2.065048e+02
      vertex   3.610000e+01 3.846000e+02 2.082552e+02
    endloop
  endfacet
  facet normal -1.000000e+00 -1.525577e-14 2.089832e-15
    outer loop
      vertex   3.610000e+01 3.850000e+02 2.020000e+02
      vertex   3.610000e+01 3.846000e+02 2.024800e+02
      vertex   3.610000e+01 3.846000e+02 2.058800e+02
    endloop
  endfacet
  facet normal -1.000000e+00 -4.664716e-15 4.243757e-28
    outer loop
      vertex   3.610000e+01 3.846000e+02 2.058800e+02
      vertex   3.610000e+01 3.830768e+02 2.077079e+02
      vertex   3.610000e+01 3.846000e+02 2.065048e+02
    endloop
  endfacet
  facet normal -1.000000e+00 4.316920e-15 1.137196e-14
    outer loop
      vertex   3.610000e+01 3.846000e+02 2.065048e+02
      vertex   3.610000e+01 3.830768e+02 2.077079e+02
      vertex   3.610000e+01 3.830768e+02 2.083327e+02
    endloop
  endfacet
  facet normal -1.000000e+00 1.014434e-14 1.137196e-14
    outer loop
      vertex   3.610000e+01 3.826768e+02 2.081879e+02
      vertex   3.610000e+01 3.806478e+02 2.106226e+02
      vertex   3.610000e+01 3.826768e+02 2.088127e+02
    endloop
  endfacet
  facet normal -1.000000e+00 0.000000e+00 0.000000e+00
    outer loop
      vertex   3.610000e+01 3.826768e+02 2.088127e+02
      vertex   3.610000e+01 3.806478e+02 2.106226e+02
      vertex   3.610000e+01 3.806478e+02 2.112474e+02
    endloop
  endfacet
  facet normal -1.000000e+00 0.000000e+00 -0.000000e+00
    outer loop
      vertex   3.610000e+01 3.806478e+02 2.112474e+02
      vertex   3.610000e+01 3.806478e+02 2.106226e+02
      vertex   3.610000e+01 3.802478e+02 2.111026e+02
    endloop
  endfacet
  facet normal -1.000000e+00 -4.117217e-15 1.137196e-14
    outer loop
      vertex   3.610000e+01 3.806478e+02 2.112474e+02
      vertex   3.610000e+01 3.802478e+02 2.111026e+02
      vertex   3.610000e+01 3.802478e+02 2.117274e+02
    endloop
  endfacet
  facet normal -1.000000e+00 8.474662e-15 1.137196e-14
    outer loop
      vertex   3.610000e+01 3.802478e+02 2.117274e+02
      vertex   3.610000e+01 3.802478e+02 2.111026e+02
      vertex   3.610000e+01 3.775000e+02 2.144000e+02
    endloop
  endfacet
  facet normal -1.000000e+00 -2.585844e-15 0.000000e+00
    outer loop
      vertex   3.610000e+01 3.802478e+02 2.117274e+02
      vertex   3.610000e+01 3.775000e+02 2.144000e+02
      vertex   3.610000e+01 3.775000e+02 2.150248e+02
    endloop
  endfacet
  facet normal -1.000000e+00 -1.776357e-14 -0.000000e+00
    outer loop
      vertex   3.610000e+01 3.775000e+02 2.150248e+02
      vertex   3.610000e+01 3.775000e+02 2.144000e+02
      vertex   3.610000e+01 3.771000e+02 2.174000e+02
    endloop
  endfacet
  facet normal -1.000000e+00 6.340999e-15 4.059409e-15
    outer loop
      vertex   3.610000e+01 3.775000e+02 2.150248e+02
      vertex   3.610000e+01 3.771000e+02 2.174000e+02
      vertex   3.610000e+01 3.775000e+02 2.167752e+02
    endloop
  endfacet
  facet normal -1.000000e+00 -2.867397e-13 -1.835663e-13
    outer loop
      vertex   3.610000e+01 3.775000e+02 2.167752e+02
      vertex   3.610000e+01 3.771000e+02 2.174000e+02
      vertex   3.610000e+01 3.771800e+02 2.173911e+02
    endloop
  endfacet
  facet normal -1.000000e+00 -7.454081e-15 -3.848133e-14
    outer loop
      vertex   3.610000e+01 3.775000e+02 2.167752e+02
      vertex   3.610000e+01 3.771800e+02 2.173911e+02
      vertex   3.610000e+01 3.772591e+02 2.173758e+02
    endloop
  endfacet
  facet normal -1.000000e+00 2.507798e-15 2.089832e-15
    outer loop
      vertex   3.610000e+01 3.806478e+02 2.072226e+02
      vertex   3.610000e+01 3.802478e+02 2.077026e+02
      vertex   3.610000e+01 3.806478e+02 2.106226e+02
    endloop
  endfacet
  facet normal -1.000000e+00 2.507798e-15 2.089832e-15
    outer loop
      vertex   3.610000e+01 3.806478e+02 2.106226e+02
      vertex   3.610000e+01 3.802478e+02 2.077026e+02
      vertex   3.610000e+01 3.802478e+02 2.111026e+02
    endloop
  endfacet
  facet normal -1.000000e+00 1.401314e-21 4.179663e-15
    outer loop
      vertex   3.610000e+01 3.775000e+02 2.110000e+02
      vertex   3.610000e+01 3.771000e+02 2.110000e+02
      vertex   3.610000e+01 3.775000e+02 2.144000e+02
    endloop
  endfacet
  facet normal -1.000000e+00 7.216450e-15 3.330669e-15
    outer loop
      vertex   3.610000e+01 3.775000e+02 2.144000e+02
      vertex   3.610000e+01 3.771000e+02 2.110000e+02
      vertex   3.610000e+01 3.771000e+02 2.174000e+02
    endloop
  endfacet
  facet normal -1.000000e+00 -1.114070e-14 -3.996000e-14
    outer loop
      vertex   3.610000e+01 3.772591e+02 2.173758e+02
      vertex   3.610000e+01 3.773367e+02 2.173542e+02
      vertex   3.610000e+01 3.775000e+02 2.167752e+02
    endloop
  endfacet
  facet normal -1.000000e+00 -1.510923e-14 -4.107947e-14
    outer loop
      vertex   3.610000e+01 3.775000e+02 2.167752e+02
      vertex   3.610000e+01 3.773367e+02 2.173542e+02
      vertex   3.610000e+01 3.774123e+02 2.173264e+02
    endloop
  endfacet
  facet normal -1.000000e+00 -1.929763e-14 -4.174619e-14
    outer loop
      vertex   3.610000e+01 3.775000e+02 2.167752e+02
      vertex   3.610000e+01 3.774123e+02 2.173264e+02
      vertex   3.610000e+01 3.774854e+02 2.172926e+02
    endloop
  endfacet
  facet normal -1.000000e+00 -2.361542e-14 -4.186834e-14
    outer loop
      vertex   3.610000e+01 3.774854e+02 2.172926e+02
      vertex   3.610000e+01 3.775555e+02 2.172530e+02
      vertex   3.610000e+01 3.775000e+02 2.167752e+02
    endloop
  endfacet
  facet normal -1.000000e+00 -2.794367e-14 -4.136552e-14
    outer loop
      vertex   3.610000e+01 3.775000e+02 2.167752e+02
      vertex   3.610000e+01 3.775555e+02 2.172530e+02
      vertex   3.610000e+01 3.776222e+02 2.172079e+02
    endloop
  endfacet
  facet normal -1.000000e+00 -3.213949e-14 -4.018026e-14
    outer loop
      vertex   3.610000e+01 3.775000e+02 2.167752e+02
      vertex   3.610000e+01 3.776222e+02 2.172079e+02
      vertex   3.610000e+01 3.776851e+02 2.171576e+02
    endloop
  endfacet
  facet normal -1.000000e+00 -3.604569e-14 -3.828930e-14
    outer loop
      vertex   3.610000e+01 3.776851e+02 2.171576e+02
      vertex   3.610000e+01 3.777438e+02 2.171024e+02
      vertex   3.610000e+01 3.775000e+02 2.167752e+02
    endloop
  endfacet
  facet normal -1.000000e+00 1.768814e-13 -1.969094e-13
    outer loop
      vertex   3.610000e+01 3.775000e+02 2.167752e+02
      vertex   3.610000e+01 3.777438e+02 2.171024e+02
      vertex   3.610000e+01 3.777978e+02 2.170427e+02
    endloop
  endfacet
  facet normal -1.000000e+00 -1.107014e-15 1.232359e-15
    outer loop
      vertex   3.610000e+01 3.775000e+02 2.167752e+02
      vertex   3.610000e+01 3.777978e+02 2.170427e+02
      vertex   3.610000e+01 3.802478e+02 2.134778e+02
    endloop
  endfacet
  facet normal -1.000000e+00 -8.770251e-14 -5.828246e-14
    outer loop
      vertex   3.610000e+01 3.802478e+02 2.134778e+02
      vertex   3.610000e+01 3.777978e+02 2.170427e+02
      vertex   3.610000e+01 3.806478e+02 2.129978e+02
    endloop
  endfacet
  facet normal -1.000000e+00 -1.289228e-14 4.059409e-15
    outer loop
      vertex   3.610000e+01 3.802478e+02 2.134778e+02
      vertex   3.610000e+01 3.806478e+02 2.129978e+02
      vertex   3.610000e+01 3.802478e+02 2.117274e+02
    endloop
  endfacet
  facet normal -1.000000e+00 -1.289228e-14 4.059409e-15
    outer loop
      vertex   3.610000e+01 3.802478e+02 2.117274e+02
      vertex   3.610000e+01 3.806478e+02 2.129978e+02
      vertex   3.610000e+01 3.806478e+02 2.112474e+02
    endloop
  endfacet
  facet normal -1.000000e+00 6.601218e-15 8.164565e-15
    outer loop
      vertex   3.610000e+01 3.777978e+02 2.170427e+02
      vertex   3.610000e+01 3.844669e+02 2.090397e+02
      vertex   3.610000e+01 3.806478e+02 2.129978e+02
    endloop
  endfacet
  facet normal -1.000000e+00 8.538098e-15 1.003343e-14
    outer loop
      vertex   3.610000e+01 3.806478e+02 2.129978e+02
      vertex   3.610000e+01 3.844669e+02 2.090397e+02
      vertex   3.610000e+01 3.826768e+02 2.105631e+02
    endloop
  endfacet
endsolid
