solid ASCII
  facet normal -1.343578e-16 9.999888e-01 4.727294e-03
    outer loop
      vertex   -1.000000e+02 6.187009e+02 6.536929e+01
      vertex   -1.000000e+02 6.184645e+02 1.153687e+02
      vertex   -9.950000e+01 6.187009e+02 6.536929e+01
    endloop
  endfacet
  facet normal 0.000000e+00 9.999888e-01 4.727294e-03
    outer loop
      vertex   -9.950000e+01 6.187009e+02 6.536929e+01
      vertex   -1.000000e+02 6.184645e+02 1.153687e+02
      vertex   -9.950000e+01 6.184645e+02 1.153687e+02
    endloop
  endfacet
  facet normal 0.000000e+00 -4.727294e-03 9.999888e-01
    outer loop
      vertex   -1.000000e+02 6.184645e+02 1.153687e+02
      vertex   -1.000000e+02 5.841880e+02 1.152067e+02
      vertex   -9.950000e+01 6.184645e+02 1.153687e+02
    endloop
  endfacet
  facet normal 0.000000e+00 -4.727294e-03 9.999888e-01
    outer loop
      vertex   -9.950000e+01 6.184645e+02 1.153687e+02
      vertex   -1.000000e+02 5.841880e+02 1.152067e+02
      vertex   -9.950000e+01 5.841880e+02 1.152067e+02
    endloop
  endfacet
  facet normal 0.000000e+00 -9.999888e-01 -4.727294e-03
    outer loop
      vertex   -1.000000e+02 5.841880e+02 1.152067e+02
      vertex   -1.000000e+02 5.842280e+02 1.067484e+02
      vertex   -9.950000e+01 5.841880e+02 1.152067e+02
    endloop
  endfacet
  facet normal 0.000000e+00 -9.999888e-01 -4.727294e-03
    outer loop
      vertex   -9.950000e+01 5.841880e+02 1.152067e+02
      vertex   -1.000000e+02 5.842280e+02 1.067484e+02
      vertex   -9.950000e+01 5.842280e+02 1.067484e+02
    endloop
  endfacet
  facet normal 0.000000e+00 4.727294e-03 -9.999888e-01
    outer loop
      vertex   -1.000000e+02 5.842280e+02 1.067484e+02
      vertex   -1.000000e+02 6.084091e+02 1.068627e+02
      vertex   -9.950000e+01 5.842280e+02 1.067484e+02
    endloop
  endfacet
  facet normal 0.000000e+00 4.727294e-03 -9.999888e-01
    outer loop
      vertex   -9.950000e+01 5.842280e+02 1.067484e+02
      vertex   -1.000000e+02 6.084091e+02 1.068627e+02
      vertex   -9.950000e+01 6.084091e+02 1.068627e+02
    endloop
  endfacet
  facet normal 0.000000e+00 -9.999888e-01 -4.727294e-03
    outer loop
      vertex   -1.000000e+02 6.084091e+02 1.068627e+02
      vertex   -1.000000e+02 6.084651e+02 9.502792e+01
      vertex   -9.950000e+01 6.084091e+02 1.068627e+02
    endloop
  endfacet
  facet normal 0.000000e+00 -9.999888e-01 -4.727294e-03
    outer loop
      vertex   -9.950000e+01 6.084091e+02 1.068627e+02
      vertex   -1.000000e+02 6.084651e+02 9.502792e+01
      vertex   -9.950000e+01 6.084651e+02 9.502792e+01
    endloop
  endfacet
  facet normal 0.000000e+00 -4.727294e-03 9.999888e-01
    outer loop
      vertex   -1.000000e+02 6.084651e+02 9.502792e+01
      vertex   -1.000000e+02 5.875922e+02 9.492924e+01
      vertex   -9.950000e+01 6.084651e+02 9.502792e+01
    endloop
  endfacet
  facet normal 0.000000e+00 -4.727294e-03 9.999888e-01
    outer loop
      vertex   -9.950000e+01 6.084651e+02 9.502792e+01
      vertex   -1.000000e+02 5.875922e+02 9.492924e+01
      vertex   -9.950000e+01 5.875922e+02 9.492924e+01
    endloop
  endfacet
  facet normal 0.000000e+00 -9.999888e-01 -4.727294e-03
    outer loop
      vertex   -1.000000e+02 5.875922e+02 9.492924e+01
      vertex   -1.000000e+02 5.876322e+02 8.647095e+01
      vertex   -9.950000e+01 5.875922e+02 9.492924e+01
    endloop
  endfacet
  facet normal 0.000000e+00 -9.999888e-01 -4.727294e-03
    outer loop
      vertex   -9.950000e+01 5.875922e+02 9.492924e+01
      vertex   -1.000000e+02 5.876322e+02 8.647095e+01
      vertex   -9.950000e+01 5.876322e+02 8.647095e+01
    endloop
  endfacet
  facet normal 0.000000e+00 4.727294e-03 -9.999888e-01
    outer loop
      vertex   -1.000000e+02 5.876322e+02 8.647095e+01
      vertex   -1.000000e+02 6.085051e+02 8.656962e+01
      vertex   -9.950000e+01 5.876322e+02 8.647095e+01
    endloop
  endfacet
  facet normal 0.000000e+00 4.727294e-03 -9.999888e-01
    outer loop
      vertex   -9.950000e+01 5.876322e+02 8.647095e+01
      vertex   -1.000000e+02 6.085051e+02 8.656962e+01
      vertex   -9.950000e+01 6.085051e+02 8.656962e+01
    endloop
  endfacet
  facet normal 0.000000e+00 -9.999888e-01 -4.727294e-03
    outer loop
      vertex   -1.000000e+02 6.085051e+02 8.656962e+01
      vertex   -1.000000e+02 6.086055e+02 6.532157e+01
      vertex   -9.950000e+01 6.085051e+02 8.656962e+01
    endloop
  endfacet
  facet normal 1.254000e-16 -9.999888e-01 -4.727294e-03
    outer loop
      vertex   -9.950000e+01 6.085051e+02 8.656962e+01
      vertex   -1.000000e+02 6.086055e+02 6.532157e+01
      vertex   -9.950000e+01 6.086055e+02 6.532157e+01
    endloop
  endfacet
  facet normal 2.842139e-14 4.727294e-03 -9.999888e-01
    outer loop
      vertex   -1.000000e+02 6.086055e+02 6.532157e+01
      vertex   -1.000000e+02 6.187009e+02 6.536929e+01
      vertex   -9.950000e+01 6.086055e+02 6.532157e+01
    endloop
  endfacet
  facet normal 2.841681e-14 4.727294e-03 -9.999888e-01
    outer loop
      vertex   -9.950000e+01 6.086055e+02 6.532157e+01
      vertex   -1.000000e+02 6.187009e+02 6.536929e+01
      vertex   -9.950000e+01 6.187009e+02 6.536929e+01
    endloop
  endfacet
  facet normal 1.000000e+00 -1.896968e-17 4.012754e-15
    outer loop
      vertex   -9.950000e+01 6.086055e+02 6.532157e+01
      vertex   -9.950000e+01 6.187009e+02 6.536929e+01
      vertex   -9.950000e+01 6.085051e+02 8.656962e+01
    endloop
  endfacet
  facet normal 1.000000e+00 -2.477265e-15 2.830492e-15
    outer loop
      vertex   -9.950000e+01 6.085051e+02 8.656962e+01
      vertex   -9.950000e+01 6.187009e+02 6.536929e+01
      vertex   -9.950000e+01 6.184645e+02 1.153687e+02
    endloop
  endfacet
  facet normal 1.000000e+00 -3.954973e-15 3.341521e-15
    outer loop
      vertex   -9.950000e+01 6.085051e+02 8.656962e+01
      vertex   -9.950000e+01 6.184645e+02 1.153687e+02
      vertex   -9.950000e+01 6.084651e+02 9.502792e+01
    endloop
  endfacet
  facet normal 1.000000e+00 -2.023408e-15 2.391973e-15
    outer loop
      vertex   -9.950000e+01 6.084651e+02 9.502792e+01
      vertex   -9.950000e+01 6.184645e+02 1.153687e+02
      vertex   -9.950000e+01 6.084091e+02 1.068627e+02
    endloop
  endfacet
  facet normal 1.000000e+00 -1.250772e-15 1.478600e-15
    outer loop
      vertex   -9.950000e+01 6.084091e+02 1.068627e+02
      vertex   -9.950000e+01 6.184645e+02 1.153687e+02
      vertex   -9.950000e+01 5.841880e+02 1.152067e+02
    endloop
  endfacet
  facet normal 1.000000e+00 -2.382683e-17 5.040213e-15
    outer loop
      vertex   -9.950000e+01 6.084091e+02 1.068627e+02
      vertex   -9.950000e+01 5.841880e+02 1.152067e+02
      vertex   -9.950000e+01 5.842280e+02 1.067484e+02
    endloop
  endfacet
  facet normal 1.000000e+00 -1.588456e-17 3.360142e-15
    outer loop
      vertex   -9.950000e+01 5.875922e+02 9.492924e+01
      vertex   -9.950000e+01 5.876322e+02 8.647095e+01
      vertex   -9.950000e+01 6.084651e+02 9.502792e+01
    endloop
  endfacet
  facet normal 1.000000e+00 -1.588456e-17 3.360142e-15
    outer loop
      vertex   -9.950000e+01 6.084651e+02 9.502792e+01
      vertex   -9.950000e+01 5.876322e+02 8.647095e+01
      vertex   -9.950000e+01 6.085051e+02 8.656962e+01
    endloop
  endfacet
  facet normal -1.000000e+00 1.580807e-17 -3.343962e-15
    outer loop
      vertex   -1.000000e+02 6.086055e+02 6.532157e+01
      vertex   -1.000000e+02 6.085051e+02 8.656962e+01
      vertex   -1.000000e+02 6.187009e+02 6.536929e+01
    endloop
  endfacet
  facet normal -1.000000e+00 1.069637e-15 -2.837146e-15
    outer loop
      vertex   -1.000000e+02 6.187009e+02 6.536929e+01
      vertex   -1.000000e+02 6.085051e+02 8.656962e+01
      vertex   -1.000000e+02 6.184645e+02 1.153687e+02
    endloop
  endfacet
  facet normal -1.000000e+00 2.547345e-15 -3.348175e-15
    outer loop
      vertex   -1.000000e+02 6.184645e+02 1.153687e+02
      vertex   -1.000000e+02 6.085051e+02 8.656962e+01
      vertex   -1.000000e+02 6.084651e+02 9.502792e+01
    endloop
  endfacet
  facet normal -1.000000e+00 3.035113e-15 -3.587959e-15
    outer loop
      vertex   -1.000000e+02 6.184645e+02 1.153687e+02
      vertex   -1.000000e+02 6.084651e+02 9.502792e+01
      vertex   -1.000000e+02 6.084091e+02 1.068627e+02
    endloop
  endfacet
  facet normal -1.000000e+00 1.588456e-17 -3.360142e-15
    outer loop
      vertex   -1.000000e+02 6.085051e+02 8.656962e+01
      vertex   -1.000000e+02 5.876322e+02 8.647095e+01
      vertex   -1.000000e+02 6.084651e+02 9.502792e+01
    endloop
  endfacet
  facet normal -1.000000e+00 1.588456e-17 -3.360142e-15
    outer loop
      vertex   -1.000000e+02 6.084651e+02 9.502792e+01
      vertex   -1.000000e+02 5.876322e+02 8.647095e+01
      vertex   -1.000000e+02 5.875922e+02 9.492924e+01
    endloop
  endfacet
  facet normal -1.000000e+00 2.382683e-17 -5.040213e-15
    outer loop
      vertex   -1.000000e+02 5.842280e+02 1.067484e+02
      vertex   -1.000000e+02 5.841880e+02 1.152067e+02
      vertex   -1.000000e+02 6.084091e+02 1.068627e+02
    endloop
  endfacet
  facet normal -1.000000e+00 1.250772e-15 -1.478600e-15
    outer loop
      vertex   -1.000000e+02 6.084091e+02 1.068627e+02
      vertex   -1.000000e+02 5.841880e+02 1.152067e+02
      vertex   -1.000000e+02 6.184645e+02 1.153687e+02
    endloop
  endfacet
endsolid
