solid ASCII
  facet normal -1.000000e+00 -0.000000e+00 -0.000000e+00
    outer loop
      vertex   -9.702831e+01 1.847700e+02 2.065000e+02
      vertex   -9.702831e+01 1.847700e+02 2.035000e+02
      vertex   -9.702831e+01 1.845700e+02 2.065000e+02
    endloop
  endfacet
  facet normal -1.000000e+00 0.000000e+00 0.000000e+00
    outer loop
      vertex   -9.702831e+01 1.845700e+02 2.065000e+02
      vertex   -9.702831e+01 1.847700e+02 2.035000e+02
      vertex   -9.702831e+01 1.845700e+02 2.035000e+02
    endloop
  endfacet
  facet normal 0.000000e+00 0.000000e+00 1.000000e+00
    outer loop
      vertex   -9.497169e+01 1.847700e+02 2.065000e+02
      vertex   -9.702831e+01 1.847700e+02 2.065000e+02
      vertex   -9.497169e+01 1.845700e+02 2.065000e+02
    endloop
  endfacet
  facet normal 0.000000e+00 0.000000e+00 1.000000e+00
    outer loop
      vertex   -9.497169e+01 1.845700e+02 2.065000e+02
      vertex   -9.702831e+01 1.847700e+02 2.065000e+02
      vertex   -9.702831e+01 1.845700e+02 2.065000e+02
    endloop
  endfacet
  facet normal 1.000000e+00 0.000000e+00 -0.000000e+00
    outer loop
      vertex   -9.497169e+01 1.847700e+02 2.059925e+02
      vertex   -9.497169e+01 1.847700e+02 2.065000e+02
      vertex   -9.497169e+01 1.845700e+02 2.059925e+02
    endloop
  endfacet
  facet normal 1.000000e+00 0.000000e+00 0.000000e+00
    outer loop
      vertex   -9.497169e+01 1.845700e+02 2.059925e+02
      vertex   -9.497169e+01 1.847700e+02 2.065000e+02
      vertex   -9.497169e+01 1.845700e+02 2.065000e+02
    endloop
  endfacet
  facet normal 0.000000e+00 0.000000e+00 -1.000000e+00
    outer loop
      vertex   -9.642258e+01 1.847700e+02 2.059925e+02
      vertex   -9.497169e+01 1.847700e+02 2.059925e+02
      vertex   -9.642258e+01 1.845700e+02 2.059925e+02
    endloop
  endfacet
  facet normal 0.000000e+00 0.000000e+00 -1.000000e+00
    outer loop
      vertex   -9.642258e+01 1.845700e+02 2.059925e+02
      vertex   -9.497169e+01 1.847700e+02 2.059925e+02
      vertex   -9.497169e+01 1.845700e+02 2.059925e+02
    endloop
  endfacet
  facet normal 1.000000e+00 0.000000e+00 -0.000000e+00
    outer loop
      vertex   -9.642258e+01 1.847700e+02 2.052824e+02
      vertex   -9.642258e+01 1.847700e+02 2.059925e+02
      vertex   -9.642258e+01 1.845700e+02 2.052824e+02
    endloop
  endfacet
  facet normal 1.000000e+00 0.000000e+00 0.000000e+00
    outer loop
      vertex   -9.642258e+01 1.845700e+02 2.052824e+02
      vertex   -9.642258e+01 1.847700e+02 2.059925e+02
      vertex   -9.642258e+01 1.845700e+02 2.059925e+02
    endloop
  endfacet
  facet normal 0.000000e+00 0.000000e+00 1.000000e+00
    outer loop
      vertex   -9.517019e+01 1.847700e+02 2.052824e+02
      vertex   -9.642258e+01 1.847700e+02 2.052824e+02
      vertex   -9.517019e+01 1.845700e+02 2.052824e+02
    endloop
  endfacet
  facet normal 0.000000e+00 0.000000e+00 1.000000e+00
    outer loop
      vertex   -9.517019e+01 1.845700e+02 2.052824e+02
      vertex   -9.642258e+01 1.847700e+02 2.052824e+02
      vertex   -9.642258e+01 1.845700e+02 2.052824e+02
    endloop
  endfacet
  facet normal 1.000000e+00 0.000000e+00 -0.000000e+00
    outer loop
      vertex   -9.517019e+01 1.847700e+02 2.047749e+02
      vertex   -9.517019e+01 1.847700e+02 2.052824e+02
      vertex   -9.517019e+01 1.845700e+02 2.047749e+02
    endloop
  endfacet
  facet normal 1.000000e+00 0.000000e+00 0.000000e+00
    outer loop
      vertex   -9.517019e+01 1.845700e+02 2.047749e+02
      vertex   -9.517019e+01 1.847700e+02 2.052824e+02
      vertex   -9.517019e+01 1.845700e+02 2.052824e+02
    endloop
  endfacet
  facet normal 0.000000e+00 0.000000e+00 -1.000000e+00
    outer loop
      vertex   -9.642258e+01 1.847700e+02 2.047749e+02
      vertex   -9.517019e+01 1.847700e+02 2.047749e+02
      vertex   -9.642258e+01 1.845700e+02 2.047749e+02
    endloop
  endfacet
  facet normal 0.000000e+00 0.000000e+00 -1.000000e+00
    outer loop
      vertex   -9.642258e+01 1.845700e+02 2.047749e+02
      vertex   -9.517019e+01 1.847700e+02 2.047749e+02
      vertex   -9.517019e+01 1.845700e+02 2.047749e+02
    endloop
  endfacet
  facet normal 1.000000e+00 0.000000e+00 -0.000000e+00
    outer loop
      vertex   -9.642258e+01 1.847700e+02 2.035000e+02
      vertex   -9.642258e+01 1.847700e+02 2.047749e+02
      vertex   -9.642258e+01 1.845700e+02 2.035000e+02
    endloop
  endfacet
  facet normal 1.000000e+00 0.000000e+00 0.000000e+00
    outer loop
      vertex   -9.642258e+01 1.845700e+02 2.035000e+02
      vertex   -9.642258e+01 1.847700e+02 2.047749e+02
      vertex   -9.642258e+01 1.845700e+02 2.047749e+02
    endloop
  endfacet
  facet normal 0.000000e+00 0.000000e+00 -1.000000e+00
    outer loop
      vertex   -9.702831e+01 1.847700e+02 2.035000e+02
      vertex   -9.642258e+01 1.847700e+02 2.035000e+02
      vertex   -9.702831e+01 1.845700e+02 2.035000e+02
    endloop
  endfacet
  facet normal 0.000000e+00 0.000000e+00 -1.000000e+00
    outer loop
      vertex   -9.702831e+01 1.845700e+02 2.035000e+02
      vertex   -9.642258e+01 1.847700e+02 2.035000e+02
      vertex   -9.642258e+01 1.845700e+02 2.035000e+02
    endloop
  endfacet
  facet normal 0.000000e+00 -1.000000e+00 0.000000e+00
    outer loop
      vertex   -9.642258e+01 1.845700e+02 2.035000e+02
      vertex   -9.642258e+01 1.845700e+02 2.047749e+02
      vertex   -9.702831e+01 1.845700e+02 2.035000e+02
    endloop
  endfacet
  facet normal 0.000000e+00 -1.000000e+00 0.000000e+00
    outer loop
      vertex   -9.702831e+01 1.845700e+02 2.035000e+02
      vertex   -9.642258e+01 1.845700e+02 2.047749e+02
      vertex   -9.702831e+01 1.845700e+02 2.065000e+02
    endloop
  endfacet
  facet normal 0.000000e+00 -1.000000e+00 0.000000e+00
    outer loop
      vertex   -9.702831e+01 1.845700e+02 2.065000e+02
      vertex   -9.642258e+01 1.845700e+02 2.047749e+02
      vertex   -9.642258e+01 1.845700e+02 2.052824e+02
    endloop
  endfacet
  facet normal 0.000000e+00 -1.000000e+00 0.000000e+00
    outer loop
      vertex   -9.702831e+01 1.845700e+02 2.065000e+02
      vertex   -9.642258e+01 1.845700e+02 2.052824e+02
      vertex   -9.642258e+01 1.845700e+02 2.059925e+02
    endloop
  endfacet
  facet normal 0.000000e+00 -1.000000e+00 0.000000e+00
    outer loop
      vertex   -9.517019e+01 1.845700e+02 2.047749e+02
      vertex   -9.517019e+01 1.845700e+02 2.052824e+02
      vertex   -9.642258e+01 1.845700e+02 2.047749e+02
    endloop
  endfacet
  facet normal 0.000000e+00 -1.000000e+00 0.000000e+00
    outer loop
      vertex   -9.642258e+01 1.845700e+02 2.047749e+02
      vertex   -9.517019e+01 1.845700e+02 2.052824e+02
      vertex   -9.642258e+01 1.845700e+02 2.052824e+02
    endloop
  endfacet
  facet normal 0.000000e+00 -1.000000e+00 0.000000e+00
    outer loop
      vertex   -9.497169e+01 1.845700e+02 2.059925e+02
      vertex   -9.497169e+01 1.845700e+02 2.065000e+02
      vertex   -9.642258e+01 1.845700e+02 2.059925e+02
    endloop
  endfacet
  facet normal 0.000000e+00 -1.000000e+00 0.000000e+00
    outer loop
      vertex   -9.642258e+01 1.845700e+02 2.059925e+02
      vertex   -9.497169e+01 1.845700e+02 2.065000e+02
      vertex   -9.702831e+01 1.845700e+02 2.065000e+02
    endloop
  endfacet
  facet normal -1.000000e+00 -0.000000e+00 -8.526513e-15
    outer loop
      vertex   -9.900000e+01 1.854700e+02 2.075000e+02
      vertex   -9.900000e+01 1.854700e+02 2.025000e+02
      vertex   -9.900000e+01 1.847700e+02 2.075000e+02
    endloop
  endfacet
  facet normal -1.000000e+00 0.000000e+00 -8.526513e-15
    outer loop
      vertex   -9.900000e+01 1.847700e+02 2.075000e+02
      vertex   -9.900000e+01 1.854700e+02 2.025000e+02
      vertex   -9.900000e+01 1.847700e+02 2.025000e+02
    endloop
  endfacet
  facet normal -4.132497e-02 0.000000e+00 9.991458e-01
    outer loop
      vertex   -9.850000e+01 1.847700e+02 2.080000e+02
      vertex   -9.850000e+01 1.854700e+02 2.080000e+02
      vertex   -9.854129e+01 1.847700e+02 2.079983e+02
    endloop
  endfacet
  facet normal -4.132497e-02 0.000000e+00 9.991458e-01
    outer loop
      vertex   -9.854129e+01 1.847700e+02 2.079983e+02
      vertex   -9.850000e+01 1.854700e+02 2.080000e+02
      vertex   -9.854129e+01 1.854700e+02 2.079983e+02
    endloop
  endfacet
  facet normal -1.236926e-01 0.000000e+00 9.923206e-01
    outer loop
      vertex   -9.854129e+01 1.847700e+02 2.079983e+02
      vertex   -9.854129e+01 1.854700e+02 2.079983e+02
      vertex   -9.858230e+01 1.847700e+02 2.079932e+02
    endloop
  endfacet
  facet normal -1.236926e-01 0.000000e+00 9.923206e-01
    outer loop
      vertex   -9.858230e+01 1.847700e+02 2.079932e+02
      vertex   -9.854129e+01 1.854700e+02 2.079983e+02
      vertex   -9.858230e+01 1.854700e+02 2.079932e+02
    endloop
  endfacet
  facet normal -2.052153e-01 0.000000e+00 9.787168e-01
    outer loop
      vertex   -9.858230e+01 1.847700e+02 2.079932e+02
      vertex   -9.858230e+01 1.854700e+02 2.079932e+02
      vertex   -9.862274e+01 1.847700e+02 2.079847e+02
    endloop
  endfacet
  facet normal -2.052153e-01 0.000000e+00 9.787168e-01
    outer loop
      vertex   -9.862274e+01 1.847700e+02 2.079847e+02
      vertex   -9.858230e+01 1.854700e+02 2.079932e+02
      vertex   -9.862274e+01 1.854700e+02 2.079847e+02
    endloop
  endfacet
  facet normal -2.853362e-01 0.000000e+00 9.584275e-01
    outer loop
      vertex   -9.862274e+01 1.847700e+02 2.079847e+02
      vertex   -9.862274e+01 1.854700e+02 2.079847e+02
      vertex   -9.866235e+01 1.847700e+02 2.079729e+02
    endloop
  endfacet
  facet normal -2.853362e-01 0.000000e+00 9.584275e-01
    outer loop
      vertex   -9.866235e+01 1.847700e+02 2.079729e+02
      vertex   -9.862274e+01 1.854700e+02 2.079847e+02
      vertex   -9.866235e+01 1.854700e+02 2.079729e+02
    endloop
  endfacet
  facet normal -3.635080e-01 0.000000e+00 9.315911e-01
    outer loop
      vertex   -9.866235e+01 1.847700e+02 2.079729e+02
      vertex   -9.866235e+01 1.854700e+02 2.079729e+02
      vertex   -9.870085e+01 1.847700e+02 2.079579e+02
    endloop
  endfacet
  facet normal -3.635080e-01 0.000000e+00 9.315911e-01
    outer loop
      vertex   -9.870085e+01 1.847700e+02 2.079579e+02
      vertex   -9.866235e+01 1.854700e+02 2.079729e+02
      vertex   -9.870085e+01 1.854700e+02 2.079579e+02
    endloop
  endfacet
  facet normal -4.391966e-01 0.000000e+00 8.983910e-01
    outer loop
      vertex   -9.870085e+01 1.847700e+02 2.079579e+02
      vertex   -9.870085e+01 1.854700e+02 2.079579e+02
      vertex   -9.873798e+01 1.847700e+02 2.079397e+02
    endloop
  endfacet
  facet normal -4.391966e-01 0.000000e+00 8.983910e-01
    outer loop
      vertex   -9.873798e+01 1.847700e+02 2.079397e+02
      vertex   -9.870085e+01 1.854700e+02 2.079579e+02
      vertex   -9.873798e+01 1.854700e+02 2.079397e+02
    endloop
  endfacet
  facet normal -5.118850e-01 0.000000e+00 8.590540e-01
    outer loop
      vertex   -9.873798e+01 1.847700e+02 2.079397e+02
      vertex   -9.873798e+01 1.854700e+02 2.079397e+02
      vertex   -9.877348e+01 1.847700e+02 2.079186e+02
    endloop
  endfacet
  facet normal -5.118850e-01 0.000000e+00 8.590540e-01
    outer loop
      vertex   -9.877348e+01 1.847700e+02 2.079186e+02
      vertex   -9.873798e+01 1.854700e+02 2.079397e+02
      vertex   -9.877348e+01 1.854700e+02 2.079186e+02
    endloop
  endfacet
  facet normal -5.810768e-01 0.000000e+00 8.138487e-01
    outer loop
      vertex   -9.877348e+01 1.847700e+02 2.079186e+02
      vertex   -9.877348e+01 1.854700e+02 2.079186e+02
      vertex   -9.880711e+01 1.847700e+02 2.078946e+02
    endloop
  endfacet
  facet normal -5.810768e-01 0.000000e+00 8.138487e-01
    outer loop
      vertex   -9.880711e+01 1.847700e+02 2.078946e+02
      vertex   -9.877348e+01 1.854700e+02 2.079186e+02
      vertex   -9.880711e+01 1.854700e+02 2.078946e+02
    endloop
  endfacet
  facet normal -6.462992e-01 0.000000e+00 7.630841e-01
    outer loop
      vertex   -9.880711e+01 1.847700e+02 2.078946e+02
      vertex   -9.880711e+01 1.854700e+02 2.078946e+02
      vertex   -9.883864e+01 1.847700e+02 2.078679e+02
    endloop
  endfacet
  facet normal -6.462992e-01 0.000000e+00 7.630841e-01
    outer loop
      vertex   -9.883864e+01 1.847700e+02 2.078679e+02
      vertex   -9.880711e+01 1.854700e+02 2.078946e+02
      vertex   -9.883864e+01 1.854700e+02 2.078679e+02
    endloop
  endfacet
  facet normal -7.071068e-01 0.000000e+00 7.071068e-01
    outer loop
      vertex   -9.883864e+01 1.847700e+02 2.078679e+02
      vertex   -9.883864e+01 1.854700e+02 2.078679e+02
      vertex   -9.886786e+01 1.847700e+02 2.078386e+02
    endloop
  endfacet
  facet normal -7.071068e-01 0.000000e+00 7.071068e-01
    outer loop
      vertex   -9.886786e+01 1.847700e+02 2.078386e+02
      vertex   -9.883864e+01 1.854700e+02 2.078679e+02
      vertex   -9.886786e+01 1.854700e+02 2.078386e+02
    endloop
  endfacet
  facet normal -7.630841e-01 0.000000e+00 6.462992e-01
    outer loop
      vertex   -9.886786e+01 1.847700e+02 2.078386e+02
      vertex   -9.886786e+01 1.854700e+02 2.078386e+02
      vertex   -9.889457e+01 1.847700e+02 2.078071e+02
    endloop
  endfacet
  facet normal -7.630841e-01 0.000000e+00 6.462992e-01
    outer loop
      vertex   -9.889457e+01 1.847700e+02 2.078071e+02
      vertex   -9.886786e+01 1.854700e+02 2.078386e+02
      vertex   -9.889457e+01 1.854700e+02 2.078071e+02
    endloop
  endfacet
  facet normal -8.138487e-01 0.000000e+00 5.810768e-01
    outer loop
      vertex   -9.889457e+01 1.847700e+02 2.078071e+02
      vertex   -9.889457e+01 1.854700e+02 2.078071e+02
      vertex   -9.891858e+01 1.847700e+02 2.077735e+02
    endloop
  endfacet
  facet normal -8.138487e-01 0.000000e+00 5.810768e-01
    outer loop
      vertex   -9.891858e+01 1.847700e+02 2.077735e+02
      vertex   -9.889457e+01 1.854700e+02 2.078071e+02
      vertex   -9.891858e+01 1.854700e+02 2.077735e+02
    endloop
  endfacet
  facet normal -8.590540e-01 0.000000e+00 5.118850e-01
    outer loop
      vertex   -9.891858e+01 1.847700e+02 2.077735e+02
      vertex   -9.891858e+01 1.854700e+02 2.077735e+02
      vertex   -9.893974e+01 1.847700e+02 2.077380e+02
    endloop
  endfacet
  facet normal -8.590540e-01 0.000000e+00 5.118850e-01
    outer loop
      vertex   -9.893974e+01 1.847700e+02 2.077380e+02
      vertex   -9.891858e+01 1.854700e+02 2.077735e+02
      vertex   -9.893974e+01 1.854700e+02 2.077380e+02
    endloop
  endfacet
  facet normal -8.983910e-01 0.000000e+00 4.391966e-01
    outer loop
      vertex   -9.893974e+01 1.847700e+02 2.077380e+02
      vertex   -9.893974e+01 1.854700e+02 2.077380e+02
      vertex   -9.895789e+01 1.847700e+02 2.077009e+02
    endloop
  endfacet
  facet normal -8.983910e-01 0.000000e+00 4.391966e-01
    outer loop
      vertex   -9.895789e+01 1.847700e+02 2.077009e+02
      vertex   -9.893974e+01 1.854700e+02 2.077380e+02
      vertex   -9.895789e+01 1.854700e+02 2.077009e+02
    endloop
  endfacet
  facet normal -9.315911e-01 0.000000e+00 3.635080e-01
    outer loop
      vertex   -9.895789e+01 1.847700e+02 2.077009e+02
      vertex   -9.895789e+01 1.854700e+02 2.077009e+02
      vertex   -9.897291e+01 1.847700e+02 2.076624e+02
    endloop
  endfacet
  facet normal -9.315911e-01 0.000000e+00 3.635080e-01
    outer loop
      vertex   -9.897291e+01 1.847700e+02 2.076624e+02
      vertex   -9.895789e+01 1.854700e+02 2.077009e+02
      vertex   -9.897291e+01 1.854700e+02 2.076624e+02
    endloop
  endfacet
  facet normal -9.584275e-01 0.000000e+00 2.853362e-01
    outer loop
      vertex   -9.897291e+01 1.847700e+02 2.076624e+02
      vertex   -9.897291e+01 1.854700e+02 2.076624e+02
      vertex   -9.898470e+01 1.847700e+02 2.076227e+02
    endloop
  endfacet
  facet normal -9.584275e-01 0.000000e+00 2.853362e-01
    outer loop
      vertex   -9.898470e+01 1.847700e+02 2.076227e+02
      vertex   -9.897291e+01 1.854700e+02 2.076624e+02
      vertex   -9.898470e+01 1.854700e+02 2.076227e+02
    endloop
  endfacet
  facet normal -9.787168e-01 0.000000e+00 2.052153e-01
    outer loop
      vertex   -9.898470e+01 1.847700e+02 2.076227e+02
      vertex   -9.898470e+01 1.854700e+02 2.076227e+02
      vertex   -9.899318e+01 1.847700e+02 2.075823e+02
    endloop
  endfacet
  facet normal -9.787168e-01 0.000000e+00 2.052153e-01
    outer loop
      vertex   -9.899318e+01 1.847700e+02 2.075823e+02
      vertex   -9.898470e+01 1.854700e+02 2.076227e+02
      vertex   -9.899318e+01 1.854700e+02 2.075823e+02
    endloop
  endfacet
  facet normal -9.923206e-01 0.000000e+00 1.236926e-01
    outer loop
      vertex   -9.899318e+01 1.847700e+02 2.075823e+02
      vertex   -9.899318e+01 1.854700e+02 2.075823e+02
      vertex   -9.899829e+01 1.847700e+02 2.075413e+02
    endloop
  endfacet
  facet normal -9.923206e-01 0.000000e+00 1.236926e-01
    outer loop
      vertex   -9.899829e+01 1.847700e+02 2.075413e+02
      vertex   -9.899318e+01 1.854700e+02 2.075823e+02
      vertex   -9.899829e+01 1.854700e+02 2.075413e+02
    endloop
  endfacet
  facet normal -9.991458e-01 0.000000e+00 4.132497e-02
    outer loop
      vertex   -9.899829e+01 1.847700e+02 2.075413e+02
      vertex   -9.899829e+01 1.854700e+02 2.075413e+02
      vertex   -9.900000e+01 1.847700e+02 2.075000e+02
    endloop
  endfacet
  facet normal -9.991458e-01 0.000000e+00 4.132497e-02
    outer loop
      vertex   -9.900000e+01 1.847700e+02 2.075000e+02
      vertex   -9.899829e+01 1.854700e+02 2.075413e+02
      vertex   -9.900000e+01 1.854700e+02 2.075000e+02
    endloop
  endfacet
  facet normal 0.000000e+00 0.000000e+00 1.000000e+00
    outer loop
      vertex   -9.350000e+01 1.854700e+02 2.080000e+02
      vertex   -9.850000e+01 1.854700e+02 2.080000e+02
      vertex   -9.350000e+01 1.847700e+02 2.080000e+02
    endloop
  endfacet
  facet normal 0.000000e+00 0.000000e+00 1.000000e+00
    outer loop
      vertex   -9.350000e+01 1.847700e+02 2.080000e+02
      vertex   -9.850000e+01 1.854700e+02 2.080000e+02
      vertex   -9.850000e+01 1.847700e+02 2.080000e+02
    endloop
  endfacet
  facet normal 9.991458e-01 -0.000000e+00 4.132497e-02
    outer loop
      vertex   -9.300000e+01 1.847700e+02 2.075000e+02
      vertex   -9.300000e+01 1.854700e+02 2.075000e+02
      vertex   -9.300171e+01 1.847700e+02 2.075413e+02
    endloop
  endfacet
  facet normal 9.991458e-01 -0.000000e+00 4.132497e-02
    outer loop
      vertex   -9.300171e+01 1.847700e+02 2.075413e+02
      vertex   -9.300000e+01 1.854700e+02 2.075000e+02
      vertex   -9.300171e+01 1.854700e+02 2.075413e+02
    endloop
  endfacet
  facet normal 9.923206e-01 -0.000000e+00 1.236926e-01
    outer loop
      vertex   -9.300171e+01 1.847700e+02 2.075413e+02
      vertex   -9.300171e+01 1.854700e+02 2.075413e+02
      vertex   -9.300682e+01 1.847700e+02 2.075823e+02
    endloop
  endfacet
  facet normal 9.923206e-01 -0.000000e+00 1.236926e-01
    outer loop
      vertex   -9.300682e+01 1.847700e+02 2.075823e+02
      vertex   -9.300171e+01 1.854700e+02 2.075413e+02
      vertex   -9.300682e+01 1.854700e+02 2.075823e+02
    endloop
  endfacet
  facet normal 9.787168e-01 -0.000000e+00 2.052153e-01
    outer loop
      vertex   -9.300682e+01 1.847700e+02 2.075823e+02
      vertex   -9.300682e+01 1.854700e+02 2.075823e+02
      vertex   -9.301530e+01 1.847700e+02 2.076227e+02
    endloop
  endfacet
  facet normal 9.787168e-01 -0.000000e+00 2.052153e-01
    outer loop
      vertex   -9.301530e+01 1.847700e+02 2.076227e+02
      vertex   -9.300682e+01 1.854700e+02 2.075823e+02
      vertex   -9.301530e+01 1.854700e+02 2.076227e+02
    endloop
  endfacet
  facet normal 9.584275e-01 -0.000000e+00 2.853362e-01
    outer loop
      vertex   -9.301530e+01 1.847700e+02 2.076227e+02
      vertex   -9.301530e+01 1.854700e+02 2.076227e+02
      vertex   -9.302709e+01 1.847700e+02 2.076624e+02
    endloop
  endfacet
  facet normal 9.584275e-01 -0.000000e+00 2.853362e-01
    outer loop
      vertex   -9.302709e+01 1.847700e+02 2.076624e+02
      vertex   -9.301530e+01 1.854700e+02 2.076227e+02
      vertex   -9.302709e+01 1.854700e+02 2.076624e+02
    endloop
  endfacet
  facet normal 9.315911e-01 -0.000000e+00 3.635080e-01
    outer loop
      vertex   -9.302709e+01 1.847700e+02 2.076624e+02
      vertex   -9.302709e+01 1.854700e+02 2.076624e+02
      vertex   -9.304211e+01 1.847700e+02 2.077009e+02
    endloop
  endfacet
  facet normal 9.315911e-01 -0.000000e+00 3.635080e-01
    outer loop
      vertex   -9.304211e+01 1.847700e+02 2.077009e+02
      vertex   -9.302709e+01 1.854700e+02 2.076624e+02
      vertex   -9.304211e+01 1.854700e+02 2.077009e+02
    endloop
  endfacet
  facet normal 8.983910e-01 -0.000000e+00 4.391966e-01
    outer loop
      vertex   -9.304211e+01 1.847700e+02 2.077009e+02
      vertex   -9.304211e+01 1.854700e+02 2.077009e+02
      vertex   -9.306026e+01 1.847700e+02 2.077380e+02
    endloop
  endfacet
  facet normal 8.983910e-01 -0.000000e+00 4.391966e-01
    outer loop
      vertex   -9.306026e+01 1.847700e+02 2.077380e+02
      vertex   -9.304211e+01 1.854700e+02 2.077009e+02
      vertex   -9.306026e+01 1.854700e+02 2.077380e+02
    endloop
  endfacet
  facet normal 8.590540e-01 -0.000000e+00 5.118850e-01
    outer loop
      vertex   -9.306026e+01 1.847700e+02 2.077380e+02
      vertex   -9.306026e+01 1.854700e+02 2.077380e+02
      vertex   -9.308142e+01 1.847700e+02 2.077735e+02
    endloop
  endfacet
  facet normal 8.590540e-01 -0.000000e+00 5.118850e-01
    outer loop
      vertex   -9.308142e+01 1.847700e+02 2.077735e+02
      vertex   -9.306026e+01 1.854700e+02 2.077380e+02
      vertex   -9.308142e+01 1.854700e+02 2.077735e+02
    endloop
  endfacet
  facet normal 8.138487e-01 -0.000000e+00 5.810768e-01
    outer loop
      vertex   -9.308142e+01 1.847700e+02 2.077735e+02
      vertex   -9.308142e+01 1.854700e+02 2.077735e+02
      vertex   -9.310543e+01 1.847700e+02 2.078071e+02
    endloop
  endfacet
  facet normal 8.138487e-01 -0.000000e+00 5.810768e-01
    outer loop
      vertex   -9.310543e+01 1.847700e+02 2.078071e+02
      vertex   -9.308142e+01 1.854700e+02 2.077735e+02
      vertex   -9.310543e+01 1.854700e+02 2.078071e+02
    endloop
  endfacet
  facet normal 7.630841e-01 -0.000000e+00 6.462992e-01
    outer loop
      vertex   -9.310543e+01 1.847700e+02 2.078071e+02
      vertex   -9.310543e+01 1.854700e+02 2.078071e+02
      vertex   -9.313214e+01 1.847700e+02 2.078386e+02
    endloop
  endfacet
  facet normal 7.630841e-01 -0.000000e+00 6.462992e-01
    outer loop
      vertex   -9.313214e+01 1.847700e+02 2.078386e+02
      vertex   -9.310543e+01 1.854700e+02 2.078071e+02
      vertex   -9.313214e+01 1.854700e+02 2.078386e+02
    endloop
  endfacet
  facet normal 7.071068e-01 -0.000000e+00 7.071068e-01
    outer loop
      vertex   -9.313214e+01 1.847700e+02 2.078386e+02
      vertex   -9.313214e+01 1.854700e+02 2.078386e+02
      vertex   -9.316136e+01 1.847700e+02 2.078679e+02
    endloop
  endfacet
  facet normal 7.071068e-01 -0.000000e+00 7.071068e-01
    outer loop
      vertex   -9.316136e+01 1.847700e+02 2.078679e+02
      vertex   -9.313214e+01 1.854700e+02 2.078386e+02
      vertex   -9.316136e+01 1.854700e+02 2.078679e+02
    endloop
  endfacet
  facet normal 6.462992e-01 -0.000000e+00 7.630841e-01
    outer loop
      vertex   -9.316136e+01 1.847700e+02 2.078679e+02
      vertex   -9.316136e+01 1.854700e+02 2.078679e+02
      vertex   -9.319290e+01 1.847700e+02 2.078946e+02
    endloop
  endfacet
  facet normal 6.462992e-01 -0.000000e+00 7.630841e-01
    outer loop
      vertex   -9.319290e+01 1.847700e+02 2.078946e+02
      vertex   -9.316136e+01 1.854700e+02 2.078679e+02
      vertex   -9.319290e+01 1.854700e+02 2.078946e+02
    endloop
  endfacet
  facet normal 5.810768e-01 -0.000000e+00 8.138487e-01
    outer loop
      vertex   -9.319290e+01 1.847700e+02 2.078946e+02
      vertex   -9.319290e+01 1.854700e+02 2.078946e+02
      vertex   -9.322653e+01 1.847700e+02 2.079186e+02
    endloop
  endfacet
  facet normal 5.810768e-01 -0.000000e+00 8.138487e-01
    outer loop
      vertex   -9.322653e+01 1.847700e+02 2.079186e+02
      vertex   -9.319290e+01 1.854700e+02 2.078946e+02
      vertex   -9.322653e+01 1.854700e+02 2.079186e+02
    endloop
  endfacet
  facet normal 5.118850e-01 -0.000000e+00 8.590540e-01
    outer loop
      vertex   -9.322653e+01 1.847700e+02 2.079186e+02
      vertex   -9.322653e+01 1.854700e+02 2.079186e+02
      vertex   -9.326203e+01 1.847700e+02 2.079397e+02
    endloop
  endfacet
  facet normal 5.118850e-01 -0.000000e+00 8.590540e-01
    outer loop
      vertex   -9.326203e+01 1.847700e+02 2.079397e+02
      vertex   -9.322653e+01 1.854700e+02 2.079186e+02
      vertex   -9.326203e+01 1.854700e+02 2.079397e+02
    endloop
  endfacet
  facet normal 4.391966e-01 -0.000000e+00 8.983910e-01
    outer loop
      vertex   -9.326203e+01 1.847700e+02 2.079397e+02
      vertex   -9.326203e+01 1.854700e+02 2.079397e+02
      vertex   -9.329915e+01 1.847700e+02 2.079579e+02
    endloop
  endfacet
  facet normal 4.391966e-01 -0.000000e+00 8.983910e-01
    outer loop
      vertex   -9.329915e+01 1.847700e+02 2.079579e+02
      vertex   -9.326203e+01 1.854700e+02 2.079397e+02
      vertex   -9.329915e+01 1.854700e+02 2.079579e+02
    endloop
  endfacet
  facet normal 3.635080e-01 -0.000000e+00 9.315911e-01
    outer loop
      vertex   -9.329915e+01 1.847700e+02 2.079579e+02
      vertex   -9.329915e+01 1.854700e+02 2.079579e+02
      vertex   -9.333765e+01 1.847700e+02 2.079729e+02
    endloop
  endfacet
  facet normal 3.635080e-01 -0.000000e+00 9.315911e-01
    outer loop
      vertex   -9.333765e+01 1.847700e+02 2.079729e+02
      vertex   -9.329915e+01 1.854700e+02 2.079579e+02
      vertex   -9.333765e+01 1.854700e+02 2.079729e+02
    endloop
  endfacet
  facet normal 2.853362e-01 -0.000000e+00 9.584275e-01
    outer loop
      vertex   -9.333765e+01 1.847700e+02 2.079729e+02
      vertex   -9.333765e+01 1.854700e+02 2.079729e+02
      vertex   -9.337726e+01 1.847700e+02 2.079847e+02
    endloop
  endfacet
  facet normal 2.853362e-01 -0.000000e+00 9.584275e-01
    outer loop
      vertex   -9.337726e+01 1.847700e+02 2.079847e+02
      vertex   -9.333765e+01 1.854700e+02 2.079729e+02
      vertex   -9.337726e+01 1.854700e+02 2.079847e+02
    endloop
  endfacet
  facet normal 2.052153e-01 -0.000000e+00 9.787168e-01
    outer loop
      vertex   -9.337726e+01 1.847700e+02 2.079847e+02
      vertex   -9.337726e+01 1.854700e+02 2.079847e+02
      vertex   -9.341770e+01 1.847700e+02 2.079932e+02
    endloop
  endfacet
  facet normal 2.052153e-01 -0.000000e+00 9.787168e-01
    outer loop
      vertex   -9.341770e+01 1.847700e+02 2.079932e+02
      vertex   -9.337726e+01 1.854700e+02 2.079847e+02
      vertex   -9.341770e+01 1.854700e+02 2.079932e+02
    endloop
  endfacet
  facet normal 1.236926e-01 -0.000000e+00 9.923206e-01
    outer loop
      vertex   -9.341770e+01 1.847700e+02 2.079932e+02
      vertex   -9.341770e+01 1.854700e+02 2.079932e+02
      vertex   -9.345871e+01 1.847700e+02 2.079983e+02
    endloop
  endfacet
  facet normal 1.236926e-01 -0.000000e+00 9.923206e-01
    outer loop
      vertex   -9.345871e+01 1.847700e+02 2.079983e+02
      vertex   -9.341770e+01 1.854700e+02 2.079932e+02
      vertex   -9.345871e+01 1.854700e+02 2.079983e+02
    endloop
  endfacet
  facet normal 4.132497e-02 -0.000000e+00 9.991458e-01
    outer loop
      vertex   -9.345871e+01 1.847700e+02 2.079983e+02
      vertex   -9.345871e+01 1.854700e+02 2.079983e+02
      vertex   -9.350000e+01 1.847700e+02 2.080000e+02
    endloop
  endfacet
  facet normal 4.132497e-02 -0.000000e+00 9.991458e-01
    outer loop
      vertex   -9.350000e+01 1.847700e+02 2.080000e+02
      vertex   -9.345871e+01 1.854700e+02 2.079983e+02
      vertex   -9.350000e+01 1.854700e+02 2.080000e+02
    endloop
  endfacet
  facet normal 1.000000e+00 0.000000e+00 -0.000000e+00
    outer loop
      vertex   -9.300000e+01 1.854700e+02 2.025000e+02
      vertex   -9.300000e+01 1.854700e+02 2.075000e+02
      vertex   -9.300000e+01 1.847700e+02 2.025000e+02
    endloop
  endfacet
  facet normal 1.000000e+00 0.000000e+00 0.000000e+00
    outer loop
      vertex   -9.300000e+01 1.847700e+02 2.025000e+02
      vertex   -9.300000e+01 1.854700e+02 2.075000e+02
      vertex   -9.300000e+01 1.847700e+02 2.075000e+02
    endloop
  endfacet
  facet normal 4.132497e-02 0.000000e+00 -9.991458e-01
    outer loop
      vertex   -9.350000e+01 1.847700e+02 2.020000e+02
      vertex   -9.350000e+01 1.854700e+02 2.020000e+02
      vertex   -9.345871e+01 1.847700e+02 2.020017e+02
    endloop
  endfacet
  facet normal 4.132497e-02 0.000000e+00 -9.991458e-01
    outer loop
      vertex   -9.345871e+01 1.847700e+02 2.020017e+02
      vertex   -9.350000e+01 1.854700e+02 2.020000e+02
      vertex   -9.345871e+01 1.854700e+02 2.020017e+02
    endloop
  endfacet
  facet normal 1.236926e-01 0.000000e+00 -9.923206e-01
    outer loop
      vertex   -9.345871e+01 1.847700e+02 2.020017e+02
      vertex   -9.345871e+01 1.854700e+02 2.020017e+02
      vertex   -9.341770e+01 1.847700e+02 2.020068e+02
    endloop
  endfacet
  facet normal 1.236926e-01 0.000000e+00 -9.923206e-01
    outer loop
      vertex   -9.341770e+01 1.847700e+02 2.020068e+02
      vertex   -9.345871e+01 1.854700e+02 2.020017e+02
      vertex   -9.341770e+01 1.854700e+02 2.020068e+02
    endloop
  endfacet
  facet normal 2.052153e-01 0.000000e+00 -9.787168e-01
    outer loop
      vertex   -9.341770e+01 1.847700e+02 2.020068e+02
      vertex   -9.341770e+01 1.854700e+02 2.020068e+02
      vertex   -9.337726e+01 1.847700e+02 2.020153e+02
    endloop
  endfacet
  facet normal 2.052153e-01 0.000000e+00 -9.787168e-01
    outer loop
      vertex   -9.337726e+01 1.847700e+02 2.020153e+02
      vertex   -9.341770e+01 1.854700e+02 2.020068e+02
      vertex   -9.337726e+01 1.854700e+02 2.020153e+02
    endloop
  endfacet
  facet normal 2.853362e-01 0.000000e+00 -9.584275e-01
    outer loop
      vertex   -9.337726e+01 1.847700e+02 2.020153e+02
      vertex   -9.337726e+01 1.854700e+02 2.020153e+02
      vertex   -9.333765e+01 1.847700e+02 2.020271e+02
    endloop
  endfacet
  facet normal 2.853362e-01 0.000000e+00 -9.584275e-01
    outer loop
      vertex   -9.333765e+01 1.847700e+02 2.020271e+02
      vertex   -9.337726e+01 1.854700e+02 2.020153e+02
      vertex   -9.333765e+01 1.854700e+02 2.020271e+02
    endloop
  endfacet
  facet normal 3.635080e-01 0.000000e+00 -9.315911e-01
    outer loop
      vertex   -9.333765e+01 1.847700e+02 2.020271e+02
      vertex   -9.333765e+01 1.854700e+02 2.020271e+02
      vertex   -9.329915e+01 1.847700e+02 2.020421e+02
    endloop
  endfacet
  facet normal 3.635080e-01 0.000000e+00 -9.315911e-01
    outer loop
      vertex   -9.329915e+01 1.847700e+02 2.020421e+02
      vertex   -9.333765e+01 1.854700e+02 2.020271e+02
      vertex   -9.329915e+01 1.854700e+02 2.020421e+02
    endloop
  endfacet
  facet normal 4.391966e-01 0.000000e+00 -8.983910e-01
    outer loop
      vertex   -9.329915e+01 1.847700e+02 2.020421e+02
      vertex   -9.329915e+01 1.854700e+02 2.020421e+02
      vertex   -9.326203e+01 1.847700e+02 2.020603e+02
    endloop
  endfacet
  facet normal 4.391966e-01 0.000000e+00 -8.983910e-01
    outer loop
      vertex   -9.326203e+01 1.847700e+02 2.020603e+02
      vertex   -9.329915e+01 1.854700e+02 2.020421e+02
      vertex   -9.326203e+01 1.854700e+02 2.020603e+02
    endloop
  endfacet
  facet normal 5.118850e-01 0.000000e+00 -8.590540e-01
    outer loop
      vertex   -9.326203e+01 1.847700e+02 2.020603e+02
      vertex   -9.326203e+01 1.854700e+02 2.020603e+02
      vertex   -9.322653e+01 1.847700e+02 2.020814e+02
    endloop
  endfacet
  facet normal 5.118850e-01 0.000000e+00 -8.590540e-01
    outer loop
      vertex   -9.322653e+01 1.847700e+02 2.020814e+02
      vertex   -9.326203e+01 1.854700e+02 2.020603e+02
      vertex   -9.322653e+01 1.854700e+02 2.020814e+02
    endloop
  endfacet
  facet normal 5.810768e-01 0.000000e+00 -8.138487e-01
    outer loop
      vertex   -9.322653e+01 1.847700e+02 2.020814e+02
      vertex   -9.322653e+01 1.854700e+02 2.020814e+02
      vertex   -9.319290e+01 1.847700e+02 2.021054e+02
    endloop
  endfacet
  facet normal 5.810768e-01 0.000000e+00 -8.138487e-01
    outer loop
      vertex   -9.319290e+01 1.847700e+02 2.021054e+02
      vertex   -9.322653e+01 1.854700e+02 2.020814e+02
      vertex   -9.319290e+01 1.854700e+02 2.021054e+02
    endloop
  endfacet
  facet normal 6.462992e-01 0.000000e+00 -7.630841e-01
    outer loop
      vertex   -9.319290e+01 1.847700e+02 2.021054e+02
      vertex   -9.319290e+01 1.854700e+02 2.021054e+02
      vertex   -9.316136e+01 1.847700e+02 2.021321e+02
    endloop
  endfacet
  facet normal 6.462992e-01 0.000000e+00 -7.630841e-01
    outer loop
      vertex   -9.316136e+01 1.847700e+02 2.021321e+02
      vertex   -9.319290e+01 1.854700e+02 2.021054e+02
      vertex   -9.316136e+01 1.854700e+02 2.021321e+02
    endloop
  endfacet
  facet normal 7.071068e-01 0.000000e+00 -7.071068e-01
    outer loop
      vertex   -9.316136e+01 1.847700e+02 2.021321e+02
      vertex   -9.316136e+01 1.854700e+02 2.021321e+02
      vertex   -9.313214e+01 1.847700e+02 2.021614e+02
    endloop
  endfacet
  facet normal 7.071068e-01 0.000000e+00 -7.071068e-01
    outer loop
      vertex   -9.313214e+01 1.847700e+02 2.021614e+02
      vertex   -9.316136e+01 1.854700e+02 2.021321e+02
      vertex   -9.313214e+01 1.854700e+02 2.021614e+02
    endloop
  endfacet
  facet normal 7.630841e-01 0.000000e+00 -6.462992e-01
    outer loop
      vertex   -9.313214e+01 1.847700e+02 2.021614e+02
      vertex   -9.313214e+01 1.854700e+02 2.021614e+02
      vertex   -9.310543e+01 1.847700e+02 2.021929e+02
    endloop
  endfacet
  facet normal 7.630841e-01 0.000000e+00 -6.462992e-01
    outer loop
      vertex   -9.310543e+01 1.847700e+02 2.021929e+02
      vertex   -9.313214e+01 1.854700e+02 2.021614e+02
      vertex   -9.310543e+01 1.854700e+02 2.021929e+02
    endloop
  endfacet
  facet normal 8.138487e-01 0.000000e+00 -5.810768e-01
    outer loop
      vertex   -9.310543e+01 1.847700e+02 2.021929e+02
      vertex   -9.310543e+01 1.854700e+02 2.021929e+02
      vertex   -9.308142e+01 1.847700e+02 2.022265e+02
    endloop
  endfacet
  facet normal 8.138487e-01 0.000000e+00 -5.810768e-01
    outer loop
      vertex   -9.308142e+01 1.847700e+02 2.022265e+02
      vertex   -9.310543e+01 1.854700e+02 2.021929e+02
      vertex   -9.308142e+01 1.854700e+02 2.022265e+02
    endloop
  endfacet
  facet normal 8.590540e-01 0.000000e+00 -5.118850e-01
    outer loop
      vertex   -9.308142e+01 1.847700e+02 2.022265e+02
      vertex   -9.308142e+01 1.854700e+02 2.022265e+02
      vertex   -9.306026e+01 1.847700e+02 2.022620e+02
    endloop
  endfacet
  facet normal 8.590540e-01 0.000000e+00 -5.118850e-01
    outer loop
      vertex   -9.306026e+01 1.847700e+02 2.022620e+02
      vertex   -9.308142e+01 1.854700e+02 2.022265e+02
      vertex   -9.306026e+01 1.854700e+02 2.022620e+02
    endloop
  endfacet
  facet normal 8.983910e-01 0.000000e+00 -4.391966e-01
    outer loop
      vertex   -9.306026e+01 1.847700e+02 2.022620e+02
      vertex   -9.306026e+01 1.854700e+02 2.022620e+02
      vertex   -9.304211e+01 1.847700e+02 2.022992e+02
    endloop
  endfacet
  facet normal 8.983910e-01 0.000000e+00 -4.391966e-01
    outer loop
      vertex   -9.304211e+01 1.847700e+02 2.022992e+02
      vertex   -9.306026e+01 1.854700e+02 2.022620e+02
      vertex   -9.304211e+01 1.854700e+02 2.022992e+02
    endloop
  endfacet
  facet normal 9.315911e-01 0.000000e+00 -3.635080e-01
    outer loop
      vertex   -9.304211e+01 1.847700e+02 2.022992e+02
      vertex   -9.304211e+01 1.854700e+02 2.022992e+02
      vertex   -9.302709e+01 1.847700e+02 2.023377e+02
    endloop
  endfacet
  facet normal 9.315911e-01 0.000000e+00 -3.635080e-01
    outer loop
      vertex   -9.302709e+01 1.847700e+02 2.023377e+02
      vertex   -9.304211e+01 1.854700e+02 2.022992e+02
      vertex   -9.302709e+01 1.854700e+02 2.023377e+02
    endloop
  endfacet
  facet normal 9.584275e-01 0.000000e+00 -2.853362e-01
    outer loop
      vertex   -9.302709e+01 1.847700e+02 2.023377e+02
      vertex   -9.302709e+01 1.854700e+02 2.023377e+02
      vertex   -9.301530e+01 1.847700e+02 2.023773e+02
    endloop
  endfacet
  facet normal 9.584275e-01 0.000000e+00 -2.853362e-01
    outer loop
      vertex   -9.301530e+01 1.847700e+02 2.023773e+02
      vertex   -9.302709e+01 1.854700e+02 2.023377e+02
      vertex   -9.301530e+01 1.854700e+02 2.023773e+02
    endloop
  endfacet
  facet normal 9.787168e-01 0.000000e+00 -2.052153e-01
    outer loop
      vertex   -9.301530e+01 1.847700e+02 2.023773e+02
      vertex   -9.301530e+01 1.854700e+02 2.023773e+02
      vertex   -9.300682e+01 1.847700e+02 2.024177e+02
    endloop
  endfacet
  facet normal 9.787168e-01 0.000000e+00 -2.052153e-01
    outer loop
      vertex   -9.300682e+01 1.847700e+02 2.024177e+02
      vertex   -9.301530e+01 1.854700e+02 2.023773e+02
      vertex   -9.300682e+01 1.854700e+02 2.024177e+02
    endloop
  endfacet
  facet normal 9.923206e-01 0.000000e+00 -1.236926e-01
    outer loop
      vertex   -9.300682e+01 1.847700e+02 2.024177e+02
      vertex   -9.300682e+01 1.854700e+02 2.024177e+02
      vertex   -9.300171e+01 1.847700e+02 2.024587e+02
    endloop
  endfacet
  facet normal 9.923206e-01 0.000000e+00 -1.236926e-01
    outer loop
      vertex   -9.300171e+01 1.847700e+02 2.024587e+02
      vertex   -9.300682e+01 1.854700e+02 2.024177e+02
      vertex   -9.300171e+01 1.854700e+02 2.024587e+02
    endloop
  endfacet
  facet normal 9.991458e-01 0.000000e+00 -4.132497e-02
    outer loop
      vertex   -9.300171e+01 1.847700e+02 2.024587e+02
      vertex   -9.300171e+01 1.854700e+02 2.024587e+02
      vertex   -9.300000e+01 1.847700e+02 2.025000e+02
    endloop
  endfacet
  facet normal 9.991458e-01 0.000000e+00 -4.132497e-02
    outer loop
      vertex   -9.300000e+01 1.847700e+02 2.025000e+02
      vertex   -9.300171e+01 1.854700e+02 2.024587e+02
      vertex   -9.300000e+01 1.854700e+02 2.025000e+02
    endloop
  endfacet
  facet normal -5.684342e-15 -0.000000e+00 -1.000000e+00
    outer loop
      vertex   -9.850000e+01 1.854700e+02 2.020000e+02
      vertex   -9.350000e+01 1.854700e+02 2.020000e+02
      vertex   -9.850000e+01 1.847700e+02 2.020000e+02
    endloop
  endfacet
  facet normal -5.684342e-15 0.000000e+00 -1.000000e+00
    outer loop
      vertex   -9.850000e+01 1.847700e+02 2.020000e+02
      vertex   -9.350000e+01 1.854700e+02 2.020000e+02
      vertex   -9.350000e+01 1.847700e+02 2.020000e+02
    endloop
  endfacet
  facet normal -9.991458e-01 0.000000e+00 -4.132497e-02
    outer loop
      vertex   -9.900000e+01 1.847700e+02 2.025000e+02
      vertex   -9.900000e+01 1.854700e+02 2.025000e+02
      vertex   -9.899829e+01 1.847700e+02 2.024587e+02
    endloop
  endfacet
  facet normal -9.991458e-01 0.000000e+00 -4.132497e-02
    outer loop
      vertex   -9.899829e+01 1.847700e+02 2.024587e+02
      vertex   -9.900000e+01 1.854700e+02 2.025000e+02
      vertex   -9.899829e+01 1.854700e+02 2.024587e+02
    endloop
  endfacet
  facet normal -9.923206e-01 0.000000e+00 -1.236926e-01
    outer loop
      vertex   -9.899829e+01 1.847700e+02 2.024587e+02
      vertex   -9.899829e+01 1.854700e+02 2.024587e+02
      vertex   -9.899318e+01 1.847700e+02 2.024177e+02
    endloop
  endfacet
  facet normal -9.923206e-01 0.000000e+00 -1.236926e-01
    outer loop
      vertex   -9.899318e+01 1.847700e+02 2.024177e+02
      vertex   -9.899829e+01 1.854700e+02 2.024587e+02
      vertex   -9.899318e+01 1.854700e+02 2.024177e+02
    endloop
  endfacet
  facet normal -9.787168e-01 0.000000e+00 -2.052153e-01
    outer loop
      vertex   -9.899318e+01 1.847700e+02 2.024177e+02
      vertex   -9.899318e+01 1.854700e+02 2.024177e+02
      vertex   -9.898470e+01 1.847700e+02 2.023773e+02
    endloop
  endfacet
  facet normal -9.787168e-01 0.000000e+00 -2.052153e-01
    outer loop
      vertex   -9.898470e+01 1.847700e+02 2.023773e+02
      vertex   -9.899318e+01 1.854700e+02 2.024177e+02
      vertex   -9.898470e+01 1.854700e+02 2.023773e+02
    endloop
  endfacet
  facet normal -9.584275e-01 0.000000e+00 -2.853362e-01
    outer loop
      vertex   -9.898470e+01 1.847700e+02 2.023773e+02
      vertex   -9.898470e+01 1.854700e+02 2.023773e+02
      vertex   -9.897291e+01 1.847700e+02 2.023377e+02
    endloop
  endfacet
  facet normal -9.584275e-01 0.000000e+00 -2.853362e-01
    outer loop
      vertex   -9.897291e+01 1.847700e+02 2.023377e+02
      vertex   -9.898470e+01 1.854700e+02 2.023773e+02
      vertex   -9.897291e+01 1.854700e+02 2.023377e+02
    endloop
  endfacet
  facet normal -9.315911e-01 0.000000e+00 -3.635080e-01
    outer loop
      vertex   -9.897291e+01 1.847700e+02 2.023377e+02
      vertex   -9.897291e+01 1.854700e+02 2.023377e+02
      vertex   -9.895789e+01 1.847700e+02 2.022992e+02
    endloop
  endfacet
  facet normal -9.315911e-01 0.000000e+00 -3.635080e-01
    outer loop
      vertex   -9.895789e+01 1.847700e+02 2.022992e+02
      vertex   -9.897291e+01 1.854700e+02 2.023377e+02
      vertex   -9.895789e+01 1.854700e+02 2.022992e+02
    endloop
  endfacet
  facet normal -8.983910e-01 0.000000e+00 -4.391966e-01
    outer loop
      vertex   -9.895789e+01 1.847700e+02 2.022992e+02
      vertex   -9.895789e+01 1.854700e+02 2.022992e+02
      vertex   -9.893974e+01 1.847700e+02 2.022620e+02
    endloop
  endfacet
  facet normal -8.983910e-01 0.000000e+00 -4.391966e-01
    outer loop
      vertex   -9.893974e+01 1.847700e+02 2.022620e+02
      vertex   -9.895789e+01 1.854700e+02 2.022992e+02
      vertex   -9.893974e+01 1.854700e+02 2.022620e+02
    endloop
  endfacet
  facet normal -8.590540e-01 0.000000e+00 -5.118850e-01
    outer loop
      vertex   -9.893974e+01 1.847700e+02 2.022620e+02
      vertex   -9.893974e+01 1.854700e+02 2.022620e+02
      vertex   -9.891858e+01 1.847700e+02 2.022265e+02
    endloop
  endfacet
  facet normal -8.590540e-01 0.000000e+00 -5.118850e-01
    outer loop
      vertex   -9.891858e+01 1.847700e+02 2.022265e+02
      vertex   -9.893974e+01 1.854700e+02 2.022620e+02
      vertex   -9.891858e+01 1.854700e+02 2.022265e+02
    endloop
  endfacet
  facet normal -8.138487e-01 0.000000e+00 -5.810768e-01
    outer loop
      vertex   -9.891858e+01 1.847700e+02 2.022265e+02
      vertex   -9.891858e+01 1.854700e+02 2.022265e+02
      vertex   -9.889457e+01 1.847700e+02 2.021929e+02
    endloop
  endfacet
  facet normal -8.138487e-01 0.000000e+00 -5.810768e-01
    outer loop
      vertex   -9.889457e+01 1.847700e+02 2.021929e+02
      vertex   -9.891858e+01 1.854700e+02 2.022265e+02
      vertex   -9.889457e+01 1.854700e+02 2.021929e+02
    endloop
  endfacet
  facet normal -7.630841e-01 0.000000e+00 -6.462992e-01
    outer loop
      vertex   -9.889457e+01 1.847700e+02 2.021929e+02
      vertex   -9.889457e+01 1.854700e+02 2.021929e+02
      vertex   -9.886786e+01 1.847700e+02 2.021614e+02
    endloop
  endfacet
  facet normal -7.630841e-01 0.000000e+00 -6.462992e-01
    outer loop
      vertex   -9.886786e+01 1.847700e+02 2.021614e+02
      vertex   -9.889457e+01 1.854700e+02 2.021929e+02
      vertex   -9.886786e+01 1.854700e+02 2.021614e+02
    endloop
  endfacet
  facet normal -7.071068e-01 0.000000e+00 -7.071068e-01
    outer loop
      vertex   -9.886786e+01 1.847700e+02 2.021614e+02
      vertex   -9.886786e+01 1.854700e+02 2.021614e+02
      vertex   -9.883864e+01 1.847700e+02 2.021321e+02
    endloop
  endfacet
  facet normal -7.071068e-01 0.000000e+00 -7.071068e-01
    outer loop
      vertex   -9.883864e+01 1.847700e+02 2.021321e+02
      vertex   -9.886786e+01 1.854700e+02 2.021614e+02
      vertex   -9.883864e+01 1.854700e+02 2.021321e+02
    endloop
  endfacet
  facet normal -6.462992e-01 0.000000e+00 -7.630841e-01
    outer loop
      vertex   -9.883864e+01 1.847700e+02 2.021321e+02
      vertex   -9.883864e+01 1.854700e+02 2.021321e+02
      vertex   -9.880711e+01 1.847700e+02 2.021054e+02
    endloop
  endfacet
  facet normal -6.462992e-01 0.000000e+00 -7.630841e-01
    outer loop
      vertex   -9.880711e+01 1.847700e+02 2.021054e+02
      vertex   -9.883864e+01 1.854700e+02 2.021321e+02
      vertex   -9.880711e+01 1.854700e+02 2.021054e+02
    endloop
  endfacet
  facet normal -5.810768e-01 0.000000e+00 -8.138487e-01
    outer loop
      vertex   -9.880711e+01 1.847700e+02 2.021054e+02
      vertex   -9.880711e+01 1.854700e+02 2.021054e+02
      vertex   -9.877348e+01 1.847700e+02 2.020814e+02
    endloop
  endfacet
  facet normal -5.810768e-01 0.000000e+00 -8.138487e-01
    outer loop
      vertex   -9.877348e+01 1.847700e+02 2.020814e+02
      vertex   -9.880711e+01 1.854700e+02 2.021054e+02
      vertex   -9.877348e+01 1.854700e+02 2.020814e+02
    endloop
  endfacet
  facet normal -5.118850e-01 0.000000e+00 -8.590540e-01
    outer loop
      vertex   -9.877348e+01 1.847700e+02 2.020814e+02
      vertex   -9.877348e+01 1.854700e+02 2.020814e+02
      vertex   -9.873798e+01 1.847700e+02 2.020603e+02
    endloop
  endfacet
  facet normal -5.118850e-01 0.000000e+00 -8.590540e-01
    outer loop
      vertex   -9.873798e+01 1.847700e+02 2.020603e+02
      vertex   -9.877348e+01 1.854700e+02 2.020814e+02
      vertex   -9.873798e+01 1.854700e+02 2.020603e+02
    endloop
  endfacet
  facet normal -4.391966e-01 0.000000e+00 -8.983910e-01
    outer loop
      vertex   -9.873798e+01 1.847700e+02 2.020603e+02
      vertex   -9.873798e+01 1.854700e+02 2.020603e+02
      vertex   -9.870085e+01 1.847700e+02 2.020421e+02
    endloop
  endfacet
  facet normal -4.391966e-01 0.000000e+00 -8.983910e-01
    outer loop
      vertex   -9.870085e+01 1.847700e+02 2.020421e+02
      vertex   -9.873798e+01 1.854700e+02 2.020603e+02
      vertex   -9.870085e+01 1.854700e+02 2.020421e+02
    endloop
  endfacet
  facet normal -3.635080e-01 0.000000e+00 -9.315911e-01
    outer loop
      vertex   -9.870085e+01 1.847700e+02 2.020421e+02
      vertex   -9.870085e+01 1.854700e+02 2.020421e+02
      vertex   -9.866235e+01 1.847700e+02 2.020271e+02
    endloop
  endfacet
  facet normal -3.635080e-01 0.000000e+00 -9.315911e-01
    outer loop
      vertex   -9.866235e+01 1.847700e+02 2.020271e+02
      vertex   -9.870085e+01 1.854700e+02 2.020421e+02
      vertex   -9.866235e+01 1.854700e+02 2.020271e+02
    endloop
  endfacet
  facet normal -2.853362e-01 0.000000e+00 -9.584275e-01
    outer loop
      vertex   -9.866235e+01 1.847700e+02 2.020271e+02
      vertex   -9.866235e+01 1.854700e+02 2.020271e+02
      vertex   -9.862274e+01 1.847700e+02 2.020153e+02
    endloop
  endfacet
  facet normal -2.853362e-01 0.000000e+00 -9.584275e-01
    outer loop
      vertex   -9.862274e+01 1.847700e+02 2.020153e+02
      vertex   -9.866235e+01 1.854700e+02 2.020271e+02
      vertex   -9.862274e+01 1.854700e+02 2.020153e+02
    endloop
  endfacet
  facet normal -2.052153e-01 0.000000e+00 -9.787168e-01
    outer loop
      vertex   -9.862274e+01 1.847700e+02 2.020153e+02
      vertex   -9.862274e+01 1.854700e+02 2.020153e+02
      vertex   -9.858230e+01 1.847700e+02 2.020068e+02
    endloop
  endfacet
  facet normal -2.052153e-01 0.000000e+00 -9.787168e-01
    outer loop
      vertex   -9.858230e+01 1.847700e+02 2.020068e+02
      vertex   -9.862274e+01 1.854700e+02 2.020153e+02
      vertex   -9.858230e+01 1.854700e+02 2.020068e+02
    endloop
  endfacet
  facet normal -1.236926e-01 0.000000e+00 -9.923206e-01
    outer loop
      vertex   -9.858230e+01 1.847700e+02 2.020068e+02
      vertex   -9.858230e+01 1.854700e+02 2.020068e+02
      vertex   -9.854129e+01 1.847700e+02 2.020017e+02
    endloop
  endfacet
  facet normal -1.236926e-01 0.000000e+00 -9.923206e-01
    outer loop
      vertex   -9.854129e+01 1.847700e+02 2.020017e+02
      vertex   -9.858230e+01 1.854700e+02 2.020068e+02
      vertex   -9.854129e+01 1.854700e+02 2.020017e+02
    endloop
  endfacet
  facet normal -4.132497e-02 0.000000e+00 -9.991458e-01
    outer loop
      vertex   -9.854129e+01 1.847700e+02 2.020017e+02
      vertex   -9.854129e+01 1.854700e+02 2.020017e+02
      vertex   -9.850000e+01 1.847700e+02 2.020000e+02
    endloop
  endfacet
  facet normal -4.132497e-02 0.000000e+00 -9.991458e-01
    outer loop
      vertex   -9.850000e+01 1.847700e+02 2.020000e+02
      vertex   -9.854129e+01 1.854700e+02 2.020017e+02
      vertex   -9.850000e+01 1.854700e+02 2.020000e+02
    endloop
  endfacet
  facet normal -0.000000e+00 -1.000000e+00 -0.000000e+00
    outer loop
      vertex   -9.702831e+01 1.847700e+02 2.065000e+02
      vertex   -9.900000e+01 1.847700e+02 2.075000e+02
      vertex   -9.702831e+01 1.847700e+02 2.035000e+02
    endloop
  endfacet
  facet normal -0.000000e+00 -1.000000e+00 0.000000e+00
    outer loop
      vertex   -9.702831e+01 1.847700e+02 2.035000e+02
      vertex   -9.900000e+01 1.847700e+02 2.075000e+02
      vertex   -9.900000e+01 1.847700e+02 2.025000e+02
    endloop
  endfacet
  facet normal 0.000000e+00 -1.000000e+00 0.000000e+00
    outer loop
      vertex   -9.702831e+01 1.847700e+02 2.035000e+02
      vertex   -9.900000e+01 1.847700e+02 2.025000e+02
      vertex   -9.850000e+01 1.847700e+02 2.020000e+02
    endloop
  endfacet
  facet normal 0.000000e+00 -1.000000e+00 0.000000e+00
    outer loop
      vertex   -9.850000e+01 1.847700e+02 2.020000e+02
      vertex   -9.900000e+01 1.847700e+02 2.025000e+02
      vertex   -9.854129e+01 1.847700e+02 2.020017e+02
    endloop
  endfacet
  facet normal 0.000000e+00 -1.000000e+00 0.000000e+00
    outer loop
      vertex   -9.854129e+01 1.847700e+02 2.020017e+02
      vertex   -9.900000e+01 1.847700e+02 2.025000e+02
      vertex   -9.858230e+01 1.847700e+02 2.020068e+02
    endloop
  endfacet
  facet normal 0.000000e+00 -1.000000e+00 0.000000e+00
    outer loop
      vertex   -9.858230e+01 1.847700e+02 2.020068e+02
      vertex   -9.900000e+01 1.847700e+02 2.025000e+02
      vertex   -9.862274e+01 1.847700e+02 2.020153e+02
    endloop
  endfacet
  facet normal 0.000000e+00 -1.000000e+00 0.000000e+00
    outer loop
      vertex   -9.862274e+01 1.847700e+02 2.020153e+02
      vertex   -9.900000e+01 1.847700e+02 2.025000e+02
      vertex   -9.866235e+01 1.847700e+02 2.020271e+02
    endloop
  endfacet
  facet normal 0.000000e+00 -1.000000e+00 0.000000e+00
    outer loop
      vertex   -9.866235e+01 1.847700e+02 2.020271e+02
      vertex   -9.900000e+01 1.847700e+02 2.025000e+02
      vertex   -9.870085e+01 1.847700e+02 2.020421e+02
    endloop
  endfacet
  facet normal 0.000000e+00 -1.000000e+00 0.000000e+00
    outer loop
      vertex   -9.870085e+01 1.847700e+02 2.020421e+02
      vertex   -9.900000e+01 1.847700e+02 2.025000e+02
      vertex   -9.873798e+01 1.847700e+02 2.020603e+02
    endloop
  endfacet
  facet normal 0.000000e+00 -1.000000e+00 0.000000e+00
    outer loop
      vertex   -9.873798e+01 1.847700e+02 2.020603e+02
      vertex   -9.900000e+01 1.847700e+02 2.025000e+02
      vertex   -9.877348e+01 1.847700e+02 2.020814e+02
    endloop
  endfacet
  facet normal 0.000000e+00 -1.000000e+00 0.000000e+00
    outer loop
      vertex   -9.877348e+01 1.847700e+02 2.020814e+02
      vertex   -9.900000e+01 1.847700e+02 2.025000e+02
      vertex   -9.880711e+01 1.847700e+02 2.021054e+02
    endloop
  endfacet
  facet normal 0.000000e+00 -1.000000e+00 0.000000e+00
    outer loop
      vertex   -9.880711e+01 1.847700e+02 2.021054e+02
      vertex   -9.900000e+01 1.847700e+02 2.025000e+02
      vertex   -9.883864e+01 1.847700e+02 2.021321e+02
    endloop
  endfacet
  facet normal 0.000000e+00 -1.000000e+00 0.000000e+00
    outer loop
      vertex   -9.883864e+01 1.847700e+02 2.021321e+02
      vertex   -9.900000e+01 1.847700e+02 2.025000e+02
      vertex   -9.886786e+01 1.847700e+02 2.021614e+02
    endloop
  endfacet
  facet normal 0.000000e+00 -1.000000e+00 0.000000e+00
    outer loop
      vertex   -9.886786e+01 1.847700e+02 2.021614e+02
      vertex   -9.900000e+01 1.847700e+02 2.025000e+02
      vertex   -9.889457e+01 1.847700e+02 2.021929e+02
    endloop
  endfacet
  facet normal 0.000000e+00 -1.000000e+00 0.000000e+00
    outer loop
      vertex   -9.889457e+01 1.847700e+02 2.021929e+02
      vertex   -9.900000e+01 1.847700e+02 2.025000e+02
      vertex   -9.891858e+01 1.847700e+02 2.022265e+02
    endloop
  endfacet
  facet normal 0.000000e+00 -1.000000e+00 0.000000e+00
    outer loop
      vertex   -9.891858e+01 1.847700e+02 2.022265e+02
      vertex   -9.900000e+01 1.847700e+02 2.025000e+02
      vertex   -9.893974e+01 1.847700e+02 2.022620e+02
    endloop
  endfacet
  facet normal 0.000000e+00 -1.000000e+00 0.000000e+00
    outer loop
      vertex   -9.893974e+01 1.847700e+02 2.022620e+02
      vertex   -9.900000e+01 1.847700e+02 2.025000e+02
      vertex   -9.895789e+01 1.847700e+02 2.022992e+02
    endloop
  endfacet
  facet normal 0.000000e+00 -1.000000e+00 0.000000e+00
    outer loop
      vertex   -9.895789e+01 1.847700e+02 2.022992e+02
      vertex   -9.900000e+01 1.847700e+02 2.025000e+02
      vertex   -9.897291e+01 1.847700e+02 2.023377e+02
    endloop
  endfacet
  facet normal 0.000000e+00 -1.000000e+00 0.000000e+00
    outer loop
      vertex   -9.897291e+01 1.847700e+02 2.023377e+02
      vertex   -9.900000e+01 1.847700e+02 2.025000e+02
      vertex   -9.898470e+01 1.847700e+02 2.023773e+02
    endloop
  endfacet
  facet normal 0.000000e+00 -1.000000e+00 0.000000e+00
    outer loop
      vertex   -9.898470e+01 1.847700e+02 2.023773e+02
      vertex   -9.900000e+01 1.847700e+02 2.025000e+02
      vertex   -9.899318e+01 1.847700e+02 2.024177e+02
    endloop
  endfacet
  facet normal 0.000000e+00 -1.000000e+00 0.000000e+00
    outer loop
      vertex   -9.899318e+01 1.847700e+02 2.024177e+02
      vertex   -9.900000e+01 1.847700e+02 2.025000e+02
      vertex   -9.899829e+01 1.847700e+02 2.024587e+02
    endloop
  endfacet
  facet normal 0.000000e+00 -1.000000e+00 0.000000e+00
    outer loop
      vertex   -9.900000e+01 1.847700e+02 2.075000e+02
      vertex   -9.702831e+01 1.847700e+02 2.065000e+02
      vertex   -9.850000e+01 1.847700e+02 2.080000e+02
    endloop
  endfacet
  facet normal 0.000000e+00 -1.000000e+00 0.000000e+00
    outer loop
      vertex   -9.850000e+01 1.847700e+02 2.080000e+02
      vertex   -9.702831e+01 1.847700e+02 2.065000e+02
      vertex   -9.497169e+01 1.847700e+02 2.065000e+02
    endloop
  endfacet
  facet normal 0.000000e+00 -1.000000e+00 0.000000e+00
    outer loop
      vertex   -9.850000e+01 1.847700e+02 2.080000e+02
      vertex   -9.497169e+01 1.847700e+02 2.065000e+02
      vertex   -9.350000e+01 1.847700e+02 2.080000e+02
    endloop
  endfacet
  facet normal 0.000000e+00 -1.000000e+00 -0.000000e+00
    outer loop
      vertex   -9.350000e+01 1.847700e+02 2.080000e+02
      vertex   -9.497169e+01 1.847700e+02 2.065000e+02
      vertex   -9.300000e+01 1.847700e+02 2.075000e+02
    endloop
  endfacet
  facet normal 0.000000e+00 -1.000000e+00 0.000000e+00
    outer loop
      vertex   -9.350000e+01 1.847700e+02 2.080000e+02
      vertex   -9.300000e+01 1.847700e+02 2.075000e+02
      vertex   -9.300171e+01 1.847700e+02 2.075413e+02
    endloop
  endfacet
  facet normal 0.000000e+00 -1.000000e+00 0.000000e+00
    outer loop
      vertex   -9.497169e+01 1.847700e+02 2.065000e+02
      vertex   -9.497169e+01 1.847700e+02 2.059925e+02
      vertex   -9.300000e+01 1.847700e+02 2.075000e+02
    endloop
  endfacet
  facet normal 0.000000e+00 -1.000000e+00 -0.000000e+00
    outer loop
      vertex   -9.300000e+01 1.847700e+02 2.075000e+02
      vertex   -9.497169e+01 1.847700e+02 2.059925e+02
      vertex   -9.300000e+01 1.847700e+02 2.025000e+02
    endloop
  endfacet
  facet normal 0.000000e+00 -1.000000e+00 0.000000e+00
    outer loop
      vertex   -9.300000e+01 1.847700e+02 2.025000e+02
      vertex   -9.497169e+01 1.847700e+02 2.059925e+02
      vertex   -9.517019e+01 1.847700e+02 2.052824e+02
    endloop
  endfacet
  facet normal 0.000000e+00 -1.000000e+00 0.000000e+00
    outer loop
      vertex   -9.300000e+01 1.847700e+02 2.025000e+02
      vertex   -9.517019e+01 1.847700e+02 2.052824e+02
      vertex   -9.517019e+01 1.847700e+02 2.047749e+02
    endloop
  endfacet
  facet normal -0.000000e+00 -1.000000e+00 0.000000e+00
    outer loop
      vertex   -9.497169e+01 1.847700e+02 2.059925e+02
      vertex   -9.642258e+01 1.847700e+02 2.059925e+02
      vertex   -9.517019e+01 1.847700e+02 2.052824e+02
    endloop
  endfacet
  facet normal 0.000000e+00 -1.000000e+00 0.000000e+00
    outer loop
      vertex   -9.517019e+01 1.847700e+02 2.052824e+02
      vertex   -9.642258e+01 1.847700e+02 2.059925e+02
      vertex   -9.642258e+01 1.847700e+02 2.052824e+02
    endloop
  endfacet
  facet normal 0.000000e+00 -1.000000e+00 0.000000e+00
    outer loop
      vertex   -9.642258e+01 1.847700e+02 2.047749e+02
      vertex   -9.642258e+01 1.847700e+02 2.035000e+02
      vertex   -9.517019e+01 1.847700e+02 2.047749e+02
    endloop
  endfacet
  facet normal 0.000000e+00 -1.000000e+00 -0.000000e+00
    outer loop
      vertex   -9.517019e+01 1.847700e+02 2.047749e+02
      vertex   -9.642258e+01 1.847700e+02 2.035000e+02
      vertex   -9.350000e+01 1.847700e+02 2.020000e+02
    endloop
  endfacet
  facet normal 0.000000e+00 -1.000000e+00 0.000000e+00
    outer loop
      vertex   -9.517019e+01 1.847700e+02 2.047749e+02
      vertex   -9.350000e+01 1.847700e+02 2.020000e+02
      vertex   -9.300000e+01 1.847700e+02 2.025000e+02
    endloop
  endfacet
  facet normal 0.000000e+00 -1.000000e+00 0.000000e+00
    outer loop
      vertex   -9.300000e+01 1.847700e+02 2.025000e+02
      vertex   -9.350000e+01 1.847700e+02 2.020000e+02
      vertex   -9.345871e+01 1.847700e+02 2.020017e+02
    endloop
  endfacet
  facet normal 0.000000e+00 -1.000000e+00 0.000000e+00
    outer loop
      vertex   -9.300000e+01 1.847700e+02 2.025000e+02
      vertex   -9.345871e+01 1.847700e+02 2.020017e+02
      vertex   -9.341770e+01 1.847700e+02 2.020068e+02
    endloop
  endfacet
  facet normal 0.000000e+00 -1.000000e+00 0.000000e+00
    outer loop
      vertex   -9.350000e+01 1.847700e+02 2.020000e+02
      vertex   -9.642258e+01 1.847700e+02 2.035000e+02
      vertex   -9.850000e+01 1.847700e+02 2.020000e+02
    endloop
  endfacet
  facet normal 0.000000e+00 -1.000000e+00 0.000000e+00
    outer loop
      vertex   -9.850000e+01 1.847700e+02 2.020000e+02
      vertex   -9.642258e+01 1.847700e+02 2.035000e+02
      vertex   -9.702831e+01 1.847700e+02 2.035000e+02
    endloop
  endfacet
  facet normal 0.000000e+00 -1.000000e+00 0.000000e+00
    outer loop
      vertex   -9.341770e+01 1.847700e+02 2.020068e+02
      vertex   -9.337726e+01 1.847700e+02 2.020153e+02
      vertex   -9.300000e+01 1.847700e+02 2.025000e+02
    endloop
  endfacet
  facet normal 0.000000e+00 -1.000000e+00 0.000000e+00
    outer loop
      vertex   -9.300000e+01 1.847700e+02 2.025000e+02
      vertex   -9.337726e+01 1.847700e+02 2.020153e+02
      vertex   -9.333765e+01 1.847700e+02 2.020271e+02
    endloop
  endfacet
  facet normal 0.000000e+00 -1.000000e+00 0.000000e+00
    outer loop
      vertex   -9.300000e+01 1.847700e+02 2.025000e+02
      vertex   -9.333765e+01 1.847700e+02 2.020271e+02
      vertex   -9.329915e+01 1.847700e+02 2.020421e+02
    endloop
  endfacet
  facet normal 0.000000e+00 -1.000000e+00 0.000000e+00
    outer loop
      vertex   -9.329915e+01 1.847700e+02 2.020421e+02
      vertex   -9.326203e+01 1.847700e+02 2.020603e+02
      vertex   -9.300000e+01 1.847700e+02 2.025000e+02
    endloop
  endfacet
  facet normal 0.000000e+00 -1.000000e+00 0.000000e+00
    outer loop
      vertex   -9.300000e+01 1.847700e+02 2.025000e+02
      vertex   -9.326203e+01 1.847700e+02 2.020603e+02
      vertex   -9.322653e+01 1.847700e+02 2.020814e+02
    endloop
  endfacet
  facet normal 0.000000e+00 -1.000000e+00 0.000000e+00
    outer loop
      vertex   -9.300000e+01 1.847700e+02 2.025000e+02
      vertex   -9.322653e+01 1.847700e+02 2.020814e+02
      vertex   -9.319290e+01 1.847700e+02 2.021054e+02
    endloop
  endfacet
  facet normal 0.000000e+00 -1.000000e+00 0.000000e+00
    outer loop
      vertex   -9.319290e+01 1.847700e+02 2.021054e+02
      vertex   -9.316136e+01 1.847700e+02 2.021321e+02
      vertex   -9.300000e+01 1.847700e+02 2.025000e+02
    endloop
  endfacet
  facet normal 0.000000e+00 -1.000000e+00 0.000000e+00
    outer loop
      vertex   -9.300000e+01 1.847700e+02 2.025000e+02
      vertex   -9.316136e+01 1.847700e+02 2.021321e+02
      vertex   -9.313214e+01 1.847700e+02 2.021614e+02
    endloop
  endfacet
  facet normal 0.000000e+00 -1.000000e+00 0.000000e+00
    outer loop
      vertex   -9.300000e+01 1.847700e+02 2.025000e+02
      vertex   -9.313214e+01 1.847700e+02 2.021614e+02
      vertex   -9.310543e+01 1.847700e+02 2.021929e+02
    endloop
  endfacet
  facet normal 0.000000e+00 -1.000000e+00 0.000000e+00
    outer loop
      vertex   -9.310543e+01 1.847700e+02 2.021929e+02
      vertex   -9.308142e+01 1.847700e+02 2.022265e+02
      vertex   -9.300000e+01 1.847700e+02 2.025000e+02
    endloop
  endfacet
  facet normal 0.000000e+00 -1.000000e+00 0.000000e+00
    outer loop
      vertex   -9.300000e+01 1.847700e+02 2.025000e+02
      vertex   -9.308142e+01 1.847700e+02 2.022265e+02
      vertex   -9.306026e+01 1.847700e+02 2.022620e+02
    endloop
  endfacet
  facet normal 0.000000e+00 -1.000000e+00 0.000000e+00
    outer loop
      vertex   -9.300000e+01 1.847700e+02 2.025000e+02
      vertex   -9.306026e+01 1.847700e+02 2.022620e+02
      vertex   -9.304211e+01 1.847700e+02 2.022992e+02
    endloop
  endfacet
  facet normal 0.000000e+00 -1.000000e+00 0.000000e+00
    outer loop
      vertex   -9.304211e+01 1.847700e+02 2.022992e+02
      vertex   -9.302709e+01 1.847700e+02 2.023377e+02
      vertex   -9.300000e+01 1.847700e+02 2.025000e+02
    endloop
  endfacet
  facet normal 0.000000e+00 -1.000000e+00 0.000000e+00
    outer loop
      vertex   -9.300000e+01 1.847700e+02 2.025000e+02
      vertex   -9.302709e+01 1.847700e+02 2.023377e+02
      vertex   -9.301530e+01 1.847700e+02 2.023773e+02
    endloop
  endfacet
  facet normal 0.000000e+00 -1.000000e+00 0.000000e+00
    outer loop
      vertex   -9.300000e+01 1.847700e+02 2.025000e+02
      vertex   -9.301530e+01 1.847700e+02 2.023773e+02
      vertex   -9.300682e+01 1.847700e+02 2.024177e+02
    endloop
  endfacet
  facet normal 0.000000e+00 -1.000000e+00 0.000000e+00
    outer loop
      vertex   -9.300682e+01 1.847700e+02 2.024177e+02
      vertex   -9.300171e+01 1.847700e+02 2.024587e+02
      vertex   -9.300000e+01 1.847700e+02 2.025000e+02
    endloop
  endfacet
  facet normal 0.000000e+00 -1.000000e+00 0.000000e+00
    outer loop
      vertex   -9.300171e+01 1.847700e+02 2.075413e+02
      vertex   -9.300682e+01 1.847700e+02 2.075823e+02
      vertex   -9.350000e+01 1.847700e+02 2.080000e+02
    endloop
  endfacet
  facet normal 0.000000e+00 -1.000000e+00 0.000000e+00
    outer loop
      vertex   -9.350000e+01 1.847700e+02 2.080000e+02
      vertex   -9.300682e+01 1.847700e+02 2.075823e+02
      vertex   -9.301530e+01 1.847700e+02 2.076227e+02
    endloop
  endfacet
  facet normal 0.000000e+00 -1.000000e+00 0.000000e+00
    outer loop
      vertex   -9.350000e+01 1.847700e+02 2.080000e+02
      vertex   -9.301530e+01 1.847700e+02 2.076227e+02
      vertex   -9.302709e+01 1.847700e+02 2.076624e+02
    endloop
  endfacet
  facet normal 0.000000e+00 -1.000000e+00 0.000000e+00
    outer loop
      vertex   -9.302709e+01 1.847700e+02 2.076624e+02
      vertex   -9.304211e+01 1.847700e+02 2.077009e+02
      vertex   -9.350000e+01 1.847700e+02 2.080000e+02
    endloop
  endfacet
  facet normal 0.000000e+00 -1.000000e+00 0.000000e+00
    outer loop
      vertex   -9.350000e+01 1.847700e+02 2.080000e+02
      vertex   -9.304211e+01 1.847700e+02 2.077009e+02
      vertex   -9.306026e+01 1.847700e+02 2.077380e+02
    endloop
  endfacet
  facet normal 0.000000e+00 -1.000000e+00 0.000000e+00
    outer loop
      vertex   -9.350000e+01 1.847700e+02 2.080000e+02
      vertex   -9.306026e+01 1.847700e+02 2.077380e+02
      vertex   -9.308142e+01 1.847700e+02 2.077735e+02
    endloop
  endfacet
  facet normal 0.000000e+00 -1.000000e+00 0.000000e+00
    outer loop
      vertex   -9.308142e+01 1.847700e+02 2.077735e+02
      vertex   -9.310543e+01 1.847700e+02 2.078071e+02
      vertex   -9.350000e+01 1.847700e+02 2.080000e+02
    endloop
  endfacet
  facet normal 0.000000e+00 -1.000000e+00 0.000000e+00
    outer loop
      vertex   -9.350000e+01 1.847700e+02 2.080000e+02
      vertex   -9.310543e+01 1.847700e+02 2.078071e+02
      vertex   -9.313214e+01 1.847700e+02 2.078386e+02
    endloop
  endfacet
  facet normal 0.000000e+00 -1.000000e+00 0.000000e+00
    outer loop
      vertex   -9.350000e+01 1.847700e+02 2.080000e+02
      vertex   -9.313214e+01 1.847700e+02 2.078386e+02
      vertex   -9.316136e+01 1.847700e+02 2.078679e+02
    endloop
  endfacet
  facet normal 0.000000e+00 -1.000000e+00 0.000000e+00
    outer loop
      vertex   -9.316136e+01 1.847700e+02 2.078679e+02
      vertex   -9.319290e+01 1.847700e+02 2.078946e+02
      vertex   -9.350000e+01 1.847700e+02 2.080000e+02
    endloop
  endfacet
  facet normal 0.000000e+00 -1.000000e+00 0.000000e+00
    outer loop
      vertex   -9.350000e+01 1.847700e+02 2.080000e+02
      vertex   -9.319290e+01 1.847700e+02 2.078946e+02
      vertex   -9.322653e+01 1.847700e+02 2.079186e+02
    endloop
  endfacet
  facet normal 0.000000e+00 -1.000000e+00 0.000000e+00
    outer loop
      vertex   -9.350000e+01 1.847700e+02 2.080000e+02
      vertex   -9.322653e+01 1.847700e+02 2.079186e+02
      vertex   -9.326203e+01 1.847700e+02 2.079397e+02
    endloop
  endfacet
  facet normal 0.000000e+00 -1.000000e+00 0.000000e+00
    outer loop
      vertex   -9.326203e+01 1.847700e+02 2.079397e+02
      vertex   -9.329915e+01 1.847700e+02 2.079579e+02
      vertex   -9.350000e+01 1.847700e+02 2.080000e+02
    endloop
  endfacet
  facet normal 0.000000e+00 -1.000000e+00 0.000000e+00
    outer loop
      vertex   -9.350000e+01 1.847700e+02 2.080000e+02
      vertex   -9.329915e+01 1.847700e+02 2.079579e+02
      vertex   -9.333765e+01 1.847700e+02 2.079729e+02
    endloop
  endfacet
  facet normal 0.000000e+00 -1.000000e+00 0.000000e+00
    outer loop
      vertex   -9.350000e+01 1.847700e+02 2.080000e+02
      vertex   -9.333765e+01 1.847700e+02 2.079729e+02
      vertex   -9.337726e+01 1.847700e+02 2.079847e+02
    endloop
  endfacet
  facet normal 0.000000e+00 -1.000000e+00 0.000000e+00
    outer loop
      vertex   -9.337726e+01 1.847700e+02 2.079847e+02
      vertex   -9.341770e+01 1.847700e+02 2.079932e+02
      vertex   -9.350000e+01 1.847700e+02 2.080000e+02
    endloop
  endfacet
  facet normal 0.000000e+00 -1.000000e+00 0.000000e+00
    outer loop
      vertex   -9.350000e+01 1.847700e+02 2.080000e+02
      vertex   -9.341770e+01 1.847700e+02 2.079932e+02
      vertex   -9.345871e+01 1.847700e+02 2.079983e+02
    endloop
  endfacet
  facet normal 0.000000e+00 -1.000000e+00 -0.000000e+00
    outer loop
      vertex   -9.854129e+01 1.847700e+02 2.079983e+02
      vertex   -9.858230e+01 1.847700e+02 2.079932e+02
      vertex   -9.850000e+01 1.847700e+02 2.080000e+02
    endloop
  endfacet
  facet normal 0.000000e+00 -1.000000e+00 0.000000e+00
    outer loop
      vertex   -9.850000e+01 1.847700e+02 2.080000e+02
      vertex   -9.858230e+01 1.847700e+02 2.079932e+02
      vertex   -9.862274e+01 1.847700e+02 2.079847e+02
    endloop
  endfacet
  facet normal 0.000000e+00 -1.000000e+00 0.000000e+00
    outer loop
      vertex   -9.850000e+01 1.847700e+02 2.080000e+02
      vertex   -9.862274e+01 1.847700e+02 2.079847e+02
      vertex   -9.866235e+01 1.847700e+02 2.079729e+02
    endloop
  endfacet
  facet normal 0.000000e+00 -1.000000e+00 -0.000000e+00
    outer loop
      vertex   -9.866235e+01 1.847700e+02 2.079729e+02
      vertex   -9.870085e+01 1.847700e+02 2.079579e+02
      vertex   -9.850000e+01 1.847700e+02 2.080000e+02
    endloop
  endfacet
  facet normal 0.000000e+00 -1.000000e+00 0.000000e+00
    outer loop
      vertex   -9.850000e+01 1.847700e+02 2.080000e+02
      vertex   -9.870085e+01 1.847700e+02 2.079579e+02
      vertex   -9.873798e+01 1.847700e+02 2.079397e+02
    endloop
  endfacet
  facet normal 0.000000e+00 -1.000000e+00 0.000000e+00
    outer loop
      vertex   -9.850000e+01 1.847700e+02 2.080000e+02
      vertex   -9.873798e+01 1.847700e+02 2.079397e+02
      vertex   -9.877348e+01 1.847700e+02 2.079186e+02
    endloop
  endfacet
  facet normal 0.000000e+00 -1.000000e+00 -0.000000e+00
    outer loop
      vertex   -9.877348e+01 1.847700e+02 2.079186e+02
      vertex   -9.880711e+01 1.847700e+02 2.078946e+02
      vertex   -9.850000e+01 1.847700e+02 2.080000e+02
    endloop
  endfacet
  facet normal 0.000000e+00 -1.000000e+00 0.000000e+00
    outer loop
      vertex   -9.850000e+01 1.847700e+02 2.080000e+02
      vertex   -9.880711e+01 1.847700e+02 2.078946e+02
      vertex   -9.883864e+01 1.847700e+02 2.078679e+02
    endloop
  endfacet
  facet normal 0.000000e+00 -1.000000e+00 0.000000e+00
    outer loop
      vertex   -9.850000e+01 1.847700e+02 2.080000e+02
      vertex   -9.883864e+01 1.847700e+02 2.078679e+02
      vertex   -9.886786e+01 1.847700e+02 2.078386e+02
    endloop
  endfacet
  facet normal 0.000000e+00 -1.000000e+00 -0.000000e+00
    outer loop
      vertex   -9.886786e+01 1.847700e+02 2.078386e+02
      vertex   -9.889457e+01 1.847700e+02 2.078071e+02
      vertex   -9.850000e+01 1.847700e+02 2.080000e+02
    endloop
  endfacet
  facet normal 0.000000e+00 -1.000000e+00 0.000000e+00
    outer loop
      vertex   -9.850000e+01 1.847700e+02 2.080000e+02
      vertex   -9.889457e+01 1.847700e+02 2.078071e+02
      vertex   -9.891858e+01 1.847700e+02 2.077735e+02
    endloop
  endfacet
  facet normal 0.000000e+00 -1.000000e+00 0.000000e+00
    outer loop
      vertex   -9.850000e+01 1.847700e+02 2.080000e+02
      vertex   -9.891858e+01 1.847700e+02 2.077735e+02
      vertex   -9.893974e+01 1.847700e+02 2.077380e+02
    endloop
  endfacet
  facet normal 0.000000e+00 -1.000000e+00 -0.000000e+00
    outer loop
      vertex   -9.893974e+01 1.847700e+02 2.077380e+02
      vertex   -9.895789e+01 1.847700e+02 2.077009e+02
      vertex   -9.850000e+01 1.847700e+02 2.080000e+02
    endloop
  endfacet
  facet normal 0.000000e+00 -1.000000e+00 0.000000e+00
    outer loop
      vertex   -9.850000e+01 1.847700e+02 2.080000e+02
      vertex   -9.895789e+01 1.847700e+02 2.077009e+02
      vertex   -9.897291e+01 1.847700e+02 2.076624e+02
    endloop
  endfacet
  facet normal 0.000000e+00 -1.000000e+00 0.000000e+00
    outer loop
      vertex   -9.850000e+01 1.847700e+02 2.080000e+02
      vertex   -9.897291e+01 1.847700e+02 2.076624e+02
      vertex   -9.898470e+01 1.847700e+02 2.076227e+02
    endloop
  endfacet
  facet normal 0.000000e+00 -1.000000e+00 -0.000000e+00
    outer loop
      vertex   -9.898470e+01 1.847700e+02 2.076227e+02
      vertex   -9.899318e+01 1.847700e+02 2.075823e+02
      vertex   -9.850000e+01 1.847700e+02 2.080000e+02
    endloop
  endfacet
  facet normal 0.000000e+00 -1.000000e+00 0.000000e+00
    outer loop
      vertex   -9.850000e+01 1.847700e+02 2.080000e+02
      vertex   -9.899318e+01 1.847700e+02 2.075823e+02
      vertex   -9.899829e+01 1.847700e+02 2.075413e+02
    endloop
  endfacet
  facet normal 0.000000e+00 -1.000000e+00 0.000000e+00
    outer loop
      vertex   -9.850000e+01 1.847700e+02 2.080000e+02
      vertex   -9.899829e+01 1.847700e+02 2.075413e+02
      vertex   -9.900000e+01 1.847700e+02 2.075000e+02
    endloop
  endfacet
  facet normal -0.000000e+00 1.000000e+00 -0.000000e+00
    outer loop
      vertex   -9.854129e+01 1.854700e+02 2.020017e+02
      vertex   -9.900000e+01 1.854700e+02 2.025000e+02
      vertex   -9.850000e+01 1.854700e+02 2.020000e+02
    endloop
  endfacet
  facet normal 0.000000e+00 1.000000e+00 -0.000000e+00
    outer loop
      vertex   -9.850000e+01 1.854700e+02 2.020000e+02
      vertex   -9.900000e+01 1.854700e+02 2.025000e+02
      vertex   -9.300000e+01 1.854700e+02 2.075000e+02
    endloop
  endfacet
  facet normal 0.000000e+00 1.000000e+00 0.000000e+00
    outer loop
      vertex   -9.850000e+01 1.854700e+02 2.020000e+02
      vertex   -9.300000e+01 1.854700e+02 2.075000e+02
      vertex   -9.300000e+01 1.854700e+02 2.025000e+02
    endloop
  endfacet
  facet normal 0.000000e+00 1.000000e+00 0.000000e+00
    outer loop
      vertex   -9.854129e+01 1.854700e+02 2.020017e+02
      vertex   -9.858230e+01 1.854700e+02 2.020068e+02
      vertex   -9.900000e+01 1.854700e+02 2.025000e+02
    endloop
  endfacet
  facet normal 0.000000e+00 1.000000e+00 0.000000e+00
    outer loop
      vertex   -9.900000e+01 1.854700e+02 2.025000e+02
      vertex   -9.858230e+01 1.854700e+02 2.020068e+02
      vertex   -9.862274e+01 1.854700e+02 2.020153e+02
    endloop
  endfacet
  facet normal 0.000000e+00 1.000000e+00 0.000000e+00
    outer loop
      vertex   -9.900000e+01 1.854700e+02 2.025000e+02
      vertex   -9.862274e+01 1.854700e+02 2.020153e+02
      vertex   -9.866235e+01 1.854700e+02 2.020271e+02
    endloop
  endfacet
  facet normal 0.000000e+00 1.000000e+00 0.000000e+00
    outer loop
      vertex   -9.866235e+01 1.854700e+02 2.020271e+02
      vertex   -9.870085e+01 1.854700e+02 2.020421e+02
      vertex   -9.900000e+01 1.854700e+02 2.025000e+02
    endloop
  endfacet
  facet normal 0.000000e+00 1.000000e+00 0.000000e+00
    outer loop
      vertex   -9.900000e+01 1.854700e+02 2.025000e+02
      vertex   -9.870085e+01 1.854700e+02 2.020421e+02
      vertex   -9.873798e+01 1.854700e+02 2.020603e+02
    endloop
  endfacet
  facet normal 0.000000e+00 1.000000e+00 0.000000e+00
    outer loop
      vertex   -9.900000e+01 1.854700e+02 2.025000e+02
      vertex   -9.873798e+01 1.854700e+02 2.020603e+02
      vertex   -9.877348e+01 1.854700e+02 2.020814e+02
    endloop
  endfacet
  facet normal 0.000000e+00 1.000000e+00 0.000000e+00
    outer loop
      vertex   -9.877348e+01 1.854700e+02 2.020814e+02
      vertex   -9.880711e+01 1.854700e+02 2.021054e+02
      vertex   -9.900000e+01 1.854700e+02 2.025000e+02
    endloop
  endfacet
  facet normal 0.000000e+00 1.000000e+00 0.000000e+00
    outer loop
      vertex   -9.900000e+01 1.854700e+02 2.025000e+02
      vertex   -9.880711e+01 1.854700e+02 2.021054e+02
      vertex   -9.883864e+01 1.854700e+02 2.021321e+02
    endloop
  endfacet
  facet normal 0.000000e+00 1.000000e+00 0.000000e+00
    outer loop
      vertex   -9.900000e+01 1.854700e+02 2.025000e+02
      vertex   -9.883864e+01 1.854700e+02 2.021321e+02
      vertex   -9.886786e+01 1.854700e+02 2.021614e+02
    endloop
  endfacet
  facet normal 0.000000e+00 1.000000e+00 0.000000e+00
    outer loop
      vertex   -9.886786e+01 1.854700e+02 2.021614e+02
      vertex   -9.889457e+01 1.854700e+02 2.021929e+02
      vertex   -9.900000e+01 1.854700e+02 2.025000e+02
    endloop
  endfacet
  facet normal 0.000000e+00 1.000000e+00 0.000000e+00
    outer loop
      vertex   -9.900000e+01 1.854700e+02 2.025000e+02
      vertex   -9.889457e+01 1.854700e+02 2.021929e+02
      vertex   -9.891858e+01 1.854700e+02 2.022265e+02
    endloop
  endfacet
  facet normal 0.000000e+00 1.000000e+00 0.000000e+00
    outer loop
      vertex   -9.900000e+01 1.854700e+02 2.025000e+02
      vertex   -9.891858e+01 1.854700e+02 2.022265e+02
      vertex   -9.893974e+01 1.854700e+02 2.022620e+02
    endloop
  endfacet
  facet normal 0.000000e+00 1.000000e+00 0.000000e+00
    outer loop
      vertex   -9.893974e+01 1.854700e+02 2.022620e+02
      vertex   -9.895789e+01 1.854700e+02 2.022992e+02
      vertex   -9.900000e+01 1.854700e+02 2.025000e+02
    endloop
  endfacet
  facet normal 0.000000e+00 1.000000e+00 0.000000e+00
    outer loop
      vertex   -9.900000e+01 1.854700e+02 2.025000e+02
      vertex   -9.895789e+01 1.854700e+02 2.022992e+02
      vertex   -9.897291e+01 1.854700e+02 2.023377e+02
    endloop
  endfacet
  facet normal 0.000000e+00 1.000000e+00 0.000000e+00
    outer loop
      vertex   -9.900000e+01 1.854700e+02 2.025000e+02
      vertex   -9.897291e+01 1.854700e+02 2.023377e+02
      vertex   -9.898470e+01 1.854700e+02 2.023773e+02
    endloop
  endfacet
  facet normal 0.000000e+00 1.000000e+00 0.000000e+00
    outer loop
      vertex   -9.898470e+01 1.854700e+02 2.023773e+02
      vertex   -9.899318e+01 1.854700e+02 2.024177e+02
      vertex   -9.900000e+01 1.854700e+02 2.025000e+02
    endloop
  endfacet
  facet normal 0.000000e+00 1.000000e+00 0.000000e+00
    outer loop
      vertex   -9.900000e+01 1.854700e+02 2.025000e+02
      vertex   -9.899318e+01 1.854700e+02 2.024177e+02
      vertex   -9.899829e+01 1.854700e+02 2.024587e+02
    endloop
  endfacet
  facet normal 0.000000e+00 1.000000e+00 0.000000e+00
    outer loop
      vertex   -9.300000e+01 1.854700e+02 2.075000e+02
      vertex   -9.900000e+01 1.854700e+02 2.025000e+02
      vertex   -9.350000e+01 1.854700e+02 2.080000e+02
    endloop
  endfacet
  facet normal 0.000000e+00 1.000000e+00 0.000000e+00
    outer loop
      vertex   -9.350000e+01 1.854700e+02 2.080000e+02
      vertex   -9.900000e+01 1.854700e+02 2.025000e+02
      vertex   -9.900000e+01 1.854700e+02 2.075000e+02
    endloop
  endfacet
  facet normal 0.000000e+00 1.000000e+00 0.000000e+00
    outer loop
      vertex   -9.350000e+01 1.854700e+02 2.080000e+02
      vertex   -9.900000e+01 1.854700e+02 2.075000e+02
      vertex   -9.850000e+01 1.854700e+02 2.080000e+02
    endloop
  endfacet
  facet normal 0.000000e+00 1.000000e+00 0.000000e+00
    outer loop
      vertex   -9.850000e+01 1.854700e+02 2.080000e+02
      vertex   -9.900000e+01 1.854700e+02 2.075000e+02
      vertex   -9.899829e+01 1.854700e+02 2.075413e+02
    endloop
  endfacet
  facet normal 0.000000e+00 1.000000e+00 0.000000e+00
    outer loop
      vertex   -9.850000e+01 1.854700e+02 2.080000e+02
      vertex   -9.899829e+01 1.854700e+02 2.075413e+02
      vertex   -9.899318e+01 1.854700e+02 2.075823e+02
    endloop
  endfacet
  facet normal 0.000000e+00 1.000000e+00 0.000000e+00
    outer loop
      vertex   -9.899318e+01 1.854700e+02 2.075823e+02
      vertex   -9.898470e+01 1.854700e+02 2.076227e+02
      vertex   -9.850000e+01 1.854700e+02 2.080000e+02
    endloop
  endfacet
  facet normal 0.000000e+00 1.000000e+00 0.000000e+00
    outer loop
      vertex   -9.850000e+01 1.854700e+02 2.080000e+02
      vertex   -9.898470e+01 1.854700e+02 2.076227e+02
      vertex   -9.897291e+01 1.854700e+02 2.076624e+02
    endloop
  endfacet
  facet normal 0.000000e+00 1.000000e+00 0.000000e+00
    outer loop
      vertex   -9.850000e+01 1.854700e+02 2.080000e+02
      vertex   -9.897291e+01 1.854700e+02 2.076624e+02
      vertex   -9.895789e+01 1.854700e+02 2.077009e+02
    endloop
  endfacet
  facet normal 0.000000e+00 1.000000e+00 0.000000e+00
    outer loop
      vertex   -9.895789e+01 1.854700e+02 2.077009e+02
      vertex   -9.893974e+01 1.854700e+02 2.077380e+02
      vertex   -9.850000e+01 1.854700e+02 2.080000e+02
    endloop
  endfacet
  facet normal 0.000000e+00 1.000000e+00 0.000000e+00
    outer loop
      vertex   -9.850000e+01 1.854700e+02 2.080000e+02
      vertex   -9.893974e+01 1.854700e+02 2.077380e+02
      vertex   -9.891858e+01 1.854700e+02 2.077735e+02
    endloop
  endfacet
  facet normal 0.000000e+00 1.000000e+00 0.000000e+00
    outer loop
      vertex   -9.850000e+01 1.854700e+02 2.080000e+02
      vertex   -9.891858e+01 1.854700e+02 2.077735e+02
      vertex   -9.889457e+01 1.854700e+02 2.078071e+02
    endloop
  endfacet
  facet normal 0.000000e+00 1.000000e+00 0.000000e+00
    outer loop
      vertex   -9.889457e+01 1.854700e+02 2.078071e+02
      vertex   -9.886786e+01 1.854700e+02 2.078386e+02
      vertex   -9.850000e+01 1.854700e+02 2.080000e+02
    endloop
  endfacet
  facet normal 0.000000e+00 1.000000e+00 0.000000e+00
    outer loop
      vertex   -9.850000e+01 1.854700e+02 2.080000e+02
      vertex   -9.886786e+01 1.854700e+02 2.078386e+02
      vertex   -9.883864e+01 1.854700e+02 2.078679e+02
    endloop
  endfacet
  facet normal 0.000000e+00 1.000000e+00 0.000000e+00
    outer loop
      vertex   -9.850000e+01 1.854700e+02 2.080000e+02
      vertex   -9.883864e+01 1.854700e+02 2.078679e+02
      vertex   -9.880711e+01 1.854700e+02 2.078946e+02
    endloop
  endfacet
  facet normal 0.000000e+00 1.000000e+00 0.000000e+00
    outer loop
      vertex   -9.880711e+01 1.854700e+02 2.078946e+02
      vertex   -9.877348e+01 1.854700e+02 2.079186e+02
      vertex   -9.850000e+01 1.854700e+02 2.080000e+02
    endloop
  endfacet
  facet normal 0.000000e+00 1.000000e+00 0.000000e+00
    outer loop
      vertex   -9.850000e+01 1.854700e+02 2.080000e+02
      vertex   -9.877348e+01 1.854700e+02 2.079186e+02
      vertex   -9.873798e+01 1.854700e+02 2.079397e+02
    endloop
  endfacet
  facet normal 0.000000e+00 1.000000e+00 0.000000e+00
    outer loop
      vertex   -9.850000e+01 1.854700e+02 2.080000e+02
      vertex   -9.873798e+01 1.854700e+02 2.079397e+02
      vertex   -9.870085e+01 1.854700e+02 2.079579e+02
    endloop
  endfacet
  facet normal 0.000000e+00 1.000000e+00 0.000000e+00
    outer loop
      vertex   -9.870085e+01 1.854700e+02 2.079579e+02
      vertex   -9.866235e+01 1.854700e+02 2.079729e+02
      vertex   -9.850000e+01 1.854700e+02 2.080000e+02
    endloop
  endfacet
  facet normal 0.000000e+00 1.000000e+00 0.000000e+00
    outer loop
      vertex   -9.850000e+01 1.854700e+02 2.080000e+02
      vertex   -9.866235e+01 1.854700e+02 2.079729e+02
      vertex   -9.862274e+01 1.854700e+02 2.079847e+02
    endloop
  endfacet
  facet normal 0.000000e+00 1.000000e+00 0.000000e+00
    outer loop
      vertex   -9.850000e+01 1.854700e+02 2.080000e+02
      vertex   -9.862274e+01 1.854700e+02 2.079847e+02
      vertex   -9.858230e+01 1.854700e+02 2.079932e+02
    endloop
  endfacet
  facet normal 0.000000e+00 1.000000e+00 0.000000e+00
    outer loop
      vertex   -9.858230e+01 1.854700e+02 2.079932e+02
      vertex   -9.854129e+01 1.854700e+02 2.079983e+02
      vertex   -9.850000e+01 1.854700e+02 2.080000e+02
    endloop
  endfacet
  facet normal 0.000000e+00 1.000000e+00 0.000000e+00
    outer loop
      vertex   -9.345871e+01 1.854700e+02 2.079983e+02
      vertex   -9.341770e+01 1.854700e+02 2.079932e+02
      vertex   -9.350000e+01 1.854700e+02 2.080000e+02
    endloop
  endfacet
  facet normal 0.000000e+00 1.000000e+00 0.000000e+00
    outer loop
      vertex   -9.350000e+01 1.854700e+02 2.080000e+02
      vertex   -9.341770e+01 1.854700e+02 2.079932e+02
      vertex   -9.337726e+01 1.854700e+02 2.079847e+02
    endloop
  endfacet
  facet normal 0.000000e+00 1.000000e+00 0.000000e+00
    outer loop
      vertex   -9.350000e+01 1.854700e+02 2.080000e+02
      vertex   -9.337726e+01 1.854700e+02 2.079847e+02
      vertex   -9.333765e+01 1.854700e+02 2.079729e+02
    endloop
  endfacet
  facet normal 0.000000e+00 1.000000e+00 0.000000e+00
    outer loop
      vertex   -9.333765e+01 1.854700e+02 2.079729e+02
      vertex   -9.329915e+01 1.854700e+02 2.079579e+02
      vertex   -9.350000e+01 1.854700e+02 2.080000e+02
    endloop
  endfacet
  facet normal 0.000000e+00 1.000000e+00 0.000000e+00
    outer loop
      vertex   -9.350000e+01 1.854700e+02 2.080000e+02
      vertex   -9.329915e+01 1.854700e+02 2.079579e+02
      vertex   -9.326203e+01 1.854700e+02 2.079397e+02
    endloop
  endfacet
  facet normal 0.000000e+00 1.000000e+00 0.000000e+00
    outer loop
      vertex   -9.350000e+01 1.854700e+02 2.080000e+02
      vertex   -9.326203e+01 1.854700e+02 2.079397e+02
      vertex   -9.322653e+01 1.854700e+02 2.079186e+02
    endloop
  endfacet
  facet normal 0.000000e+00 1.000000e+00 0.000000e+00
    outer loop
      vertex   -9.322653e+01 1.854700e+02 2.079186e+02
      vertex   -9.319290e+01 1.854700e+02 2.078946e+02
      vertex   -9.350000e+01 1.854700e+02 2.080000e+02
    endloop
  endfacet
  facet normal 0.000000e+00 1.000000e+00 0.000000e+00
    outer loop
      vertex   -9.350000e+01 1.854700e+02 2.080000e+02
      vertex   -9.319290e+01 1.854700e+02 2.078946e+02
      vertex   -9.316136e+01 1.854700e+02 2.078679e+02
    endloop
  endfacet
  facet normal 0.000000e+00 1.000000e+00 0.000000e+00
    outer loop
      vertex   -9.350000e+01 1.854700e+02 2.080000e+02
      vertex   -9.316136e+01 1.854700e+02 2.078679e+02
      vertex   -9.313214e+01 1.854700e+02 2.078386e+02
    endloop
  endfacet
  facet normal 0.000000e+00 1.000000e+00 0.000000e+00
    outer loop
      vertex   -9.313214e+01 1.854700e+02 2.078386e+02
      vertex   -9.310543e+01 1.854700e+02 2.078071e+02
      vertex   -9.350000e+01 1.854700e+02 2.080000e+02
    endloop
  endfacet
  facet normal 0.000000e+00 1.000000e+00 0.000000e+00
    outer loop
      vertex   -9.350000e+01 1.854700e+02 2.080000e+02
      vertex   -9.310543e+01 1.854700e+02 2.078071e+02
      vertex   -9.308142e+01 1.854700e+02 2.077735e+02
    endloop
  endfacet
  facet normal 0.000000e+00 1.000000e+00 0.000000e+00
    outer loop
      vertex   -9.350000e+01 1.854700e+02 2.080000e+02
      vertex   -9.308142e+01 1.854700e+02 2.077735e+02
      vertex   -9.306026e+01 1.854700e+02 2.077380e+02
    endloop
  endfacet
  facet normal 0.000000e+00 1.000000e+00 0.000000e+00
    outer loop
      vertex   -9.306026e+01 1.854700e+02 2.077380e+02
      vertex   -9.304211e+01 1.854700e+02 2.077009e+02
      vertex   -9.350000e+01 1.854700e+02 2.080000e+02
    endloop
  endfacet
  facet normal 0.000000e+00 1.000000e+00 0.000000e+00
    outer loop
      vertex   -9.350000e+01 1.854700e+02 2.080000e+02
      vertex   -9.304211e+01 1.854700e+02 2.077009e+02
      vertex   -9.302709e+01 1.854700e+02 2.076624e+02
    endloop
  endfacet
  facet normal 0.000000e+00 1.000000e+00 0.000000e+00
    outer loop
      vertex   -9.350000e+01 1.854700e+02 2.080000e+02
      vertex   -9.302709e+01 1.854700e+02 2.076624e+02
      vertex   -9.301530e+01 1.854700e+02 2.076227e+02
    endloop
  endfacet
  facet normal 0.000000e+00 1.000000e+00 0.000000e+00
    outer loop
      vertex   -9.301530e+01 1.854700e+02 2.076227e+02
      vertex   -9.300682e+01 1.854700e+02 2.075823e+02
      vertex   -9.350000e+01 1.854700e+02 2.080000e+02
    endloop
  endfacet
  facet normal 0.000000e+00 1.000000e+00 0.000000e+00
    outer loop
      vertex   -9.350000e+01 1.854700e+02 2.080000e+02
      vertex   -9.300682e+01 1.854700e+02 2.075823e+02
      vertex   -9.300171e+01 1.854700e+02 2.075413e+02
    endloop
  endfacet
  facet normal 0.000000e+00 1.000000e+00 0.000000e+00
    outer loop
      vertex   -9.350000e+01 1.854700e+02 2.080000e+02
      vertex   -9.300171e+01 1.854700e+02 2.075413e+02
      vertex   -9.300000e+01 1.854700e+02 2.075000e+02
    endloop
  endfacet
  facet normal 0.000000e+00 1.000000e+00 -0.000000e+00
    outer loop
      vertex   -9.300171e+01 1.854700e+02 2.024587e+02
      vertex   -9.300682e+01 1.854700e+02 2.024177e+02
      vertex   -9.300000e+01 1.854700e+02 2.025000e+02
    endloop
  endfacet
  facet normal 0.000000e+00 1.000000e+00 0.000000e+00
    outer loop
      vertex   -9.300000e+01 1.854700e+02 2.025000e+02
      vertex   -9.300682e+01 1.854700e+02 2.024177e+02
      vertex   -9.301530e+01 1.854700e+02 2.023773e+02
    endloop
  endfacet
  facet normal 0.000000e+00 1.000000e+00 0.000000e+00
    outer loop
      vertex   -9.300000e+01 1.854700e+02 2.025000e+02
      vertex   -9.301530e+01 1.854700e+02 2.023773e+02
      vertex   -9.302709e+01 1.854700e+02 2.023377e+02
    endloop
  endfacet
  facet normal 0.000000e+00 1.000000e+00 -0.000000e+00
    outer loop
      vertex   -9.302709e+01 1.854700e+02 2.023377e+02
      vertex   -9.304211e+01 1.854700e+02 2.022992e+02
      vertex   -9.300000e+01 1.854700e+02 2.025000e+02
    endloop
  endfacet
  facet normal 0.000000e+00 1.000000e+00 0.000000e+00
    outer loop
      vertex   -9.300000e+01 1.854700e+02 2.025000e+02
      vertex   -9.304211e+01 1.854700e+02 2.022992e+02
      vertex   -9.306026e+01 1.854700e+02 2.022620e+02
    endloop
  endfacet
  facet normal 0.000000e+00 1.000000e+00 0.000000e+00
    outer loop
      vertex   -9.300000e+01 1.854700e+02 2.025000e+02
      vertex   -9.306026e+01 1.854700e+02 2.022620e+02
      vertex   -9.308142e+01 1.854700e+02 2.022265e+02
    endloop
  endfacet
  facet normal 0.000000e+00 1.000000e+00 -0.000000e+00
    outer loop
      vertex   -9.308142e+01 1.854700e+02 2.022265e+02
      vertex   -9.310543e+01 1.854700e+02 2.021929e+02
      vertex   -9.300000e+01 1.854700e+02 2.025000e+02
    endloop
  endfacet
  facet normal 0.000000e+00 1.000000e+00 0.000000e+00
    outer loop
      vertex   -9.300000e+01 1.854700e+02 2.025000e+02
      vertex   -9.310543e+01 1.854700e+02 2.021929e+02
      vertex   -9.313214e+01 1.854700e+02 2.021614e+02
    endloop
  endfacet
  facet normal 0.000000e+00 1.000000e+00 0.000000e+00
    outer loop
      vertex   -9.300000e+01 1.854700e+02 2.025000e+02
      vertex   -9.313214e+01 1.854700e+02 2.021614e+02
      vertex   -9.316136e+01 1.854700e+02 2.021321e+02
    endloop
  endfacet
  facet normal 0.000000e+00 1.000000e+00 -0.000000e+00
    outer loop
      vertex   -9.316136e+01 1.854700e+02 2.021321e+02
      vertex   -9.319290e+01 1.854700e+02 2.021054e+02
      vertex   -9.300000e+01 1.854700e+02 2.025000e+02
    endloop
  endfacet
  facet normal 0.000000e+00 1.000000e+00 0.000000e+00
    outer loop
      vertex   -9.300000e+01 1.854700e+02 2.025000e+02
      vertex   -9.319290e+01 1.854700e+02 2.021054e+02
      vertex   -9.322653e+01 1.854700e+02 2.020814e+02
    endloop
  endfacet
  facet normal 0.000000e+00 1.000000e+00 0.000000e+00
    outer loop
      vertex   -9.300000e+01 1.854700e+02 2.025000e+02
      vertex   -9.322653e+01 1.854700e+02 2.020814e+02
      vertex   -9.326203e+01 1.854700e+02 2.020603e+02
    endloop
  endfacet
  facet normal 0.000000e+00 1.000000e+00 -0.000000e+00
    outer loop
      vertex   -9.326203e+01 1.854700e+02 2.020603e+02
      vertex   -9.329915e+01 1.854700e+02 2.020421e+02
      vertex   -9.300000e+01 1.854700e+02 2.025000e+02
    endloop
  endfacet
  facet normal 0.000000e+00 1.000000e+00 0.000000e+00
    outer loop
      vertex   -9.300000e+01 1.854700e+02 2.025000e+02
      vertex   -9.329915e+01 1.854700e+02 2.020421e+02
      vertex   -9.333765e+01 1.854700e+02 2.020271e+02
    endloop
  endfacet
  facet normal 0.000000e+00 1.000000e+00 0.000000e+00
    outer loop
      vertex   -9.300000e+01 1.854700e+02 2.025000e+02
      vertex   -9.333765e+01 1.854700e+02 2.020271e+02
      vertex   -9.337726e+01 1.854700e+02 2.020153e+02
    endloop
  endfacet
  facet normal 0.000000e+00 1.000000e+00 -0.000000e+00
    outer loop
      vertex   -9.337726e+01 1.854700e+02 2.020153e+02
      vertex   -9.341770e+01 1.854700e+02 2.020068e+02
      vertex   -9.300000e+01 1.854700e+02 2.025000e+02
    endloop
  endfacet
  facet normal 0.000000e+00 1.000000e+00 0.000000e+00
    outer loop
      vertex   -9.300000e+01 1.854700e+02 2.025000e+02
      vertex   -9.341770e+01 1.854700e+02 2.020068e+02
      vertex   -9.345871e+01 1.854700e+02 2.020017e+02
    endloop
  endfacet
  facet normal 0.000000e+00 1.000000e+00 0.000000e+00
    outer loop
      vertex   -9.300000e+01 1.854700e+02 2.025000e+02
      vertex   -9.345871e+01 1.854700e+02 2.020017e+02
      vertex   -9.350000e+01 1.854700e+02 2.020000e+02
    endloop
  endfacet
  facet normal 0.000000e+00 1.000000e+00 -0.000000e+00
    outer loop
      vertex   -9.350000e+01 1.854700e+02 2.020000e+02
      vertex   -9.850000e+01 1.854700e+02 2.020000e+02
      vertex   -9.300000e+01 1.854700e+02 2.025000e+02
    endloop
  endfacet
endsolid
