solid ASCII
  facet normal -0.000000e+00 0.000000e+00 1.000000e+00
    outer loop
      vertex   -6.772939e+01 9.982319e+02 2.443002e+02
      vertex   -6.772939e+01 9.962319e+02 2.443002e+02
      vertex   -6.572939e+01 9.982319e+02 2.443002e+02
    endloop
  endfacet
  facet normal 0.000000e+00 0.000000e+00 1.000000e+00
    outer loop
      vertex   -6.572939e+01 9.982319e+02 2.443002e+02
      vertex   -6.772939e+01 9.962319e+02 2.443002e+02
      vertex   -6.572939e+01 9.962319e+02 2.443002e+02
    endloop
  endfacet
  facet normal -0.000000e+00 -0.000000e+00 -1.000000e+00
    outer loop
      vertex   -6.572939e+01 9.982319e+02 1.603002e+02
      vertex   -6.572939e+01 9.962319e+02 1.603002e+02
      vertex   -6.772939e+01 9.982319e+02 1.603002e+02
    endloop
  endfacet
  facet normal 0.000000e+00 0.000000e+00 -1.000000e+00
    outer loop
      vertex   -6.772939e+01 9.982319e+02 1.603002e+02
      vertex   -6.572939e+01 9.962319e+02 1.603002e+02
      vertex   -6.772939e+01 9.962319e+02 1.603002e+02
    endloop
  endfacet
  facet normal 0.000000e+00 -1.000000e+00 -5.413659e-15
    outer loop
      vertex   -6.772939e+01 9.962319e+02 1.603002e+02
      vertex   -6.572939e+01 9.962319e+02 1.603002e+02
      vertex   -6.772939e+01 9.962319e+02 2.443002e+02
    endloop
  endfacet
  facet normal 0.000000e+00 -1.000000e+00 -5.413659e-15
    outer loop
      vertex   -6.772939e+01 9.962319e+02 2.443002e+02
      vertex   -6.572939e+01 9.962319e+02 1.603002e+02
      vertex   -6.572939e+01 9.962319e+02 2.443002e+02
    endloop
  endfacet
  facet normal 1.000000e+00 -0.000000e+00 5.075305e-15
    outer loop
      vertex   -6.572939e+01 9.962319e+02 1.603002e+02
      vertex   -6.572939e+01 9.982319e+02 1.603002e+02
      vertex   -6.572939e+01 9.962319e+02 2.443002e+02
    endloop
  endfacet
  facet normal 1.000000e+00 -0.000000e+00 5.075305e-15
    outer loop
      vertex   -6.572939e+01 9.962319e+02 2.443002e+02
      vertex   -6.572939e+01 9.982319e+02 1.603002e+02
      vertex   -6.572939e+01 9.982319e+02 2.443002e+02
    endloop
  endfacet
  facet normal -0.000000e+00 1.000000e+00 6.743090e-15
    outer loop
      vertex   -6.772939e+01 9.982319e+02 1.603002e+02
      vertex   -6.722939e+01 9.982319e+02 1.771600e+02
      vertex   -6.572939e+01 9.982319e+02 1.603002e+02
    endloop
  endfacet
  facet normal -7.579123e-14 1.000000e+00 0.000000e+00
    outer loop
      vertex   -6.572939e+01 9.982319e+02 1.603002e+02
      vertex   -6.722939e+01 9.982319e+02 1.771600e+02
      vertex   -6.722939e+01 9.982319e+02 1.798002e+02
    endloop
  endfacet
  facet normal 1.218073e-14 1.000000e+00 6.767074e-15
    outer loop
      vertex   -6.572939e+01 9.982319e+02 1.603002e+02
      vertex   -6.722939e+01 9.982319e+02 1.798002e+02
      vertex   -6.572939e+01 9.982319e+02 2.443002e+02
    endloop
  endfacet
  facet normal 0.000000e+00 1.000000e+00 7.050347e-15
    outer loop
      vertex   -6.572939e+01 9.982319e+02 2.443002e+02
      vertex   -6.722939e+01 9.982319e+02 1.798002e+02
      vertex   -6.772939e+01 9.982319e+02 2.443002e+02
    endloop
  endfacet
  facet normal 0.000000e+00 1.000000e+00 7.050347e-15
    outer loop
      vertex   -6.772939e+01 9.982319e+02 2.443002e+02
      vertex   -6.722939e+01 9.982319e+02 1.798002e+02
      vertex   -6.772939e+01 9.982319e+02 1.798002e+02
    endloop
  endfacet
  facet normal 0.000000e+00 1.000000e+00 6.743090e-15
    outer loop
      vertex   -6.772939e+01 9.982319e+02 1.603002e+02
      vertex   -6.772939e+01 9.982319e+02 1.771600e+02
      vertex   -6.722939e+01 9.982319e+02 1.771600e+02
    endloop
  endfacet
  facet normal -1.000000e+00 0.000000e+00 0.000000e+00
    outer loop
      vertex   -6.772939e+01 9.982319e+02 1.603002e+02
      vertex   -6.772939e+01 9.962319e+02 1.603002e+02
      vertex   -6.772939e+01 9.982319e+02 1.771600e+02
    endloop
  endfacet
  facet normal -1.000000e+00 -0.000000e+00 0.000000e+00
    outer loop
      vertex   -6.772939e+01 9.982319e+02 1.771600e+02
      vertex   -6.772939e+01 9.962319e+02 1.603002e+02
      vertex   -6.772939e+01 9.982319e+02 1.798002e+02
    endloop
  endfacet
  facet normal -1.000000e+00 0.000000e+00 0.000000e+00
    outer loop
      vertex   -6.772939e+01 9.982319e+02 1.771600e+02
      vertex   -6.772939e+01 9.982319e+02 1.798002e+02
      vertex   -6.772939e+01 1.003592e+03 1.603002e+02
    endloop
  endfacet
  facet normal -1.000000e+00 0.000000e+00 0.000000e+00
    outer loop
      vertex   -6.772939e+01 1.003592e+03 1.603002e+02
      vertex   -6.772939e+01 9.982319e+02 1.798002e+02
      vertex   -6.772939e+01 1.004432e+03 1.603002e+02
    endloop
  endfacet
  facet normal -1.000000e+00 4.948423e-14 -5.075305e-15
    outer loop
      vertex   -6.772939e+01 9.962319e+02 1.603002e+02
      vertex   -6.772939e+01 9.962319e+02 2.443002e+02
      vertex   -6.772939e+01 9.982319e+02 1.798002e+02
    endloop
  endfacet
  facet normal -1.000000e+00 0.000000e+00 -6.609700e-15
    outer loop
      vertex   -6.772939e+01 9.982319e+02 1.798002e+02
      vertex   -6.772939e+01 9.962319e+02 2.443002e+02
      vertex   -6.772939e+01 9.982319e+02 2.443002e+02
    endloop
  endfacet
  facet normal 1.000000e+00 0.000000e+00 0.000000e+00
    outer loop
      vertex   -6.722939e+01 9.982319e+02 1.798002e+02
      vertex   -6.722939e+01 9.982319e+02 1.771600e+02
      vertex   -6.722939e+01 1.004432e+03 1.603002e+02
    endloop
  endfacet
  facet normal 1.000000e+00 0.000000e+00 0.000000e+00
    outer loop
      vertex   -6.722939e+01 1.004432e+03 1.603002e+02
      vertex   -6.722939e+01 9.982319e+02 1.771600e+02
      vertex   -6.722939e+01 1.003592e+03 1.603002e+02
    endloop
  endfacet
  facet normal -0.000000e+00 9.529899e-01 3.030019e-01
    outer loop
      vertex   -6.772939e+01 1.004432e+03 1.603002e+02
      vertex   -6.772939e+01 9.982319e+02 1.798002e+02
      vertex   -6.722939e+01 1.004432e+03 1.603002e+02
    endloop
  endfacet
  facet normal 0.000000e+00 9.529899e-01 3.030019e-01
    outer loop
      vertex   -6.722939e+01 1.004432e+03 1.603002e+02
      vertex   -6.772939e+01 9.982319e+02 1.798002e+02
      vertex   -6.722939e+01 9.982319e+02 1.798002e+02
    endloop
  endfacet
  facet normal 0.000000e+00 -9.529899e-01 -3.030019e-01
    outer loop
      vertex   -6.772939e+01 9.982319e+02 1.771600e+02
      vertex   -6.772939e+01 1.003592e+03 1.603002e+02
      vertex   -6.722939e+01 9.982319e+02 1.771600e+02
    endloop
  endfacet
  facet normal -1.767177e-14 -9.529899e-01 -3.030019e-01
    outer loop
      vertex   -6.722939e+01 9.982319e+02 1.771600e+02
      vertex   -6.772939e+01 1.003592e+03 1.603002e+02
      vertex   -6.722939e+01 1.003592e+03 1.603002e+02
    endloop
  endfacet
  facet normal -5.684342e-14 0.000000e+00 -1.000000e+00
    outer loop
      vertex   -6.772939e+01 1.003592e+03 1.603002e+02
      vertex   -6.772939e+01 1.004432e+03 1.603002e+02
      vertex   -6.722939e+01 1.003592e+03 1.603002e+02
    endloop
  endfacet
  facet normal 0.000000e+00 3.385700e-14 -1.000000e+00
    outer loop
      vertex   -6.722939e+01 1.003592e+03 1.603002e+02
      vertex   -6.772939e+01 1.004432e+03 1.603002e+02
      vertex   -6.722939e+01 1.004432e+03 1.603002e+02
    endloop
  endfacet
endsolid
